<svg xmlns="http://www.w3.org/2000/svg" viewBox="0 0 721.06 179"><defs><style>.cls-1{isolation:isolate;}.cls-2{fill:#e55579;}.cls-3{fill:#306180;}.cls-4{fill:#ffd54f;}.cls-5{fill:#009789;}.cls-6{opacity:0.05;}.cls-15,.cls-6,.cls-9{mix-blend-mode:multiply;}.cls-7{fill:#6cc292;}.cls-8{fill:#66499e;}.cls-9{opacity:0.08;}.cls-10{fill:#4bb86d;}.cls-11{fill:#fbeaa6;}.cls-12{fill:#4dd0e1;}.cls-13{fill:#a9d9ed;}.cls-14{fill:#f2f2f2;}.cls-15{opacity:0.1;}.cls-16{fill:#3a7499;}.cls-17{fill:#92c8e0;}.cls-18{fill:#5c9ab8;}.cls-19{fill:#b5eaff;}</style></defs><title>3</title><g class="cls-1"><g id="Layer_1" data-name="Layer 1"><path class="cls-2" d="M715,178H6c-3.31,0-6-2.4-6-5.37V4.37C0,1.4,2.68-1,6-1H715c3.31,0,6,2.4,6,5.37V172.63C721,175.6,718.32,178,715,178Z" transform="translate(0.06 1)"/><circle class="cls-3" cx="56.71" cy="127.36" r="25.16" transform="translate(-63.3 57.5) rotate(-35.45)"/><path class="cls-4" d="M85.59,162.26c-8.06-11.32-43.63.18-63.86,14.58L0,146.32c20.23-14.4,42.73-44.25,34.67-55.57Z" transform="translate(0.06 1)"/><path class="cls-5" d="M91.49,156a4.82,4.82,0,0,1-1.13,6.72h0a4.82,4.82,0,0,1-6.72-1.13L33.13,90.71A4.82,4.82,0,0,1,34.26,84h0A4.82,4.82,0,0,1,41,85.11Z" transform="translate(0.06 1)"/><path class="cls-6" d="M2.64,144.36q-1.33,1-2.64,2l21.73,30.52q1.32-.94,2.72-1.86Z" transform="translate(0.06 1)"/><path class="cls-7" d="M144,139.51a2.88,2.88,0,0,1-3.33,2.34l-41-7.18a2.88,2.88,0,0,1-2.34-3.33h0a2.88,2.88,0,0,1,3.33-2.34l41,7.18a2.88,2.88,0,0,1,2.34,3.33Z" transform="translate(0.06 1)"/><path class="cls-7" d="M121.95,79a2.88,2.88,0,0,1-.48,4L88.72,108.75a2.88,2.88,0,0,1-4-.48h0a2.88,2.88,0,0,1,.48-4l32.74-25.68a2.88,2.88,0,0,1,4,.48Z" transform="translate(0.06 1)"/><path class="cls-7" d="M77.11,38.95a2.88,2.88,0,0,0-3.62,1.86L61,81.28a2.88,2.88,0,0,0,1.86,3.62h0A2.88,2.88,0,0,0,66.47,83L79,42.57a2.88,2.88,0,0,0-1.86-3.62Z" transform="translate(0.06 1)"/><path class="cls-8" d="M196.42,145.59a4,4,0,0,0,3,4.76l79.47,18a4,4,0,0,0,4.76-3h0a4,4,0,0,0-3-4.76l-79.47-18a4,4,0,0,0-4.76,3Z" transform="translate(0.06 1)"/><path class="cls-9" d="M196.42,145.59h0a4,4,0,0,0,3,4.76l79.47,18a4,4,0,0,0,4.76-3h0Z" transform="translate(0.06 1)"/><rect class="cls-10" x="265.25" y="135.91" width="19.78" height="15.22" transform="translate(74.32 381.06) rotate(-77.21)"/><rect class="cls-11" x="228.39" y="130.03" width="13.54" height="15.22" transform="translate(48.92 337.49) rotate(-77.21)"/><rect class="cls-12" x="237.8" y="121.68" width="39.82" height="15.23" transform="translate(74.63 352.99) rotate(-77.21)"/><rect class="cls-13" x="203.16" y="118.58" width="27.87" height="15.22" transform="translate(46.03 310.97) rotate(-77.21)"/><rect class="cls-9" x="261.54" y="138.88" width="19.78" height="7.61" transform="translate(72.26 376.78) rotate(-77.21)"/><rect class="cls-9" x="224.68" y="133" width="13.54" height="7.61" transform="translate(46.86 333.22) rotate(-77.21)"/><rect class="cls-9" x="234.09" y="124.64" width="39.82" height="7.61" transform="translate(72.56 348.71) rotate(-77.21)"/><rect class="cls-9" x="199.45" y="121.55" width="27.87" height="7.61" transform="matrix(0.22, -0.98, 0.98, 0.22, 43.96, 306.69)"/><ellipse class="cls-14" cx="13.69" cy="66.97" rx="2.37" ry="5.88" transform="translate(-50.9 45.79) rotate(-59.51)"/><rect class="cls-3" x="1.67" y="39.96" width="48.92" height="11.77" transform="translate(-26.57 46.11) rotate(-59.51)"/><polygon class="cls-15" points="33.53 22.78 8.71 64.94 11.61 66.64 36.41 24.49 33.53 22.78"/><polygon class="cls-16" points="40.83 27.1 15.96 69.21 18.85 70.91 43.67 28.75 40.83 27.1"/><polygon class="cls-14" points="33.53 22.78 44.46 16.52 43.67 28.75 33.53 22.78"/><polygon class="cls-16" points="40.53 18.77 44.46 16.52 44.18 20.92 40.53 18.77"/><circle class="cls-3" cx="301.18" cy="46.78" r="26.7"/><circle class="cls-14" cx="301.18" cy="46.78" r="22.53"/><circle class="cls-3" cx="301.18" cy="46.78" r="2.28"/><path class="cls-3" d="M299.14,46.65a1.79,1.79,0,0,0,2.53,0h0a1.79,1.79,0,0,0,0-2.53L290.86,33.3a1.79,1.79,0,0,0-2.53,0h0a1.79,1.79,0,0,0,0,2.53Z" transform="translate(0.06 1)"/><path class="cls-3" d="M310,39.41a1.79,1.79,0,0,0,0-2.53h0a1.79,1.79,0,0,0-2.53,0l-7.23,7.23a1.79,1.79,0,0,0,0,2.53h0a1.79,1.79,0,0,0,2.53,0Z" transform="translate(0.06 1)"/><path class="cls-3" d="M300.15,28.36a1,1,0,0,0,1,1h0a1,1,0,0,0,1-1V25.77a1,1,0,0,0-1-1h0a1,1,0,0,0-1,1Z" transform="translate(0.06 1)"/><path class="cls-3" d="M300.15,65.12a1,1,0,0,0,1,1h0a1,1,0,0,0,1-1V62.53a1,1,0,0,0-1-1h0a1,1,0,0,0-1,1Z" transform="translate(0.06 1)"/><path class="cls-3" d="M284,46.42a1,1,0,0,0,1-1h0a1,1,0,0,0-1-1h-2.59a1,1,0,0,0-1,1h0a1,1,0,0,0,1,1Z" transform="translate(0.06 1)"/><path class="cls-3" d="M320.8,46.42a1,1,0,0,0,1-1h0a1,1,0,0,0-1-1H318.2a1,1,0,0,0-1,1h0a1,1,0,0,0,1,1Z" transform="translate(0.06 1)"/><path class="cls-9" d="M301.12,19.08a26.7,26.7,0,1,0,0,53.4Z" transform="translate(0.06 1)"/><path class="cls-4" d="M216.56,66.65c0,8.62,15.61,32.2,15.61,32.2s15.61-23.58,15.61-32.2a15.61,15.61,0,1,0-31.22,0Zm9.27,0A6.34,6.34,0,1,1,232.17,73,6.34,6.34,0,0,1,225.83,66.65Z" transform="translate(0.06 1)"/><path class="cls-17" d="M158,78.83l47.28-32.61a3.73,3.73,0,0,0,1-5.18L187.32,13.61a3.73,3.73,0,0,0-5.18-1L134.86,45.27a3.73,3.73,0,0,0-1,5.18l18.92,27.43A3.73,3.73,0,0,0,158,78.83Z" transform="translate(0.06 1)"/><path class="cls-18" d="M206.24,41a3.72,3.72,0,0,1-1,5.18L158,78.83a3.72,3.72,0,0,1-5.18-1l16.24-33.6Z" transform="translate(0.06 1)"/><polyline class="cls-17" points="189.38 17.5 174.39 52.92 135.97 54.35"/><path class="cls-19" d="M133.91,50.45a3.73,3.73,0,0,1,1-5.18l47.28-32.61a3.73,3.73,0,0,1,5.18,1L172.24,48.89Z" transform="translate(0.06 1)"/><path class="cls-9" d="M134.86,45.27,158.5,29l23.15,33.56L158,78.83a3.73,3.73,0,0,1-5.18-1L133.91,50.45A3.73,3.73,0,0,1,134.86,45.27Z" transform="translate(0.06 1)"/><path class="cls-5" d="M-.06,146.4v25.93a5,5,0,0,0,4.24,4.52H21.73L0,146.32Z" transform="translate(0.06 1)"/></g></g></svg>