<svg id="Layer_1" data-name="Layer 1" xmlns="http://www.w3.org/2000/svg" viewBox="0 0 275 181"><defs><style>.cls-1{fill:#1d8093;}.cls-2{fill:#e5e5e5;}.cls-3{fill:#ecf0f1;}.cls-4{fill:#34495e;}.cls-5{fill:#ff614f;}.cls-6{fill:#84e570;}.cls-7{fill:#7d57ff;}.cls-8{fill:#e2e1e0;}.cls-9{fill:#e77f26;}.cls-10{opacity:0.5;}.cls-11{fill:#0061fa;opacity:0.06;}.cls-12{fill:#e55579;}.cls-13{fill:#0051c4;}.cls-14{fill:#e46400;}.cls-15{fill:#c0003b;}.cls-16{fill:#4dd0e1;}.cls-17{fill:#0a4e7c;}.cls-18{fill:#ff1a2c;}.cls-19{fill:#ff2c4d;}.cls-20{fill:#ffd74c;}.cls-21{opacity:0.2;}</style></defs><title>2</title><rect class="cls-1" width="275" height="181" rx="5" ry="5"/><g id="Line"><path class="cls-2" d="M58.52,126.1l-.27,1.29s.94.2,1.89.37l1.31.21.61.08.15-1.31-.57-.08-1.27-.2C59.44,126.3,58.52,126.1,58.52,126.1Z" transform="translate(0 1)"/><path class="cls-2" d="M53.11,124.66l-.41,1.25.57.19c.35.1.81.25,1.27.38.93.27,1.86.5,1.86.5l.32-1.28s-.91-.22-1.82-.48c-.45-.12-.9-.27-1.24-.37Z" transform="translate(0 1)"/><path class="cls-2" d="M47.93,122.6l-.57,1.19.55.26c.33.14.77.35,1.22.53s.89.37,1.23.5l.56.21.46-1.23-.55-.21c-.33-.12-.76-.3-1.2-.48s-.86-.38-1.18-.52Z" transform="translate(0 1)"/><path class="cls-2" d="M43.21,119.81l-.86,1,.14.1.36.26.52.36.61.39.61.38.55.32.38.22.15.08.63-1.15-.14-.08-.36-.21-.51-.29-.57-.36-.56-.36-.48-.34-.34-.24Z" transform="translate(0 1)"/><path class="cls-2" d="M39.33,116l-1.15.7.38.49c.22.3.56.65.88,1s.7.7,1,1,.25.23.33.3l.13.11,1-.91-.12-.1c-.07-.07-.19-.15-.31-.28s-.58-.55-.89-.89-.62-.67-.83-.95Z" transform="translate(0 1)"/><path class="cls-2" d="M37,111.14l-1.32.32.15.6c.12.35.28.82.46,1.27l.3.66a6.15,6.15,0,0,0,.27.57l.3.54,1.22-.58-.28-.5a5.16,5.16,0,0,1-.26-.53l-.28-.61c-.17-.43-.31-.86-.43-1.18Z" transform="translate(0 1)"/><path class="cls-2" d="M36.82,105.74l-1.34-.09-.1.61c0,.09,0,.19,0,.29l0,.33-.06.72c0,.25,0,.49,0,.72v.33c0,.1,0,.21,0,.3l0,.61,1.34-.19,0-.57c0-.09,0-.18,0-.28s0-.2,0-.31,0-.44,0-.67l.06-.67,0-.31c0-.1,0-.19,0-.27Z" transform="translate(0 1)"/><path class="cls-2" d="M38.58,100.59l-1.22-.49s-.11.22-.25.56-.35.79-.52,1.25-.34.93-.46,1.27c-.06.17-.1.32-.13.43l0,.16,1.32.22,0-.15c0-.1.07-.23.13-.4.12-.32.26-.76.43-1.18s.35-.85.49-1.16S38.58,100.59,38.58,100.59Z" transform="translate(0 1)"/><path class="cls-2" d="M41.11,95.57,39.92,95l-.26.52-.6,1.16-.87,1.7,1.18.59Z" transform="translate(0 1)"/><path class="cls-2" d="M43.33,90.13,42,90s-.05.22-.16.55l-.18.56-.24.63c-.16.43-.35.85-.48,1.17l-.24.52,1.24.45.26-.56c.14-.34.34-.79.51-1.26l.25-.68.19-.6C43.28,90.37,43.33,90.13,43.33,90.13Z" transform="translate(0 1)"/><path class="cls-2" d="M43.44,84.33l-1.33.23a3.43,3.43,0,0,1,.13.56l.11.58.06.67a5.15,5.15,0,0,1,0,.67,5.7,5.7,0,0,1,0,.59l-.06.57,1.34,0,.06-.61c0-.18,0-.4,0-.63a5.69,5.69,0,0,0,0-.72l-.06-.72-.12-.62A3.75,3.75,0,0,0,43.44,84.33Z" transform="translate(0 1)"/><path class="cls-2" d="M40.82,79.08l-1.16.62c.13.24.25.48.39.71.48.82,1,1.64,1.43,2.48l1.29-.36c-.47-.91-1-1.79-1.52-2.68C41.09,79.6,41,79.33,40.82,79.08Z" transform="translate(0 1)"/><path class="cls-2" d="M38.5,74l-1.24.45.21.57c.12.35.32.79.51,1.23l.28.65.27.56.26.54L40,77.44l-.25-.53-.26-.54-.27-.63c-.18-.43-.37-.86-.49-1.19Z" transform="translate(0 1)"/><path class="cls-2" d="M37.29,68.71,36,68.77s0,.06,0,.17l0,.45c0,.19,0,.4.08.63s.07.48.11.72c.1.48.19,1,.3,1.32l.16.59,1.27-.36-.15-.56c-.1-.33-.18-.78-.28-1.23,0-.23-.07-.45-.11-.66s-.06-.41-.07-.58l0-.41Z" transform="translate(0 1)"/></g><path class="cls-3" d="M65,167.31a2,2,0,0,1-2.73-.53L38.49,128.19a2,2,0,0,1,.76-2.68l31-19.09A2,2,0,0,1,73,107l23.75,38.59a2,2,0,0,1-.76,2.68Z" transform="translate(0 1)"/><path class="cls-4" d="M96.74,145.55,73,107a2,2,0,0,0-2.73-.53l-6.77,4.17,25.72,41.8L96,148.22A2,2,0,0,0,96.74,145.55Z" transform="translate(0 1)"/><ellipse class="cls-5" cx="91.6" cy="140.67" rx="1.03" ry="0.94" transform="translate(-60.14 69.88) rotate(-31.61)"/><ellipse class="cls-6" cx="93.23" cy="143.32" rx="1.03" ry="0.94" transform="translate(-61.29 71.13) rotate(-31.61)"/><ellipse class="cls-7" cx="94.93" cy="146.08" rx="1.03" ry="0.94" transform="translate(-62.48 72.43) rotate(-31.61)"/><path class="cls-8" d="M88.41,138.52a1.53,1.53,0,0,1-2.12-.41l-15-24.43a1.53,1.53,0,0,1,.59-2.07h0A1.53,1.53,0,0,1,74,112l15,24.43a1.53,1.53,0,0,1-.59,2.07Z" transform="translate(0 1)"/><rect class="cls-9" x="55.85" y="115.72" width="16.18" height="29.27" transform="translate(-58.84 53.85) rotate(-31.61)"/><rect class="cls-10" x="55.71" y="121.18" width="2.96" height="44.27" transform="translate(-66.63 52.24) rotate(-31.61)"/><rect class="cls-10" x="52.01" y="123.42" width="2.96" height="44.27" transform="translate(-68.36 50.63) rotate(-31.61)"/><path class="cls-11" d="M96.74,145.55,84.88,126.27l-34.5,21.23,11.86,19.27a2,2,0,0,0,2.73.53l31-19.09A2,2,0,0,0,96.74,145.55Z" transform="translate(0 1)"/><path class="cls-12" d="M31.71,10.44s-19,19.74-5.1,44.79l9.13-.84,9.13-.84C54,26.4,31.71,10.44,31.71,10.44Z" transform="translate(0 1)"/><path class="cls-13" d="M36.43,54.32l-.2,0-9.61.88s2.72,2.88,4.83,3.34l5.13-.47.2,0,4.48-.41c1.74-.81,3.59-4.11,3.59-4.11Z" transform="translate(0 1)"/><rect class="cls-14" x="31.43" y="58.13" width="9.53" height="2.76" transform="translate(-5.28 4.55) rotate(-5.24)"/><rect class="cls-15" x="32.62" y="60.88" width="7.53" height="1.29" transform="translate(-5.47 4.58) rotate(-5.24)"/><polygon class="cls-16" points="23.95 41.93 15.67 56.07 28.67 54.42 23.95 41.93"/><polygon class="cls-16" points="43.97 39.17 54.68 51.57 41.59 52.31 43.97 39.17"/><path class="cls-17" d="M38.15,16.77a38,38,0,0,0-6.44-6.33,38,38,0,0,0-5.18,7.4Z" transform="translate(0 1)"/><polygon class="cls-18" points="37.44 74.1 40.1 68.34 42.75 62.59 36.44 63.17 30.13 63.75 33.79 68.92 37.44 74.1"/><polygon class="cls-19" points="37 70.85 38.97 66.81 40.95 62.76 36.29 63.19 31.64 63.61 34.32 67.23 37 70.85"/><polygon class="cls-20" points="36.57 66.85 37.98 64.88 39.4 62.9 36.23 63.19 33.06 63.48 34.81 65.17 36.57 66.85"/><path class="cls-21" d="M38.15,16.77h0A39.82,39.82,0,0,0,32,10.67h0l-.26-.19h0l0,0,0,0h0l-.11.12,5.71,62.26.17.24,2.65-5.75,2.65-5.75-1.8.17-.76.07-.12-1.29,1-.09-.25-2.75.43,0c1.74-.81,3.59-4.11,3.59-4.11h0q.42-1.25.75-2.47l9.06-.51L47,41.72A37.68,37.68,0,0,0,38.15,16.77Z" transform="translate(0 1)"/></svg>