<svg xmlns="http://www.w3.org/2000/svg" xmlns:xlink="http://www.w3.org/1999/xlink" viewBox="0 0 1292.31 894.59"><defs><style>.cls-1{fill:none;}.cls-2{isolation:isolate;}.cls-3{fill:#ebab48;}.cls-4{fill:#ff8154;}.cls-5{fill:#cf6845;}.cls-6{fill:#ffe7de;}.cls-7{fill:#a6a6a6;}.cls-8{fill:#fff;}.cls-9{fill:#c7c7c7;}.cls-10{fill:#999;}.cls-11{font-size:31.82px;font-family:MyriadPro-Bold, MyriadPro Bold;font-weight:700;}.cls-12{clip-path:url(#clip-path);}.cls-13{fill:#f2d29d;}.cls-14{fill:#e3c593;}.cls-15{fill:#edcd99;}.cls-16{fill:#ffdca4;}.cls-17{fill:#5e523d;}.cls-18{fill:#d6d6d6;}.cls-19{fill:#e0724a;}.cls-20{fill:#f0f0f0;}.cls-21{fill:#4b5669;}.cls-22{fill:#616f87;}.cls-23{fill:#bf613f;}.cls-24{opacity:0.07;mix-blend-mode:multiply;}</style><clipPath id="clip-path" transform="translate(-263.63 -54.65)"><path class="cls-1" d="M1179.73,436.74c0-144.7-117.3-262-262-262s-262,117.3-262,262A262.86,262.86,0,0,0,662,494a262.86,262.86,0,0,0-6.29,57.22c0,144.7,117.3,262,262,262s262-117.3,262-262a262.87,262.87,0,0,0-6.29-57.22A262.87,262.87,0,0,0,1179.73,436.74Z"/></clipPath></defs><title>banner</title><g class="cls-2"><g id="Layer_1" data-name="Layer 1"><path class="cls-3" d="M264.5,359.66c-6.19-28.6,21.3-58.82,61.4-67.5s77.63,7.46,83.83,36.05-21.3,58.82-61.4,67.5a100.48,100.48,0,0,1-28.62,2.09l-21.94,17.63,4.47-20.73C282.7,389,268.16,376.51,264.5,359.66Z" transform="translate(-263.63 -54.65)"/><path class="cls-4" d="M445.66,298.62c-6.19-28.6-43.72-44.74-83.83-36.05s-67.59,38.91-61.4,67.5,43.72,44.74,83.82,36.05a100.49,100.49,0,0,0,26.92-9.94l27.27,7-12.64-17C441.25,332.89,449.31,315.47,445.66,298.62Z" transform="translate(-263.63 -54.65)"/><path class="cls-3" d="M305.26,651.32a69.61,69.61,0,1,0,94.1,28.93A69.69,69.69,0,0,0,305.26,651.32Zm85,29.21L370.11,691.2c-11.1-19.51-25.72-33.59-39.64-39.5A61.7,61.7,0,0,1,390.26,680.53Zm-84.53-19.74,26.69,50.38-23.51,12.45C296.24,697.61,295,670.87,305.73,660.79Zm30.44,57.47,26.69,50.38c-14.35,3.18-35.79-12.83-50.19-37.93Zm33.77,46.63L343.26,714.5,366.77,702C379.44,728.06,380.64,754.8,369.95,764.88Zm-30.44-57.47L312.82,657c14.35-3.18,35.79,12.83,50.19,37.93Zm-48.1-35c-2.93,14.84.51,34.84,10.41,55l-20.15,10.67A61.7,61.7,0,0,1,291.41,672.39Zm-6,72.75,20.15-10.67c11.1,19.51,25.72,33.59,39.64,39.5A61.7,61.7,0,0,1,285.42,745.14Zm98.86,8.13c2.93-14.84-.51-34.84-10.41-55L394,687.61A61.7,61.7,0,0,1,384.28,753.27Z" transform="translate(-263.63 -54.65)"/><rect class="cls-5" x="1425.98" y="610.72" width="112.58" height="143.13" rx="8.64" ry="8.64" transform="translate(26.33 -486.38) rotate(18.34)"/><path class="cls-4" d="M1502.53,738.83,1539.93,626l-76.58-25.39a12.63,12.63,0,0,0-16,8l-37.09,111.88a12.63,12.63,0,0,0,8,16L1501.19,764a12.63,12.63,0,0,0,16-8l3.66-11Z" transform="translate(-263.63 -54.65)"/><path class="cls-5" d="M1450.89,624.08l-15.56-5.16a3.27,3.27,0,0,1-2.08-4.13h0a3.27,3.27,0,0,1,4.13-2.08l15.56,5.16A3.27,3.27,0,0,1,1455,622h0A3.27,3.27,0,0,1,1450.89,624.08Z" transform="translate(-263.63 -54.65)"/><path class="cls-5" d="M1446.52,637.27,1431,632.12a3.27,3.27,0,0,1-2.07-4.13h0a3.27,3.27,0,0,1,4.13-2.08l15.56,5.16a3.27,3.27,0,0,1,2.08,4.13h0A3.27,3.27,0,0,1,1446.52,637.27Z" transform="translate(-263.63 -54.65)"/><path class="cls-5" d="M1442.15,650.47l-15.56-5.16a3.27,3.27,0,0,1-2.08-4.13h0a3.27,3.27,0,0,1,4.13-2.08l15.56,5.16a3.27,3.27,0,0,1,2.08,4.13h0A3.27,3.27,0,0,1,1442.15,650.47Z" transform="translate(-263.63 -54.65)"/><path class="cls-5" d="M1437.78,663.66l-15.56-5.16a3.27,3.27,0,0,1-2.08-4.13h0a3.27,3.27,0,0,1,4.13-2.08l15.56,5.16a3.27,3.27,0,0,1,2.08,4.13h0A3.27,3.27,0,0,1,1437.78,663.66Z" transform="translate(-263.63 -54.65)"/><path class="cls-5" d="M1433.4,676.85l-15.56-5.16a3.27,3.27,0,0,1-2.08-4.13h0a3.27,3.27,0,0,1,4.13-2.08l15.56,5.16a3.27,3.27,0,0,1,2.08,4.13h0A3.27,3.27,0,0,1,1433.4,676.85Z" transform="translate(-263.63 -54.65)"/><path class="cls-5" d="M1429,690l-15.56-5.16a3.27,3.27,0,0,1-2.08-4.13h0a3.27,3.27,0,0,1,4.13-2.08l15.56,5.16a3.27,3.27,0,0,1,2.08,4.13h0A3.27,3.27,0,0,1,1429,690Z" transform="translate(-263.63 -54.65)"/><path class="cls-5" d="M1424.66,703.24l-15.56-5.16a3.27,3.27,0,0,1-2.08-4.13h0a3.27,3.27,0,0,1,4.13-2.08l15.56,5.16a3.27,3.27,0,0,1,2.08,4.13h0A3.27,3.27,0,0,1,1424.66,703.24Z" transform="translate(-263.63 -54.65)"/><path class="cls-5" d="M1420.28,716.43l-15.56-5.16a3.27,3.27,0,0,1-2.08-4.13h0a3.27,3.27,0,0,1,4.13-2.08l15.56,5.16a3.27,3.27,0,0,1,2.08,4.13h0A3.27,3.27,0,0,1,1420.28,716.43Z" transform="translate(-263.63 -54.65)"/><path class="cls-5" d="M1493.37,717.42h0S1493.38,717.47,1493.37,717.42Z" transform="translate(-263.63 -54.65)"/><path class="cls-5" d="M1478.77,644.59c0-.06,0,0,0,0Z" transform="translate(-263.63 -54.65)"/><path class="cls-6" d="M1461.35,651.2c-4,5.21-5.41,12.09-5.1,18.67A63.3,63.3,0,0,0,1458.5,683a58.55,58.55,0,0,1,1.37,6.82,63.29,63.29,0,0,0,3,13c2.25,6.19,6.17,12,11.9,15.26s13.41,3.43,18.61-.6c0-.05-.08-.15-.06-.05l-3.79-18.93a14.64,14.64,0,0,0-9.66.42,54.44,54.44,0,0,1-6.4-31.95,14.64,14.64,0,0,0,9.08-3.33l-3.79-18.93c0,.1,0,0,0-.07C1472.4,642.86,1465.38,646,1461.35,651.2Z" transform="translate(-263.63 -54.65)"/><path class="cls-3" d="M740.11,102.55l0,0S740.18,102.5,740.11,102.55Z" transform="translate(-263.63 -54.65)"/><path class="cls-3" d="M653.85,159.84c-.07,0,0,0,0,0Z" transform="translate(-263.63 -54.65)"/><path class="cls-3" d="M671.59,178.82c8.85,2.46,18.45.6,26.78-3.27a88.23,88.23,0,0,0,15.73-9.83,81.63,81.63,0,0,1,8.07-5.36,88.23,88.23,0,0,0,15.16-10.69c6.8-6.17,12.24-14.3,13.4-23.41s-2.65-19.12-10.6-23.69c0,.07-.16.18,0,.1l-22.42,14.89c.4,4.84,2.44,8.6,5.65,12.24a65.3,65.3,0,0,1-17,15.46,65.3,65.3,0,0,1-20.84,9.67c-2.11-4.37-4.79-7.71-9.09-10L654,159.87c.12-.08,0,0-.11,0C655,169,662.75,176.37,671.59,178.82Z" transform="translate(-263.63 -54.65)"/><path class="cls-3" d="M733.45,93.49a4.08,4.08,0,0,1-5.67-1,47.51,47.51,0,1,0-78.19,54,4.08,4.08,0,0,1-6.71,4.64,55.67,55.67,0,1,1,91.61-63.28A4.08,4.08,0,0,1,733.45,93.49Z" transform="translate(-263.63 -54.65)"/><path class="cls-3" d="M720,102.77a4.08,4.08,0,0,1-5.67-1A31.2,31.2,0,1,0,663,137.19a4.08,4.08,0,1,1-6.71,4.64,39.36,39.36,0,1,1,64.76-44.74A4.08,4.08,0,0,1,720,102.77Z" transform="translate(-263.63 -54.65)"/><path class="cls-3" d="M708.27,110.88a4.08,4.08,0,0,1-5.67-1,16.92,16.92,0,1,0-27.84,19.23,4.08,4.08,0,0,1-6.71,4.64,25.08,25.08,0,1,1,41.27-28.51A4.08,4.08,0,0,1,708.27,110.88Z" transform="translate(-263.63 -54.65)"/><rect class="cls-7" x="1191.54" y="69.28" width="92.61" height="157.88" rx="9.26" ry="9.26" transform="translate(-255.09 301.03) rotate(-16.41)"/><rect class="cls-8" x="1189.48" y="62.28" width="92.61" height="157.88" rx="9.26" ry="9.26" transform="translate(-253.2 300.16) rotate(-16.41)"/><rect class="cls-9" x="1195.34" y="80.91" width="80.9" height="120.63" transform="translate(-253.2 300.16) rotate(-16.41)"/><circle class="cls-9" cx="1255.58" cy="208.43" r="6.12" transform="translate(-271.38 308.5) rotate(-16.41)"/><polygon class="cls-3" points="834.75 829.97 876.88 759.93 873 751.72 750.02 809.82 753.9 818.03 834.75 829.97"/><polygon class="cls-3" points="837.31 835.39 756.46 823.45 790.07 894.59 913.05 836.5 879.44 765.35 837.31 835.39"/><path class="cls-3" d="M1466.32,304.07l-.61.76a40,40,0,0,0-5.54,9.55l4.43,4.19a34.31,34.31,0,0,0-1.73,9.43l-5.61,2.91a40.23,40.23,0,0,0,2,11.16l6.11.36a34.19,34.19,0,0,0,5.5,9.14l-2.38,5.73a40.2,40.2,0,0,0,8.73,6.82l5-3.7a34.19,34.19,0,0,0,10.2,3.12l1.83,5.84a40.24,40.24,0,0,0,11.32-.76l1.46-6.15a34.31,34.31,0,0,0,8.73-4l5.14,3.28a40,40,0,0,0,7.92-7.69l.59-.77-2.88-5.74a34.21,34.21,0,0,0,3.38-7.19l6.09-.79a40,40,0,0,0,1.22-12.65l-5.9-2.55a34.58,34.58,0,0,0-1.56-6.32l4.22-4.6a39.74,39.74,0,0,0-7.16-11l-6.1,1.82q-1.08-1-2.27-1.93T1516,300.6l.29-6.35a39.74,39.74,0,0,0-12.44-4.27l-3.43,5.21a34.56,34.56,0,0,0-6.51,0l-3.91-5.11a40,40,0,0,0-12,4.25l.71,6.1a34.21,34.21,0,0,0-6.15,5Zm45.69,6.49a24,24,0,1,1-33.65,4.14A24,24,0,0,1,1512,310.55Z" transform="translate(-263.63 -54.65)"/><path class="cls-3" d="M1384.43,320.62l-.61.76a40.05,40.05,0,0,0-5.54,9.55l4.43,4.19a34.31,34.31,0,0,0-1.73,9.43l-5.61,2.91a40.24,40.24,0,0,0,2,11.16l6.11.36a34.19,34.19,0,0,0,5.5,9.14l-2.38,5.73a40.21,40.21,0,0,0,8.73,6.82l5-3.7a34.18,34.18,0,0,0,10.2,3.12l1.83,5.84a40.24,40.24,0,0,0,11.32-.76l1.46-6.15a34.31,34.31,0,0,0,8.73-4l5.14,3.28a40,40,0,0,0,7.92-7.69l.59-.77-2.88-5.74a34.2,34.2,0,0,0,3.38-7.19l6.09-.79a40,40,0,0,0,1.22-12.65l-5.9-2.55a34.56,34.56,0,0,0-1.56-6.32l4.22-4.6a39.75,39.75,0,0,0-7.16-11l-6.1,1.82q-1.08-1-2.27-1.93t-2.42-1.73l.29-6.35a39.74,39.74,0,0,0-12.44-4.27l-3.43,5.21a34.55,34.55,0,0,0-6.51,0l-3.91-5.11a40,40,0,0,0-12,4.25l.71,6.1a34.21,34.21,0,0,0-6.15,5Zm45.69,6.49a24,24,0,1,1-33.65,4.14A24,24,0,0,1,1430.12,327.11Z" transform="translate(-263.63 -54.65)"/><path class="cls-3" d="M1470.12,387.52l-.61.76a40,40,0,0,0-5.54,9.55l4.43,4.19a34.31,34.31,0,0,0-1.73,9.43l-5.61,2.91a40.24,40.24,0,0,0,2,11.16l6.11.36a34.19,34.19,0,0,0,5.5,9.14l-2.38,5.73a40.2,40.2,0,0,0,8.73,6.82l5-3.7a34.19,34.19,0,0,0,10.2,3.12l1.83,5.84a40.23,40.23,0,0,0,11.32-.76l1.46-6.15a34.31,34.31,0,0,0,8.73-4l5.14,3.28a40.05,40.05,0,0,0,7.92-7.69l.59-.77-2.88-5.74a34.2,34.2,0,0,0,3.38-7.19l6.09-.79A40,40,0,0,0,1541,410.4l-5.9-2.55a34.56,34.56,0,0,0-1.56-6.32l4.22-4.6a39.75,39.75,0,0,0-7.16-11l-6.1,1.82q-1.08-1-2.27-1.93t-2.42-1.73l.29-6.35a39.75,39.75,0,0,0-12.44-4.27l-3.43,5.21a34.57,34.57,0,0,0-6.51,0l-3.91-5.11a40,40,0,0,0-12,4.25l.71,6.1a34.21,34.21,0,0,0-6.15,5Zm45.69,6.49a24,24,0,1,1-33.65,4.14A24,24,0,0,1,1515.82,394Z" transform="translate(-263.63 -54.65)"/><path class="cls-3" d="M587.57,574.43h0a31.08,31.08,0,0,0-26.92,46.62l26.92,46.62,26.92-46.62A31.08,31.08,0,0,0,587.57,574.43ZM607.49,617h0a23,23,0,0,1-39.84,0h0a23,23,0,0,1,19.92-34.5h0A23,23,0,0,1,607.49,617Z" transform="translate(-263.63 -54.65)"/><circle class="cls-4" cx="674.99" cy="858.41" r="77.76" transform="translate(-581.69 1258) rotate(-76.4)"/><circle class="cls-8" cx="674.99" cy="858.41" r="64.9" transform="translate(-581.69 1258) rotate(-76.4)"/><path class="cls-10" d="M625.43,846.42l.06-.21-8.3-2-.06.21a60.11,60.11,0,0,0-1.17,6.37l8.37,2A51.43,51.43,0,0,1,625.43,846.42Z" transform="translate(-263.63 -54.65)"/><path class="cls-10" d="M724.55,870.4a51.42,51.42,0,0,1-1.93,6.18l8.37,2a60.16,60.16,0,0,0,1.87-6.2l0-.22-8.3-2Z" transform="translate(-263.63 -54.65)"/><path class="cls-10" d="M685.51,799.83l-2,8.32c1.16.2,2.32.42,3.48.7s2,.53,3,.84l2-8.32q-1.5-.45-3-.82C687.83,800.27,686.67,800,685.51,799.83Z" transform="translate(-263.63 -54.65)"/><path class="cls-10" d="M664.06,916.93l2-8.32c-1-.18-2-.39-3.08-.64s-2.29-.61-3.42-1l-2,8.32c1.13.34,2.26.66,3.42.94S663,916.74,664.06,916.93Z" transform="translate(-263.63 -54.65)"/><text class="cls-11" transform="translate(378.98 804.86) rotate(11.19)">24/7</text><polygon class="cls-3" points="1098.65 472.81 1099.36 431.35 1089.57 436.78 1075.77 411.91 1059.09 421.17 1072.89 446.04 1063.1 451.47 1098.65 472.81"/><polygon class="cls-3" points="1024.44 394.87 1059.99 416.21 1050.2 421.64 1064 446.51 1047.31 455.76 1033.52 430.89 1023.73 436.32 1024.44 394.87"/><g class="cls-12"><rect class="cls-13" x="580.21" y="425.04" width="147.78" height="169.87"/><path class="cls-14" d="M843.84,574.26a74.55,74.55,0,0,0,15.54,12.6l41.73,25.36a74.64,74.64,0,0,0,77.51,0l13-7.9V479.69H843.84Z" transform="translate(-263.63 -54.65)"/><path class="cls-15" d="M824.42,500c-13.68-4.8-20.88-20.17-26.64-34.09-5.31-12.83-10.69-26-11.78-39.9-.49-6.28.25-13.4,4.84-17.44,3.57-3.14,8.74-3.61,13.25-2.4s8.53,3.86,12.47,6.47C841.09,428.92,836.58,472.24,824.42,500Z" transform="translate(-263.63 -54.65)"/><path class="cls-15" d="M1017.91,497.31c13.68-4.81,20.88-20.17,26.64-34.09,5.31-12.83,10.69-26,11.78-39.9.49-6.28-.25-13.4-4.84-17.44-3.57-3.14-8.74-3.61-13.25-2.4s-8.53,3.86-12.47,6.47C1001.24,426.25,1005.75,469.56,1017.91,497.31Z" transform="translate(-263.63 -54.65)"/><path class="cls-16" d="M997.24,563l-39.62,25.36a67.8,67.8,0,0,1-73.58,0L844.42,563c-21.15-13.54-34.06-37.72-34.06-63.79V342.33H1031.3V499.17C1031.3,525.24,1018.39,549.42,997.24,563Z" transform="translate(-263.63 -54.65)"/><path class="cls-17" d="M1028.41,463.53c-.87-17.8-5.65-36.52-10-53.74C956.56,407,897.24,387.59,844.3,353.85a170.16,170.16,0,0,1-16.57,70.72c-6.38,13.3-14.78,27-13.08,41.77-6.09-13.57-11.11-26-17.2-39.54-7.18-16-14.4-32.14-18.26-49.36s-4.14-35.83,2.35-52.14c7.62-19.14,24.73-33.76,44.08-37.68,12.88-23.13,36.22-40.62,60.77-47.74s50.55-6.59,75.83-3.41c30.43,3.82,63.1,13.2,81.07,39.34,12.63,18.37,15.81,42.14,15.68,64.82C1058.74,383.61,1048.63,426.21,1028.41,463.53Z" transform="translate(-263.63 -54.65)"/><path class="cls-18" d="M917.73,638.36l-73.79-39.2-21.23,19.6-59.24,25.39A134.69,134.69,0,0,0,689,724.49l-11.9,87h240.6Z" transform="translate(-263.63 -54.65)"/><path class="cls-18" d="M917.73,638.36l73.79-39.2,21.23,19.6L1072,644.15a134.69,134.69,0,0,1,74.43,80.34l11.9,87H917.73Z" transform="translate(-263.63 -54.65)"/><polygon class="cls-19" points="654.1 599.59 617.76 735.69 624.99 756.84 683.2 756.84 690.52 735.45 654.1 599.59"/><path class="cls-4" d="M911.49,697.33l-24.27-42a7.2,7.2,0,0,1,6.24-10.81H942a7.2,7.2,0,0,1,6.24,10.81l-24.27,42A7.2,7.2,0,0,1,911.49,697.33Z" transform="translate(-263.63 -54.65)"/><polygon class="cls-20" points="749.12 564.11 773.17 574.41 721.35 678.44 654.1 583.71 727.89 544.51 749.12 564.11"/><path class="cls-21" d="M1158.33,811.49H946.83l65.92-192.73L1072,644.15a134.69,134.69,0,0,1,74.43,80.34Z" transform="translate(-263.63 -54.65)"/><path class="cls-22" d="M1069,642.87c-26.31,25.49-51.35,49.39-51.35,49.39l22.87,22.87-64.58,96.37H946.83l65.92-192.73Z" transform="translate(-263.63 -54.65)"/><polygon class="cls-20" points="559.07 564.11 535.03 574.41 586.84 678.44 654.1 583.71 580.31 544.51 559.07 564.11"/><path class="cls-21" d="M677.13,811.49H888.63L822.71,618.76l-59.24,25.39A134.69,134.69,0,0,0,689,724.49Z" transform="translate(-263.63 -54.65)"/><path class="cls-22" d="M766.46,642.87c26.31,25.49,51.35,49.39,51.35,49.39l-22.87,22.87,64.57,96.37h29.11L822.71,618.76Z" transform="translate(-263.63 -54.65)"/><path class="cls-23" d="M793.41,497.31H777.08V401.18c0-79.27,64.49-143.75,143.75-143.75s143.75,64.49,143.75,143.75v92.25h-16.33V401.18a127.42,127.42,0,1,0-254.84,0Z" transform="translate(-263.63 -54.65)"/><path class="cls-4" d="M502.5,346.22h19.58a0,0,0,0,1,0,0v98.42a0,0,0,0,1,0,0H502.5a10.07,10.07,0,0,1-10.07-10.07V356.29A10.07,10.07,0,0,1,502.5,346.22Z"/><rect class="cls-23" x="522.08" y="338.35" width="23.97" height="114.16" rx="4.07" ry="4.07"/><path class="cls-23" d="M936.24,580.33a8.17,8.17,0,0,1-2.37-16l29.43-8.92a132.23,132.23,0,0,0,87.9-87.12,8.17,8.17,0,0,1,15.59,4.88A148.55,148.55,0,0,1,968,571.06L938.61,580A8.19,8.19,0,0,1,936.24,580.33Z" transform="translate(-263.63 -54.65)"/><path class="cls-4" d="M1066.23,400.88h19.58a0,0,0,0,1,0,0V499.3a0,0,0,0,1,0,0h-19.58a10.07,10.07,0,0,1-10.07-10.07V410.95A10.07,10.07,0,0,1,1066.23,400.88Z" transform="translate(1878.34 845.52) rotate(-180)"/><rect class="cls-23" x="1032.18" y="393.01" width="23.97" height="114.16" rx="4.07" ry="4.07" transform="translate(1824.71 845.52) rotate(-180)"/><path class="cls-24" d="M1072,644.15l-3-1.28-56.25-24.11-21.13-19.51v-32.7l5.62-3.6a71.93,71.93,0,0,0,17.27-15.54,148.49,148.49,0,0,0,36.91-40.55,6.73,6.73,0,0,0,4.73-6.43V499.3h0a29.65,29.65,0,0,0,29.65-29.65V430.53a29.66,29.66,0,0,0-21.23-28.43v-.92a143.28,143.28,0,0,0-6.32-42.2c.44-6.1.7-12.22.73-18.35.13-22.68-3-46.45-15.68-64.82-18-26.15-50.64-35.52-81.07-39.34a237.69,237.69,0,0,0-44.52-1.85V811.49h240.6l-11.9-87A134.69,134.69,0,0,0,1072,644.15Zm-40.69-145V487.5c.3-.36.59-.72.88-1.09v14a6.69,6.69,0,0,0,1.32,4q-1.33,1.91-2.73,3.76A78.6,78.6,0,0,0,1031.3,499.17Z" transform="translate(-263.63 -54.65)"/></g></g></g></svg>