<svg xmlns="http://www.w3.org/2000/svg" xmlns:xlink="http://www.w3.org/1999/xlink" viewBox="0 0 1748.67 697.91"><defs><style>.cls-1,.cls-23,.cls-24,.cls-26,.cls-27,.cls-44,.cls-46{fill:none;}.cls-2{isolation:isolate;}.cls-3{fill:#004d66;}.cls-4{fill:#033;}.cls-10,.cls-5{fill:#127187;}.cls-12,.cls-16,.cls-17,.cls-18,.cls-19,.cls-20,.cls-5,.cls-59,.cls-6,.cls-60,.cls-7,.cls-8{fill-rule:evenodd;}.cls-17,.cls-6{opacity:0.5;}.cls-17,.cls-30,.cls-57,.cls-7{fill:#fff;}.cls-7{opacity:0.8;}.cls-8{fill:#c6c6c6;}.cls-57,.cls-9{opacity:0.2;}.cls-11{opacity:0.3;}.cls-12{fill:#333;}.cls-13{fill:#f94b68;}.cls-14{opacity:0.1;}.cls-15{fill:#3aceb2;}.cls-16,.cls-34{fill:#f05161;}.cls-18,.cls-35{fill:#f39c12;}.cls-19{fill:#ea844b;}.cls-20{fill:#1abc9c;}.cls-21{opacity:0.37;mix-blend-mode:multiply;}.cls-22{fill:#37474f;}.cls-23,.cls-24,.cls-44{stroke:#37474f;}.cls-23,.cls-26{stroke-miterlimit:10;stroke-width:4.7px;}.cls-24,.cls-27,.cls-44,.cls-46{stroke-linecap:round;stroke-linejoin:round;}.cls-24,.cls-27{stroke-width:5.87px;}.cls-25{fill:#455a64;}.cls-26,.cls-27{stroke:#f5f5f5;}.cls-28{fill:#ef5350;}.cls-29{fill:#546e7a;}.cls-31{fill:#263238;}.cls-32{clip-path:url(#clip-path);}.cls-33{clip-path:url(#clip-path-2);}.cls-36{clip-path:url(#clip-path-3);}.cls-37{clip-path:url(#clip-path-4);}.cls-38{fill:#ab47bc;}.cls-39{fill:#4dd0e1;}.cls-40{fill:#ec407a;}.cls-41{clip-path:url(#clip-path-5);}.cls-42{clip-path:url(#clip-path-6);}.cls-43{fill:#7cb342;}.cls-44,.cls-46{stroke-width:1.64px;}.cls-45{fill:#ffd54f;}.cls-46{stroke:#b0bec5;}.cls-47{fill:#d6d2d2;}.cls-48{fill:#ef9f4e;}.cls-49{fill:#d54d54;}.cls-50{fill:#00a1cb;}.cls-51{fill:#647a8f;}.cls-52{font-size:7.03px;fill:#485c62;font-family:SourceSansPro-BoldIt, SourceSansPro BoldIt;font-weight:700;}.cls-53{fill:#3b3b3b;}.cls-54{fill:#5a7f8f;}.cls-55,.cls-59{fill:#ebe5ee;}.cls-56,.cls-60{fill:#b0b0b0;}.cls-58{fill:#e74c3c;}</style><clipPath id="clip-path" transform="translate(-80 -191.04)"><rect class="cls-1" x="1054.35" y="348.78" width="41.3" height="36.5" transform="translate(-56.86 270.97) rotate(-14)"/></clipPath><clipPath id="clip-path-2" transform="translate(-80 -191.04)"><rect class="cls-1" x="1051.35" y="345.78" width="41.3" height="36.5" transform="translate(-56.23 270.16) rotate(-14)"/></clipPath><clipPath id="clip-path-3" transform="translate(-80 -191.04)"><rect class="cls-1" x="1087.26" y="321.89" width="43.01" height="38.02" transform="translate(-45.54 226.2) rotate(-11.42)"/></clipPath><clipPath id="clip-path-4" transform="translate(-80 -191.04)"><rect class="cls-1" x="1084.26" y="318.89" width="43.01" height="38.02" transform="translate(-45 225.55) rotate(-11.42)"/></clipPath><clipPath id="clip-path-5" transform="translate(-80 -191.04)"><rect class="cls-1" x="1087.79" y="367" width="38.02" height="43.01" transform="translate(177.39 1104.15) rotate(-56.94)"/></clipPath><clipPath id="clip-path-6" transform="translate(-80 -191.04)"><rect class="cls-1" x="1084.79" y="364" width="38.02" height="43.01" transform="translate(178.54 1100.27) rotate(-56.94)"/></clipPath></defs><title>expectations</title><g class="cls-2"><g id="Layer_1" data-name="Layer 1"><rect class="cls-3" width="1748.67" height="697.91" rx="5" ry="5"/><g id="Correction"><g id="Laptop"><rect class="cls-4" x="779.83" y="526.1" width="177.68" height="8.25"/><path class="cls-5" d="M1080.73,616.74H813.48c-12.25,0-16,7.69-13.67,16.78,0-.11,0-.22,0-.33a6.31,6.31,0,0,0,.19,1.87l19.34,73c2.92,11.09,5.55,11.43,20,11.41l223.45,0c11.6,0,17.26,0,19.56-11.11l15.06-73.29a6.79,6.79,0,0,0,.1-.83v0l.73-6.21C1099.28,619.13,1087.54,616.74,1080.73,616.74ZM800,632.22a5.16,5.16,0,0,0-.09.52C799.89,632.57,799.92,632.4,800,632.22Zm.58-1.7-.13.25Zm-.33.79c0,.14-.1.28-.14.43C800.1,631.6,800.15,631.46,800.2,631.32Zm10.91-7.15c.4,0,.81-.05,1.21-.05C811.92,624.11,811.51,624.13,811.11,624.17Zm-7.43,2.77.08-.06Zm.88-.59.17-.11Zm1-.54.26-.13Zm1-.48.34-.14Zm1.08-.41.44-.14Zm1.13-.33.55-.12Zm1.17-.25c.23,0,.47-.07.71-.1C810.39,624.26,810.15,624.28,809.92,624.33Z" transform="translate(-80 -191.04)"/><path class="cls-6" d="M813.48,616.74h267.25c6.81,0,18.55,2.39,17.51,11.3l-.73,6.21c-1-4.62-6.75-10.14-12.4-10.14H812.32c-6.15,0-12.57,4.26-12.5,9.41-2.37-9.09,1.42-16.78,13.67-16.78Z" transform="translate(-80 -191.04)"/><polygon class="cls-7" points="733.42 438.23 1005.48 437.92 990.8 522.96 750.48 523.03 733.42 438.23"/><path class="cls-8" d="M826.78,722h245.35a7.42,7.42,0,0,1,7.39,7.39V864.66a7.42,7.42,0,0,1-7.39,7.39H826.78a7.42,7.42,0,0,1-7.39-7.39V729.37a7.42,7.42,0,0,1,7.39-7.39Z" transform="translate(-80 -191.04)"/><path class="cls-9" d="M1079.53,729.37a7.42,7.42,0,0,0-7.39-7.39h-20.66L895.08,872.05h177.05a7.42,7.42,0,0,0,7.39-7.39Z" transform="translate(-80 -191.04)"/><rect class="cls-10" x="834.7" y="635.24" width="69.5" height="36.38"/><rect class="cls-11" x="752.29" y="543.61" width="234.34" height="85.18"/><g id="Keyboard"><path class="cls-12" d="M837.37,739.69h10.88a1.37,1.37,0,0,1,1.15,1.51v11.71a1.37,1.37,0,0,1-1.15,1.51H837.37a1.39,1.39,0,0,1-1.18-1.51V741.21a1.39,1.39,0,0,1,1.18-1.51Z" transform="translate(-80 -191.04)"/><path class="cls-12" d="M855,739.69h10.88a1.39,1.39,0,0,1,1.18,1.51v11.71a1.39,1.39,0,0,1-1.18,1.51H855a1.39,1.39,0,0,1-1.18-1.51V741.21a1.39,1.39,0,0,1,1.18-1.51Z" transform="translate(-80 -191.04)"/><path class="cls-12" d="M872.68,739.69h10.86a1.39,1.39,0,0,1,1.18,1.51v11.71a1.39,1.39,0,0,1-1.18,1.51H872.68a1.39,1.39,0,0,1-1.18-1.51V741.21a1.39,1.39,0,0,1,1.18-1.51Z" transform="translate(-80 -191.04)"/><path class="cls-12" d="M890.33,739.69h10.86a1.37,1.37,0,0,1,1.18,1.51v11.71a1.37,1.37,0,0,1-1.18,1.51H890.33a1.39,1.39,0,0,1-1.18-1.51V741.21a1.39,1.39,0,0,1,1.18-1.51Z" transform="translate(-80 -191.04)"/><path class="cls-12" d="M908,739.69h10.88a1.39,1.39,0,0,1,1.18,1.51v11.71a1.39,1.39,0,0,1-1.18,1.51H908a1.39,1.39,0,0,1-1.18-1.51V741.21a1.39,1.39,0,0,1,1.18-1.51Z" transform="translate(-80 -191.04)"/><path class="cls-12" d="M925.65,739.69h10.86a1.39,1.39,0,0,1,1.18,1.51v11.71a1.39,1.39,0,0,1-1.18,1.51H925.65a1.39,1.39,0,0,1-1.18-1.51V741.21a1.39,1.39,0,0,1,1.18-1.51Z" transform="translate(-80 -191.04)"/><path class="cls-12" d="M943.3,739.69h10.86a1.37,1.37,0,0,1,1.18,1.51v11.71a1.37,1.37,0,0,1-1.18,1.51H943.3a1.39,1.39,0,0,1-1.18-1.51V741.21a1.39,1.39,0,0,1,1.18-1.51Z" transform="translate(-80 -191.04)"/><path class="cls-12" d="M961,739.69h10.88a1.39,1.39,0,0,1,1.18,1.51v11.71a1.39,1.39,0,0,1-1.18,1.51H961a1.38,1.38,0,0,1-1.18-1.51V741.21a1.38,1.38,0,0,1,1.18-1.51Z" transform="translate(-80 -191.04)"/><path class="cls-12" d="M978.62,739.69h10.86a1.39,1.39,0,0,1,1.18,1.51v11.71a1.39,1.39,0,0,1-1.18,1.51H978.62a1.37,1.37,0,0,1-1.18-1.51V741.21a1.37,1.37,0,0,1,1.18-1.51Z" transform="translate(-80 -191.04)"/><path class="cls-12" d="M996.27,739.69h10.86a1.37,1.37,0,0,1,1.18,1.51v11.71a1.37,1.37,0,0,1-1.18,1.51H996.27a1.38,1.38,0,0,1-1.18-1.51V741.21a1.38,1.38,0,0,1,1.18-1.51Z" transform="translate(-80 -191.04)"/><path class="cls-12" d="M1013.92,739.69h10.88a1.38,1.38,0,0,1,1.17,1.51v11.71a1.38,1.38,0,0,1-1.17,1.51h-10.88a1.38,1.38,0,0,1-1.17-1.51V741.21a1.38,1.38,0,0,1,1.17-1.51Z" transform="translate(-80 -191.04)"/><path class="cls-12" d="M863.87,760.15h10.86a1.39,1.39,0,0,1,1.18,1.51v11.71a1.39,1.39,0,0,1-1.18,1.51H863.87a1.39,1.39,0,0,1-1.18-1.51V761.67a1.39,1.39,0,0,1,1.18-1.51Z" transform="translate(-80 -191.04)"/><path class="cls-12" d="M881.52,760.15H892.4a1.39,1.39,0,0,1,1.18,1.51v11.71a1.39,1.39,0,0,1-1.18,1.51H881.52a1.39,1.39,0,0,1-1.18-1.51V761.67a1.39,1.39,0,0,1,1.18-1.51Z" transform="translate(-80 -191.04)"/><path class="cls-12" d="M899.17,760.15H910a1.39,1.39,0,0,1,1.18,1.51v11.71a1.39,1.39,0,0,1-1.18,1.51H899.17a1.37,1.37,0,0,1-1.15-1.51V761.67a1.37,1.37,0,0,1,1.15-1.51Z" transform="translate(-80 -191.04)"/><path class="cls-12" d="M916.84,760.15H927.7a1.39,1.39,0,0,1,1.17,1.51v11.71a1.38,1.38,0,0,1-1.17,1.51H916.84a1.39,1.39,0,0,1-1.18-1.51V761.67a1.39,1.39,0,0,1,1.18-1.51Z" transform="translate(-80 -191.04)"/><path class="cls-12" d="M934.49,760.15h10.88a1.37,1.37,0,0,1,1.15,1.51v11.71a1.37,1.37,0,0,1-1.15,1.51H934.49a1.39,1.39,0,0,1-1.18-1.51V761.67a1.39,1.39,0,0,1,1.18-1.51Z" transform="translate(-80 -191.04)"/><path class="cls-12" d="M952.14,760.15H963a1.39,1.39,0,0,1,1.18,1.51v11.71a1.39,1.39,0,0,1-1.18,1.51H952.14a1.39,1.39,0,0,1-1.18-1.51V761.67a1.39,1.39,0,0,1,1.18-1.51Z" transform="translate(-80 -191.04)"/><path class="cls-12" d="M969.81,760.15h10.86a1.39,1.39,0,0,1,1.18,1.51v11.71a1.39,1.39,0,0,1-1.18,1.51H969.81a1.39,1.39,0,0,1-1.18-1.51V761.67a1.39,1.39,0,0,1,1.18-1.51Z" transform="translate(-80 -191.04)"/><path class="cls-12" d="M987.46,760.15h10.88a1.37,1.37,0,0,1,1.15,1.51v11.71a1.37,1.37,0,0,1-1.15,1.51H987.46a1.38,1.38,0,0,1-1.18-1.51V761.67a1.39,1.39,0,0,1,1.18-1.51Z" transform="translate(-80 -191.04)"/><path class="cls-12" d="M1005.1,760.15H1016a1.39,1.39,0,0,1,1.17,1.51v11.71a1.38,1.38,0,0,1-1.17,1.51H1005.1a1.39,1.39,0,0,1-1.18-1.51V761.67a1.39,1.39,0,0,1,1.18-1.51Z" transform="translate(-80 -191.04)"/><path class="cls-12" d="M1022.78,760.15h10.86a1.39,1.39,0,0,1,1.17,1.51v11.71a1.38,1.38,0,0,1-1.17,1.51h-10.86a1.39,1.39,0,0,1-1.18-1.51V761.67a1.39,1.39,0,0,1,1.18-1.51Z" transform="translate(-80 -191.04)"/><path class="cls-12" d="M1031.59,739.69h10.85a1.39,1.39,0,0,1,1.18,1.51v11.71a1.39,1.39,0,0,1-1.18,1.51h-10.85a1.37,1.37,0,0,1-1.18-1.51V741.21a1.37,1.37,0,0,1,1.18-1.51Z" transform="translate(-80 -191.04)"/><path class="cls-12" d="M1049.24,739.69h10.86a1.39,1.39,0,0,1,1.17,1.51v11.71a1.39,1.39,0,0,1-1.17,1.51h-10.86a1.38,1.38,0,0,1-1.18-1.51V741.21a1.38,1.38,0,0,1,1.18-1.51Z" transform="translate(-80 -191.04)"/><path class="cls-12" d="M1040.72,760.15h19.38a1.39,1.39,0,0,1,1.17,1.51v11.71a1.39,1.39,0,0,1-1.17,1.51h-19.38a1.39,1.39,0,0,1-1.18-1.51V761.67a1.39,1.39,0,0,1,1.18-1.51Z" transform="translate(-80 -191.04)"/><path class="cls-12" d="M837.54,760.15h20.11a1.39,1.39,0,0,1,1.17,1.51v11.71a1.39,1.39,0,0,1-1.17,1.51H837.54a1.37,1.37,0,0,1-1.18-1.51V761.67a1.37,1.37,0,0,1,1.18-1.51Z" transform="translate(-80 -191.04)"/><path class="cls-12" d="M837.54,780.61h24a1.39,1.39,0,0,1,1.18,1.51v11.72a1.39,1.39,0,0,1-1.18,1.51h-24a1.37,1.37,0,0,1-1.18-1.51V782.12a1.37,1.37,0,0,1,1.18-1.51Z" transform="translate(-80 -191.04)"/><path class="cls-12" d="M837.54,801.07h10.83a1.38,1.38,0,0,1,1.18,1.51V814.3a1.38,1.38,0,0,1-1.18,1.51H837.54a1.37,1.37,0,0,1-1.18-1.51V802.59a1.37,1.37,0,0,1,1.18-1.51Z" transform="translate(-80 -191.04)"/><path class="cls-12" d="M855.17,801.07H866a1.39,1.39,0,0,1,1.18,1.51V814.3a1.39,1.39,0,0,1-1.18,1.51H855.17A1.39,1.39,0,0,1,854,814.3V802.59a1.39,1.39,0,0,1,1.18-1.51Z" transform="translate(-80 -191.04)"/><path class="cls-12" d="M872.8,801.07h10.83a1.37,1.37,0,0,1,1.18,1.51V814.3a1.37,1.37,0,0,1-1.18,1.51H872.8a1.39,1.39,0,0,1-1.18-1.51V802.59a1.39,1.39,0,0,1,1.18-1.51Z" transform="translate(-80 -191.04)"/><path class="cls-12" d="M890.42,801.07h112.88a1.37,1.37,0,0,1,1.18,1.51V814.3a1.37,1.37,0,0,1-1.18,1.51H890.42a1.39,1.39,0,0,1-1.18-1.51V802.59a1.39,1.39,0,0,1,1.18-1.51Z" transform="translate(-80 -191.04)"/><path class="cls-12" d="M868.09,780.81h10.86a1.39,1.39,0,0,1,1.18,1.51V794a1.39,1.39,0,0,1-1.18,1.51H868.09a1.39,1.39,0,0,1-1.18-1.51V782.32a1.39,1.39,0,0,1,1.18-1.51Z" transform="translate(-80 -191.04)"/><path class="cls-12" d="M885.74,780.81h10.88a1.39,1.39,0,0,1,1.18,1.51V794a1.39,1.39,0,0,1-1.18,1.51H885.74a1.39,1.39,0,0,1-1.18-1.51V782.32a1.39,1.39,0,0,1,1.18-1.51Z" transform="translate(-80 -191.04)"/><path class="cls-12" d="M903.39,780.81h10.88a1.39,1.39,0,0,1,1.18,1.51V794a1.39,1.39,0,0,1-1.18,1.51H903.39a1.37,1.37,0,0,1-1.15-1.51V782.32a1.37,1.37,0,0,1,1.15-1.51Z" transform="translate(-80 -191.04)"/><path class="cls-12" d="M921.06,780.81h10.86a1.39,1.39,0,0,1,1.17,1.51V794a1.39,1.39,0,0,1-1.17,1.51H921.06a1.39,1.39,0,0,1-1.18-1.51V782.32a1.39,1.39,0,0,1,1.18-1.51Z" transform="translate(-80 -191.04)"/><path class="cls-12" d="M938.71,780.81h10.88a1.37,1.37,0,0,1,1.15,1.51V794a1.37,1.37,0,0,1-1.15,1.51H938.71a1.39,1.39,0,0,1-1.18-1.51V782.32a1.39,1.39,0,0,1,1.18-1.51Z" transform="translate(-80 -191.04)"/><path class="cls-12" d="M956.36,780.81h10.87a1.39,1.39,0,0,1,1.18,1.51V794a1.39,1.39,0,0,1-1.18,1.51H956.36a1.39,1.39,0,0,1-1.18-1.51V782.32a1.39,1.39,0,0,1,1.18-1.51Z" transform="translate(-80 -191.04)"/><path class="cls-12" d="M974,780.81h10.86a1.39,1.39,0,0,1,1.17,1.51V794a1.39,1.39,0,0,1-1.17,1.51H974a1.39,1.39,0,0,1-1.18-1.51V782.32a1.39,1.39,0,0,1,1.18-1.51Z" transform="translate(-80 -191.04)"/><path class="cls-12" d="M991.67,780.81h10.88a1.38,1.38,0,0,1,1.16,1.51V794a1.37,1.37,0,0,1-1.16,1.51H991.67A1.39,1.39,0,0,1,990.5,794V782.32a1.39,1.39,0,0,1,1.18-1.51Z" transform="translate(-80 -191.04)"/><path class="cls-12" d="M1009.32,780.81h20.23a1.39,1.39,0,0,1,1.18,1.51V794a1.39,1.39,0,0,1-1.18,1.51h-20.23a1.38,1.38,0,0,1-1.17-1.51V782.32a1.39,1.39,0,0,1,1.17-1.51Z" transform="translate(-80 -191.04)"/><path class="cls-12" d="M1035.94,780.61h24a1.39,1.39,0,0,1,1.18,1.51v11.72a1.39,1.39,0,0,1-1.18,1.51h-24a1.39,1.39,0,0,1-1.17-1.51V782.12a1.39,1.39,0,0,1,1.17-1.51Z" transform="translate(-80 -191.04)"/><path class="cls-12" d="M1038.1,801.07h9.06a.48.48,0,0,1,.42.51v4.06a.48.48,0,0,1-.42.51h-9.06a.46.46,0,0,1-.4-.51v-4.06a.47.47,0,0,1,.4-.51Z" transform="translate(-80 -191.04)"/><path class="cls-12" d="M1038.1,809.9h9.06a.48.48,0,0,1,.42.52v4a.48.48,0,0,1-.42.52h-9.06a.47.47,0,0,1-.4-.52v-4a.47.47,0,0,1,.4-.52Z" transform="translate(-80 -191.04)"/><path class="cls-12" d="M1024.66,809.9h9.06a.48.48,0,0,1,.42.52v4a.48.48,0,0,1-.42.52h-9.06a.47.47,0,0,1-.4-.52v-4a.47.47,0,0,1,.4-.52Z" transform="translate(-80 -191.04)"/><path class="cls-12" d="M1051.5,809.9h9.06a.47.47,0,0,1,.4.52v4a.47.47,0,0,1-.4.52h-9.06a.49.49,0,0,1-.42-.52v-4a.49.49,0,0,1,.42-.52Z" transform="translate(-80 -191.04)"/><path class="cls-12" d="M1008.9,801.07h10.88a1.39,1.39,0,0,1,1.18,1.51V814.3a1.39,1.39,0,0,1-1.18,1.51H1008.9a1.38,1.38,0,0,1-1.17-1.51V802.59a1.38,1.38,0,0,1,1.17-1.51Z" transform="translate(-80 -191.04)"/></g></g><g id="Lens"><path class="cls-13" d="M1012.84,575.48a10.72,10.72,0,0,1,14.91,2.74h0a10.73,10.73,0,0,1-2.74,14.91L976.76,626.4a10.72,10.72,0,0,1-14.91-2.74h0a10.72,10.72,0,0,1,2.74-14.91Z" transform="translate(-80 -191.04)"/><path class="cls-9" d="M1010.1,579.35a9.09,9.09,0,0,1,12.65,2.32h0a9.09,9.09,0,0,1-2.32,12.65L979.5,622.54a9.09,9.09,0,0,1-12.65-2.32h0a9.09,9.09,0,0,1,2.32-12.65Z" transform="translate(-80 -191.04)"/><path class="cls-14" d="M960.34,614.76a10.7,10.7,0,0,0,8.14,13.3c.75-2.13,0-5.46-2.09-8.5A11.62,11.62,0,0,0,960.34,614.76Z" transform="translate(-80 -191.04)"/><path class="cls-15" d="M884.68,617.12a49.2,49.2,0,1,0,71.49,17.64l10.5-7.24s2-9-6.63-10.8l-11.15,7.69A49.2,49.2,0,0,0,884.68,617.12Zm59.61,18.66a38.48,38.48,0,1,1-53.52-9.83A38.48,38.48,0,0,1,944.28,635.78Z" transform="translate(-80 -191.04)"/><path class="cls-9" d="M874.31,661.42A38.47,38.47,0,0,0,931.7,691C896.05,699.4,880.39,675.77,874.31,661.42Z" transform="translate(-80 -191.04)"/></g><g id="Active"><g id="Active1"><path class="cls-16" d="M937.25,684.11a13.57,13.57,0,0,1,4,2.33l5.6-2.31,3.76,6.52L946,694.54a13.94,13.94,0,0,1,.21,2.39A13.36,13.36,0,0,1,946,699l4.88,3.76-3.76,6.52-5.63-2.08a13.54,13.54,0,0,1-4,2.41l-.79,5.95h-7.53l-1-5.85a13.29,13.29,0,0,1-4-2.32l-5.6,2.31-3.76-6.52,4.69-3.89a13.69,13.69,0,0,1,0-4.5l-4.88-3.75,3.76-6.52,5.62,2.09a13.3,13.3,0,0,1,4-2.41l.79-6h7.53Z" transform="translate(-80 -191.04)"/><path class="cls-6" d="M932.72,706.71a9.79,9.79,0,1,0-9.78-9.78,9.8,9.8,0,0,0,9.78,9.78Z" transform="translate(-80 -191.04)"/><path class="cls-17" d="M932.72,703.41a6.49,6.49,0,1,0-6.49-6.49,6.5,6.5,0,0,0,6.49,6.49Z" transform="translate(-80 -191.04)"/></g><g id="Active-2" data-name="Active"><path class="cls-18" d="M950.76,628.45a19.8,19.8,0,0,1,6.75,1.44l6.85-5.8,8.27,7.49-4.84,7.62a20.33,20.33,0,0,1,2.11,6.32l8.59,3.08-2.34,10.91-8.88-.38a19.89,19.89,0,0,1-4.52,5.21l1.58,8.75L953.7,676.5l-4.07-7.8a19.73,19.73,0,0,1-6.75-1.44l-6.85,5.8-8.27-7.48,4.85-7.62a20.39,20.39,0,0,1-1.38-3.27,20.86,20.86,0,0,1-.73-3.06l-8.59-3.08,2.35-10.9,8.88.38a19.82,19.82,0,0,1,4.52-5.21l-1.58-8.75,10.62-3.42Z" transform="translate(-80 -191.04)"/><path class="cls-6" d="M950.19,664.35a15.77,15.77,0,1,0-15.78-15.78,15.81,15.81,0,0,0,15.78,15.78Z" transform="translate(-80 -191.04)"/><path class="cls-17" d="M953.15,657.72a9.61,9.61,0,1,0-12.1-6.2,9.63,9.63,0,0,0,12.1,6.2Z" transform="translate(-80 -191.04)"/></g></g><g id="Active-3" data-name="Active"><g id="Active1-2" data-name="Active1"><path class="cls-19" d="M906.62,672.66a5.67,5.67,0,0,1,1.89-.43l1.05-2.29,3,.92-.33,2.51a5.77,5.77,0,0,1,.74.67,6,6,0,0,1,.55.69l2.55-.23.7,3.05-2.3,1a5.66,5.66,0,0,1-.53,1.86l1.44,2-2.29,2.13-2-1.5a5.57,5.57,0,0,1-1.89.43l-1.05,2.29-3-.92.33-2.51a5.38,5.38,0,0,1-.74-.67,5.66,5.66,0,0,1-.55-.69l-2.55.23-.7-3,2.3-1a5.56,5.56,0,0,1,.53-1.86l-1.44-2,2.3-2.13Z" transform="translate(-80 -191.04)"/><path class="cls-6" d="M911.63,680.83a4.07,4.07,0,1,0-5.75-.21,4.08,4.08,0,0,0,5.75.21Z" transform="translate(-80 -191.04)"/><path class="cls-17" d="M910.7,679.82a2.7,2.7,0,1,0-3.81-.14,2.7,2.7,0,0,0,3.81.14Z" transform="translate(-80 -191.04)"/></g><g id="Active-4" data-name="Active"><path class="cls-20" d="M895,651.87a8.33,8.33,0,0,1,2.47-1.47l.45-3.71,4.64-.06.68,3.69a8.43,8.43,0,0,1,1.35.61,8.58,8.58,0,0,1,1.09.72l3.49-1.49,2.37,4-2.81,2.39a8.31,8.31,0,0,1,.09,2.87l3,2.22-2.27,4L906,664.46a8.28,8.28,0,0,1-2.47,1.47l-.45,3.71-4.64.06L897.8,666a8.5,8.5,0,0,1-1.34-.61,8.2,8.2,0,0,1-1.09-.72l-3.49,1.49-2.37-4,2.82-2.4a8.19,8.19,0,0,1-.09-2.86l-3-2.22,2.27-4Z" transform="translate(-80 -191.04)"/><path class="cls-6" d="M905,663a6.56,6.56,0,1,0-9.27-.34A6.58,6.58,0,0,0,905,663Z" transform="translate(-80 -191.04)"/><path class="cls-17" d="M904,660.12a4,4,0,1,0-5.44,1.53,4,4,0,0,0,5.44-1.53Z" transform="translate(-80 -191.04)"/></g></g></g><g class="cls-21"><circle class="cls-22" cx="1161.04" cy="478.7" r="22.89" transform="translate(-169.87 398.98) rotate(-27.49)"/><circle class="cls-23" cx="1161.04" cy="478.7" r="22.89" transform="translate(-169.87 398.98) rotate(-27.49)"/><circle class="cls-22" cx="1217.89" cy="449.11" r="22.89" transform="translate(-149.79 421.89) rotate(-27.49)"/><circle class="cls-23" cx="1217.89" cy="449.11" r="22.89" transform="translate(-149.79 421.89) rotate(-27.49)"/><path class="cls-23" d="M1181.34,468.13s3.5-11.29,16.25-8.45" transform="translate(-80 -191.04)"/><line class="cls-24" x1="1159.12" y1="247.02" x2="1167.38" y2="242.72"/><line class="cls-24" x1="1050.99" y1="303.29" x2="1059.71" y2="298.75"/></g><circle class="cls-25" cx="1158.04" cy="475.7" r="22.89" transform="translate(-168.82 397.26) rotate(-27.49)"/><circle class="cls-26" cx="1158.04" cy="475.7" r="22.89" transform="translate(-168.82 397.26) rotate(-27.49)"/><circle class="cls-25" cx="1214.89" cy="446.11" r="22.89" transform="translate(-148.75 420.16) rotate(-27.49)"/><circle class="cls-26" cx="1214.89" cy="446.11" r="22.89" transform="translate(-148.75 420.16) rotate(-27.49)"/><path class="cls-26" d="M1178.34,465.13s3.5-11.29,16.25-8.45" transform="translate(-80 -191.04)"/><line class="cls-27" x1="1156.12" y1="244.02" x2="1164.38" y2="239.72"/><line class="cls-27" x1="1047.99" y1="300.29" x2="1056.71" y2="295.75"/><g class="cls-21"><rect class="cls-22" x="991.3" y="497.82" width="82.21" height="14.98" transform="translate(-73.63 832.39) rotate(-52.87)"/><rect class="cls-22" x="1055.43" y="461.45" width="9.02" height="14.98" transform="translate(-33.72 839.92) rotate(-52.87)"/><path class="cls-22" d="M1013.57,542.61l-11.95-9-4.25,5.62a4.1,4.1,0,0,0,.79,5.74l5.42,4.1a4.1,4.1,0,0,0,5.74-.79Z" transform="translate(-80 -191.04)"/><rect class="cls-22" x="1001" y="513.91" width="42.96" height="9.02" transform="translate(-88.02 829.67) rotate(-52.87)"/><path class="cls-22" d="M1076.57,447h0a2.11,2.11,0,0,0-2.5,0l-4,2.88,5.51,4.17,1.69-4.62A2.11,2.11,0,0,0,1076.57,447Z" transform="translate(-80 -191.04)"/><polygon class="cls-22" points="990.08 258.78 978.93 266.82 990.87 275.87 995.59 262.95 990.08 258.78"/><rect class="cls-22" x="1060.22" y="457.22" width="5.83" height="14.98" transform="translate(-29.08 840.8) rotate(-52.87)"/></g><rect class="cls-28" x="988.3" y="494.82" width="82.21" height="14.98" transform="translate(-72.43 828.81) rotate(-52.87)"/><rect class="cls-29" x="1052.43" y="458.45" width="9.02" height="14.98" transform="translate(-32.52 836.34) rotate(-52.87)"/><path class="cls-30" d="M1010.57,539.61l-11.95-9-4.25,5.62a4.1,4.1,0,0,0,.79,5.74l5.42,4.1a4.1,4.1,0,0,0,5.74-.79Z" transform="translate(-80 -191.04)"/><rect class="cls-30" x="998" y="510.91" width="42.96" height="9.02" transform="translate(-86.81 826.09) rotate(-52.87)"/><path class="cls-28" d="M1073.57,444h0a2.11,2.11,0,0,0-2.5,0l-4,2.88,5.51,4.17,1.69-4.62A2.11,2.11,0,0,0,1073.57,444Z" transform="translate(-80 -191.04)"/><polygon class="cls-31" points="987.08 255.78 975.93 263.82 987.87 272.87 992.59 259.95 987.08 255.78"/><rect class="cls-30" x="1057.22" y="454.22" width="5.83" height="14.98" transform="translate(-27.88 837.22) rotate(-52.87)"/><g class="cls-21"><rect class="cls-22" x="1050.66" y="344.34" width="49.77" height="49.77" transform="translate(-137.38 80.13) rotate(-14)"/><rect class="cls-22" x="1051.97" y="346.68" width="46.06" height="40.72" transform="translate(-136.86 79.93) rotate(-14)"/><rect class="cls-22" x="1051.97" y="346.68" width="46.06" height="40.72" transform="translate(-136.86 79.93) rotate(-14)"/><g class="cls-32"><circle class="cls-22" cx="1061.09" cy="384.01" r="22.94" transform="translate(-141.38 77.07) rotate(-14)"/><circle class="cls-22" cx="1099.49" cy="366.19" r="26.89" transform="translate(-135.93 85.83) rotate(-14)"/><circle class="cls-22" cx="1067.34" cy="356.71" r="16.98" transform="translate(-134.59 77.77) rotate(-14)"/></g></g><rect class="cls-30" x="1047.66" y="341.34" width="49.77" height="49.77" transform="translate(-136.74 79.31) rotate(-14)"/><rect class="cls-25" x="1048.97" y="343.68" width="46.06" height="40.72" transform="translate(-136.23 79.11) rotate(-14)"/><rect class="cls-25" x="1048.97" y="343.68" width="46.06" height="40.72" transform="translate(-136.23 79.11) rotate(-14)"/><g class="cls-33"><circle class="cls-34" cx="1058.09" cy="381.01" r="22.94" transform="translate(-140.75 76.25) rotate(-14)"/><circle class="cls-35" cx="1096.49" cy="363.19" r="26.89" transform="translate(-135.29 85.01) rotate(-14)"/><circle class="cls-15" cx="1064.34" cy="353.71" r="16.98" transform="translate(-133.95 76.95) rotate(-14)"/></g><g class="cls-21"><rect class="cls-22" x="1083.31" y="317.28" width="51.83" height="51.83" transform="translate(-125.98 35.29) rotate(-11.42)"/><rect class="cls-22" x="1084.78" y="319.7" width="47.97" height="42.4" transform="translate(-125.54 35.16) rotate(-11.42)"/><rect class="cls-22" x="1084.78" y="319.7" width="47.97" height="42.4" transform="translate(-125.54 35.16) rotate(-11.42)"/><g class="cls-36"><circle class="cls-22" cx="1093.49" cy="357.91" r="23.89" transform="translate(-129.21 32.47) rotate(-11.42)"/><circle class="cls-22" cx="1134.28" cy="341.16" r="28.01" transform="translate(-125.09 40.21) rotate(-11.42)"/><circle class="cls-22" cx="1101.28" cy="329.79" r="17.68" transform="translate(-123.49 33.45) rotate(-11.42)"/></g></g><rect class="cls-30" x="1080.31" y="314.28" width="51.83" height="51.83" transform="translate(-125.45 34.64) rotate(-11.42)"/><rect class="cls-25" x="1081.78" y="316.7" width="47.97" height="42.4" transform="translate(-125 34.5) rotate(-11.42)"/><rect class="cls-25" x="1081.78" y="316.7" width="47.97" height="42.4" transform="translate(-125 34.5) rotate(-11.42)"/><g class="cls-37"><circle class="cls-38" cx="1090.49" cy="354.91" r="23.89" transform="translate(-128.67 31.82) rotate(-11.42)"/><circle class="cls-39" cx="1131.28" cy="338.16" r="28.01" transform="translate(-124.55 39.56) rotate(-11.42)"/><circle class="cls-40" cx="1098.28" cy="326.79" r="17.68" transform="translate(-122.95 32.8) rotate(-11.42)"/></g><g class="cls-21"><rect class="cls-22" x="1079.6" y="364.56" width="51.83" height="51.83" transform="translate(95.16 912.92) rotate(-56.94)"/><rect class="cls-22" x="1085.6" y="364.52" width="42.4" height="47.97" transform="translate(97.39 913.1) rotate(-56.94)"/><rect class="cls-22" x="1085.6" y="364.52" width="42.4" height="47.97" transform="translate(97.39 913.1) rotate(-56.94)"/><g class="cls-41"><circle class="cls-22" cx="1083.99" cy="389.94" r="23.89" transform="translate(85.82 894.63) rotate(-56.94)"/><circle class="cls-22" cx="1124.82" cy="406.57" r="28.01" transform="translate(90.44 936.41) rotate(-56.94)"/><circle class="cls-22" cx="1109.24" cy="375.34" r="17.68" transform="translate(109.53 909.16) rotate(-56.94)"/></g></g><rect class="cls-30" x="1076.6" y="361.56" width="51.83" height="51.83" transform="translate(96.31 909.05) rotate(-56.94)"/><rect class="cls-25" x="1082.6" y="361.52" width="42.4" height="47.97" transform="translate(98.54 909.22) rotate(-56.94)"/><rect class="cls-25" x="1082.6" y="361.52" width="42.4" height="47.97" transform="translate(98.54 909.22) rotate(-56.94)"/><g class="cls-42"><circle class="cls-43" cx="1080.99" cy="386.94" r="23.89" transform="translate(86.97 890.76) rotate(-56.94)"/><circle class="cls-34" cx="1121.82" cy="403.57" r="28.01" transform="translate(91.59 932.54) rotate(-56.94)"/><circle class="cls-39" cx="1106.24" cy="372.34" r="17.68" transform="translate(110.69 905.29) rotate(-56.94)"/></g><g class="cls-21"><path class="cls-22" d="M1196.67,568.08l-4.09-2a3.47,3.47,0,0,1-1.59-4.63L1203.45,536a3.46,3.46,0,1,1,6.22,3l-9.4,19.18a1.3,1.3,0,1,1-2.34-1.15l9.4-19.18a.86.86,0,0,0-1.54-.75l-12.46,25.42a.86.86,0,0,0,.39,1.14l4.09,2a.86.86,0,0,0,1.14-.39l14.31-29.19a5.05,5.05,0,1,0-9.08-4.45l-11.57,23.59a1.3,1.3,0,1,1-2.34-1.15l11.57-23.59a7.66,7.66,0,1,1,13.76,6.75L1201.3,566.5A3.47,3.47,0,0,1,1196.67,568.08Z" transform="translate(-80 -191.04)"/></g><path class="cls-43" d="M1193.67,565.08l-4.09-2a3.47,3.47,0,0,1-1.59-4.63L1200.45,533a3.46,3.46,0,1,1,6.22,3l-9.4,19.18a1.3,1.3,0,1,1-2.34-1.15l9.4-19.18a.86.86,0,0,0-1.54-.75l-12.46,25.42a.86.86,0,0,0,.39,1.14l4.09,2a.86.86,0,0,0,1.14-.39l14.31-29.19a5.05,5.05,0,1,0-9.08-4.45l-11.57,23.59a1.3,1.3,0,1,1-2.34-1.15l11.57-23.59a7.66,7.66,0,1,1,13.76,6.75L1198.3,563.5A3.47,3.47,0,0,1,1193.67,565.08Z" transform="translate(-80 -191.04)"/><g class="cls-21"><rect class="cls-22" x="1096.42" y="534.51" width="45.64" height="78.99" rx="4.98" ry="4.98" transform="translate(-194.8 139.39) rotate(-15.99)"/><rect class="cls-22" x="1099.85" y="539.81" width="37.25" height="63" transform="translate(-194.09 139.07) rotate(-15.99)"/><circle class="cls-22" cx="1128.6" cy="606.67" r="3.31" transform="translate(-203.43 143.23) rotate(-15.99)"/><path class="cls-22" d="M1114.61,537.77l-9.44,2.7a.83.83,0,0,1-.45-1.59l9.44-2.7a.83.83,0,0,1,.45,1.59Z" transform="translate(-80 -191.04)"/><rect class="cls-22" x="1106.85" y="589.66" width="37.25" height="12.17" transform="translate(-200.55 141.94) rotate(-15.99)"/><rect class="cls-22" x="1098.17" y="548.86" width="7.91" height="7.91" transform="translate(-189.62 133.85) rotate(-15.99)"/><rect class="cls-22" x="1108.38" y="545.94" width="7.91" height="7.91" transform="translate(-188.42 136.55) rotate(-15.99)"/><rect class="cls-22" x="1118.59" y="543.01" width="7.91" height="7.91" transform="translate(-187.23 139.26) rotate(-15.99)"/><rect class="cls-22" x="1101.14" y="559.22" width="7.91" height="7.91" transform="translate(-192.36 135.07) rotate(-15.99)"/><rect class="cls-22" x="1111.35" y="556.3" width="7.91" height="7.91" transform="translate(-191.16 137.77) rotate(-15.99)"/><rect class="cls-22" x="1121.56" y="553.37" width="7.91" height="7.91" transform="translate(-189.96 140.47) rotate(-15.99)"/><rect class="cls-22" x="1104.11" y="569.58" width="7.91" height="7.91" transform="translate(-195.1 136.29) rotate(-15.99)"/><rect class="cls-22" x="1114.32" y="566.66" width="7.91" height="7.91" transform="translate(-193.9 138.99) rotate(-15.99)"/><rect class="cls-22" x="1124.53" y="563.73" width="7.91" height="7.91" transform="translate(-192.7 141.69) rotate(-15.99)"/><rect class="cls-22" x="1107.08" y="579.95" width="7.91" height="7.91" transform="translate(-197.84 137.51) rotate(-15.99)"/><rect class="cls-22" x="1117.29" y="577.02" width="7.91" height="7.91" transform="translate(-196.64 140.2) rotate(-15.99)"/><rect class="cls-22" x="1127.5" y="574.1" width="7.91" height="7.91" transform="translate(-195.44 142.9) rotate(-15.99)"/><line class="cls-44" x1="1030.8" y1="406.4" x2="1058.82" y2="398.37"/><line class="cls-44" x1="1031.76" y1="409.75" x2="1049.19" y2="404.75"/></g><rect class="cls-30" x="1093.42" y="531.51" width="45.64" height="78.99" rx="4.98" ry="4.98" transform="translate(-194.09 138.45) rotate(-15.99)"/><rect class="cls-31" x="1096.85" y="536.81" width="37.25" height="63" transform="translate(-193.38 138.13) rotate(-15.99)"/><circle class="cls-31" cx="1125.6" cy="603.67" r="3.31" transform="translate(-202.72 142.29) rotate(-15.99)"/><path class="cls-31" d="M1111.61,534.77l-9.44,2.7a.83.83,0,0,1-.45-1.59l9.44-2.7a.83.83,0,0,1,.45,1.59Z" transform="translate(-80 -191.04)"/><rect class="cls-25" x="1103.85" y="586.66" width="37.25" height="12.17" transform="translate(-199.84 141) rotate(-15.99)"/><rect class="cls-40" x="1095.17" y="545.86" width="7.91" height="7.91" transform="translate(-188.91 132.91) rotate(-15.99)"/><rect class="cls-39" x="1105.38" y="542.94" width="7.91" height="7.91" transform="translate(-187.71 135.61) rotate(-15.99)"/><rect class="cls-45" x="1115.59" y="540.01" width="7.91" height="7.91" transform="translate(-186.52 138.32) rotate(-15.99)"/><rect class="cls-43" x="1098.14" y="556.22" width="7.91" height="7.91" transform="translate(-191.65 134.13) rotate(-15.99)"/><rect class="cls-38" x="1108.35" y="553.3" width="7.91" height="7.91" transform="translate(-190.45 136.83) rotate(-15.99)"/><rect class="cls-28" x="1118.56" y="550.37" width="7.91" height="7.91" transform="translate(-189.25 139.52) rotate(-15.99)"/><rect class="cls-45" x="1101.11" y="566.58" width="7.91" height="7.91" transform="translate(-194.39 135.35) rotate(-15.99)"/><rect class="cls-40" x="1111.32" y="563.66" width="7.91" height="7.91" transform="translate(-193.19 138.05) rotate(-15.99)"/><rect class="cls-45" x="1121.53" y="560.73" width="7.91" height="7.91" transform="translate(-191.99 140.74) rotate(-15.99)"/><rect class="cls-39" x="1104.08" y="576.95" width="7.91" height="7.91" transform="translate(-197.13 136.56) rotate(-15.99)"/><rect class="cls-43" x="1114.29" y="574.02" width="7.91" height="7.91" transform="translate(-195.93 139.26) rotate(-15.99)"/><rect class="cls-38" x="1124.5" y="571.1" width="7.91" height="7.91" transform="translate(-194.73 141.96) rotate(-15.99)"/><line class="cls-46" x1="1027.8" y1="403.4" x2="1055.82" y2="395.37"/><line class="cls-46" x1="1028.76" y1="406.75" x2="1046.19" y2="401.75"/><path class="cls-47" d="M861.92,528.71l.05-.44-5.4-.64.64-5.39-.4,0-.64,5.39-9.58-1.14.64-5.39-.4,0-.64,5.39-9.58-1.14.64-5.39-.4,0-.64,5.39-9.58-1.14.64-5.39-.4,0-.64,5.39-9.58-1.14.64-5.39-.4,0-.64,5.39-9.58-1.14.64-5.39-.4,0-.64,5.39-9.58-1.14.64-5.39-.4,0-.64,5.39-9.58-1.14.64-5.39-.4,0-.64,5.39-9.58-1.14.64-5.39-.4,0-.64,5.39-8.7-1-.05.44,8.7,1L775.15,528l-8.7-1-.05.44,8.7,1L774,538l-8.7-1-.05.44,8.7,1L772.77,548l-8.7-1-.05.44,8.7,1L771.58,558l-8.7-1-.05.44,8.7,1L770.39,568l-8.7-1-.05.44,8.7,1-1.14,9.54-8.7-1-.05.44,8.7,1L768,587.93l-8.7-1-.05.44,94.34,11.24.05-.44-5.4-.64,1.14-9.54,5.4.64.05-.44-5.4-.64,1.14-9.54,5.4.64.05-.44-5.4-.64,1.14-9.54,5.4.64.05-.44-5.4-.64L853,558l5.4.64.05-.44-5.4-.64,1.14-9.54,5.4.64.05-.44-5.4-.64,1.14-9.54,5.4.64.05-.44-5.4-.64,1.14-9.54Zm-15.77-1.88L845,536.37l-9.58-1.14,1.14-9.54Zm-34.7,36.36-1.14,9.54-9.58-1.14,1.14-9.54Zm-9.53-1.58,1.14-9.54,9.58,1.14-1.14,9.54Zm9.93,1.63,9.58,1.14-1.14,9.54-9.58-1.14Zm.05-.44,1.14-9.54,9.58,1.14-1.14,9.54Zm1.19-10,1.14-9.54,9.58,1.14L822.67,554Zm-.4,0-9.58-1.14,1.14-9.54,9.58,1.14Zm-10-1.19-9.58-1.14,1.14-9.54,9.58,1.14Zm-.05.44-1.14,9.54-9.58-1.14,1.14-9.54Zm-1.19,10-1.14,9.54-9.58-1.14,1.14-9.54Zm-1.19,10-1.14,9.54-9.58-1.14,1.14-9.54Zm.4,0,9.58,1.14-1.14,9.54-9.58-1.14Zm10,1.19,9.58,1.14-1.14,9.54-9.58-1.14Zm10,1.19,9.58,1.14-1.14,9.54-9.58-1.14Zm.05-.44,1.14-9.54,9.58,1.14-1.14,9.54Zm1.19-10,1.14-9.54,9.58,1.14-1.14,9.54Zm1.19-10,1.14-9.54,9.58,1.14-1.14,9.54Zm1.19-10,1.14-9.54,9.58,1.14-1.14,9.54Zm-.4,0-9.58-1.14,1.14-9.54,9.58,1.14Zm-10-1.19-9.58-1.14,1.14-9.54,9.58,1.14Zm-10-1.19-9.58-1.14,1.14-9.54,9.58,1.14Zm-10-1.19-9.58-1.14,1.14-9.54,9.58,1.14Zm-.05.44-1.14,9.54-9.58-1.14,1.14-9.54Zm-1.19,10-1.14,9.54L782,559.22l1.14-9.54Zm-1.19,10-1.14,9.54-9.58-1.14,1.14-9.54Zm-1.19,10-1.14,9.54-9.58-1.14,1.14-9.54Zm-1.19,10L788,590.31l-9.58-1.14,1.14-9.54Zm.4,0,9.58,1.14L798,591.5l-9.58-1.14Zm10,1.19,9.58,1.14-1.14,9.54-9.58-1.14Zm10,1.19,9.58,1.14-1.14,9.54-9.58-1.14Zm10,1.19,9.58,1.14-1.14,9.54-9.58-1.14Zm10,1.19,9.58,1.14-1.14,9.54-9.58-1.14Zm.05-.44,1.14-9.54,9.58,1.14-1.14,9.54Zm1.19-10,1.14-9.54,9.58,1.14-1.14,9.54Zm1.19-10,1.14-9.54,9.58,1.14-1.14,9.54Zm1.19-10,1.14-9.54,9.58,1.14-1.14,9.54Zm1.19-10,1.14-9.54,9.58,1.14-1.14,9.54Zm1.93-19.57L835,535.18,825.45,534l1.14-9.54Zm-10-1.19L825.05,534l-9.58-1.14,1.14-9.54Zm-10-1.19-1.14,9.54-9.58-1.14,1.14-9.54Zm-10-1.19-1.14,9.54-9.58-1.14,1.14-9.54Zm-10-1.19-1.14,9.54-9.58-1.14,1.14-9.54Zm-19.57-2.33,9.58,1.14-1.14,9.54-9.58-1.14Zm-1.19,10,9.58,1.14-1.14,9.54-9.58-1.14Zm-1.19,10,9.58,1.14-1.14,9.54-9.58-1.14Zm-1.19,10,9.58,1.14-1.14,9.54L772,558Zm-1.19,10,9.58,1.14-1.14,9.54L770.79,568Zm-1.19,10,9.58,1.14-1.14,9.54L769.6,578Zm-1.19,10,9.58,1.14L778,589.12,768.41,588Zm78.31,19-9.58-1.14,1.14-9.54L849,587.9Zm1.19-10-9.58-1.14,1.14-9.54,9.58,1.14Zm1.19-10-9.58-1.14,1.14-9.54,9.58,1.14Zm1.19-10-9.58-1.14,1.14-9.54,9.58,1.14Zm1.19-10L843,556.38l1.14-9.54,9.58,1.14Zm1.19-10-9.58-1.14,1.14-9.54,9.58,1.14Zm1.19-10-9.58-1.14,1.14-9.54,9.58,1.14Z" transform="translate(-80 -191.04)"/><polygon class="cls-48" points="683.42 395.75 703.34 346.98 711.25 399.07 683.42 395.75"/><polygon class="cls-49" points="702.7 398.05 721.81 356.14 730.54 401.36 702.7 398.05"/><polygon class="cls-50" points="721.99 400.35 742.4 347.49 749.82 403.66 721.99 400.35"/><polygon class="cls-51" points="741.27 402.64 763.6 333.75 769.11 405.96 741.27 402.64"/><polygon class="cls-51" points="773.72 406.51 680.4 395.39 689.3 320.71 687.7 320.52 678.8 395.2 678.8 395.2 678.61 396.8 678.61 396.8 678.61 396.8 680.21 396.99 680.21 396.99 773.53 408.11 773.72 406.51"/><text class="cls-52" transform="translate(678.26 405.39) rotate(6.8)">01</text><text class="cls-52" transform="translate(695.75 407.47) rotate(6.8)">02</text><text class="cls-52" transform="translate(713.26 409.56) rotate(6.8)">03</text><text class="cls-52" transform="translate(730.76 411.64) rotate(6.8)">04</text><text class="cls-52" transform="translate(748.26 413.73) rotate(6.8)">05</text><text class="cls-52" transform="translate(765.7 415.81) rotate(6.8)">06</text><rect class="cls-53" x="739.88" y="319.79" width="69.69" height="101.2" transform="translate(-157.95 77.71) rotate(-18.75)"/><rect class="cls-54" x="739.84" y="356.22" width="9.87" height="9.87" transform="translate(-156.57 67.59) rotate(-18.75)"/><rect class="cls-55" x="745.5" y="372.9" width="9.87" height="9.87" transform="translate(-161.63 70.3) rotate(-18.75)"/><rect class="cls-55" x="751.16" y="389.57" width="9.87" height="9.87" transform="translate(-166.7 73) rotate(-18.75)"/><rect class="cls-55" x="756.83" y="406.25" width="9.87" height="9.87" transform="translate(-171.76 75.71) rotate(-18.75)"/><rect class="cls-54" x="755.87" y="350.78" width="9.87" height="9.87" transform="translate(-153.97 72.46) rotate(-18.75)"/><rect class="cls-55" x="761.53" y="367.46" width="9.87" height="9.87" transform="translate(-159.03 75.16) rotate(-18.75)"/><rect class="cls-55" x="767.19" y="384.13" width="9.87" height="9.87" transform="translate(-164.09 77.87) rotate(-18.75)"/><rect class="cls-55" x="772.85" y="400.81" width="9.87" height="9.87" transform="translate(-169.16 80.57) rotate(-18.75)"/><rect class="cls-54" x="771.89" y="345.34" width="9.87" height="9.87" transform="translate(-151.37 77.32) rotate(-18.75)"/><rect class="cls-56" x="737.06" y="352.31" width="9.87" height="1.35" transform="translate(-154.09 66.27) rotate(-18.75)"/><rect class="cls-56" x="753.09" y="346.87" width="9.87" height="1.35" transform="translate(-151.49 71.13) rotate(-18.75)"/><rect class="cls-56" x="769.12" y="341.42" width="9.87" height="1.35" transform="translate(-148.89 75.99) rotate(-18.75)"/><rect class="cls-55" x="777.55" y="362.02" width="9.87" height="9.87" transform="translate(-156.43 80.03) rotate(-18.75)"/><rect class="cls-55" x="783.22" y="378.69" width="9.87" height="9.87" transform="translate(-161.49 82.73) rotate(-18.75)"/><rect class="cls-55" x="788.88" y="395.37" width="9.87" height="9.87" transform="translate(-166.56 85.44) rotate(-18.75)"/><rect class="cls-54" x="787.92" y="339.9" width="9.87" height="9.87" transform="translate(-148.77 82.18) rotate(-18.75)"/><rect class="cls-54" x="793.58" y="356.57" width="9.87" height="9.87" transform="translate(-153.83 84.89) rotate(-18.75)"/><rect class="cls-35" x="802.07" y="372.78" width="9.87" height="27.48" transform="translate(-161.42 88.95) rotate(-18.75)"/><rect class="cls-55" x="731.87" y="328.16" width="60.64" height="10.69" transform="translate(-146.76 71.73) rotate(-18.75)"/><polygon class="cls-57" points="712.63 137.78 691.93 144.8 709.19 127.65 712.63 137.78"/><circle class="cls-58" cx="790.3" cy="336.58" r="1.67" transform="translate(-146.26 80.93) rotate(-18.75)"/><path class="cls-56" d="M646.35,440.54l-1.89-6.19c15.77-4.82,37,.55,52,5.91a220.34,220.34,0,0,1,53.49,28.15l-3.82,5.23C716.57,452.08,670,433.3,646.35,440.54Z" transform="translate(-80 -191.04)"/><path class="cls-56" d="M726.88,489.8l6.43-.83c-2.81-16.25-17.18-32.75-28.74-43.73a220.35,220.35,0,0,0-49.27-35L652.35,416C684.93,432.63,722.65,465.42,726.88,489.8Z" transform="translate(-80 -191.04)"/><path d="M698.22,458.22l-.06.21v0C698.17,458.38,698.19,458.3,698.22,458.22Z" transform="translate(-80 -191.04)"/><path class="cls-57" d="M692.49,431.5l-43.59,9.7a38.85,38.85,0,0,0,10.47,9.27c12.43,7.64,24.59,6.57,30.13-1.77C695.18,440.16,695.95,435.78,692.49,431.5Z" transform="translate(-80 -191.04)"/><path class="cls-57" d="M745.17,464.82,702.5,474.4a34.66,34.66,0,0,0,9.63,8.51c12.43,7.65,26.41,7.67,32.18-.51C748.87,476,748.48,470,745.17,464.82Z" transform="translate(-80 -191.04)"/><path class="cls-53" d="M755.14,470.28c.59-1.86-8.57-8-13.51-11.34-10.76-7.36-22.49-13-34.05-18.88-.84-.43-2.84-1.42-5.07-2.76-1.3-.92-2.3-1.75-2.82-2.14-10.47-7.68-20.74-15.65-32.15-22-5.23-2.9-14.8-8.35-16.2-7-8,8.86-10.68,17.46-8.42,28.24-3.69,2-12.14,3.31-11.91,6.93.5,2.71,2.48,2.86,4.43,2.4,2.33-.54,4.6-1.15,7.16-2a34,34,0,0,1,4.12-.94c.3-.05,1.24,1.22,2.17,2.2,3.61,3.83,22.67,22.07,36.73,10.53,1.48-1.17,3.37-3.11,4-3.56a9.62,9.62,0,0,1,4-2,5.72,5.72,0,0,1,3.41.74,4.77,4.77,0,0,1,.71.66l0-.05c1.24,1.29,1.65,3.45,1.09,6.38-.14.73-1,3.29-1.41,5.14-4,17.74,20.84,26.6,25.88,28.1a16.76,16.76,0,0,1,3.07,1.11c.4.26.87,2.4,1.08,3.91.36,2.54.78,4.72,1.33,7,.62,2.63,1.43,3.52,4,3.18,3.38-.69,1-9.36,1.12-13.76C744.6,487.66,750.8,481.41,755.14,470.28Zm-67.67-20.13c-3,3.43-12.29,9.16-25.49,1.07-.73-.45-1.47-.87-2.2-1.31-6-3.6-11-8.1-13.95-14.59-2.73-6-.68-10.94,2.95-15.69s8.07-6.58,13.94-5.19c8.18,1.93,15.11,6.27,21.78,11.08a50.15,50.15,0,0,1,7.24,6.46c2.38,2.55,2.88,5.42,1.36,8.95C693,441.16,689.64,447.93,687.46,450.15Zm44.14,38.12c-7.13.25-13.4-2.19-19.3-5.92-.72-.46-1.43-.93-2.16-1.38-13.16-8.17-12.22-19.08-10.48-23.26,1-2.94,5.56-9,5.73-9.17,2.47-2.94,5.26-3.78,8.61-2.8a50,50,0,0,1,9,3.58c7.29,3.8,14.28,8.05,19.67,14.49,3.88,4.63,4.2,9.49,1.62,14.79S738.15,488,731.6,488.27Z" transform="translate(-80 -191.04)"/><polygon class="cls-59" points="627.21 347.4 630.67 336.43 618.74 332.67 615.23 343.79 627.21 347.4"/><path class="cls-59" d="M713.44,538.13l-10.52,33.33A10.08,10.08,0,0,1,690.32,578l-3.6-1.13a10.08,10.08,0,0,1-6.56-12.61l10.52-33.33Z" transform="translate(-80 -191.04)"/><path class="cls-60" d="M709.74,537,699.6,569.14c-1.12,3.56-5.28,6.62-8.83,5.5l-2.43-.77c-3.56-1.12-5.23-6-4.11-9.58l10.14-32.18Z" transform="translate(-80 -191.04)"/><circle class="cls-56" cx="706.55" cy="529.23" r="1.29" transform="translate(-90.88 852.57) rotate(-72.47)"/><circle class="cls-56" cx="701.33" cy="527.58" r="1.29" transform="translate(-92.84 846.6) rotate(-72.49)"/><rect class="cls-35" x="906.85" y="389.65" width="7.26" height="12.57" rx="1" ry="1" transform="translate(97.41 874.49) rotate(-65.91)"/><rect class="cls-54" x="841.51" y="435.35" width="97.07" height="12.57" transform="translate(43.6 882.88) rotate(-65.91)"/><rect class="cls-53" x="841.51" y="439.95" width="97.07" height="3.37" transform="translate(43.6 882.88) rotate(-65.91)"/><polygon class="cls-55" points="784.49 292.27 791.68 291.68 796.04 297.43 783.79 309.32 784.49 292.27"/><polygon class="cls-53" points="788.9 304.36 784.09 302.21 783.79 309.32 788.9 304.36"/><g id="Active-5" data-name="Active"><path class="cls-18" d="M871.17,318.09a13.08,13.08,0,0,1,4.46,1l4.53-3.83,5.46,4.95-3.2,5a13.43,13.43,0,0,1,1.39,4.18l5.67,2-1.55,7.2-5.87-.25a13.14,13.14,0,0,1-3,3.44l1,5.78-7,2.26-2.69-5.15a13,13,0,0,1-4.46-1l-4.53,3.83L856,342.62l3.2-5a13.47,13.47,0,0,1-.91-2.16,13.78,13.78,0,0,1-.48-2l-5.67-2,1.55-7.2,5.87.25a13.09,13.09,0,0,1,3-3.44l-1-5.78,7-2.26Z" transform="translate(-80 -191.04)"/><path class="cls-6" d="M870.79,341.81a10.42,10.42,0,1,0-10.42-10.42,10.45,10.45,0,0,0,10.42,10.42Z" transform="translate(-80 -191.04)"/><path class="cls-17" d="M872.74,337.43a6.35,6.35,0,1,0-8-4.1,6.36,6.36,0,0,0,8,4.1Z" transform="translate(-80 -191.04)"/></g><g id="Active1-3" data-name="Active1"><path class="cls-16" d="M897.82,333.87a13.57,13.57,0,0,1,4,2.33l5.6-2.31,3.76,6.52-4.69,3.89a13.94,13.94,0,0,1,.21,2.39,13.36,13.36,0,0,1-.16,2.11l4.88,3.76-3.76,6.52L902.07,357a13.54,13.54,0,0,1-4,2.41l-.79,5.95h-7.53l-1-5.85a13.29,13.29,0,0,1-4-2.32l-5.6,2.31L875.37,353l4.69-3.89a13.69,13.69,0,0,1,0-4.5l-4.88-3.75,3.76-6.52,5.62,2.09a13.3,13.3,0,0,1,4-2.41l.79-6h7.53Z" transform="translate(-80 -191.04)"/><path class="cls-6" d="M893.29,356.46a9.79,9.79,0,1,0-9.78-9.78,9.8,9.8,0,0,0,9.78,9.78Z" transform="translate(-80 -191.04)"/><path class="cls-17" d="M893.29,353.17a6.49,6.49,0,1,0-6.49-6.49,6.5,6.5,0,0,0,6.49,6.49Z" transform="translate(-80 -191.04)"/></g></g></g></svg>