<svg xmlns="http://www.w3.org/2000/svg" viewBox="0 0 1546.36 937.21"><defs><style>.cls-1{isolation:isolate;}.cls-2{fill:#cfd8dc;}.cls-3{fill:#ffe0b2;}.cls-4{fill:#b2dfdb;}.cls-5{fill:#eee;}.cls-6{fill:#e53935;}.cls-27,.cls-7{fill:#ef5350;}.cls-8,.cls-9{fill:#4db6ac;}.cls-19,.cls-9{opacity:0.41;}.cls-18,.cls-19,.cls-20,.cls-24,.cls-34,.cls-9{mix-blend-mode:multiply;}.cls-10{fill:#8d6e63;}.cls-11{fill:#5d4037;}.cls-12{fill:#424242;}.cls-13{fill:#37474f;}.cls-14,.cls-20{fill:#546e7a;}.cls-15,.cls-29,.cls-30,.cls-35{fill:none;}.cls-15{stroke:#ef5350;stroke-width:2.76px;}.cls-15,.cls-29{stroke-miterlimit:10;}.cls-16{fill:#6d4c41;}.cls-17{fill:#ffcc80;}.cls-18,.cls-23,.cls-24{fill:#78909c;}.cls-18{opacity:0.49;}.cls-20{opacity:0.28;}.cls-21{fill:#455a64;}.cls-22,.cls-26,.cls-31,.cls-36{fill:#fff;}.cls-24{opacity:0.31;}.cls-25{fill:#ffca28;}.cls-26{opacity:0.4;}.cls-26,.cls-31,.cls-36{mix-blend-mode:overlay;}.cls-27{font-size:101.13px;font-family:IRANSans, IRANSans;}.cls-28{fill:#e57373;}.cls-29{stroke:#546e7a;stroke-width:5.81px;}.cls-31{opacity:0.29;}.cls-32{fill:#00acc1;}.cls-33{fill:#b0bec5;}.cls-34{fill:#26c6da;}.cls-35{stroke:#cfd8dc;stroke-linecap:round;stroke-linejoin:round;stroke-width:2.93px;}.cls-36{opacity:0.61;}.cls-37{opacity:0.45;}.cls-38{fill:#ffd54f;}</style></defs><title>banner</title><g class="cls-1"><g id="Layer_1" data-name="Layer 1"><ellipse class="cls-2" cx="1008.57" cy="921.22" rx="176.13" ry="16"/><ellipse class="cls-2" cx="577.92" cy="921.22" rx="176.13" ry="16"/><rect class="cls-3" x="560.01" y="385.25" width="35.82" height="37.77"/><rect class="cls-4" x="553.64" y="404.77" width="48.56" height="11.74"/><rect class="cls-2" x="1020.65" y="505.51" width="149.13" height="222.72" transform="translate(2103.63 1144.74) rotate(180)"/><rect class="cls-3" x="1077.31" y="474.25" width="35.82" height="37.77" transform="translate(2103.63 897.28) rotate(180)"/><rect class="cls-2" x="1069.27" y="496.82" width="51.89" height="231.41" transform="translate(2103.63 1136.05) rotate(180)"/><rect class="cls-5" x="1090.33" y="496.82" width="9.77" height="231.41" transform="translate(2103.63 1136.05) rotate(180)"/><polygon class="cls-6" points="1017.58 423.97 999.26 423.97 1008.58 407.82 1017.58 423.97"/><polygon class="cls-7" points="999.26 423.97 994.05 563.1 1022.79 563.1 1017.58 423.97 999.26 423.97"/><path class="cls-8" d="M756.2,758.94a300.37,300.37,0,0,0-16.91-253.43c-9.12,5-18.24,10.07-27.35,15.08a269,269,0,0,1,15.2,227Z" transform="translate(-86.8 -89)"/><path class="cls-3" d="M756.2,758.94q-3.78,9.74-8.27,19.27c-4.37,9.29-14.56,13.18-22,8.94h0c-7.51-4.24-10-14.11-6.16-22.27q4-8.53,7.4-17.26Z" transform="translate(-86.8 -89)"/><rect class="cls-8" x="503.36" y="416.51" width="149.13" height="222.72"/><rect class="cls-9" x="503.36" y="416.51" width="74.57" height="222.72"/><rect class="cls-4" x="568.48" y="416.46" width="18.89" height="222.77"/><rect class="cls-10" x="503.36" y="617.09" width="149.13" height="22.14"/><polygon class="cls-11" points="503.36 639.23 503.36 684.17 524.79 906.89 567.49 906.89 567.49 684.17 588.36 684.17 588.36 906.89 631.06 906.89 652.49 684.17 652.49 639.23 503.36 639.23"/><rect class="cls-11" x="521.59" y="416.51" width="14.33" height="200.58"/><rect class="cls-11" x="617.97" y="416.51" width="14.33" height="200.58"/><circle class="cls-12" cx="577.92" cy="434.75" r="4.88"/><circle class="cls-12" cx="577.92" cy="475.9" r="4.88"/><circle class="cls-12" cx="577.92" cy="517.06" r="4.88"/><circle class="cls-12" cx="577.92" cy="558.22" r="4.88"/><circle class="cls-12" cx="577.92" cy="599.38" r="4.88"/><path class="cls-10" d="M758,1010.22c-.29-9.39-4.73-27.87-35.83-24.5-34.13,3.7-47,10.17-47,10.17v14.33Z" transform="translate(-86.8 -89)"/><path class="cls-10" d="M571.52,1010.22c.29-9.39,4.73-27.87,35.83-24.5,34.13,3.7,47,10.17,47,10.17v14.33Z" transform="translate(-86.8 -89)"/><rect class="cls-10" x="1020.65" y="706.09" width="149.13" height="22.14" transform="translate(2103.63 1345.32) rotate(180)"/><polygon class="cls-13" points="1082.98 639.23 1082.98 684.17 1061.55 906.89 1018.86 906.89 1018.86 684.17 997.98 684.17 997.98 906.89 955.28 906.89 933.85 684.17 933.85 639.23 1082.98 639.23"/><circle class="cls-12" cx="1008.42" cy="558.22" r="4.88"/><circle class="cls-12" cx="1008.42" cy="599.38" r="4.88"/><path class="cls-14" d="M1001.94,1010.22c.29-9.39,4.73-27.87,35.83-24.5,34.13,3.7,47,10.17,47,10.17v14.33Z" transform="translate(-86.8 -89)"/><path class="cls-14" d="M1188.41,1010.22c-.29-9.39-4.73-27.87-35.83-24.5-34.13,3.7-47,10.17-47,10.17v14.33Z" transform="translate(-86.8 -89)"/><path class="cls-3" d="M555,392.57c0,49.79,46.67,88.38,104.24,88.38s104.24-38.59,104.24-88.38-46.67-99-104.24-99S555,342.78,555,392.57Z" transform="translate(-86.8 -89)"/><circle class="cls-11" cx="632.07" cy="317.04" r="8.77"/><circle class="cls-11" cx="536.87" cy="317.04" r="8.77"/><path class="cls-15" d="M689,452.85c-3.89,9.17-11.13,15.35-19.45,15.35S654,462,650.1,452.85" transform="translate(-86.8 -89)"/><path class="cls-13" d="M555,379.64c7.56-47.12-19.85-52.54-19.85-52.54s63.45-50.8,124.1-44.72c55.25,5.54,100.89,55.78,104.05,103.69h-.11c.18,2.16.3,4.33.3,6.5a78,78,0,0,1-9.93,38.08c-11.35-23.07-11.23-29.28-11.23-45.85-13.57,6.84-49.64,9.34-93-9.81-42.43-18.73-51.16-35.79-52.72-33.73-.65,14.54-18.45,56-36,80.34C553,408.57,553.34,390.09,555,379.64Z" transform="translate(-86.8 -89)"/><path class="cls-3" d="M1198.39,395.68c0,49.47-46.37,87.81-103.57,87.81s-103.57-38.34-103.57-87.81,46.37-98.36,103.57-98.36S1198.39,346.21,1198.39,395.68Z" transform="translate(-86.8 -89)"/><circle class="cls-11" cx="948.62" cy="320.07" r="8.71"/><circle class="cls-11" cx="1045.84" cy="320.07" r="8.71"/><path class="cls-15" d="M1064.7,455.56c3.86,9.11,11.06,15.25,19.32,15.25s15.46-6.14,19.32-15.25" transform="translate(-86.8 -89)"/><path class="cls-16" d="M1053.61,352c29.76-9.65,97-12.61,97-12.61s43.2,44.12,35.26,98.52a77.86,77.86,0,0,0,12.5-42.28c0-49.47-31.56-105.56-103.57-105.56-69.32,0-103.57,56.1-103.57,105.56a77.86,77.86,0,0,0,12.5,42.28C1000.3,390.4,1014.73,364.65,1053.61,352Z" transform="translate(-86.8 -89)"/><path class="cls-14" d="M1187.32,759c32.29-81.8,25.24-174.77-17.54-253.54-9.15,4.95-16.26,10-25.4,14.94a269,269,0,0,1,13.93,227.11Z" transform="translate(-86.8 -89)"/><path class="cls-3" d="M1187.32,759q-3.84,9.72-8.37,19.22c-4.42,9.27-14.63,13.1-22.1,8.82h0c-7.48-4.28-9.9-14.16-6-22.3q4.06-8.51,7.5-17.22Z" transform="translate(-86.8 -89)"/><path class="cls-17" d="M791.58,647.87q10.44.38,21,0c10.26-.34,17.86-8.16,16.93-16.72h0c-.93-8.57-9-14.75-18-14.46q-9.42.32-18.78,0Q792.12,632.28,791.58,647.87Z" transform="translate(-86.8 -89)"/><path class="cls-18" d="M739.28,615.47a269.06,269.06,0,0,1-149.13-96.35v47a300.28,300.28,0,0,0,149.13,81.28Z" transform="translate(-86.8 -89)"/><path class="cls-18" d="M745.3,648.65a299,299,0,0,0,31.18,4.42,300.46,300.46,0,0,0-1.36-31.46,268.35,268.35,0,0,1-32-5.23A269.18,269.18,0,0,1,745.3,648.65Z" transform="translate(-86.8 -89)"/><path class="cls-8" d="M792.68,616.69A269,269,0,0,1,590.15,513v47a300.16,300.16,0,0,0,201.42,87.88Q792.12,632.28,792.68,616.69Z" transform="translate(-86.8 -89)"/><g class="cls-19"><path class="cls-8" d="M792.68,616.69A269,269,0,0,1,590.15,513v47a300.16,300.16,0,0,0,201.42,87.88Q792.12,632.28,792.68,616.69Z" transform="translate(-86.8 -89)"/></g><path class="cls-3" d="M849.36,638q-10.35,1.43-20.86,2.15c-10.25.7-18.6-6.31-18.54-14.91h0c.06-8.62,7.47-15.59,16.46-16.21q9.41-.64,18.68-1.93Q847.24,622.59,849.36,638Z" transform="translate(-86.8 -89)"/><path class="cls-14" d="M1020.65,505.46A269,269,0,0,1,845.11,607.14q2.14,15.45,4.25,30.9a300.07,300.07,0,0,0,171.29-85.49Z" transform="translate(-86.8 -89)"/><path class="cls-20" d="M1020.65,505.46A269,269,0,0,1,845.11,607.14q2.14,15.45,4.25,30.9a300.07,300.07,0,0,0,171.29-85.49l7.77,0V505.46Z" transform="translate(-86.8 -89)"/><polygon class="cls-14" points="1037.13 416.51 1008.42 550.44 979.71 416.51 933.85 416.51 933.85 639.23 1082.98 639.23 1082.98 416.51 1037.13 416.51"/><rect class="cls-21" x="942.13" y="613.31" width="52.3" height="9.23"/><rect class="cls-21" x="1024.17" y="613.31" width="52.3" height="9.23"/><polygon class="cls-22" points="983.6 407.82 999.26 423.97 1008.58 407.82 1017.58 423.97 1034.36 407.82 983.6 407.82"/><polygon class="cls-20" points="1008.03 548.62 979.71 416.51 933.85 416.51 933.85 639.23 1008.03 639.23 1008.03 548.62"/><polygon class="cls-23" points="1034.25 416.51 1068.21 416.51 1052.83 431.32 1057.51 451.57 1008.42 550.44 1034.25 416.51"/><polygon class="cls-23" points="982.59 416.51 948.63 416.51 964.01 431.32 959.33 451.57 1008.42 550.44 982.59 416.51"/><polygon class="cls-24" points="982.59 416.51 948.63 416.51 964.01 431.32 959.33 451.57 1008.42 550.44 982.59 416.51"/><path class="cls-25" d="M1538.47,809.3l-11.15-33.53h53l-11.15,33.53c23.06,18.05,64,56.68,64,103.47,0,43.82-35.52,65.5-79.34,65.5s-79.34-21.68-79.34-65.5C1474.48,866,1515.41,827.36,1538.47,809.3Z" transform="translate(-86.8 -89)"/><path class="cls-26" d="M1538.47,809.3l-11.15-33.53h26.5V978.28h0c-43.82,0-79.34-21.68-79.34-65.5C1474.48,866,1515.41,827.36,1538.47,809.3Z" transform="translate(-86.8 -89)"/><text class="cls-27" transform="translate(1436.68 847.44)">$</text><polygon class="cls-14" points="1485.9 709.66 1482.36 720.3 1451.67 720.3 1451.67 720.3 1448.13 709.66 1485.9 709.66"/><path class="cls-28" d="M229.15,870h0A45.17,45.17,0,0,1,184,915.18h0A45,45,0,0,1,152,902l-28.5,28.5a85.21,85.21,0,0,0,60.44,25h0A85.47,85.47,0,0,0,269.45,870h-40.3Z" transform="translate(-86.8 -89)"/><path class="cls-8" d="M244.42,809.57a85.2,85.2,0,0,0-60.44-25v40.3A45.17,45.17,0,0,1,229.15,870h40.3A85.2,85.2,0,0,0,244.42,809.57Z" transform="translate(-86.8 -89)"/><path class="cls-8" d="M138.81,870H98.51a85.21,85.21,0,0,0,25,60.44L152,902A45,45,0,0,1,138.81,870Z" transform="translate(-86.8 -89)"/><path class="cls-23" d="M172.27,772.83A85.47,85.47,0,0,0,86.8,858.3h40.3a45.17,45.17,0,0,1,45.17-45.17h0v-40.3Z" transform="translate(-86.8 -89)"/><circle class="cls-29" cx="97.19" cy="781.01" r="31.62"/><path class="cls-30" d="M118.74,870A65.24,65.24,0,1,0,184,804.77V870Z" transform="translate(-86.8 -89)"/><path class="cls-30" d="M118.74,870H184V804.77A65.24,65.24,0,0,0,118.74,870Z" transform="translate(-86.8 -89)"/><path class="cls-31" d="M184,784.86v19.91A65.24,65.24,0,1,1,118.74,870H98.83A85.16,85.16,0,1,0,184,784.86Z" transform="translate(-86.8 -89)"/><polygon class="cls-22" points="1450.14 171.62 1450.14 304 1311.07 304 1288.68 281.62 1288.68 171.62 1450.14 171.62"/><rect class="cls-32" x="1288.68" y="171.62" width="161.45" height="25.73"/><rect class="cls-28" x="1487.44" y="300.64" width="11.75" height="11.75" transform="translate(2899.85 524.04) rotate(180)"/><rect class="cls-33" x="1468.89" y="300.64" width="11.75" height="11.75" transform="translate(2862.73 524.04) rotate(180)"/><rect class="cls-33" x="1450.33" y="300.64" width="11.75" height="11.75" transform="translate(2825.62 524.04) rotate(180)"/><rect class="cls-33" x="1431.77" y="300.64" width="11.75" height="11.75" transform="translate(2788.5 524.04) rotate(180)"/><rect class="cls-33" x="1413.21" y="300.64" width="11.75" height="11.75" transform="translate(2751.38 524.04) rotate(180)"/><rect class="cls-33" x="1394.66" y="300.64" width="11.75" height="11.75" transform="translate(2714.27 524.04) rotate(180)"/><rect class="cls-28" x="1506" y="320.44" width="11.75" height="11.75" transform="translate(2936.96 563.63) rotate(180)"/><rect class="cls-28" x="1487.44" y="320.44" width="11.75" height="11.75" transform="translate(2899.85 563.63) rotate(180)"/><rect class="cls-33" x="1468.89" y="320.44" width="11.75" height="11.75" transform="translate(2862.73 563.63) rotate(180)"/><rect class="cls-33" x="1450.33" y="320.44" width="11.75" height="11.75" transform="translate(2825.62 563.63) rotate(180)"/><rect class="cls-33" x="1431.77" y="320.44" width="11.75" height="11.75" transform="translate(2788.5 563.63) rotate(180)"/><rect class="cls-33" x="1413.21" y="320.44" width="11.75" height="11.75" transform="translate(2751.38 563.63) rotate(180)"/><rect class="cls-33" x="1394.66" y="320.44" width="11.75" height="11.75" transform="translate(2714.27 563.63) rotate(180)"/><rect class="cls-28" x="1506" y="340.23" width="11.75" height="11.75" transform="translate(2936.96 603.22) rotate(180)"/><rect class="cls-28" x="1487.44" y="340.23" width="11.75" height="11.75" transform="translate(2899.85 603.22) rotate(180)"/><rect class="cls-33" x="1468.89" y="340.23" width="11.75" height="11.75" transform="translate(2862.73 603.22) rotate(180)"/><rect class="cls-33" x="1450.33" y="340.23" width="11.75" height="11.75" transform="translate(2825.62 603.22) rotate(180)"/><rect class="cls-33" x="1431.77" y="340.23" width="11.75" height="11.75" transform="translate(2788.5 603.22) rotate(180)"/><rect class="cls-33" x="1413.21" y="340.23" width="11.75" height="11.75" transform="translate(2751.38 603.22) rotate(180)"/><rect class="cls-33" x="1394.66" y="340.23" width="11.75" height="11.75" transform="translate(2714.27 603.22) rotate(180)"/><rect class="cls-28" x="1506" y="360.03" width="11.75" height="11.75" transform="translate(2936.96 642.81) rotate(180)"/><rect class="cls-28" x="1487.44" y="360.03" width="11.75" height="11.75" transform="translate(2899.85 642.81) rotate(180)"/><rect class="cls-33" x="1468.89" y="360.03" width="11.75" height="11.75" transform="translate(2862.73 642.81) rotate(180)"/><rect class="cls-33" x="1450.33" y="360.03" width="11.75" height="11.75" transform="translate(2825.62 642.81) rotate(180)"/><rect class="cls-33" x="1431.77" y="360.03" width="11.75" height="11.75" transform="translate(2788.5 642.81) rotate(180)"/><path class="cls-34" d="M1414.09,275h-13.56v-12.7a6.78,6.78,0,0,1,6.78-6.78h0a6.78,6.78,0,0,1,6.78,6.78Z" transform="translate(-86.8 -89)"/><path class="cls-34" d="M1413.57,166.51H1423a2,2,0,0,1,2,2V186a0,0,0,0,1,0,0h-13.56a0,0,0,0,1,0,0V168.55a2,2,0,0,1,2-2Z"/><path class="cls-14" d="M1414.09,270.52h-13.56v-12.7a6.78,6.78,0,0,1,6.78-6.78h0a6.78,6.78,0,0,1,6.78,6.78Z" transform="translate(-86.8 -89)"/><path class="cls-14" d="M1413.57,162H1423a2,2,0,0,1,2,2v17.44a0,0,0,0,1,0,0h-13.56a0,0,0,0,1,0,0V164.08A2,2,0,0,1,1413.57,162Z"/><circle class="cls-5" cx="1320.52" cy="169.15" r="4.18"/><circle class="cls-5" cx="1418.3" cy="169.15" r="4.18"/><polygon class="cls-33" points="1311.07 281.62 1288.68 281.62 1311.07 304 1311.07 281.62"/><path class="cls-2" d="M1407.81,644.6A54.17,54.17,0,1,1,1462,590.43,54.23,54.23,0,0,1,1407.81,644.6Zm0-95.59a41.41,41.41,0,1,0,41.41,41.41A41.46,41.46,0,0,0,1407.81,549Z" transform="translate(-86.8 -89)"/><path class="cls-2" d="M1489.1,604.43c-5-2.62-10-4.74-11.7-5.44.05-.35.11-.71.17-1,.31-4.5.43-7.51.43-7.51s-.12-3-.43-7.51c-.06-.33-.11-.7-.17-1,1.68-.69,6.72-2.82,11.7-5.44,3-1.58,6.1-3.31,8.27-4.65l3.61-2.3-.91-3.57-1-3.65-1.47-4.08-1.51-4.06c-.52-1.28-1.12-2.42-1.58-3.43l-1.6-3.32a134.81,134.81,0,0,0-13.57,2.31c-5.48,1.19-10.7,2.79-12.45,3.35l-.55-.91c-1.31-1.84-2.47-3.32-3.25-4.38l-.92-1.22-.37-.4-1.39-1.53-1.6-1.76a19.22,19.22,0,0,0-2.17-2.18l-.79-.71c.82-1.57,3.33-6.46,5.5-11.73,1.35-3.21,2.45-6.35,3.28-8.81l1.31-4.1-3-2.2c-1.74-1.36-4.34-2.77-6.84-4.33A70.68,70.68,0,0,0,1449,505l-3.33-1.57s-4.82,5.13-9,10.54c-2.09,2.7-4,5.45-5.43,7.53-.92,1.36-1.59,2.41-2,3-.34-.1-.68-.21-1-.29l-5.28-1.36-2-.32-2-.31a34.6,34.6,0,0,0-5.42-.57l-1.06-.06c-.4-1.8-1.62-7.17-3.33-12.55-2-6.43-4.78-12.8-4.78-12.8l-3.67.2c-2.2.1-5.11.67-8,1.08a67.38,67.38,0,0,0-7.91,1.75l-3.57.94s-.11,1.74-.17,4.35-.06,6.07.08,9.48c.21,5.62.88,11.06,1.11,12.82-.33.14-.66.27-1,.41l-4.91,2.36c-1.14.65-1.78,1.06-1.78,1.06l-1.77,1.07-2,1.23c-.77.49-1.57,1.16-2.48,1.82l-.86.64-2.85-2.16c-2-1.49-4.89-3.51-7.75-5.29-5.69-3.62-11.92-6.74-11.92-6.74l-2.7,2.5-5.45,6c-1.89,2.25-3.58,4.67-4.91,6.43a24.26,24.26,0,0,0-1.52,2.19l-.53.86s4.18,5.62,8.76,10.61c3.71,4.17,7.83,8,9.14,9.14-.15.31-.35.64-.48.94a45,45,0,0,0-2.24,5l-.71,1.94-.71,1.94a49.17,49.17,0,0,0-1.47,5.25c-.09.33-.17.68-.26,1-1.85.07-7.41.34-12.85,1.13-6.72.89-13.53,2.5-13.53,2.5l-.15,1a20,20,0,0,0-.25,2.65l-.39,8.07.39,8.07a20,20,0,0,0,.25,2.65l.15,1s6.81,1.62,13.53,2.5c5.44.8,11,1.06,12.85,1.13.09.35.17.7.26,1a49.17,49.17,0,0,0,1.47,5.25l.71,1.94.71,1.94a45,45,0,0,0,2.24,5c.14.3.33.63.48.94-1.31,1.19-5.43,5-9.14,9.14-4.58,5-8.76,10.61-8.76,10.61l.53.86a24.26,24.26,0,0,0,1.52,2.19c1.33,1.76,3,4.17,4.91,6.43l5.45,6,2.7,2.5s6.23-3.12,11.92-6.74c2.85-1.78,5.71-3.8,7.75-5.29l2.85-2.16.86.64c.91.66,1.71,1.33,2.48,1.82l2,1.23,1.77,1.07s.63.41,1.78,1.06l4.91,2.36c.3.14.64.28,1,.41-.23,1.76-.91,7.2-1.11,12.82-.14,3.41-.15,6.87-.08,9.48s.17,4.35.17,4.35l3.57.94a67.38,67.38,0,0,0,7.91,1.75c2.91.41,5.82,1,8,1.08l3.67.2s2.76-6.37,4.78-12.8c1.71-5.38,2.94-10.75,3.33-12.55l1.06-.06a34.64,34.64,0,0,0,5.42-.57l2-.31,2-.32,5.28-1.36c.33-.08.67-.19,1-.29.37.59,1,1.64,2,3,1.4,2.08,3.35,4.83,5.43,7.53,4.14,5.42,9,10.54,9,10.54l3.33-1.57a70.68,70.68,0,0,0,7.18-3.74c2.5-1.56,5.1-3,6.84-4.33l3-2.2-1.31-4.1c-.83-2.46-1.93-5.6-3.28-8.81-2.16-5.27-4.67-10.16-5.5-11.73l.79-.71a19.22,19.22,0,0,0,2.17-2.18l1.6-1.76,1.39-1.53.37-.4.92-1.22c.78-1.06,1.94-2.55,3.25-4.38l.55-.91c1.74.55,7,2.16,12.45,3.35a134.81,134.81,0,0,0,13.57,2.31l1.6-3.32c.46-1,1.06-2.15,1.58-3.43l1.51-4.06,1.47-4.08,1-3.65.91-3.57-3.61-2.3C1495.21,607.74,1492.13,606,1489.1,604.43Zm-27.49-8.21c-.35,1.69-.46,3.73-1,5.82a47.6,47.6,0,0,1-1.93,6.47,54.75,54.75,0,0,1-5.66,11.31l-2.5,3.36-.69.95-.28.3-1.08,1.17-1.22,1.35a12.13,12.13,0,0,1-1.67,1.67,44.82,44.82,0,0,1-4.51,3.83c-.88.63-1.74,1.35-2.68,2l-3,1.78a19.59,19.59,0,0,1-3,1.61c-1,.48-2,1-3,1.44-2.06.65-3.88,1.54-5.57,1.93s-3.07.78-4,1.05l-1.57.23-1.57.23a23.07,23.07,0,0,1-4.16.44,36.65,36.65,0,0,1-5.93,0c-1.08-.08-2.21-.05-3.34-.19l-3.4-.53a18.22,18.22,0,0,1-3.36-.71l-3.23-.81c-2-.83-3.95-1.36-5.51-2.11s-2.85-1.38-3.77-1.8-1.36-.82-1.36-.82l-1.35-.83-1.57-.93c-.6-.37-1.2-.9-1.9-1.41l-2.25-1.66c-.76-.64-1.5-1.38-2.31-2.1a54.91,54.91,0,0,1-4.73-4.87,54.15,54.15,0,0,1-6.88-10.63,31.19,31.19,0,0,1-1.72-3.8l-.54-1.49-.55-1.48a34.62,34.62,0,0,1-1.12-4,50.67,50.67,0,0,1,0-25.16,34.63,34.63,0,0,1,1.12-4l.55-1.48.54-1.49a31.19,31.19,0,0,1,1.72-3.8,54.15,54.15,0,0,1,6.88-10.63,54.91,54.91,0,0,1,4.73-4.87c.81-.72,1.56-1.46,2.31-2.1l2.25-1.66c.7-.51,1.3-1,1.9-1.41l1.57-.93,1.35-.83s.48-.32,1.36-.82,2.22-1,3.77-1.8,3.51-1.28,5.51-2.11l3.23-.81a18.22,18.22,0,0,1,3.36-.71l3.4-.53c1.13-.14,2.26-.11,3.34-.19a36.65,36.65,0,0,1,5.93,0,23.07,23.07,0,0,1,4.16.44l1.57.23,1.57.23c1,.27,2.36.64,4,1.05s3.51,1.28,5.57,1.93c1,.43,2,1,3,1.44a19.59,19.59,0,0,1,3,1.61l3,1.78c.93.65,1.8,1.36,2.68,2a44.82,44.82,0,0,1,4.51,3.83,12.13,12.13,0,0,1,1.67,1.67l1.22,1.35,1.08,1.17.28.3.69.95L1453,561a54.74,54.74,0,0,1,5.66,11.31,47.58,47.58,0,0,1,1.93,6.47c.53,2.09.64,4.13,1,5.82l.33,5.79Z" transform="translate(-86.8 -89)"/><rect class="cls-28" x="46.71" y="54.24" width="155.78" height="200.78"/><polygon class="cls-7" points="60.85 67.29 60.85 248.15 172.69 248.15 196.44 224.4 196.44 67.29 60.85 67.29"/><polygon class="cls-22" points="56.8 63.24 56.8 244.1 168.65 244.1 192.39 220.35 192.39 63.24 56.8 63.24"/><polygon class="cls-2" points="168.65 220.35 168.65 244.1 192.39 220.35 168.65 220.35"/><rect class="cls-23" x="103.35" y="58.47" width="42.5" height="17.22"/><circle class="cls-23" cx="124.59" cy="58.47" r="8.61"/><path class="cls-14" d="M224.33,158.82H198.46a3,3,0,0,1-3-3h0a3,3,0,0,1,3-3h25.87a3,3,0,0,1,3,3h0A3,3,0,0,1,224.33,158.82Z" transform="translate(-86.8 -89)"/><rect class="cls-2" x="68.91" y="86.96" width="39.78" height="30.69"/><rect class="cls-8" x="68.91" y="132.24" width="111.61" height="30.69"/><line class="cls-35" x1="119.17" y1="91.65" x2="180.52" y2="91.65"/><line class="cls-35" x1="119.17" y1="102.31" x2="180.52" y2="102.31"/><line class="cls-35" x1="119.17" y1="112.97" x2="180.52" y2="112.97"/><line class="cls-35" x1="68.91" y1="177.85" x2="180.52" y2="177.85"/><line class="cls-35" x1="68.91" y1="188.02" x2="180.52" y2="188.02"/><line class="cls-35" x1="68.91" y1="198.2" x2="180.52" y2="198.2"/><line class="cls-35" x1="68.91" y1="208.37" x2="180.52" y2="208.37"/><path class="cls-14" d="M333,301.69h0a9.59,9.59,0,0,1-13.56,0l-43.16-43.14L289.85,245,333,288.13A9.59,9.59,0,0,1,333,301.69Z" transform="translate(-86.8 -89)"/><circle class="cls-36" cx="260.22" cy="228.94" r="31.9" transform="translate(-172.46 162.16) rotate(-45.02)"/><path class="cls-14" d="M232.23,201a39.58,39.58,0,1,0,56,0A39.58,39.58,0,0,0,232.23,201Zm48.59,48.56a29.11,29.11,0,1,1,0-41.16A29.11,29.11,0,0,1,280.81,249.51Z" transform="translate(-86.8 -89)"/><path class="cls-23" d="M288.21,200.94a39.58,39.58,0,1,0,0,56A39.58,39.58,0,0,0,288.21,200.94Zm-3.49,52.48a34.63,34.63,0,1,1,0-49A34.63,34.63,0,0,1,284.72,253.42Z" transform="translate(-86.8 -89)"/><path class="cls-2" d="M330.65,602a44.68,44.68,0,1,1,44.68-44.68A44.73,44.73,0,0,1,330.65,602Zm0-78.83a34.15,34.15,0,1,0,34.15,34.15A34.19,34.19,0,0,0,330.65,523.19Z" transform="translate(-86.8 -89)"/><path class="cls-2" d="M397.69,568.88c-4.1-2.16-8.26-3.91-9.65-4.48,0-.29.09-.59.14-.86.26-3.71.35-6.2.35-6.2s-.1-2.48-.35-6.2c-.05-.28-.09-.57-.14-.86,1.39-.57,5.55-2.33,9.65-4.48,2.5-1.3,5-2.73,6.82-3.84l3-1.9-.75-2.95-.8-3-1.21-3.36-1.24-3.35c-.43-1.05-.92-2-1.3-2.83l-1.32-2.74a111.27,111.27,0,0,0-11.19,1.9c-4.52,1-8.83,2.3-10.26,2.76l-.46-.75c-1.08-1.52-2-2.74-2.68-3.62l-.76-1-.3-.33-1.15-1.26-1.32-1.45a15.85,15.85,0,0,0-1.79-1.8l-.65-.59c.68-1.29,2.75-5.33,4.53-9.67,1.12-2.65,2-5.24,2.71-7.27l1.08-3.38-2.44-1.81c-1.43-1.12-3.58-2.29-5.64-3.57a58.23,58.23,0,0,0-5.93-3.08l-2.75-1.3s-4,4.23-7.39,8.7c-1.72,2.23-3.33,4.49-4.48,6.21-.76,1.12-1.31,2-1.61,2.48-.28-.08-.56-.18-.83-.24l-4.35-1.12-1.69-.26-1.69-.26a28.48,28.48,0,0,0-4.47-.47l-.88,0c-.33-1.49-1.34-5.91-2.75-10.35-1.67-5.31-3.95-10.56-3.95-10.56l-3,.16c-1.81.08-4.21.55-6.62.89a55.64,55.64,0,0,0-6.52,1.45l-2.94.78s-.09,1.43-.14,3.59,0,5,.07,7.82c.17,4.64.72,9.12.92,10.57-.27.11-.55.22-.8.34l-4.05,1.95c-.94.53-1.47.87-1.47.87l-1.46.89-1.68,1c-.64.4-1.3,1-2,1.5l-.71.53L295,510.25c-1.68-1.23-4-2.89-6.39-4.37-4.69-3-9.83-5.56-9.83-5.56l-2.22,2.06L272,507.32c-1.55,1.86-3,3.85-4.05,5.3a20,20,0,0,0-1.26,1.8l-.44.71s3.45,4.63,7.23,8.75c3.06,3.44,6.46,6.56,7.54,7.54-.12.25-.28.53-.4.77a37.12,37.12,0,0,0-1.85,4.1l-.58,1.6-.59,1.6a40.59,40.59,0,0,0-1.21,4.33c-.08.27-.14.56-.21.85-1.52.06-6.11.28-10.6.93-5.54.73-11.16,2.07-11.16,2.07l-.12.83a16.51,16.51,0,0,0-.21,2.19l-.32,6.66.32,6.66a16.51,16.51,0,0,0,.21,2.19l.12.83s5.62,1.34,11.16,2.07c4.49.66,9.08.88,10.6.93.07.28.14.58.21.85a40.56,40.56,0,0,0,1.21,4.33l.59,1.6.58,1.6a37.12,37.12,0,0,0,1.85,4.1c.11.25.27.52.4.77-1.08,1-4.48,4.1-7.54,7.54-3.78,4.12-7.23,8.75-7.23,8.75l.44.71a20,20,0,0,0,1.26,1.8c1.1,1.45,2.5,3.44,4.05,5.3l4.49,4.93,2.22,2.06s5.14-2.58,9.83-5.56c2.35-1.47,4.71-3.13,6.39-4.37l2.35-1.78.71.53c.75.55,1.41,1.1,2,1.5l1.68,1,1.46.89s.52.34,1.47.87l4.05,2c.25.12.53.23.8.34-.19,1.45-.75,5.94-.92,10.57-.12,2.81-.12,5.66-.07,7.82s.14,3.59.14,3.59l2.94.78a55.58,55.58,0,0,0,6.52,1.45c2.4.34,4.8.81,6.62.89l3,.16s2.27-5.25,3.95-10.56c1.41-4.44,2.42-8.86,2.75-10.35l.88,0a28.52,28.52,0,0,0,4.47-.47l1.69-.26,1.69-.26,4.35-1.12c.27-.07.55-.16.83-.24.3.49.86,1.35,1.61,2.48,1.15,1.72,2.76,4,4.48,6.21,3.41,4.47,7.39,8.7,7.39,8.7l2.75-1.3a58.16,58.16,0,0,0,5.93-3.08c2.06-1.29,4.2-2.45,5.64-3.57l2.44-1.81-1.08-3.38c-.68-2-1.59-4.62-2.71-7.27-1.78-4.35-3.86-8.38-4.53-9.67l.65-.59a15.85,15.85,0,0,0,1.79-1.8l1.32-1.45,1.15-1.26.3-.33.76-1c.64-.88,1.6-2.1,2.68-3.62l.46-.75c1.44.46,5.74,1.78,10.26,2.76a111.22,111.22,0,0,0,11.19,1.9l1.32-2.74c.38-.83.88-1.77,1.3-2.83l1.24-3.35,1.21-3.36.8-3,.75-2.95-3-1.9C402.73,571.62,400.19,570.18,397.69,568.88ZM375,562.11c-.29,1.4-.38,3.07-.82,4.8a39.21,39.21,0,0,1-1.59,5.34,45.14,45.14,0,0,1-4.67,9.33l-2.06,2.77-.57.78-.23.25-.89,1-1,1.12a10,10,0,0,1-1.38,1.38,36.93,36.93,0,0,1-3.72,3.16c-.72.52-1.44,1.11-2.21,1.65l-2.43,1.46a16.14,16.14,0,0,1-2.5,1.33c-.85.39-1.66.83-2.47,1.19-1.7.54-3.2,1.27-4.59,1.59s-2.53.65-3.33.87l-1.29.19-1.29.19a19,19,0,0,1-3.43.36,30.25,30.25,0,0,1-4.89,0c-.89-.07-1.83,0-2.76-.15l-2.8-.44a15,15,0,0,1-2.77-.59l-2.66-.67c-1.65-.68-3.26-1.12-4.54-1.74s-2.35-1.14-3.11-1.49-1.12-.68-1.12-.68l-1.12-.68-1.29-.77c-.49-.31-1-.74-1.57-1.16L304,591.13c-.62-.53-1.24-1.14-1.91-1.73a45.28,45.28,0,0,1-3.9-4,44.67,44.67,0,0,1-5.68-8.77,25.69,25.69,0,0,1-1.42-3.13l-.44-1.23-.46-1.22a28.54,28.54,0,0,1-.92-3.31,41.78,41.78,0,0,1,0-20.75,28.56,28.56,0,0,1,.92-3.31l.46-1.22.44-1.23a25.69,25.69,0,0,1,1.42-3.13,44.66,44.66,0,0,1,5.68-8.77,45.24,45.24,0,0,1,3.9-4c.67-.59,1.28-1.2,1.91-1.73l1.86-1.37c.58-.42,1.07-.86,1.57-1.16l1.29-.77,1.12-.68s.4-.27,1.12-.68,1.83-.85,3.11-1.49,2.9-1.06,4.54-1.74l2.66-.67a15,15,0,0,1,2.77-.59l2.8-.44c.93-.11,1.86-.09,2.76-.15a30.25,30.25,0,0,1,4.89,0,19,19,0,0,1,3.43.36l1.29.19,1.29.19c.8.22,1.95.53,3.33.87s2.9,1.05,4.59,1.59c.82.36,1.63.8,2.47,1.19a16.16,16.16,0,0,1,2.5,1.33l2.43,1.46c.77.53,1.48,1.12,2.21,1.65a36.93,36.93,0,0,1,3.72,3.16,10,10,0,0,1,1.38,1.38l1,1.12.89,1,.23.25.57.78,2.06,2.77a45.14,45.14,0,0,1,4.67,9.33,39.19,39.19,0,0,1,1.59,5.34c.44,1.73.53,3.4.82,4.8l.28,4.77Z" transform="translate(-86.8 -89)"/><g class="cls-37"><path class="cls-2" d="M1181.92,182.16a34,34,0,1,1,34-34A34.06,34.06,0,0,1,1181.92,182.16Zm0-60a26,26,0,1,0,26,26A26,26,0,0,0,1181.92,122.13Z" transform="translate(-86.8 -89)"/><path class="cls-2" d="M1233,156.93c-3.12-1.64-6.29-3-7.34-3.41,0-.22.07-.45.1-.66.19-2.83.27-4.72.27-4.72s-.07-1.89-.27-4.72c0-.21-.07-.44-.1-.66,1.06-.43,4.22-1.77,7.34-3.41,1.9-1,3.83-2.08,5.19-2.92l2.27-1.44-.57-2.24-.61-2.29-.92-2.56-.95-2.55c-.33-.8-.7-1.52-1-2.15l-1-2.08a84.64,84.64,0,0,0-8.52,1.45c-3.44.75-6.72,1.75-7.82,2.1l-.35-.57c-.82-1.15-1.55-2.08-2-2.75l-.58-.77-.23-.25-.88-1-1-1.1a12.11,12.11,0,0,0-1.37-1.37l-.5-.45c.52-1,2.09-4.05,3.45-7.37.85-2,1.54-4,2.06-5.53l.82-2.58-1.85-1.38c-1.09-.86-2.73-1.74-4.29-2.72a44.27,44.27,0,0,0-4.51-2.35l-2.09-1s-3,3.22-5.62,6.62c-1.31,1.69-2.54,3.42-3.41,4.73-.58.86-1,1.52-1.23,1.89-.21-.06-.43-.13-.63-.18l-3.32-.85-1.28-.2-1.28-.2a21.69,21.69,0,0,0-3.4-.36l-.67,0c-.25-1.13-1-4.5-2.09-7.88-1.27-4-3-8-3-8l-2.3.13c-1.38.06-3.21.42-5,.68a42.27,42.27,0,0,0-5,1.1l-2.24.59s-.07,1.09-.1,2.73,0,3.81.05,6c.13,3.53.55,6.95.7,8.05l-.61.26-3.09,1.48c-.72.41-1.12.66-1.12.66l-1.11.68-1.28.77c-.49.31-1,.73-1.56,1.14l-.54.4-1.79-1.36c-1.28-.94-3.07-2.2-4.86-3.32-3.57-2.27-7.49-4.24-7.49-4.24l-1.69,1.57-3.42,3.76c-1.18,1.42-2.25,2.93-3.09,4a15.29,15.29,0,0,0-1,1.37l-.33.54s2.63,3.53,5.5,6.67c2.33,2.62,4.92,5,5.74,5.74-.09.19-.22.4-.3.59a28.21,28.21,0,0,0-1.41,3.12l-.45,1.22-.45,1.22a30.86,30.86,0,0,0-.92,3.29c-.06.21-.11.43-.16.64-1.16,0-4.65.21-8.07.71-4.22.56-8.5,1.57-8.5,1.57l-.09.63a12.59,12.59,0,0,0-.16,1.66l-.25,5.07.25,5.07a12.59,12.59,0,0,0,.16,1.66l.09.63s4.28,1,8.5,1.57c3.42.5,6.91.67,8.07.71.05.22.1.44.16.64a30.85,30.85,0,0,0,.92,3.29l.45,1.22.45,1.22a28.19,28.19,0,0,0,1.41,3.12c.08.19.21.4.3.59-.82.74-3.41,3.13-5.74,5.74-2.88,3.14-5.5,6.67-5.5,6.67l.33.54a15.29,15.29,0,0,0,1,1.37c.84,1.1,1.9,2.62,3.09,4l3.42,3.76,1.69,1.57s3.91-2,7.49-4.24c1.79-1.12,3.58-2.39,4.86-3.32l1.79-1.36.54.4c.57.42,1.07.83,1.56,1.14l1.28.77,1.11.67s.4.26,1.12.66l3.09,1.48.61.26c-.15,1.11-.57,4.52-.7,8.05-.09,2.14-.09,4.31-.05,6s.1,2.73.1,2.73l2.24.59a42.34,42.34,0,0,0,5,1.1c1.83.26,3.66.62,5,.68l2.3.13s1.73-4,3-8c1.07-3.38,1.85-6.75,2.09-7.88l.67,0a21.73,21.73,0,0,0,3.4-.36l1.28-.2,1.28-.2,3.32-.85c.21,0,.42-.12.63-.18.23.37.65,1,1.23,1.89.88,1.31,2.1,3,3.41,4.73,2.6,3.4,5.62,6.62,5.62,6.62l2.09-1a44.34,44.34,0,0,0,4.51-2.35c1.57-1,3.2-1.87,4.29-2.72l1.85-1.38-.82-2.58c-.52-1.55-1.21-3.51-2.06-5.53-1.36-3.31-2.94-6.38-3.45-7.37l.5-.45A12.05,12.05,0,0,0,1214,178l1-1.1.88-1,.23-.25.58-.77c.49-.67,1.22-1.6,2-2.75l.35-.57c1.09.35,4.37,1.36,7.82,2.1a84.69,84.69,0,0,0,8.52,1.45l1-2.08c.29-.63.67-1.35,1-2.15l.95-2.55.92-2.56.61-2.29.57-2.24-2.27-1.44C1236.81,159,1234.88,157.92,1233,156.93Zm-17.27-5.16c-.22,1.06-.29,2.34-.62,3.66a29.94,29.94,0,0,1-1.21,4.06,34.39,34.39,0,0,1-3.55,7.1l-1.57,2.11-.44.59-.18.19-.68.73-.77.85a7.61,7.61,0,0,1-1,1.05,28.17,28.17,0,0,1-2.83,2.41c-.55.4-1.1.85-1.68,1.25l-1.85,1.12a12.31,12.31,0,0,1-1.91,1c-.65.3-1.26.63-1.88.91-1.29.41-2.44,1-3.5,1.21s-1.93.49-2.54.66l-1,.14-1,.15a14.49,14.49,0,0,1-2.61.27,23,23,0,0,1-3.73,0c-.68-.05-1.39,0-2.1-.12l-2.14-.34a11.42,11.42,0,0,1-2.11-.45l-2-.51c-1.25-.52-2.48-.85-3.46-1.32s-1.79-.87-2.37-1.13-.85-.52-.85-.52l-.85-.52-1-.58c-.37-.23-.75-.57-1.19-.88l-1.42-1c-.48-.4-.94-.87-1.45-1.32a34.46,34.46,0,0,1-3-3.06,34,34,0,0,1-4.32-6.68,19.5,19.5,0,0,1-1.08-2.39l-.34-.93-.35-.93a21.74,21.74,0,0,1-.7-2.52,31.81,31.81,0,0,1,0-15.8,21.74,21.74,0,0,1,.7-2.52l.35-.93.34-.94a19.5,19.5,0,0,1,1.08-2.39,34,34,0,0,1,4.32-6.68,34.46,34.46,0,0,1,3-3.06c.51-.45,1-.92,1.45-1.32l1.42-1c.44-.32.82-.65,1.19-.88l1-.58.85-.52s.3-.2.85-.52,1.39-.65,2.37-1.13,2.2-.81,3.46-1.32l2-.51a11.42,11.42,0,0,1,2.11-.45l2.14-.34c.71-.09,1.42-.07,2.1-.12a23,23,0,0,1,3.73,0,14.52,14.52,0,0,1,2.61.27l1,.15,1,.14c.61.17,1.48.4,2.54.66s2.21.8,3.5,1.21c.62.27,1.24.61,1.88.91a12.26,12.26,0,0,1,1.91,1l1.85,1.12c.59.41,1.13.86,1.68,1.25a28.17,28.17,0,0,1,2.83,2.41,7.63,7.63,0,0,1,1,1.05l.77.85.68.73.18.19.44.59,1.57,2.11a34.39,34.39,0,0,1,3.55,7.1,29.91,29.91,0,0,1,1.21,4.06c.33,1.31.4,2.59.62,3.66l.21,3.63Z" transform="translate(-86.8 -89)"/></g><g class="cls-37"><path class="cls-2" d="M515,212a34,34,0,1,1,34-34A34.06,34.06,0,0,1,515,212Zm0-60a26,26,0,1,0,26,26A26,26,0,0,0,515,152Z" transform="translate(-86.8 -89)"/><path class="cls-2" d="M566.06,186.79c-3.12-1.64-6.29-3-7.34-3.41,0-.22.07-.45.1-.66.19-2.83.27-4.72.27-4.72s-.07-1.89-.27-4.72c0-.21-.07-.44-.1-.66,1.06-.43,4.22-1.77,7.34-3.41,1.9-1,3.83-2.08,5.19-2.92l2.27-1.44-.57-2.24-.61-2.29-.92-2.56-.95-2.55c-.33-.8-.7-1.52-1-2.15l-1-2.08a84.64,84.64,0,0,0-8.52,1.45c-3.44.75-6.72,1.75-7.82,2.1l-.35-.57c-.82-1.15-1.55-2.08-2-2.75l-.58-.77-.23-.25-.88-1-1-1.1a12.11,12.11,0,0,0-1.37-1.37l-.5-.45c.52-1,2.09-4.05,3.45-7.37.85-2,1.54-4,2.06-5.53l.82-2.58-1.85-1.38c-1.09-.86-2.73-1.74-4.29-2.72a44.27,44.27,0,0,0-4.51-2.35l-2.09-1s-3,3.22-5.62,6.62c-1.31,1.69-2.54,3.42-3.41,4.73-.58.86-1,1.52-1.23,1.89-.21-.06-.43-.13-.63-.18l-3.32-.85-1.28-.2-1.28-.2a21.69,21.69,0,0,0-3.4-.36l-.67,0c-.25-1.13-1-4.5-2.09-7.88-1.27-4-3-8-3-8l-2.3.13c-1.38.06-3.21.42-5,.68a42.27,42.27,0,0,0-5,1.1l-2.24.59s-.07,1.09-.1,2.73,0,3.81.05,6c.13,3.53.55,6.95.7,8.05l-.61.26-3.09,1.48c-.72.41-1.12.66-1.12.66l-1.11.68-1.28.77c-.49.31-1,.73-1.56,1.14l-.54.4-1.79-1.36c-1.28-.94-3.07-2.2-4.86-3.32-3.57-2.27-7.49-4.24-7.49-4.24l-1.69,1.57-3.42,3.76c-1.18,1.42-2.25,2.93-3.09,4a15.29,15.29,0,0,0-1,1.37l-.33.54s2.63,3.53,5.5,6.67c2.33,2.62,4.92,5,5.74,5.74-.09.19-.22.4-.3.59a28.21,28.21,0,0,0-1.41,3.12l-.45,1.22-.45,1.22a30.86,30.86,0,0,0-.92,3.29c-.06.21-.11.43-.16.64-1.16,0-4.65.21-8.07.71-4.22.56-8.5,1.57-8.5,1.57l-.09.63a12.59,12.59,0,0,0-.16,1.66l-.25,5.07.25,5.07a12.59,12.59,0,0,0,.16,1.66l.09.63s4.28,1,8.5,1.57c3.42.5,6.91.67,8.07.71.05.22.1.44.16.64a30.85,30.85,0,0,0,.92,3.29l.45,1.22.45,1.22a28.19,28.19,0,0,0,1.41,3.12c.08.19.21.4.3.59-.82.74-3.41,3.13-5.74,5.74-2.88,3.14-5.5,6.67-5.5,6.67l.33.54a15.29,15.29,0,0,0,1,1.37c.84,1.1,1.9,2.62,3.09,4l3.42,3.76,1.69,1.57s3.91-2,7.49-4.24c1.79-1.12,3.58-2.39,4.86-3.32l1.79-1.36.54.4c.57.42,1.07.83,1.56,1.14l1.28.77,1.11.67s.4.26,1.12.66l3.09,1.48.61.26c-.15,1.11-.57,4.52-.7,8.05-.09,2.14-.09,4.31-.05,6s.1,2.73.1,2.73l2.24.59a42.34,42.34,0,0,0,5,1.1c1.83.26,3.66.62,5,.68l2.3.13s1.73-4,3-8c1.07-3.38,1.85-6.75,2.09-7.88l.67,0a21.73,21.73,0,0,0,3.4-.36l1.28-.2,1.28-.2,3.32-.85c.21,0,.42-.12.63-.18.23.37.65,1,1.23,1.89.88,1.31,2.1,3,3.41,4.73,2.6,3.4,5.62,6.62,5.62,6.62l2.09-1a44.34,44.34,0,0,0,4.51-2.35c1.57-1,3.2-1.87,4.29-2.72l1.85-1.38-.82-2.58c-.52-1.55-1.21-3.51-2.06-5.53-1.36-3.31-2.94-6.38-3.45-7.37l.5-.45a12.05,12.05,0,0,0,1.37-1.37l1-1.1.88-1,.23-.25.58-.77c.49-.67,1.22-1.6,2-2.75l.35-.57c1.09.35,4.37,1.36,7.82,2.1a84.69,84.69,0,0,0,8.52,1.45l1-2.08c.29-.63.67-1.35,1-2.15l.95-2.55.92-2.56.61-2.29.57-2.24-2.27-1.44C569.89,188.87,568,187.78,566.06,186.79Zm-17.27-5.16c-.22,1.06-.29,2.34-.62,3.66a29.94,29.94,0,0,1-1.21,4.06,34.39,34.39,0,0,1-3.55,7.1l-1.57,2.11-.44.59-.18.19-.68.73-.77.85a7.61,7.61,0,0,1-1,1.05,28.17,28.17,0,0,1-2.83,2.41c-.55.4-1.1.85-1.68,1.25l-1.85,1.12a12.31,12.31,0,0,1-1.91,1c-.65.3-1.26.63-1.88.91-1.29.41-2.44,1-3.5,1.21s-1.93.49-2.54.66l-1,.14-1,.15a14.49,14.49,0,0,1-2.61.27,23,23,0,0,1-3.73,0c-.68-.05-1.39,0-2.1-.12l-2.14-.34a11.42,11.42,0,0,1-2.11-.45l-2-.51c-1.25-.52-2.48-.85-3.46-1.32s-1.79-.87-2.37-1.13-.85-.52-.85-.52l-.85-.52-1-.58c-.37-.23-.75-.57-1.19-.88l-1.42-1c-.48-.4-.94-.87-1.45-1.32a34.46,34.46,0,0,1-3-3.06,34,34,0,0,1-4.32-6.68,19.5,19.5,0,0,1-1.08-2.39l-.34-.93-.35-.93a21.74,21.74,0,0,1-.7-2.52,31.81,31.81,0,0,1,0-15.8,21.74,21.74,0,0,1,.7-2.52l.35-.93.34-.94a19.5,19.5,0,0,1,1.08-2.39,34,34,0,0,1,4.32-6.68,34.46,34.46,0,0,1,3-3.06c.51-.45,1-.92,1.45-1.32l1.42-1c.44-.32.82-.65,1.19-.88l1-.58.85-.52s.3-.2.85-.52,1.39-.65,2.37-1.13,2.2-.81,3.46-1.32l2-.51a11.42,11.42,0,0,1,2.11-.45l2.14-.34c.71-.09,1.42-.07,2.1-.12a23,23,0,0,1,3.73,0,14.52,14.52,0,0,1,2.61.27l1,.15,1,.14c.61.17,1.48.4,2.54.66s2.21.8,3.5,1.21c.62.27,1.24.61,1.88.91a12.26,12.26,0,0,1,1.91,1l1.85,1.12c.59.41,1.13.86,1.68,1.25a28.17,28.17,0,0,1,2.83,2.41,7.63,7.63,0,0,1,1,1.05l.77.85.68.73.18.19.44.59,1.57,2.11a34.39,34.39,0,0,1,3.55,7.1,29.91,29.91,0,0,1,1.21,4.06c.33,1.31.4,2.59.62,3.66L549,178Z" transform="translate(-86.8 -89)"/></g><rect class="cls-2" x="723.17" y="149.97" width="144.59" height="94.28" transform="translate(1504.13 305.22) rotate(180)"/><polygon class="cls-2" points="636.38 114.64 636.38 181.47 691.78 114.64 636.38 114.64"/><rect class="cls-28" x="723.17" y="166.52" width="144.59" height="23.46" transform="translate(1504.13 267.49) rotate(180)"/><rect class="cls-22" x="735.64" y="111.94" width="160.39" height="100.26"/><polygon class="cls-22" points="896.03 167.15 896.03 241.28 834.57 167.15 896.03 167.15"/><rect class="cls-38" x="735.64" y="125.38" width="160.39" height="29.57"/><circle class="cls-23" cx="757.21" cy="140.16" r="6.13"/><circle class="cls-23" cx="780.66" cy="140.16" r="6.13"/><circle class="cls-23" cx="804.11" cy="140.16" r="6.13"/><circle class="cls-23" cx="827.56" cy="140.16" r="6.13"/><circle class="cls-23" cx="851.01" cy="140.16" r="6.13"/><circle class="cls-23" cx="874.46" cy="140.16" r="6.13"/></g></g></svg>