<svg id="Layer_1" data-name="Layer 1" xmlns="http://www.w3.org/2000/svg" viewBox="0 0 1315.4 910.59"><defs><style>.cls-1{fill:none;}.cls-2{fill:#45737e;}.cls-3{fill:#b3b31c;}.cls-4{fill:#ea7128;}.cls-5{fill:#3aa4a4;}.cls-6{fill:#ffc811;}.cls-7{fill:#ebab48;}.cls-8{fill:#ff8154;}.cls-9{fill:#cf6845;}.cls-10{fill:#ffe7de;}.cls-11{fill:#a6a6a6;}.cls-12{fill:#fff;}.cls-13{fill:#c7c7c7;}.cls-14{fill:#999;}.cls-15{font-size:32.38px;font-family:MyriadPro-Bold, MyriadPro Bold;font-weight:700;}</style></defs><title>banner</title><path class="cls-1" d="M948.68,488.73q-12.82-11.17-25.52-22.49L912.45,471c-12.45,5.49-26.94,1.08-35.35-8.41,0,0-8.44,4-21.07,10l.6,9.37c.87,13.58-8.26,25.66-20.07,30.3,0,0,1.8,18.95,3.78,43.13L851,556.9c13.46,2,23.36,13.46,25.42,26,0,0,13.25,1.55,31.67,3.9l3-6c6-12.19,20-18.08,32.54-16.19,0,0,7-15.33,16.5-35.41L955,524.52C945,515.27,943.32,500.22,948.68,488.73Z" transform="translate(-232.15 -77.6)"/><path class="cls-2" d="M887,382.18c4.67-2.57,8.47-3.57,11.44-3.62a119.48,119.48,0,0,1-10.15-11.83c-3.3-4.57-6.26-9.39-9.15-14.23-6.16-10.3-11.9-20.85-17.55-31.44Q853,304.91,844.7,288.57a243.49,243.49,0,0,1,74.46-4.85,257.22,257.22,0,0,1,70.57,15.79l.12-.32.87.32,8.87-23.1a289.75,289.75,0,0,0-144.87-15,260.75,260.75,0,0,0-66.16,20.11,280.29,280.29,0,0,0-56.23,34.65,283.63,283.63,0,0,0-29.22,25.54l17.25,16.75.5.49A246.36,246.36,0,0,1,744,338.45a294.72,294.72,0,0,1,26.17-18.92q9.79-6.2,20.15-11.43c12.38,20.11,24.88,40.16,37.93,59.84,5.69,8.58,11.35,17.35,17.88,25.32h0a187.55,187.55,0,0,0,15.1,16C866.07,394.3,880,386,887,382.18Z" transform="translate(-232.15 -77.6)"/><path class="cls-2" d="M958.76,450.55l-17.38,7.66-10.73,4.73-7.48,3.3q12.71,11.3,25.52,22.49c-5.36,11.49-3.66,26.54,6.33,35.79l5.09,4.71,9.5,8.8,8.61,8,13.94,12.91c3.64,3.37,9.88,3.81,14.25,1.73a6.37,6.37,0,0,0,3.91-4.3,36.18,36.18,0,0,0,.32-5.84c.07-1.46.32-2.46,1.78-3,1.78-.62,3.65-.89,5.41-1.62,2-.84,4.3-2.26,5-4.46s.21-4.27.4-6.39c.43-4.91,5.89-3.81,9.23-5.39a6,6,0,0,0,3.55-4.47,35.88,35.88,0,0,0,.33-5.85c0-1.27,0-3,1.19-3.79s3-.7,4.36-1.28c4.58-1.95,6.13-6.59,5-11.17A14.23,14.23,0,0,0,1043,496l-9-8.34c4.36-.42,3.73-5.7,2.51-8.61-1.67-4-4.59-7.48-7.55-10.6a50.92,50.92,0,0,0-23.44-14.33,40.62,40.62,0,0,0-7.53-1.31l.19-.35a41,41,0,0,0-16.51,2.82l-3-2.58h0c-2.79-2.41-7.36-6.37-13-11.35C964.78,445.32,962.15,449.06,958.76,450.55Z" transform="translate(-232.15 -77.6)"/><path class="cls-3" d="M764.49,475.24c-.79-6.46-.43-10.8.51-13.71-8.64,3.38-17.4,6.78-26.53,8.55-9,1.74-18.1,2.77-27.18,3.73-16.05,1.68-32.16,2.88-48.26,4a238.37,238.37,0,0,1,45.13-101.34l-19.67-15a264.15,264.15,0,0,0-29,272.81q4.8,10.17,10.45,19.91l21.4-12.43a238.7,238.7,0,0,1-26-65.63,243,243,0,0,1-6-41.54c22.73-3.35,45.48-6.79,68.05-11.09,7.5-1.43,15-2.87,22.39-5,9.37-2.69,18.44-6.66,27.42-10.43l.72-.3c-9.28-6.39-11.26-14.66-13.45-32.47Z" transform="translate(-232.15 -77.6)"/><path class="cls-3" d="M854.6,450.33l.75,11.7.67,10.48c12.63-5.92,21.07-10,21.07-10,8.42,9.49,22.9,13.9,35.35,8.41l10.72-4.72,7.48-3.3,10.73-4.73,17.38-7.66c4.62-2,7.51-7.7,7.24-12.61a6.21,6.21,0,0,0-2.75-5.32,47.9,47.9,0,0,0-4.9-2.38c-1.38-.68-2.13-1.33-2-3,.22-2.4.85-4.69.58-7.12s-1.11-4.33-3.18-5.53c-1.58-.91-3.39-1.36-4.94-2.31-4-2.45-.5-7.49-.93-11.07-.51-4.27-4.71-5.47-8.08-7.07-1.1-.52-2.57-1.14-2.81-2.48s.48-2.84.55-4.23a8.9,8.9,0,0,0-6.82-9,14.45,14.45,0,0,0-9.45.43l-15,6.62c1.13-3.5-2.48-6.18-5.48-6.74-4.8-.89-9.84,1.24-14,3.5-6.62,3.64-12.93,8-17.92,13.71a36.89,36.89,0,0,0-9.36,23s-3.74,1.82-9.91,4.78a12.43,12.43,0,0,1,3.73,7.6Z" transform="translate(-232.15 -77.6)"/><path class="cls-4" d="M798.1,630.63l-1-.15q0,.67,0,1.33A6.21,6.21,0,0,1,798.1,630.63Z" transform="translate(-232.15 -77.6)"/><path class="cls-4" d="M801,549.46l18.79,2.79,11.6,1.72,9,1.33c-2-24.19-3.78-43.13-3.78-43.13,11.81-4.63,20.94-16.72,20.07-30.3l-.6-9.37L855.35,462l-.75-11.7-1.21-19c-.33-5.21-5-10.11-10-11.31a6,6,0,0,0-5.71,1.22c-1.47,1.22-2.63,2.76-4.1,4-1.18,1-2.11.77-3.4.08a30.16,30.16,0,0,0-5.41-2.58c-2-.6-4.33-.8-6.16.41-1.54,1-2.62,2.57-3.95,3.83a4.15,4.15,0,0,1-4.31,1.29c-1.7-.56-3.08-1.86-4.63-2.72s-3.87-1.6-5.76-.89a13.82,13.82,0,0,0-4.62,3.61c-1.06,1.08-2.27,2.72-3.77,3.2-1.14.36-2.23-.5-3.13-1.07a8.94,8.94,0,0,0-10.72.53,14.2,14.2,0,0,0-4.56,10.93l.92,14.31a7,7,0,0,0-5.32.34c-3.46,1.76-4.38,6.2-4.64,9.73-.4,5.36.5,10.8,1.3,16.09a69.31,69.31,0,0,0,2.78,12.49A25.08,25.08,0,0,0,774.51,505c4.24,4,9.75,6.53,15.11,8.69,0,0,1.68,16.32,3.46,37.66A12.3,12.3,0,0,1,801,549.46Z" transform="translate(-232.15 -77.6)"/><path class="cls-4" d="M825.19,645.58c-18.92-1.19-26.22-4.8-28.39-8.25-.47,7.45-2.14,14.85-3.79,22.11-2.44,10.73-5.25,21.38-8.17,32-3.22,11.7-6.6,23.36-10.05,35a239,239,0,0,1-73.3-68.77l-.66.46-19.68,13.64A263.62,263.62,0,0,0,950.85,780l-5-24.24-1,.19,0-.19a236.62,236.62,0,0,1-76.22,3.07,239.11,239.11,0,0,1-41.31-8.86c4.63-22,9.15-44.06,13.07-66.22,2.31-13,4.87-26.25,5-39.52a67.81,67.81,0,0,1-20.25,1.37Z" transform="translate(-232.15 -77.6)"/><path class="cls-5" d="M897,609.15l5.21-10.51,5.88-11.87c-18.42-2.34-31.67-3.9-31.67-3.9-2.06-12.52-12-24-25.42-26l-10.68-1.59-9-1.33-11.6-1.72L801,549.46c-5.13-.76-10.82,2.68-13.08,7.23a6,6,0,0,0-.15,5.83c.88,1.75,2.18,3.24,3.09,5,.7,1.32.39,2.16-.52,3.27a38.17,38.17,0,0,0-3.46,4.36c-1.07,1.77-2,4.07-1.34,6.15.58,1.91,2,3.4,3,5.07.92,1.49,1.29,3.08.32,4.65s-2.39,2.51-3.52,3.8a7.28,7.28,0,0,0-2.14,5.28c.21,1.93,1.41,3.7,2.45,5.28.87,1.32,2.2,2.82,2.46,4.43.19,1.19-.82,2.1-1.57,2.86a9,9,0,0,0-1.79,10.81,14.25,14.25,0,0,0,9.67,6.64l2.66.39,1,.15a5.14,5.14,0,0,0-1.26,6.78,7.83,7.83,0,0,0,1.64,1.78,20.29,20.29,0,0,0,6.79,3.31A68.25,68.25,0,0,0,818.05,645a106.65,106.65,0,0,0,15.72.78,50.89,50.89,0,0,0,19.53-4.24A35.77,35.77,0,0,0,868,629.08s7.76.85,19.53,2.27a11.1,11.1,0,0,1,1-5.18Z" transform="translate(-232.15 -77.6)"/><path class="cls-6" d="M1026.37,465.87c7.08,6.79,10.14,12,10.94,15.58a99.07,99.07,0,0,1,6.8-10c2.35-3,4.84-5.84,7.37-8.65,6.88-7.66,14.1-15,21.38-22.28,11.24-11.22,22.71-22.21,34.27-33.11a240.87,240.87,0,0,1,28.95,108.67l24.74-.6a265,265,0,0,0-42.53-137.7,262.52,262.52,0,0,0-45.59-53.07,265.76,265.76,0,0,0-53.81-37.09l-11.44,21.94a239.79,239.79,0,0,1,66,50.61c-14.8,16.45-29.51,33-43.84,49.85-10.36,12.18-21.06,24.38-29,38.32q-1.29,2.26-2.55,4.55c12.84,1,23.43,8.29,28.35,13Z" transform="translate(-232.15 -77.6)"/><path class="cls-6" d="M987.49,632.68c1.74-7,4.07-13.76,4.56-21,.61-8.9-1.55-17.7-7.1-24.8,0,0,4.76-10.62,11.73-25.54a11,11,0,0,1-4.54-2.42L978.21,546l-8.61-8-9.5-8.8c-9.49,20.08-16.5,35.41-16.5,35.41-12.54-1.9-26.49,4-32.54,16.19l-3,6-5.88,11.87L897,609.15l-8.44,17c-2.21,4.45-.85,10.58,2.39,14.19a6.35,6.35,0,0,0,5.26,2.5,40.6,40.6,0,0,0,5.79-1.38c1.4-.33,2.36-.29,3.23.93,1,1.41,1.74,3,2.8,4.37,1.25,1.64,3.09,3.44,5.21,3.81s4.25-.64,6.27-1.18c1.82-.48,3.59-.45,4.87,1.1,1.15,1.4,1.69,3.2,2.64,4.73s2.62,3.23,4.62,3.48a15.2,15.2,0,0,0,5.84-.91c1.39-.39,3.3-1.22,4.76-.78,1.25.37,1.72,1.89,2.29,2.9a8.91,8.91,0,0,0,11.31,3.86,14.46,14.46,0,0,0,7.41-6.57l6.7-13.51c.77,1.9,3.11,2.74,5,2.82a9.42,9.42,0,0,0,6.29-2.32c3.42-2.85,5.19-7.3,6.24-11.51Z" transform="translate(-232.15 -77.6)"/><path class="cls-5" d="M1136.87,533v0l-1,0c-1.72,36.75-13.28,73.75-33.06,106.92-20.84-9.24-41.74-18.4-62.91-26.87-7.51-3-15.05-6-22.75-8.48-8.53-2.77-17.44-4.29-26.25-5.83,2.55,9.38.77,19.07-1.81,28.22-1.82,6.45-3.09,14.85-9.53,18.44A129.23,129.23,0,0,1,993.67,649c3.39,1.15,6.7,2.51,10,3.93,9.32,4,18.44,8.54,27.49,13.13,12.37,6.28,24.62,12.81,36.81,19.44-29.61,30.73-66.77,53.94-106.65,66.32l7.33,23.63.9-.29.09.29a272.82,272.82,0,0,0,59.84-26.87,280.21,280.21,0,0,0,94.77-94.42,263.94,263.94,0,0,0,28.16-64.26,245.6,245.6,0,0,0,9.2-55.78Z" transform="translate(-232.15 -77.6)"/><path class="cls-7" d="M233,388.08c-6.3-29.11,21.68-59.87,62.49-68.71s79,7.59,85.32,36.7-21.68,59.87-62.49,68.71a102.27,102.27,0,0,1-29.13,2.13l-22.33,17.95,4.54-21.1C251.55,418,236.75,405.24,233,388.08Z" transform="translate(-232.15 -77.6)"/><path class="cls-8" d="M417.42,326c-6.3-29.11-44.5-45.54-85.32-36.7S263.3,328.86,269.6,358s44.5,45.54,85.32,36.7a102.28,102.28,0,0,0,27.4-10.12l27.76,7.1-12.87-17.32C412.93,360.84,421.13,343.11,417.42,326Z" transform="translate(-232.15 -77.6)"/><path class="cls-7" d="M274.51,684.95a70.85,70.85,0,1,0,95.77,29.44A70.93,70.93,0,0,0,274.51,684.95ZM361,714.67l-20.51,10.86c-11.3-19.86-26.18-34.18-40.35-40.21A62.8,62.8,0,0,1,361,714.67Zm-86-20.09,27.16,51.28-23.93,12.67C265.34,732.06,264.11,704.85,275,694.58Zm31,58.49,27.16,51.28c-14.61,3.24-36.43-13.06-51.09-38.6Zm34.38,47.46-27.16-51.28,23.93-12.67C350,763.05,351.24,790.27,340.36,800.53Zm-31-58.49-27.16-51.28c14.61-3.24,36.43,13.06,51.09,38.6Zm-49-35.64c-3,15.1.52,35.46,10.6,56L250.5,773.23A62.8,62.8,0,0,1,260.41,706.4Zm-6.09,74,20.51-10.86c11.3,19.86,26.18,34.19,40.35,40.21A62.8,62.8,0,0,1,254.32,780.44Zm100.62,8.28c3-15.1-.52-35.46-10.6-56l20.51-10.86A62.8,62.8,0,0,1,354.94,788.72Z" transform="translate(-232.15 -77.6)"/><rect class="cls-9" x="1415.23" y="643.62" width="114.59" height="145.69" rx="8.64" ry="8.64" transform="translate(68.07 -504.52) rotate(18.34)"/><path class="cls-8" d="M1493.14,774l38.07-114.85-77.95-25.84A12.86,12.86,0,0,0,1437,641.5l-37.75,113.88a12.86,12.86,0,0,0,8.16,16.25l84.35,28a12.86,12.86,0,0,0,16.25-8.16l3.72-11.24Z" transform="translate(-232.15 -77.6)"/><path class="cls-9" d="M1440.59,657.22,1424.75,652a3.33,3.33,0,0,1-2.11-4.21h0a3.33,3.33,0,0,1,4.21-2.11l15.84,5.25a3.33,3.33,0,0,1,2.11,4.21h0A3.33,3.33,0,0,1,1440.59,657.22Z" transform="translate(-232.15 -77.6)"/><path class="cls-9" d="M1436.14,670.65l-15.84-5.25a3.33,3.33,0,0,1-2.11-4.21h0a3.33,3.33,0,0,1,4.21-2.11l15.84,5.25a3.33,3.33,0,0,1,2.11,4.21h0A3.33,3.33,0,0,1,1436.14,670.65Z" transform="translate(-232.15 -77.6)"/><path class="cls-9" d="M1431.68,684.08l-15.84-5.25a3.33,3.33,0,0,1-2.11-4.21h0a3.33,3.33,0,0,1,4.21-2.11l15.84,5.25a3.33,3.33,0,0,1,2.11,4.21h0A3.33,3.33,0,0,1,1431.68,684.08Z" transform="translate(-232.15 -77.6)"/><path class="cls-9" d="M1427.23,697.51l-15.84-5.25a3.33,3.33,0,0,1-2.11-4.21h0a3.33,3.33,0,0,1,4.21-2.11l15.84,5.25a3.33,3.33,0,0,1,2.11,4.21h0A3.33,3.33,0,0,1,1427.23,697.51Z" transform="translate(-232.15 -77.6)"/><path class="cls-9" d="M1422.78,710.93l-15.84-5.25a3.33,3.33,0,0,1-2.11-4.21h0a3.33,3.33,0,0,1,4.21-2.11l15.84,5.25a3.33,3.33,0,0,1,2.11,4.21h0A3.33,3.33,0,0,1,1422.78,710.93Z" transform="translate(-232.15 -77.6)"/><path class="cls-9" d="M1418.33,724.36l-15.84-5.25a3.33,3.33,0,0,1-2.11-4.21h0a3.33,3.33,0,0,1,4.21-2.11l15.84,5.25a3.33,3.33,0,0,1,2.11,4.21h0A3.33,3.33,0,0,1,1418.33,724.36Z" transform="translate(-232.15 -77.6)"/><path class="cls-9" d="M1413.88,737.79,1398,732.54a3.33,3.33,0,0,1-2.11-4.21h0a3.33,3.33,0,0,1,4.21-2.11l15.84,5.25a3.33,3.33,0,0,1,2.11,4.21h0A3.33,3.33,0,0,1,1413.88,737.79Z" transform="translate(-232.15 -77.6)"/><path class="cls-9" d="M1409.43,751.22,1393.59,746a3.33,3.33,0,0,1-2.11-4.21h0a3.33,3.33,0,0,1,4.21-2.11l15.84,5.25a3.33,3.33,0,0,1,2.11,4.21h0A3.33,3.33,0,0,1,1409.43,751.22Z" transform="translate(-232.15 -77.6)"/><path class="cls-9" d="M1483.82,752.22h0S1483.83,752.28,1483.82,752.22Z" transform="translate(-232.15 -77.6)"/><path class="cls-9" d="M1469,678.09c0-.06,0,0,0,0Z" transform="translate(-232.15 -77.6)"/><path class="cls-10" d="M1451.23,684.82c-4.11,5.3-5.51,12.3-5.19,19a64.43,64.43,0,0,0,2.29,13.35,59.6,59.6,0,0,1,1.39,6.94,64.42,64.42,0,0,0,3,13.2c2.29,6.3,6.28,12.22,12.11,15.53s13.65,3.5,18.94-.61c0-.05-.08-.16-.06-.05l-3.86-19.27a14.91,14.91,0,0,0-9.83.43,55.41,55.41,0,0,1-6.52-32.52,14.91,14.91,0,0,0,9.24-3.39l-3.86-19.27c0,.1,0,0,0-.07C1462.48,676.34,1455.33,679.53,1451.23,684.82Z" transform="translate(-232.15 -77.6)"/><path class="cls-7" d="M717.12,126.38l0,0S717.19,126.34,717.12,126.38Z" transform="translate(-232.15 -77.6)"/><path class="cls-7" d="M629.33,184.69c-.07,0,0,0,0,0Z" transform="translate(-232.15 -77.6)"/><path class="cls-7" d="M647.38,204c9,2.5,18.78.61,27.26-3.33a89.8,89.8,0,0,0,16-10,83.09,83.09,0,0,1,8.22-5.46,89.81,89.81,0,0,0,15.43-10.88c6.92-6.28,12.46-14.56,13.64-23.83s-2.7-19.46-10.79-24.12c-.05.07-.16.18,0,.1l-22.82,15.16c.41,4.93,2.48,8.75,5.75,12.46a66.46,66.46,0,0,1-17.3,15.74,66.47,66.47,0,0,1-21.22,9.84c-2.15-4.45-4.87-7.85-9.25-10.13l-22.82,15.16c.12-.08,0,0-.11,0C630.49,194,638.38,201.52,647.38,204Z" transform="translate(-232.15 -77.6)"/><path class="cls-7" d="M710.34,117.17a4.15,4.15,0,0,1-5.78-1.06,48.36,48.36,0,1,0-79.58,55,4.15,4.15,0,0,1-6.83,4.72,56.67,56.67,0,1,1,93.25-64.41A4.15,4.15,0,0,1,710.34,117.17Z" transform="translate(-232.15 -77.6)"/><path class="cls-7" d="M696.67,126.61a4.15,4.15,0,0,1-5.78-1.06,31.75,31.75,0,1,0-52.25,36.1,4.15,4.15,0,0,1-6.83,4.72,40.06,40.06,0,1,1,65.92-45.53A4.15,4.15,0,0,1,696.67,126.61Z" transform="translate(-232.15 -77.6)"/><path class="cls-7" d="M684.72,134.87a4.15,4.15,0,0,1-5.78-1.06,17.22,17.22,0,1,0-28.34,19.58,4.15,4.15,0,0,1-6.83,4.72,25.53,25.53,0,1,1,42-29A4.15,4.15,0,0,1,684.72,134.87Z" transform="translate(-232.15 -77.6)"/><rect class="cls-11" x="1176.61" y="92.52" width="94.27" height="160.7" rx="9.26" ry="9.26" transform="translate(-231.14 275.11) rotate(-16.41)"/><rect class="cls-12" x="1174.51" y="85.4" width="94.27" height="160.7" rx="9.26" ry="9.26" transform="translate(-229.22 274.22) rotate(-16.41)"/><rect class="cls-13" x="1180.47" y="104.36" width="82.34" height="122.78" transform="translate(-229.22 274.22) rotate(-16.41)"/><circle class="cls-13" cx="1241.79" cy="234.16" r="6.23" transform="translate(-247.72 282.71) rotate(-16.41)"/><polygon class="cls-7" points="849.64 844.82 892.52 773.53 888.57 765.17 763.4 824.3 767.35 832.66 849.64 844.82"/><polygon class="cls-7" points="852.25 850.33 769.95 838.17 804.16 910.59 929.34 851.46 895.13 779.04 852.25 850.33"/><path class="cls-7" d="M1456.28,331.5l-.62.77A40.76,40.76,0,0,0,1450,342l4.51,4.26a34.92,34.92,0,0,0-1.76,9.6l-5.71,3a41,41,0,0,0,2,11.36l6.22.37a34.8,34.8,0,0,0,5.6,9.3l-2.42,5.83a40.92,40.92,0,0,0,8.89,6.94l5.07-3.77a34.8,34.8,0,0,0,10.38,3.18l1.86,5.94a41,41,0,0,0,11.52-.77l1.49-6.26a34.93,34.93,0,0,0,8.88-4l5.23,3.34a40.76,40.76,0,0,0,8.06-7.82l.6-.78-2.93-5.84a34.82,34.82,0,0,0,3.44-7.32l6.2-.81a40.76,40.76,0,0,0,1.24-12.88l-6-2.6a35.19,35.19,0,0,0-1.59-6.44l4.3-4.68a40.45,40.45,0,0,0-7.29-11.22l-6.2,1.85q-1.1-1-2.31-2t-2.47-1.76l.29-6.47a40.45,40.45,0,0,0-12.66-4.35l-3.49,5.31a35.17,35.17,0,0,0-6.63,0l-4-5.2a40.76,40.76,0,0,0-12.19,4.32l.72,6.21a34.82,34.82,0,0,0-6.26,5.11Zm46.51,6.6a24.4,24.4,0,1,1-34.25,4.22A24.4,24.4,0,0,1,1502.79,338.1Z" transform="translate(-232.15 -77.6)"/><path class="cls-7" d="M1372.94,348.35l-.62.77a40.77,40.77,0,0,0-5.64,9.72l4.51,4.26a34.92,34.92,0,0,0-1.76,9.6l-5.71,3a41,41,0,0,0,2,11.36l6.22.37a34.8,34.8,0,0,0,5.6,9.3l-2.42,5.83a40.93,40.93,0,0,0,8.89,6.94l5.07-3.77a34.79,34.79,0,0,0,10.38,3.18l1.86,5.94a41,41,0,0,0,11.52-.77l1.49-6.26a34.92,34.92,0,0,0,8.88-4l5.23,3.34a40.76,40.76,0,0,0,8.06-7.82l.6-.78-2.93-5.84a34.81,34.81,0,0,0,3.44-7.32l6.2-.81a40.76,40.76,0,0,0,1.24-12.88l-6-2.6a35.18,35.18,0,0,0-1.59-6.44l4.3-4.68a40.46,40.46,0,0,0-7.29-11.22l-6.2,1.85q-1.1-1-2.31-2t-2.47-1.76l.29-6.47a40.45,40.45,0,0,0-12.66-4.35l-3.49,5.31a35.17,35.17,0,0,0-6.63,0l-4-5.2a40.76,40.76,0,0,0-12.19,4.32l.72,6.21a34.82,34.82,0,0,0-6.26,5.11Zm46.51,6.6a24.4,24.4,0,1,1-34.25,4.22A24.4,24.4,0,0,1,1419.45,355Z" transform="translate(-232.15 -77.6)"/><path class="cls-7" d="M1460.16,416.44l-.62.77a40.76,40.76,0,0,0-5.64,9.72l4.51,4.26a34.93,34.93,0,0,0-1.76,9.6l-5.71,3a41,41,0,0,0,2,11.36l6.22.37a34.8,34.8,0,0,0,5.6,9.3l-2.42,5.83a40.92,40.92,0,0,0,8.89,6.94l5.07-3.77a34.8,34.8,0,0,0,10.38,3.18l1.86,5.94a41,41,0,0,0,11.52-.77l1.49-6.26a34.93,34.93,0,0,0,8.88-4l5.23,3.34a40.77,40.77,0,0,0,8.06-7.82l.6-.78-2.93-5.84a34.81,34.81,0,0,0,3.44-7.32l6.2-.81a40.76,40.76,0,0,0,1.24-12.88l-6-2.6a35.18,35.18,0,0,0-1.59-6.44L1529,426a40.46,40.46,0,0,0-7.29-11.22l-6.2,1.85q-1.1-1-2.31-2t-2.47-1.76l.29-6.47a40.46,40.46,0,0,0-12.66-4.35l-3.49,5.31a35.18,35.18,0,0,0-6.63,0l-4-5.2a40.76,40.76,0,0,0-12.19,4.32l.72,6.21a34.82,34.82,0,0,0-6.26,5.11Zm46.51,6.6a24.4,24.4,0,1,1-34.25,4.22A24.4,24.4,0,0,1,1506.67,423Z" transform="translate(-232.15 -77.6)"/><path class="cls-7" d="M561.86,606.69h0a31.63,31.63,0,0,0-27.4,47.45l27.4,47.45,27.4-47.45A31.63,31.63,0,0,0,561.86,606.69ZM582.14,650h0a23.41,23.41,0,0,1-40.55,0h0a23.41,23.41,0,0,1,20.28-35.12h0A23.41,23.41,0,0,1,582.14,650Z" transform="translate(-232.15 -77.6)"/><circle class="cls-8" cx="650.84" cy="895.73" r="79.15" transform="translate(-604.95 1240.13) rotate(-76.4)"/><circle class="cls-12" cx="650.84" cy="895.73" r="66.06" transform="translate(-604.95 1240.13) rotate(-76.4)"/><path class="cls-14" d="M600.4,883.53l.06-.22-8.45-2-.06.22a61.19,61.19,0,0,0-1.2,6.48l8.52,2.06A52.34,52.34,0,0,1,600.4,883.53Z" transform="translate(-232.15 -77.6)"/><path class="cls-14" d="M701.28,907.93a52.34,52.34,0,0,1-2,6.29l8.52,2.06a61.23,61.23,0,0,0,1.9-6.31l0-.22-8.45-2Z" transform="translate(-232.15 -77.6)"/><path class="cls-14" d="M661.55,836.1l-2,8.47c1.18.2,2.36.43,3.54.71s2.07.54,3.08.86l2-8.47q-1.52-.45-3.08-.83C663.91,836.55,662.73,836.31,661.55,836.1Z" transform="translate(-232.15 -77.6)"/><path class="cls-14" d="M639.72,955.29l2-8.47c-1-.19-2.09-.39-3.13-.65s-2.33-.62-3.48-1l-2,8.47c1.15.35,2.3.68,3.48,1S638.68,955.1,639.72,955.29Z" transform="translate(-232.15 -77.6)"/><text class="cls-15" transform="translate(385.74 819.26) rotate(11.19)">24/7</text><polygon class="cls-7" points="1118.25 481.29 1118.97 439.09 1109.01 444.62 1094.96 419.3 1077.98 428.72 1092.03 454.04 1082.06 459.56 1118.25 481.29"/><polygon class="cls-7" points="1042.71 401.95 1078.9 423.67 1068.93 429.2 1082.98 454.51 1066 463.94 1051.95 438.62 1041.99 444.15 1042.71 401.95"/></svg>