<svg id="Layer_1" data-name="Layer 1" xmlns="http://www.w3.org/2000/svg" viewBox="0 0 1100.85 765.37"><defs><style>.cls-1{fill:#1d8093;}.cls-2{fill:#3a4d57;}.cls-3{fill:#4db6ac;}.cls-4{fill:#ff7043;}.cls-5{fill:#c0ca33;}.cls-6{fill:#ffa726;}</style></defs><title>banner</title><rect class="cls-1" width="1100.85" height="639.34"/><rect class="cls-2" x="603.59" y="-27.14" width="596.82" height="1047.37" transform="translate(1046.98 -580.45) rotate(90)"/><rect class="cls-3" x="499.31" y="639.34" width="102.24" height="102.24"/><rect class="cls-1" x="350.96" y="741.57" width="398.93" height="23.8"/><path class="cls-1" d="M1404.34,940.37H1261.47a77.55,77.55,0,0,1,142.88,0Z" transform="translate(-351.57 -175)"/><path class="cls-4" d="M1000.12,382.46a451.06,451.06,0,0,1,50.44-35.89l38.74-23.12A249.76,249.76,0,0,0,731,306.66l24.68,40.69a446.44,446.44,0,0,0,35.46,49.84c4.48,5.47,9.54,8.61,13.89,8.61,4.74,0,7.22-3.63,8.47-6.67,2.17-5.32,4.3-10.18,6-14.08,1.1-2.51,2-4.68,2.7-6.28,4.28-10.39,15.47-16.84,29.2-16.84a47.8,47.8,0,0,1,18,3.64c13,5.33,22.09,15.44,25,26.12a25.34,25.34,0,0,1-.76,16.59c-3.21,7.78-17.74,20.21-29.2,28.49-6.19,4.49-9.8,10.35-9.9,16.08a14.26,14.26,0,0,0,.42,3.7c.94,3.65,3.33,7,7.07,10a454.58,454.58,0,0,0,39.9,27.85A460.57,460.57,0,0,1,930,454.15c4.9-6.26,11-9.57,17.75-9.57,7.55,0,15.07,4.41,20.64,12.09,10.07,13.92,20.85,25.19,26.22,27.42a19,19,0,0,0,7.24,1.41c11.19,0,22.86-9.34,28.37-22.72,7-17,2.33-35-10.3-40.19-1.65-.68-3.87-1.64-6.43-2.76-3.86-1.69-8.68-3.79-13.92-5.94-5.59-2.29-9.08-6.33-9.83-11.37C988.73,396,992.52,388.67,1000.12,382.46Z" transform="translate(-351.57 -175)"/><path class="cls-5" d="M1102.65,337.75l-40,23.84a442.56,442.56,0,0,0-49.44,35.18c-5.1,4.17-7.95,8.89-7.44,12.32.31,2,1.89,3.67,4.71,4.83,5.3,2.17,10.14,4.28,14,6,2.58,1.13,4.75,2.07,6.33,2.73,16.92,7,23.59,29.92,14.88,51.16-6.88,16.71-21.4,27.93-36.14,27.93a27.38,27.38,0,0,1-10.45-2c-10.79-4.47-26.74-26-29.83-30.26-4-5.47-9-8.61-13.83-8.61-4,0-7.88,2.19-11.12,6.34-9.19,11.76-17.9,24.16-25.94,36.89a461.37,461.37,0,0,1,37.81,26.59c7.07,5.53,10.88,12.84,10.74,20.58-.16,8.52-4.91,16.59-13.37,22.73-14.89,10.76-24.69,20.86-26.36,24.89-4.54,11.08,4.27,25.26,19.64,31.6a39.36,39.36,0,0,0,14.76,3c10.26,0,18.47-4.46,21.43-11.64.67-1.62,1.6-3.76,2.71-6.3,1.7-3.89,3.82-8.73,6-14,3-7.45,9.11-11.9,16.24-11.9s14.23,4.16,20.4,11.7a460,460,0,0,1,36.14,50.8l16.77,26.09a249.8,249.8,0,0,0,21.3-340.38Z" transform="translate(-351.57 -175)"/><path class="cls-6" d="M850.92,478.66a24.18,24.18,0,0,1-9-13.16,19.43,19.43,0,0,1-.58-5.08c.14-7.53,4.43-14.73,12.09-20.28,13.92-10.07,25.19-20.85,27.41-26.22a20,20,0,0,0,.78-12.42c-2.3-9.27-10.45-18.28-22.06-23.06a42.42,42.42,0,0,0-15.92-3.23c-11.53,0-20.83,5.19-24.27,13.54-.68,1.65-1.64,3.86-2.76,6.42-1.69,3.87-3.79,8.68-5.94,13.93-2.59,6.35-7.47,10-13.4,10s-12.45-3.75-18-10.57a456.08,456.08,0,0,1-35.91-50.46l-24.41-39.47a249.77,249.77,0,0,0-4.76,351.12l27.67-15.55,2.36-1.4A446,446,0,0,0,794,617.3c6-4.92,9.2-10.58,8.52-15.14-.58-3.92-3.8-6.05-6.46-7.17l-.05,0c-2-.81-3.93-1.62-5.76-2.4-3.14-1.34-6-2.6-8.52-3.68-1.84-.81-3.47-1.52-4.83-2.1l-1.24-.52-.06,0h0c-15.35-6.32-21.28-27.47-13.21-47.16,6.41-15.57,19.79-26,33.3-26a24.34,24.34,0,0,1,9.28,1.81l.05,0h0c7.78,3.22,20.21,17.74,28.5,29.2A24.64,24.64,0,0,0,844.37,553a15.47,15.47,0,0,0,5.4,1c5,0,9.69-2.6,13.54-7.52a454.64,454.64,0,0,0,27.76-39.75A459.52,459.52,0,0,1,850.92,478.66Z" transform="translate(-351.57 -175)"/><path class="cls-3" d="M1049.64,664.29a451.89,451.89,0,0,0-35.51-49.92c-4.48-5.48-9.55-8.62-13.9-8.62-4.74,0-7.21,3.63-8.45,6.67-2.21,5.39-4.35,10.3-6.07,14.23-1.08,2.47-2,4.56-2.64,6.13-4.28,10.39-15.47,16.84-29.2,16.84a47.87,47.87,0,0,1-18-3.63c-19.66-8.1-30.52-27.2-24.22-42.58,3.22-7.78,17.74-20.21,29.2-28.5,6.19-4.49,9.8-10.35,9.9-16.08.09-5.11-2.51-9.88-7.51-13.8a453.41,453.41,0,0,0-39.76-27.77,459.45,459.45,0,0,1-28.13,40.3c-4.9,6.26-11,9.57-17.74,9.57a20.7,20.7,0,0,1-7.06-1.28A29.68,29.68,0,0,1,836.94,555c-10-13.89-20.8-25.14-26.19-27.4a19,19,0,0,0-7.21-1.4c-11.19,0-22.86,9.34-28.37,22.72-6.94,16.93-2.34,34.94,10.26,40.17l1.31.55c1.45.61,3.18,1.37,5.12,2.22,2.41,1.05,5.19,2.27,8.21,3.56,1.81.77,3.72,1.57,5.68,2.37l.06,0h0c5.59,2.28,9.08,6.3,9.84,11.34,1,6.54-2.81,13.86-10.42,20.09a456.5,456.5,0,0,1-50.47,35.91l-2.45,1.37L726.39,682a249.76,249.76,0,0,0,340.85,9.68Z" transform="translate(-351.57 -175)"/></svg>