<svg id="Layer_1" data-name="Layer 1" xmlns="http://www.w3.org/2000/svg" xmlns:xlink="http://www.w3.org/1999/xlink" viewBox="0 0 669.66 669.66"><defs><style>.cls-1{fill:url(#linear-gradient);}.cls-2{fill:url(#linear-gradient-2);}.cls-18,.cls-3{stroke:#fff;stroke-miterlimit:10;}.cls-3{fill:url(#radial-gradient);}.cls-4{fill:url(#linear-gradient-3);}.cls-5{fill:url(#linear-gradient-4);}.cls-6{fill:url(#linear-gradient-5);}.cls-7{fill:url(#linear-gradient-6);}.cls-8{fill:url(#linear-gradient-7);}.cls-9{fill:url(#linear-gradient-8);}.cls-10{fill:url(#linear-gradient-9);}.cls-11{fill:#4d2977;}.cls-12{opacity:0.1;}.cls-13{fill:#fff;}.cls-14{fill:url(#linear-gradient-10);}.cls-15{fill:url(#linear-gradient-11);}.cls-16{fill:url(#linear-gradient-12);}.cls-17{fill:url(#linear-gradient-13);}.cls-18{fill:none;stroke-width:0.5px;}.cls-19{fill:url(#linear-gradient-14);}</style><linearGradient id="linear-gradient" x1="461.69" y1="377.19" x2="461.35" y2="220.97" gradientUnits="userSpaceOnUse"><stop offset="0.25" stop-color="#871864"/><stop offset="0.37" stop-color="#891d69"/><stop offset="0.51" stop-color="#902a77"/><stop offset="0.65" stop-color="#9b418e"/><stop offset="0.8" stop-color="#aa61ae"/><stop offset="0.96" stop-color="#bd89d7"/><stop offset="1" stop-color="#c395e3"/></linearGradient><linearGradient id="linear-gradient-2" x1="507.92" y1="248.55" x2="507.5" y2="91.92" gradientUnits="userSpaceOnUse"><stop offset="0.13" stop-color="#267b99"/><stop offset="0.27" stop-color="#29809e"/><stop offset="0.44" stop-color="#318eab"/><stop offset="0.62" stop-color="#3ea5c1"/><stop offset="0.81" stop-color="#51c4e0"/><stop offset="0.95" stop-color="#62e2fd"/></linearGradient><radialGradient id="radial-gradient" cx="511.93" cy="342.04" r="635.06" gradientUnits="userSpaceOnUse"><stop offset="0" stop-color="#f0e2ec" stop-opacity="0.66"/><stop offset="0.07" stop-color="#ead6e4" stop-opacity="0.68"/><stop offset="0.18" stop-color="#d8b5ce" stop-opacity="0.74"/><stop offset="0.31" stop-color="#bc7ea9" stop-opacity="0.83"/><stop offset="0.45" stop-color="#953376" stop-opacity="0.95"/><stop offset="0.5" stop-color="#871864"/><stop offset="0.52" stop-color="#973779"/><stop offset="0.61" stop-color="#cfa2c0"/><stop offset="0.67" stop-color="#f1e5ed"/><stop offset="0.7" stop-color="#fff"/></radialGradient><linearGradient id="linear-gradient-3" x1="523.63" y1="383.23" x2="655.49" y2="383.23" xlink:href="#linear-gradient-2"/><linearGradient id="linear-gradient-4" x1="460.52" y1="295.87" x2="486.05" y2="295.87" gradientTransform="translate(273.25 -225.21) rotate(36.99)" xlink:href="#linear-gradient-2"/><linearGradient id="linear-gradient-5" x1="447.3" y1="288.55" x2="489.1" y2="288.55" xlink:href="#linear-gradient"/><linearGradient id="linear-gradient-6" x1="525.14" y1="295.87" x2="550.67" y2="295.87" gradientTransform="translate(450.61 -311.8) rotate(53.01)" xlink:href="#linear-gradient-2"/><linearGradient id="linear-gradient-7" x1="564.27" y1="288.59" x2="521.46" y2="287.58" xlink:href="#linear-gradient"/><linearGradient id="linear-gradient-8" x1="507.81" y1="501.62" x2="504.69" y2="302.88" xlink:href="#linear-gradient"/><linearGradient id="linear-gradient-9" x1="420.01" y1="484.11" x2="516.8" y2="484.11" xlink:href="#linear-gradient-2"/><linearGradient id="linear-gradient-10" x1="181.62" y1="230.29" x2="245.98" y2="230.29" gradientUnits="userSpaceOnUse"><stop offset="0.13" stop-color="#871864"/><stop offset="1" stop-color="#881a66"/><stop offset="1" stop-color="#8b216d"/><stop offset="1" stop-color="#953581"/><stop offset="1" stop-color="#a455a2"/><stop offset="1" stop-color="#ba82cf"/><stop offset="1" stop-color="#c395e3"/></linearGradient><linearGradient id="linear-gradient-11" x1="385.53" y1="396.38" x2="387.8" y2="235.74" xlink:href="#linear-gradient"/><linearGradient id="linear-gradient-12" x1="214.45" y1="181.46" x2="213.89" y2="238.65" xlink:href="#linear-gradient"/><linearGradient id="linear-gradient-13" x1="189.88" y1="378.27" x2="397.24" y2="378.27" xlink:href="#linear-gradient-2"/><linearGradient id="linear-gradient-14" x1="229.23" y1="280.25" x2="228.69" y2="415.36" xlink:href="#linear-gradient-2"/></defs><title>ruzkuk2</title><rect class="cls-1" x="429.23" y="218.55" width="64.52" height="130.88"/><path class="cls-2" d="M274,230.88H741.7C701.33,143.65,611.82,83,507.87,83S314.41,143.65,274,230.88Z" transform="translate(-173.15 -10.76)"/><path class="cls-3" d="M508,11.26c-184.65,0-334.33,149.68-334.33,334.33S323.33,679.92,508,679.92,842.31,530.23,842.31,345.59,692.63,11.26,508,11.26Zm0,593.08c-142.91,0-258.75-115.84-258.75-258.75S365.07,86.83,508,86.83,766.73,202.68,766.73,345.59,650.89,604.35,508,604.35Z" transform="translate(-173.15 -10.76)"/><path class="cls-4" d="M666.89,343.13V343c-.15.27-.33.52-.49.78-7.32,9.07-20.16,15.11-34.82,15.11-.68,0-1.34,0-2-.05s-1.24,0-1.85-.09-1.22,0-1.83,0H584.57c-11.4,0-21.74,3.64-29.22,9.53s-12.1,14-12.1,23c0,18,18.51,32.54,41.32,32.54h50.06a32.09,32.09,0,0,0,22.81-9.5,32.5,32.5,0,0,0,8.34-14.55,26.26,26.26,0,0,0,1.23-5.33,25.08,25.08,0,0,0,.2-3.16V342.72Z" transform="translate(-173.15 -10.76)"/><rect class="cls-5" x="469.03" y="280.32" width="8.52" height="31.11" transform="translate(-255.92 333.52) rotate(-36.99)"/><path class="cls-6" d="M457.23,274.64a22.91,22.91,0,0,0-5.89,31.86l37.76-26A22.91,22.91,0,0,0,457.23,274.64Z" transform="translate(-173.15 -10.76)"/><rect class="cls-7" x="522.35" y="291.61" width="31.11" height="8.52" transform="translate(-195.2 536.76) rotate(-53.01)"/><path class="cls-8" d="M552.18,274.16a22.91,22.91,0,0,0-31.25,8.56l39.81,22.69A22.91,22.91,0,0,0,552.18,274.16Z" transform="translate(-173.15 -10.76)"/><path class="cls-9" d="M505.6,295.87a64.52,64.52,0,0,0-25.81,123.66v69.9H531.4v-69.9A64.52,64.52,0,0,0,505.6,295.87Zm0,81.29a16.77,16.77,0,1,1,16.77-16.77A16.77,16.77,0,0,1,505.6,377.17Z" transform="translate(-173.15 -10.76)"/><path class="cls-10" d="M531.41,443.94V492q0,1.59-.15,3.14a32.24,32.24,0,0,1-32.11,29.12H466.89a32.26,32.26,0,1,1,0-64.52h32.26q.72,0,1.43,0c.48.05,1,.08,1.45.09s1,.05,1.56.05A32.19,32.19,0,0,0,531.41,443.94Z" transform="translate(-173.15 -10.76)"/><rect class="cls-11" x="523.59" y="356.35" width="2.58" height="37.64" transform="translate(-234.95 632.83) rotate(-60.14)"/><polygon class="cls-11" points="358.48 374.47 363.83 365.15 370.48 375.17 358.48 374.47"/><rect class="cls-11" x="331.16" y="295.22" width="2.58" height="37.64"/><polygon class="cls-11" points="337.82 303.17 327.07 303.17 332.45 292.42 337.82 303.17"/><g class="cls-12"><rect class="cls-11" x="585.14" y="329.35" width="11.45" height="167.04" transform="translate(-234.51 708.99) rotate(-60.14)"/><polygon class="cls-11" points="447.64 446.8 471.4 405.41 500.91 449.86 447.64 446.8"/></g><g class="cls-12"><rect class="cls-11" x="326.34" y="122.89" width="13.48" height="209.18"/><polygon class="cls-11" points="361.17 167.12 304.99 167.12 333.08 107.35 361.17 167.12"/></g><circle class="cls-13" cx="332.45" cy="349.63" r="16.77"/><polygon class="cls-14" points="245.84 240.68 245.98 219.9 181.62 220.43 181.89 240.68 245.84 240.68"/><path class="cls-15" d="M419.2,230.55c-5.42,10.74-17.88,18.27-32.41,18.27-14.23,0-26.49-7.22-32.08-17.64l0,129.83,64.55-2.91V230.54Z" transform="translate(-173.15 -10.76)"/><circle class="cls-16" cx="214.2" cy="206.94" r="26.94"/><path class="cls-17" d="M419.23,333v58.22c0,.58,0,1.15,0,1.72,0,.37,0,.76-.07,1.14,0,.63-.12,1.26-.2,1.9l-.07.54c0,.3-.1.59-.16.9-.08.46-.18.93-.28,1.38s-.29,1.19-.46,1.78c-.1.35-.19.7-.31,1s-.18.58-.29.86-.16.48-.25.72c-.17.46-.35.92-.54,1.37s-.36.84-.57,1.25a1.74,1.74,0,0,1-.1.22c-.16.32-.32.65-.49,1-.25.5-.53,1-.82,1.48-.19.32-.4.66-.6,1l0,.05c-.25.4-.52.79-.79,1.17l-.49.68-.13.17c-.35.48-.72.93-1.1,1.38s-.6.7-.91,1c-.71.76-1.46,1.48-2.23,2.17a28.74,28.74,0,0,1-19.14,7.37H208.61c-16.61,0-30.09-14.44-30.09-32.26a33.39,33.39,0,0,1,8.81-22.81A29.06,29.06,0,0,1,208.61,359H357l16.48-.09C393.28,357,410.16,347,419.23,333Z" transform="translate(-173.15 -10.76)"/><line class="cls-18" x1="332.52" y1="5.26" x2="332.52" y2="66.73"/><line class="cls-18" x1="662.97" y1="333.5" x2="601.49" y2="333.5"/><line class="cls-18" x1="63.56" y1="329.11" x2="2.08" y2="329.11"/><line class="cls-18" x1="332.52" y1="603.28" x2="332.52" y2="664.76"/><path class="cls-19" d="M280,423.57l-.12.18-67.06.11c-.86-.45,1.74,0,0,0-19.39,0-35.16-15-35.16-33.66V356.1a33.12,33.12,0,0,1,10.28-23.9,35.74,35.74,0,0,1,24.83-9.89c19.39,0,35.1,15.13,35.1,33.79V390.2c0,.28,0,.57,0,.84a1.12,1.12,0,0,1,0,.22c0,.46,0,.9-.07,1.35v0c0,.19,0,.38,0,.57,0,16.78,14.12,30.37,31.54,30.37Z" transform="translate(-173.15 -10.76)"/></svg>