<svg id="Layer_1" data-name="Layer 1" xmlns="http://www.w3.org/2000/svg" viewBox="0 0 273 544"><defs><style>.cls-1{fill:#1d8093;}.cls-2{fill:#e5e5e5;}.cls-3{fill:#ecf0f1;}.cls-4{fill:#34495e;}.cls-5{fill:#ff614f;}.cls-6{fill:#84e570;}.cls-7{fill:#7d57ff;}.cls-8{fill:#e2e1e0;}.cls-9{fill:#e77f26;}.cls-10{opacity:0.5;}.cls-11{fill:#0061fa;opacity:0.06;}.cls-12{fill:#e55579;}.cls-13{fill:#0051c4;}.cls-14{fill:#e46400;}.cls-15{fill:#c0003b;}.cls-16{fill:#4dd0e1;}.cls-17{fill:#0a4e7c;}.cls-18{fill:#ff1a2c;}.cls-19{fill:#ff2c4d;}.cls-20{fill:#ffd74c;}.cls-21{opacity:0.2;}</style></defs><title>22</title><rect class="cls-1" width="273" height="545" rx="5" ry="5"/><g id="Line"><path class="cls-2" d="M109.71,416,109,419.2s2.31.5,4.64.91c1.17.2,2.33.39,3.22.52l1.5.2.36-3.21-1.4-.19c-.85-.12-2-.31-3.12-.5C112,416.53,109.71,416,109.71,416Z"/><path class="cls-2" d="M96.43,412.49l-1,3.07,1.41.46c.85.25,2,.61,3.12.93,2.27.66,4.57,1.22,4.57,1.22l.78-3.14s-2.24-.55-4.46-1.19c-1.11-.31-2.21-.66-3-.9Z"/><path class="cls-2" d="M83.7,407.45l-1.4,2.92s.53.27,1.34.64,1.89.86,3,1.31,2.19.91,3,1.22l1.39.52,1.12-3-1.34-.51c-.81-.3-1.87-.74-2.94-1.18s-2.1-.93-2.89-1.27S83.7,407.45,83.7,407.45Z"/><path class="cls-2" d="M72.12,400.58,70,403s.12.1.34.25l.9.63,1.27.89c.47.32,1,.64,1.5,1s1,.66,1.51.94l1.35.78.94.54c.22.13.36.2.36.2l1.56-2.84s-.13-.06-.35-.19l-.89-.52L77.23,404c-.45-.26-.92-.58-1.4-.87s-1-.59-1.39-.89l-1.18-.82-.83-.58C72.22,400.67,72.12,400.58,72.12,400.58Z"/><path class="cls-2" d="M62.58,391.26,59.76,393l.93,1.19c.53.74,1.38,1.61,2.17,2.52s1.71,1.71,2.35,2.36c.32.33.62.55.81.73l.31.27,2.37-2.24-.29-.25c-.18-.16-.46-.38-.76-.68-.59-.6-1.43-1.35-2.18-2.18s-1.53-1.65-2-2.33Z"/><path class="cls-2" d="M56.77,379.3l-3.23.79.38,1.46c.3.85.68,2,1.12,3.13l.73,1.62a15.09,15.09,0,0,0,.67,1.39l.73,1.32,3-1.43-.68-1.22a12.67,12.67,0,0,1-.63-1.29l-.68-1.5c-.41-1-.76-2.11-1-2.91Z"/><path class="cls-2" d="M56.44,366l-3.29-.22-.24,1.49c0,.22-.08.47-.11.72l-.07.81-.16,1.77c0,.61,0,1.21,0,1.78,0,.28,0,.56,0,.82s0,.5,0,.73c.07.9.11,1.51.11,1.51L56,375l-.1-1.4c0-.21,0-.44,0-.68s0-.5,0-.76c0-.53,0-1.09,0-1.65s.1-1.12.15-1.64l.07-.75c0-.24.08-.46.11-.67Z"/><path class="cls-2" d="M60.75,353.4l-3-1.21s-.26.55-.62,1.38-.85,1.94-1.28,3.07-.83,2.27-1.13,3.13c-.16.43-.25.79-.33,1l-.12.4,3.23.55.11-.37c.07-.24.16-.58.31-1,.29-.79.63-1.86,1.06-2.9s.85-2.08,1.2-2.85S60.75,353.4,60.75,353.4Z"/><path class="cls-2" d="M67,341.07l-2.91-1.42-.65,1.27-1.47,2.85L59.79,348l2.89,1.45Z"/><path class="cls-2" d="M72.42,327.73l-3.26-.44s-.13.55-.4,1.35L68.32,330l-.58,1.55c-.39,1.06-.86,2.08-1.18,2.86L66,335.7,69,336.8l.63-1.38c.35-.84.84-1.95,1.26-3.09l.62-1.67.46-1.48C72.28,328.32,72.42,327.73,72.42,327.73Z"/><path class="cls-2" d="M72.67,313.47l-3.25.57a8.41,8.41,0,0,1,.33,1.37l.27,1.42.15,1.65a12.65,12.65,0,0,1,0,1.65,14,14,0,0,1,0,1.44L70,323l3.3.11.14-1.51c.06-.45,0-1,0-1.55a14,14,0,0,0,0-1.78l-.16-1.77L73,314.94A9.21,9.21,0,0,0,72.67,313.47Z"/><path class="cls-2" d="M66.25,300.59l-2.85,1.52c.32.58.61,1.17.95,1.74,1.18,2,2.4,4,3.5,6.08L71,309c-1.16-2.23-2.47-4.39-3.73-6.57C66.92,301.86,66.6,301.21,66.25,300.59Z"/><path class="cls-2" d="M60.54,288.16l-3,1.1.52,1.4c.29.85.78,1.93,1.25,3l.69,1.6.66,1.37.64,1.34,2.9-1.43-.62-1.29L62.91,294l-.67-1.55c-.45-1.06-.92-2.1-1.2-2.91Z"/><path class="cls-2" d="M57.57,275.13l-3.23.16s0,.15,0,.43l.1,1.11c0,.46.09,1,.19,1.55s.16,1.17.28,1.76c.25,1.18.48,2.37.73,3.23l.39,1.46,3.11-.89-.36-1.37c-.24-.82-.45-1.92-.68-3-.11-.55-.17-1.11-.26-1.62s-.14-1-.17-1.42-.07-.76-.09-1S57.57,275.13,57.57,275.13Z"/></g><path class="cls-3" d="M125.54,517.2a4.84,4.84,0,0,1-6.71-1.3L60.52,421.16a4.84,4.84,0,0,1,1.87-6.57l76.13-46.85a4.84,4.84,0,0,1,6.71,1.3l58.31,94.74a4.84,4.84,0,0,1-1.87,6.57Z"/><path class="cls-4" d="M203.53,463.77,145.22,369a4.84,4.84,0,0,0-6.71-1.3L121.89,378,185,480.57l16.62-10.23A4.84,4.84,0,0,0,203.53,463.77Z"/><ellipse class="cls-5" cx="190.91" cy="451.8" rx="2.52" ry="2.31" transform="translate(-208.48 167.1) rotate(-31.61)"/><ellipse class="cls-6" cx="194.91" cy="458.3" rx="2.52" ry="2.31" transform="translate(-211.29 170.16) rotate(-31.61)"/><ellipse class="cls-7" cx="199.08" cy="465.08" rx="2.52" ry="2.31" transform="translate(-214.23 173.35) rotate(-31.61)"/><path class="cls-8" d="M183.08,446.52a3.75,3.75,0,0,1-5.19-1l-36.91-60a3.75,3.75,0,0,1,1.45-5.09h0a3.75,3.75,0,0,1,5.19,1l36.91,60a3.75,3.75,0,0,1-1.45,5.09Z"/><rect class="cls-9" x="103.14" y="390.54" width="39.73" height="71.86" transform="matrix(0.85, -0.52, 0.52, 0.85, -205.28, 127.74)"/><rect class="cls-10" x="102.81" y="403.94" width="7.27" height="108.68" transform="translate(-224.41 123.79) rotate(-31.61)"/><rect class="cls-10" x="93.72" y="409.46" width="7.27" height="108.68" transform="translate(-228.65 119.84) rotate(-31.61)"/><path class="cls-11" d="M203.53,463.77l-29.12-47.32L89.71,468.58l29.12,47.32a4.84,4.84,0,0,0,6.71,1.3l76.13-46.85A4.84,4.84,0,0,0,203.53,463.77Z"/><path class="cls-12" d="M43.89,132.07S-2.67,180.55,31.37,242L53.78,240l22.41-2.06C98.49,171.27,43.89,132.07,43.89,132.07Z"/><path class="cls-13" d="M55.47,239.82l-.49,0L31.37,242s6.67,7.07,11.85,8.19l12.59-1.15.5,0,11-1c4.28-2,8.82-10.09,8.82-10.09Z"/><rect class="cls-14" x="43.2" y="249.16" width="23.41" height="6.77" transform="translate(-22.84 6.07) rotate(-5.24)"/><rect class="cls-15" x="46.11" y="255.92" width="18.48" height="3.18" transform="translate(-23.3 6.14) rotate(-5.24)"/><polygon class="cls-16" points="24.83 206.93 4.5 241.66 36.42 237.6 24.83 206.93"/><polygon class="cls-16" points="73.97 200.15 100.28 230.61 68.15 232.42 73.97 200.15"/><path class="cls-17" d="M59.69,147.62a93.18,93.18,0,0,0-15.8-15.55,93.21,93.21,0,0,0-12.71,18.17Z"/><polygon class="cls-18" points="57.96 285.91 64.47 271.78 70.99 257.66 55.5 259.08 40.02 260.5 48.99 273.21 57.96 285.91"/><polygon class="cls-19" points="56.86 277.94 61.71 268.01 66.56 258.07 55.13 259.12 43.71 260.17 50.28 269.05 56.86 277.94"/><polygon class="cls-20" points="55.81 268.12 59.29 263.27 62.77 258.42 54.98 259.13 47.2 259.85 51.5 263.98 55.81 268.12"/><path class="cls-21" d="M59.69,147.62h0a97.76,97.76,0,0,0-15-15l0,0-.63-.48,0,0-.06,0-.05.06,0,0-.28.31,14,152.84.42.6,6.51-14.12L71,257.66l-4.43.41-1.86.17-.29-3.16,2.45-.23-.62-6.74,1.06-.1c4.28-2,8.82-10.09,8.82-10.09h.07q1-3.07,1.84-6.05l22.25-1.26L81.51,208.88C82.25,181.46,70.31,160.63,59.69,147.62Z"/></svg>