<svg xmlns="http://www.w3.org/2000/svg" viewBox="0 0 81 81"><defs><style>.cls-1{isolation:isolate;}.cls-2{fill:#1ba39c;}.cls-3,.cls-4{fill:none;stroke:#fff;stroke-miterlimit:10;stroke-width:0.75px;}.cls-4{mix-blend-mode:multiply;}</style></defs><title>1</title><g class="cls-1"><g id="Layer_1" data-name="Layer 1"><rect class="cls-2" width="81" height="81" rx="5" ry="5"/><path class="cls-3" d="M49.19,66.47a2,2,0,0,0,.52-1.37,1.72,1.72,0,0,0-1.56-1.84h-15a1.72,1.72,0,0,0-1.56,1.84,2,2,0,0,0,.52,1.37,2.05,2.05,0,0,0,0,2.74,2,2,0,0,0-.52,1.37,1.81,1.81,0,0,0,1.15,1.77,1.71,1.71,0,0,0-.16.73v.27a1.73,1.73,0,0,0,1.72,1.72h1.4a2.2,2.2,0,0,0,2.18,2.57h5.57a2.2,2.2,0,0,0,2.18-2.57H47a1.72,1.72,0,0,0,1.72-1.72v-.27a1.71,1.71,0,0,0-.16-.73,1.81,1.81,0,0,0,1.15-1.77,2,2,0,0,0-.52-1.37,2.05,2.05,0,0,0,0-2.74Zm-2,5.94H34.09a.26.26,0,0,1,0-.52H47.16a.26.26,0,0,1,0,.52Zm0-2.89H34.09a.26.26,0,0,1,0-.52H47.16a.26.26,0,0,1,0,.52Zm0-2.89H34.09a.26.26,0,0,1,0-.52H47.16a.26.26,0,0,1,0,.52Z"/><circle class="cls-3" cx="35.14" cy="49.63" r="4.36"/><circle class="cls-3" cx="27.8" cy="41.73" r="6.23"/><circle class="cls-3" cx="60.67" cy="28.38" r="5.29"/><circle class="cls-3" cx="43.18" cy="34.72" r="9.47"/><circle class="cls-3" cx="59.24" cy="17.53" r="3.91"/><circle class="cls-3" cx="48.53" cy="46.45" r="2.78"/><circle class="cls-3" cx="51.53" cy="52.28" r="2.78"/><circle class="cls-3" cx="23.03" cy="31.08" r="4.8"/><circle class="cls-3" cx="47.91" cy="59.48" r="2.96"/><circle class="cls-3" cx="43.61" cy="53.19" r="3.72"/><circle class="cls-3" cx="57.81" cy="39.63" r="5.64"/><circle class="cls-3" cx="43.56" cy="8.76" r="5.4"/><circle class="cls-3" cx="35.94" cy="58.54" r="4.02"/><circle class="cls-3" cx="48.26" cy="19.33" r="5.4"/><circle class="cls-4" cx="23.09" cy="21.24" r="2.26"/><circle class="cls-3" cx="37.91" cy="18.72" r="2.93"/><circle class="cls-3" cx="21.57" cy="21.38" r="2.93"/><circle class="cls-3" cx="55.91" cy="9.55" r="2.93"/><circle class="cls-3" cx="28.67" cy="13.64" r="5.46"/><circle class="cls-3" cx="31.47" cy="25.22" r="5.05"/><circle class="cls-4" cx="54.49" cy="11.25" r="1.43"/><circle class="cls-3" cx="54.89" cy="47.25" r="1.53"/><circle class="cls-3" cx="41.9" cy="61.01" r="1.53"/><circle class="cls-4" cx="37.46" cy="11.64" r="2.1"/><circle class="cls-4" cx="38.6" cy="45.62" r="1.78"/></g></g></svg>