<svg id="Layer_1" data-name="Layer 1" xmlns="http://www.w3.org/2000/svg" viewBox="0 0 81 81"><defs><style>.cls-1{fill:#1ba39c;}.cls-2{fill:none;stroke:#fff;stroke-miterlimit:10;stroke-width:0.75px;}</style></defs><title>2</title><rect class="cls-1" width="81" height="81" rx="5" ry="5"/><path class="cls-2" d="M69.88,25.33A3.47,3.47,0,0,1,65,24.86l-1.6-2a3.54,3.54,0,0,1,.54-4.95l2-1.64a3.47,3.47,0,0,1,4.91.47l1.6,2a3.54,3.54,0,0,1-.54,4.95Z" transform="translate(0)"/><polygon class="cls-2" points="14.22 64.94 17.5 64 15.78 61.87 14.22 64.94"/><path class="cls-2" d="M64.57,23.58,23.26,57.5c1.11-.46,2.52-.49,3.2.35A2.71,2.71,0,0,1,26,61.43l.07.08L67.63,27.38Z" transform="translate(0)"/><path class="cls-2" d="M61.44,19.72,19.87,53.85l0,0a2.69,2.69,0,0,1,3.67.2c.73.91.38,2.44-.41,3.47l.11,0L64.57,23.58Z" transform="translate(0)"/><path class="cls-2" d="M19.92,53.87l0,0-4.1,8.05L17.5,64l8.57-2.48h0v0h0a2.74,2.74,0,0,0,.45-3.59,2.58,2.58,0,0,0-3.13-.53,2.67,2.67,0,0,0,.19-3.29A2.71,2.71,0,0,0,19.92,53.87Z" transform="translate(0)"/><polygon class="cls-2" points="69.6 25.7 63.47 18.11 61.47 19.75 67.61 27.34 69.6 25.7"/><path class="cls-2" d="M68.76,26.72a.37.37,0,0,1-.52,0l-6-7.39a.38.38,0,0,1,.06-.52h0a.37.37,0,0,1,.52,0l6,7.39a.37.37,0,0,1-.06.53Z" transform="translate(0)"/><path class="cls-2" d="M67.81,27.56a.37.37,0,0,1-.52,0l-6-7.39a.38.38,0,0,1,.06-.52h0a.37.37,0,0,1,.52,0l6,7.39a.38.38,0,0,1-.06.52Z" transform="translate(0)"/></svg>