<svg id="Layer_1" data-name="Layer 1" xmlns="http://www.w3.org/2000/svg" viewBox="0 0 81 81"><defs><style>.cls-1{fill:#1ba39c;}.cls-2{fill:none;stroke:#fff;stroke-miterlimit:10;stroke-width:0.5px;}</style></defs><title>3</title><rect class="cls-1" width="81" height="81" rx="5" ry="5"/><path class="cls-2" d="M62.1,25.16l-3.17.08a15.2,15.2,0,0,0-2.2-5V20.2l2.19-2.33a1.29,1.29,0,0,0,0-1.82l-4-3.81a1.28,1.28,0,0,0-1.81,0l-2.43,2.3a11.56,11.56,0,0,0-5.26-1.9h0l.2-3.17a1.17,1.17,0,0,0-1.24-1.18l-5.45.14c-.71,0-.92.53-.9,1.24l.1,3.17a15.48,15.48,0,0,0-5,2.2H33l-2.34-2.19a1.3,1.3,0,0,0-1.82,0l-3.81,4a1.28,1.28,0,0,0,0,1.81l2.3,2.42a11.49,11.49,0,0,0-1.9,5.24h0l-3.17-.07c-.71,0-1.09.36-1.07,1.07l.14,5.48A1.06,1.06,0,0,0,22.46,34L25.63,34a14.84,14.84,0,0,0,2.2,4.92v0L25.63,41.2a1.28,1.28,0,0,0,0,1.81l4,3.8a1.28,1.28,0,0,0,1.81,0l2.33-2.3A15,15,0,0,0,39,46.36h0l.08,3.17c0,.71.32,1.33,1,1.31l5.52-.14a1.37,1.37,0,0,0,1.29-1.37l-.27-3.17A12.47,12.47,0,0,0,51.28,44h0l2.49,2.19a1.39,1.39,0,0,0,1.9,0l3.85-4a1.28,1.28,0,0,0,0-1.81L57.21,38a11.28,11.28,0,0,0,1.91-5.17h0l3.17.06a1.35,1.35,0,0,0,1.42-1.21l-.14-5.48C63.57,25.47,62.81,25.14,62.1,25.16ZM39.26,36.92l-.23-.1q-.35-.16-.68-.35l-.33-.2-.32-.21-.15-.11A8,8,0,0,1,36,34.4L35.72,34A8,8,0,0,1,36.8,23.82l.43-.38.15-.12.31-.23a7.94,7.94,0,0,1,1-.6l.35-.17a8,8,0,0,1,6.72.07l.34.17.5.29.32.21.15.11.3.24.43.38.27.27a8,8,0,0,1,.62.73l.22.31.21.32q.15.25.28.5A8,8,0,0,1,50,31.35q0,.19-.1.38t-.18.56l-.14.36-.1.23q-.11.23-.23.46l-.19.33-.16.26-.15.22-.11.15-.24.3-.12.15-.26.28-.13.14q-.27.27-.56.51l-.15.12-.31.23-.32.21-.16.1-.33.19a8,8,0,0,1-6.58.47Z" transform="translate(0)"/><path class="cls-2" d="M37.4,56.92l-1.57.46a7.84,7.84,0,0,0-1.76-2.19v0l.78-1.45a.67.67,0,0,0-.26-.9l-2.5-1.37a.66.66,0,0,0-.89.26l-.91,1.47a6,6,0,0,0-2.87-.25h0l-.32-1.61a.6.6,0,0,0-.78-.42l-2.7.79c-.35.1-.39.39-.28.74L23.8,54a8,8,0,0,0-2.21,1.77h0L20.09,55a.67.67,0,0,0-.9.27l-1.37,2.5a.66.66,0,0,0,.26.89l1.47.9a5.92,5.92,0,0,0-.25,2.86h0l-1.59.39a.49.49,0,0,0-.39.67l.8,2.71a.55.55,0,0,0,.72.43l1.57-.47a7.65,7.65,0,0,0,1.75,2.16h0l-.78,1.44a.66.66,0,0,0,.26.9L24.12,72a.66.66,0,0,0,.89-.26l.85-1.46a7.75,7.75,0,0,0,2.82.26h0l.46,1.57c.1.35.34.62.69.52l2.73-.8A.71.71,0,0,0,33,71l-.56-1.55a6.43,6.43,0,0,0,2-1.72h0L36,68.5a.72.72,0,0,0,.94-.28l1.39-2.51a.66.66,0,0,0-.25-.9L36.66,64a5.82,5.82,0,0,0,.27-2.83h0l1.59-.39a.7.7,0,0,0,.55-.79l-.8-2.71C38.17,56.88,37.75,56.82,37.4,56.92Zm-9.82,8.89-.13,0-.39-.08-.19-.06-.19-.06-.09,0a4.12,4.12,0,0,1-1-.56l-.18-.14a4.1,4.1,0,0,1-.82-5.24l.16-.25.06-.08.12-.16a4.1,4.1,0,0,1,.41-.43l.15-.13a4.11,4.11,0,0,1,3.36-.86l.19,0,.29.08.19.06.09,0,.18.08.26.13.17.1a4.12,4.12,0,0,1,.4.28l.15.13.15.13.21.21a4.12,4.12,0,0,1,1.06,2.61q0,.1,0,.2t0,.3,0,.2l0,.13q0,.13-.05.26l-.05.19L32,63l0,.13,0,.09-.08.18,0,.09-.09.17,0,.09q-.1.17-.21.33l-.06.08-.12.16-.13.15-.07.07-.14.14a4.11,4.11,0,0,1-3.22,1.11Z" transform="translate(0)"/></svg>