<svg id="Layer_1" data-name="Layer 1" xmlns="http://www.w3.org/2000/svg" viewBox="0 0 81 81"><defs><style>.cls-1{fill:#1ba39c;}.cls-2{fill:none;stroke:#fff;stroke-miterlimit:10;stroke-width:0.75px;}</style></defs><title>6</title><rect class="cls-1" width="81" height="81" rx="5" ry="5"/><path class="cls-2" d="M55.22,13.61H25.78a6,6,0,0,0-6,6V61.39a6,6,0,0,0,6,6H55.22a6,6,0,0,0,6-6V19.61A6,6,0,0,0,55.22,13.61ZM33.68,60A1.73,1.73,0,0,1,32,61.69H26.89A1.73,1.73,0,0,1,25.16,60V54.9a1.73,1.73,0,0,1,1.72-1.73H32a1.73,1.73,0,0,1,1.72,1.73Zm0-9.58A1.73,1.73,0,0,1,32,52.12H26.89a1.73,1.73,0,0,1-1.72-1.73V45.33a1.73,1.73,0,0,1,1.72-1.72H32a1.73,1.73,0,0,1,1.72,1.72Zm0-9.57A1.73,1.73,0,0,1,32,42.54H26.89a1.73,1.73,0,0,1-1.72-1.73V35.75A1.73,1.73,0,0,1,26.89,34H32a1.73,1.73,0,0,1,1.72,1.73ZM44.76,60A1.73,1.73,0,0,1,43,61.69H38A1.73,1.73,0,0,1,36.24,60V54.9A1.73,1.73,0,0,1,38,53.18H43a1.73,1.73,0,0,1,1.72,1.73Zm0-9.57A1.73,1.73,0,0,1,43,52.12H38a1.73,1.73,0,0,1-1.72-1.73V45.33A1.73,1.73,0,0,1,38,43.6H43a1.73,1.73,0,0,1,1.72,1.72Zm0-9.57A1.73,1.73,0,0,1,43,42.54H38a1.73,1.73,0,0,1-1.72-1.73V35.75A1.73,1.73,0,0,1,38,34H43a1.73,1.73,0,0,1,1.72,1.73ZM55.83,60.2a1.73,1.73,0,0,1-1.72,1.73H49a1.73,1.73,0,0,1-1.72-1.73V45.33A1.73,1.73,0,0,1,49,43.6h5.06a1.73,1.73,0,0,1,1.72,1.72Zm0-19.39a1.73,1.73,0,0,1-1.72,1.73H49a1.73,1.73,0,0,1-1.72-1.73V35.75A1.73,1.73,0,0,1,49,34h5.06a1.73,1.73,0,0,1,1.72,1.73Zm0-10.92a1.73,1.73,0,0,1-1.72,1.72H26.89a1.73,1.73,0,0,1-1.72-1.72V21.67a1.73,1.73,0,0,1,1.72-1.72H54.11a1.73,1.73,0,0,1,1.72,1.72Z"/></svg>