<svg id="Layer_1" data-name="Layer 1" xmlns="http://www.w3.org/2000/svg" viewBox="0 0 81 81"><defs><style>.cls-1{fill:#1ba39c;}.cls-2{fill:none;stroke:#fff;stroke-miterlimit:10;stroke-width:0.75px;}</style></defs><title>7</title><rect class="cls-1" width="81" height="81" rx="5" ry="5"/><path class="cls-2" d="M64,42.21a3.71,3.71,0,0,1-1,.45.62.62,0,0,0-.17,1,3.31,3.31,0,0,1-.24,4.95,4.79,4.79,0,0,1-1.3.81.73.73,0,0,0-.19,1.23,2.59,2.59,0,0,1,.71,3.12,4.36,4.36,0,0,1-2,2.26,2.32,2.32,0,0,1-.39.16.6.6,0,0,0-.49.61.72.72,0,0,0,.26.65,2.62,2.62,0,0,1,1,1.66,2.66,2.66,0,0,1-.26,1.5,5.42,5.42,0,0,1-1.45,1.81,8.17,8.17,0,0,1-1.57.85,12.35,12.35,0,0,1-1.54.39c-13.82,2.81-23.53-.83-24.76-1.28a10.48,10.48,0,0,0-1.35-.65s-.33-.07-.33-.11V40.92l1.55-1.09a.82.82,0,0,0,.14-.12l0-.05c2.74-3.45,4.51-7.12,6.55-11,1.37-2.61,1.71-8.18,1.7-10.28a2.22,2.22,0,0,1,2.27-2.21,6.52,6.52,0,0,1,1.8.22c.62.23,1.15,1,1.68,2.07a24,24,0,0,1,1.61,4.48,14.2,14.2,0,0,1,.38,1.75,6.1,6.1,0,0,1,0,1.31c0,.5-.06,1-.11,1.49-.1,1-.24,2-.4,2.92s-.38,2.1-.59,3.14v0a1.17,1.17,0,0,1,0,.26c-.34,1.34,1,2.13,1.83,2.47a6.55,6.55,0,0,0,1.34.2l12.72,0c.6,0,1.2,0,1.79,0a2.55,2.55,0,0,1,2.38,2A3.5,3.5,0,0,1,64,42.21Z" transform="translate(0)"/><path class="cls-2" d="M26.26,62.92a1.93,1.93,0,0,1-1.92,1.93h-7.1a1.93,1.93,0,0,1-1.92-1.93V39.25a1.93,1.93,0,0,1,1.92-1.93h7.1a1.93,1.93,0,0,1,1.92,1.93Z" transform="translate(0)"/></svg>