<svg id="Layer_1" data-name="Layer 1" xmlns="http://www.w3.org/2000/svg" viewBox="0 0 81 81"><defs><style>.cls-1{fill:#1ba39c;}.cls-2,.cls-3{fill:none;stroke:#fff;stroke-miterlimit:10;}.cls-3{stroke-width:0.5px;}</style></defs><title>9</title><rect class="cls-1" width="81" height="81" rx="5" ry="5"/><polygon class="cls-2" points="14.48 35.98 40.5 10.49 66.52 35.74 66.3 70.51 15.16 70.51 14.48 35.98"/><polygon class="cls-3" points="14.48 35.98 37.94 50.78 15.16 70.51 14.48 35.98"/><polygon class="cls-3" points="66.45 35.7 42.52 50.78 65.78 70.53 66.45 35.7"/><polygon class="cls-3" points="37.94 50.78 42.52 50.78 65.3 70.51 15.29 70.37 37.94 50.78"/><polygon class="cls-3" points="57.16 31.12 23.66 31.12 23.66 41.62 29.29 45.24 38.03 50.74 42.6 50.81 52.72 44.43 57.22 41.56 57.16 31.12"/></svg>