<svg id="Layer_1" data-name="Layer 1" xmlns="http://www.w3.org/2000/svg" viewBox="0 0 1086.25 394.34"><defs><style>.cls-1{fill:#004d66;}.cls-2{fill:#033;}.cls-3,.cls-8{fill:#127187;}.cls-10,.cls-14,.cls-15,.cls-16,.cls-17,.cls-18,.cls-3,.cls-4,.cls-5,.cls-6{fill-rule:evenodd;}.cls-15,.cls-4{opacity:0.5;}.cls-15,.cls-5{fill:#fff;}.cls-5{opacity:0.8;}.cls-6{fill:#c6c6c6;}.cls-7{opacity:0.2;}.cls-9{opacity:0.3;}.cls-10{fill:#333;}.cls-11{fill:#f94b68;}.cls-12{opacity:0.1;}.cls-13{fill:#3aceb2;}.cls-14{fill:#f05161;}.cls-16{fill:#f39c12;}.cls-17{fill:#ea844b;}.cls-18{fill:#1abc9c;}</style></defs><title>web design sample</title><rect class="cls-1" width="1086.25" height="394.34" rx="5" ry="5"/><g id="Correction"><g id="Laptop"><rect class="cls-2" x="89.87" y="205.99" width="183.24" height="8.51"/><path class="cls-3" d="M708.43,457.1H432.82c-12.63,0-16.53,7.93-14.09,17.31,0-.11,0-.22,0-.34a6.51,6.51,0,0,0,.2,1.93l19.95,75.29c3,11.43,5.72,11.79,20.59,11.77l230.45,0c12,0,17.8,0,20.17-11.45L725.63,476a7,7,0,0,0,.11-.86v0l.75-6.4C727.56,459.57,715.46,457.1,708.43,457.1Zm-289.57,16a5.33,5.33,0,0,0-.09.54C418.79,473.42,418.83,473.25,418.86,473.07Zm.6-1.75-.13.26Zm-.34.82c-.05.15-.11.29-.15.44C419,472.42,419.07,472.28,419.12,472.13Zm11.25-7.37c.42,0,.83-.06,1.25-.06C431.2,464.7,430.79,464.72,430.37,464.76Zm-7.66,2.85.08-.06Zm.9-.61.18-.11Zm1-.56.26-.13Zm1.06-.5.35-.15Zm1.12-.43.45-.14Zm1.16-.34.57-.12Zm1.2-.26c.24,0,.49-.07.73-.1C429.63,464.86,429.38,464.88,429.14,464.93Z" transform="translate(-390.75 -354.66)"/><path class="cls-4" d="M432.82,457.1H708.43c7,0,19.13,2.46,18.06,11.65l-.75,6.4c-1-4.77-7-10.46-12.79-10.46H431.62c-6.34,0-13,4.39-12.9,9.71-2.44-9.37,1.46-17.31,14.09-17.31Z" transform="translate(-390.75 -354.66)"/><polygon class="cls-5" points="42 115.36 322.58 115.05 307.44 202.75 59.6 202.82 42 115.36"/><path class="cls-6" d="M446.53,565.64h253a7.65,7.65,0,0,1,7.63,7.62V712.78a7.65,7.65,0,0,1-7.63,7.62h-253a7.65,7.65,0,0,1-7.62-7.62V573.26a7.65,7.65,0,0,1,7.62-7.62Z" transform="translate(-390.75 -354.66)"/><path class="cls-7" d="M707.19,573.26a7.65,7.65,0,0,0-7.63-7.62H678.26L517,720.41H699.57a7.65,7.65,0,0,0,7.63-7.62Z" transform="translate(-390.75 -354.66)"/><rect class="cls-8" x="146.45" y="318.55" width="71.67" height="37.52"/><rect class="cls-9" x="61.46" y="224.04" width="241.67" height="87.85"/><g id="Keyboard"><path class="cls-10" d="M457.45,583.9h11.22a1.41,1.41,0,0,1,1.19,1.56v12.08a1.41,1.41,0,0,1-1.19,1.56H457.45a1.43,1.43,0,0,1-1.21-1.56V585.46a1.43,1.43,0,0,1,1.21-1.56Z" transform="translate(-390.75 -354.66)"/><path class="cls-10" d="M475.65,583.9h11.22a1.43,1.43,0,0,1,1.21,1.56v12.08a1.43,1.43,0,0,1-1.21,1.56H475.65a1.43,1.43,0,0,1-1.21-1.56V585.46a1.43,1.43,0,0,1,1.21-1.56Z" transform="translate(-390.75 -354.66)"/><path class="cls-10" d="M493.87,583.9h11.19a1.43,1.43,0,0,1,1.21,1.56v12.08a1.43,1.43,0,0,1-1.21,1.56H493.87a1.43,1.43,0,0,1-1.21-1.56V585.46a1.43,1.43,0,0,1,1.21-1.56Z" transform="translate(-390.75 -354.66)"/><path class="cls-10" d="M512.07,583.9h11.2a1.41,1.41,0,0,1,1.21,1.56v12.08a1.41,1.41,0,0,1-1.21,1.56h-11.2a1.43,1.43,0,0,1-1.21-1.56V585.46a1.43,1.43,0,0,1,1.21-1.56Z" transform="translate(-390.75 -354.66)"/><path class="cls-10" d="M530.27,583.9h11.22a1.43,1.43,0,0,1,1.21,1.56v12.08a1.43,1.43,0,0,1-1.21,1.56H530.27a1.43,1.43,0,0,1-1.21-1.56V585.46a1.43,1.43,0,0,1,1.21-1.56Z" transform="translate(-390.75 -354.66)"/><path class="cls-10" d="M548.5,583.9h11.2a1.43,1.43,0,0,1,1.21,1.56v12.08a1.43,1.43,0,0,1-1.21,1.56H548.5a1.43,1.43,0,0,1-1.21-1.56V585.46a1.43,1.43,0,0,1,1.21-1.56Z" transform="translate(-390.75 -354.66)"/><path class="cls-10" d="M566.7,583.9h11.2a1.41,1.41,0,0,1,1.21,1.56v12.08a1.41,1.41,0,0,1-1.21,1.56H566.7a1.43,1.43,0,0,1-1.21-1.56V585.46a1.43,1.43,0,0,1,1.21-1.56Z" transform="translate(-390.75 -354.66)"/><path class="cls-10" d="M584.9,583.9h11.22a1.43,1.43,0,0,1,1.21,1.56v12.08a1.43,1.43,0,0,1-1.21,1.56H584.9a1.43,1.43,0,0,1-1.21-1.56V585.46a1.43,1.43,0,0,1,1.21-1.56Z" transform="translate(-390.75 -354.66)"/><path class="cls-10" d="M603.13,583.9h11.19a1.43,1.43,0,0,1,1.21,1.56v12.08a1.43,1.43,0,0,1-1.21,1.56H603.13a1.41,1.41,0,0,1-1.21-1.56V585.46a1.41,1.41,0,0,1,1.21-1.56Z" transform="translate(-390.75 -354.66)"/><path class="cls-10" d="M621.33,583.9h11.2a1.42,1.42,0,0,1,1.21,1.56v12.08a1.42,1.42,0,0,1-1.21,1.56h-11.2a1.43,1.43,0,0,1-1.21-1.56V585.46a1.43,1.43,0,0,1,1.21-1.56Z" transform="translate(-390.75 -354.66)"/><path class="cls-10" d="M639.53,583.9h11.22a1.43,1.43,0,0,1,1.21,1.56v12.08a1.43,1.43,0,0,1-1.21,1.56H639.53a1.43,1.43,0,0,1-1.21-1.56V585.46a1.43,1.43,0,0,1,1.21-1.56Z" transform="translate(-390.75 -354.66)"/><path class="cls-10" d="M484.78,605H496a1.43,1.43,0,0,1,1.21,1.56v12.08A1.43,1.43,0,0,1,496,620.2h-11.2a1.43,1.43,0,0,1-1.21-1.56V606.56a1.43,1.43,0,0,1,1.21-1.56Z" transform="translate(-390.75 -354.66)"/><path class="cls-10" d="M503,605H514.2a1.43,1.43,0,0,1,1.21,1.56v12.08a1.43,1.43,0,0,1-1.21,1.56H503a1.43,1.43,0,0,1-1.21-1.56V606.56A1.43,1.43,0,0,1,503,605Z" transform="translate(-390.75 -354.66)"/><path class="cls-10" d="M521.18,605H532.4a1.43,1.43,0,0,1,1.21,1.56v12.08a1.43,1.43,0,0,1-1.21,1.56H521.18a1.41,1.41,0,0,1-1.19-1.56V606.56a1.41,1.41,0,0,1,1.19-1.56Z" transform="translate(-390.75 -354.66)"/><path class="cls-10" d="M539.41,605h11.2a1.43,1.43,0,0,1,1.21,1.56v12.08a1.43,1.43,0,0,1-1.21,1.56h-11.2a1.43,1.43,0,0,1-1.21-1.56V606.56a1.43,1.43,0,0,1,1.21-1.56Z" transform="translate(-390.75 -354.66)"/><path class="cls-10" d="M557.61,605h11.22a1.41,1.41,0,0,1,1.19,1.56v12.08a1.41,1.41,0,0,1-1.19,1.56H557.61a1.43,1.43,0,0,1-1.21-1.56V606.56a1.43,1.43,0,0,1,1.21-1.56Z" transform="translate(-390.75 -354.66)"/><path class="cls-10" d="M575.81,605H587a1.43,1.43,0,0,1,1.21,1.56v12.08A1.43,1.43,0,0,1,587,620.2H575.81a1.43,1.43,0,0,1-1.21-1.56V606.56a1.43,1.43,0,0,1,1.21-1.56Z" transform="translate(-390.75 -354.66)"/><path class="cls-10" d="M594,605h11.2a1.43,1.43,0,0,1,1.21,1.56v12.08a1.43,1.43,0,0,1-1.21,1.56H594a1.43,1.43,0,0,1-1.21-1.56V606.56A1.43,1.43,0,0,1,594,605Z" transform="translate(-390.75 -354.66)"/><path class="cls-10" d="M612.24,605h11.22a1.42,1.42,0,0,1,1.19,1.56v12.08a1.42,1.42,0,0,1-1.19,1.56H612.24a1.43,1.43,0,0,1-1.21-1.56V606.56a1.43,1.43,0,0,1,1.21-1.56Z" transform="translate(-390.75 -354.66)"/><path class="cls-10" d="M630.44,605h11.22a1.43,1.43,0,0,1,1.21,1.56v12.08a1.43,1.43,0,0,1-1.21,1.56H630.44a1.43,1.43,0,0,1-1.21-1.56V606.56a1.43,1.43,0,0,1,1.21-1.56Z" transform="translate(-390.75 -354.66)"/><path class="cls-10" d="M648.66,605h11.2a1.43,1.43,0,0,1,1.21,1.56v12.08a1.43,1.43,0,0,1-1.21,1.56h-11.2a1.43,1.43,0,0,1-1.22-1.56V606.56a1.43,1.43,0,0,1,1.22-1.56Z" transform="translate(-390.75 -354.66)"/><path class="cls-10" d="M657.75,583.9h11.19a1.43,1.43,0,0,1,1.21,1.56v12.08a1.43,1.43,0,0,1-1.21,1.56H657.75a1.42,1.42,0,0,1-1.22-1.56V585.46a1.42,1.42,0,0,1,1.22-1.56Z" transform="translate(-390.75 -354.66)"/><path class="cls-10" d="M676,583.9h11.2a1.43,1.43,0,0,1,1.21,1.56v12.08a1.43,1.43,0,0,1-1.21,1.56H676a1.43,1.43,0,0,1-1.21-1.56V585.46A1.43,1.43,0,0,1,676,583.9Z" transform="translate(-390.75 -354.66)"/><path class="cls-10" d="M667.16,605h20a1.43,1.43,0,0,1,1.21,1.56v12.08a1.43,1.43,0,0,1-1.21,1.56h-20a1.43,1.43,0,0,1-1.22-1.56V606.56a1.43,1.43,0,0,1,1.22-1.56Z" transform="translate(-390.75 -354.66)"/><path class="cls-10" d="M457.63,605h20.74a1.43,1.43,0,0,1,1.21,1.56v12.08a1.43,1.43,0,0,1-1.21,1.56H457.63a1.41,1.41,0,0,1-1.21-1.56V606.56a1.41,1.41,0,0,1,1.21-1.56Z" transform="translate(-390.75 -354.66)"/><path class="cls-10" d="M457.63,626.1H482.4a1.43,1.43,0,0,1,1.21,1.56v12.08a1.43,1.43,0,0,1-1.21,1.56H457.63a1.41,1.41,0,0,1-1.21-1.56V627.66a1.41,1.41,0,0,1,1.21-1.56Z" transform="translate(-390.75 -354.66)"/><path class="cls-10" d="M457.63,647.2H468.8a1.43,1.43,0,0,1,1.21,1.56v12.08a1.43,1.43,0,0,1-1.21,1.56H457.63a1.41,1.41,0,0,1-1.21-1.56V648.77a1.41,1.41,0,0,1,1.21-1.56Z" transform="translate(-390.75 -354.66)"/><path class="cls-10" d="M475.81,647.2H487a1.43,1.43,0,0,1,1.21,1.56v12.08a1.43,1.43,0,0,1-1.21,1.56H475.81a1.43,1.43,0,0,1-1.21-1.56V648.77a1.43,1.43,0,0,1,1.21-1.56Z" transform="translate(-390.75 -354.66)"/><path class="cls-10" d="M494,647.2h11.17a1.41,1.41,0,0,1,1.21,1.56v12.08a1.41,1.41,0,0,1-1.21,1.56H494a1.43,1.43,0,0,1-1.21-1.56V648.77A1.43,1.43,0,0,1,494,647.2Z" transform="translate(-390.75 -354.66)"/><path class="cls-10" d="M512.16,647.2H628.58a1.42,1.42,0,0,1,1.21,1.56v12.08a1.42,1.42,0,0,1-1.21,1.56H512.16a1.43,1.43,0,0,1-1.21-1.56V648.77a1.43,1.43,0,0,1,1.21-1.56Z" transform="translate(-390.75 -354.66)"/><path class="cls-10" d="M489.13,626.31h11.2a1.43,1.43,0,0,1,1.21,1.56V640a1.43,1.43,0,0,1-1.21,1.56h-11.2a1.43,1.43,0,0,1-1.21-1.56V627.87a1.43,1.43,0,0,1,1.21-1.56Z" transform="translate(-390.75 -354.66)"/><path class="cls-10" d="M507.33,626.31h11.22a1.43,1.43,0,0,1,1.21,1.56V640a1.43,1.43,0,0,1-1.21,1.56H507.33a1.43,1.43,0,0,1-1.21-1.56V627.87a1.43,1.43,0,0,1,1.21-1.56Z" transform="translate(-390.75 -354.66)"/><path class="cls-10" d="M525.54,626.31h11.22a1.43,1.43,0,0,1,1.21,1.56V640a1.43,1.43,0,0,1-1.21,1.56H525.54a1.41,1.41,0,0,1-1.19-1.56V627.87a1.42,1.42,0,0,1,1.19-1.56Z" transform="translate(-390.75 -354.66)"/><path class="cls-10" d="M543.76,626.31H555a1.43,1.43,0,0,1,1.21,1.56V640a1.43,1.43,0,0,1-1.21,1.56h-11.2a1.43,1.43,0,0,1-1.21-1.56V627.87a1.43,1.43,0,0,1,1.21-1.56Z" transform="translate(-390.75 -354.66)"/><path class="cls-10" d="M562,626.31h11.22a1.42,1.42,0,0,1,1.19,1.56V640a1.41,1.41,0,0,1-1.19,1.56H562a1.43,1.43,0,0,1-1.21-1.56V627.87a1.43,1.43,0,0,1,1.21-1.56Z" transform="translate(-390.75 -354.66)"/><path class="cls-10" d="M580.16,626.31h11.22a1.44,1.44,0,0,1,1.22,1.56V640a1.43,1.43,0,0,1-1.22,1.56H580.16a1.43,1.43,0,0,1-1.21-1.56V627.87a1.43,1.43,0,0,1,1.21-1.56Z" transform="translate(-390.75 -354.66)"/><path class="cls-10" d="M598.39,626.31h11.2a1.43,1.43,0,0,1,1.21,1.56V640a1.43,1.43,0,0,1-1.21,1.56h-11.2a1.43,1.43,0,0,1-1.21-1.56V627.87a1.43,1.43,0,0,1,1.21-1.56Z" transform="translate(-390.75 -354.66)"/><path class="cls-10" d="M616.59,626.31H627.8a1.42,1.42,0,0,1,1.19,1.56V640a1.42,1.42,0,0,1-1.19,1.56H616.59a1.43,1.43,0,0,1-1.21-1.56V627.87a1.43,1.43,0,0,1,1.21-1.56Z" transform="translate(-390.75 -354.66)"/><path class="cls-10" d="M634.79,626.31h20.86a1.43,1.43,0,0,1,1.21,1.56V640a1.43,1.43,0,0,1-1.21,1.56H634.79a1.43,1.43,0,0,1-1.21-1.56V627.87a1.43,1.43,0,0,1,1.21-1.56Z" transform="translate(-390.75 -354.66)"/><path class="cls-10" d="M662.24,626.1H687a1.43,1.43,0,0,1,1.21,1.56v12.08a1.43,1.43,0,0,1-1.21,1.56h-24.8a1.43,1.43,0,0,1-1.21-1.56V627.66a1.43,1.43,0,0,1,1.21-1.56Z" transform="translate(-390.75 -354.66)"/><path class="cls-10" d="M664.46,647.2h9.34a.5.5,0,0,1,.44.53v4.18a.49.49,0,0,1-.44.53h-9.34a.48.48,0,0,1-.41-.53v-4.18a.48.48,0,0,1,.41-.53Z" transform="translate(-390.75 -354.66)"/><path class="cls-10" d="M664.46,656.31h9.34a.5.5,0,0,1,.44.53V661a.5.5,0,0,1-.44.53h-9.34a.48.48,0,0,1-.41-.53v-4.15a.48.48,0,0,1,.41-.53Z" transform="translate(-390.75 -354.66)"/><path class="cls-10" d="M650.61,656.31H660a.5.5,0,0,1,.43.53V661a.5.5,0,0,1-.43.53h-9.34a.48.48,0,0,1-.41-.53v-4.15a.48.48,0,0,1,.41-.53Z" transform="translate(-390.75 -354.66)"/><path class="cls-10" d="M678.29,656.31h9.34a.48.48,0,0,1,.41.53V661a.48.48,0,0,1-.41.53h-9.34a.5.5,0,0,1-.44-.53v-4.15a.5.5,0,0,1,.44-.53Z" transform="translate(-390.75 -354.66)"/><path class="cls-10" d="M634.35,647.2h11.22a1.43,1.43,0,0,1,1.21,1.56v12.08a1.43,1.43,0,0,1-1.21,1.56H634.35a1.43,1.43,0,0,1-1.21-1.56V648.77a1.43,1.43,0,0,1,1.21-1.56Z" transform="translate(-390.75 -354.66)"/></g></g><g id="Lens"><path class="cls-11" d="M638.41,414.55a11.06,11.06,0,0,1,15.38,2.82h0A11.06,11.06,0,0,1,651,432.76l-49.76,34.31a11.05,11.05,0,0,1-15.38-2.82h0a11.05,11.05,0,0,1,2.82-15.38Z" transform="translate(-390.75 -354.66)"/><path class="cls-7" d="M635.59,418.54a9.38,9.38,0,0,1,13,2.39h0a9.38,9.38,0,0,1-2.4,13L604,463.08a9.38,9.38,0,0,1-13-2.4h0a9.38,9.38,0,0,1,2.4-13Z" transform="translate(-390.75 -354.66)"/><path class="cls-12" d="M584.27,455.06a11,11,0,0,0,8.4,13.72c.77-2.2,0-5.63-2.15-8.77A12,12,0,0,0,584.27,455.06Z" transform="translate(-390.75 -354.66)"/><path class="cls-13" d="M506.24,457.49A50.74,50.74,0,1,0,580,475.69l10.83-7.47s2-9.33-6.84-11.14L572.46,465A50.74,50.74,0,0,0,506.24,457.49Zm61.47,19.24a39.68,39.68,0,1,1-55.2-10.14A39.69,39.69,0,0,1,567.71,476.73Z" transform="translate(-390.75 -354.66)"/><path class="cls-7" d="M495.55,503.18a39.67,39.67,0,0,0,59.18,30.53C518,542.35,501.82,518,495.55,503.18Z" transform="translate(-390.75 -354.66)"/></g><g id="Active"><g id="Active1"><path class="cls-14" d="M560.46,526.58a14,14,0,0,1,4.16,2.4l5.77-2.38,3.88,6.72-4.83,4a14.38,14.38,0,0,1,.21,2.46,13.77,13.77,0,0,1-.17,2.18l5,3.88-3.88,6.72-5.8-2.15a14,14,0,0,1-4.11,2.49l-.82,6.13h-7.76l-1-6a13.71,13.71,0,0,1-4.16-2.4L541.18,553l-3.88-6.72,4.84-4a14.12,14.12,0,0,1,0-4.64l-5-3.87,3.88-6.72,5.8,2.15a13.72,13.72,0,0,1,4.11-2.48l.82-6.14h7.76Z" transform="translate(-390.75 -354.66)"/><path class="cls-4" d="M555.79,549.89a10.09,10.09,0,1,0-10.09-10.09,10.11,10.11,0,0,0,10.09,10.09Z" transform="translate(-390.75 -354.66)"/><path class="cls-15" d="M555.79,546.49a6.69,6.69,0,1,0-6.69-6.69,6.71,6.71,0,0,0,6.69,6.69Z" transform="translate(-390.75 -354.66)"/></g><g id="Active-2" data-name="Active"><path class="cls-16" d="M574.39,469.17a20.42,20.42,0,0,1,7,1.49l7.06-6,8.53,7.72-5,7.85a21,21,0,0,1,2.17,6.52L603,490l-2.42,11.25-9.16-.4a20.51,20.51,0,0,1-4.67,5.37l1.63,9-10.95,3.53-4.2-8a20.35,20.35,0,0,1-7-1.49l-7.06,6-8.53-7.71,5-7.86a21,21,0,0,1-1.42-3.37,21.51,21.51,0,0,1-.75-3.15l-8.86-3.18,2.42-11.24,9.16.4a20.44,20.44,0,0,1,4.67-5.37l-1.63-9,10.95-3.53Z" transform="translate(-390.75 -354.66)"/><path class="cls-4" d="M573.81,506.2a16.27,16.27,0,1,0-16.27-16.27,16.31,16.31,0,0,0,16.27,16.27Z" transform="translate(-390.75 -354.66)"/><path class="cls-15" d="M576.85,499.37a9.92,9.92,0,1,0-12.48-6.4,9.94,9.94,0,0,0,12.48,6.4Z" transform="translate(-390.75 -354.66)"/></g></g><g id="Active-3" data-name="Active"><g id="Active1-2" data-name="Active1"><path class="cls-17" d="M528.87,514.77a5.85,5.85,0,0,1,1.95-.45l1.09-2.36,3.09.95-.34,2.59a6,6,0,0,1,.76.69,6.22,6.22,0,0,1,.57.71l2.63-.24.72,3.15-2.38,1a5.83,5.83,0,0,1-.55,1.92l1.48,2.1-2.36,2.2-2-1.55a5.74,5.74,0,0,1-1.95.45l-1.09,2.36-3.09-1,.34-2.59A5.55,5.55,0,0,1,527,524a5.84,5.84,0,0,1-.57-.71l-2.63.24-.72-3.14,2.38-1a5.73,5.73,0,0,1,.55-1.92l-1.49-2.1,2.37-2.2Z" transform="translate(-390.75 -354.66)"/><path class="cls-4" d="M534,523.2a4.2,4.2,0,1,0-5.93-.22,4.21,4.21,0,0,0,5.93.22Z" transform="translate(-390.75 -354.66)"/><path class="cls-15" d="M533.08,522.16a2.78,2.78,0,1,0-3.93-.15,2.78,2.78,0,0,0,3.93.15Z" transform="translate(-390.75 -354.66)"/></g><g id="Active-4" data-name="Active"><path class="cls-18" d="M516.87,493.33a8.59,8.59,0,0,1,2.54-1.51l.46-3.82,4.78-.06.7,3.81a8.69,8.69,0,0,1,1.39.63,8.85,8.85,0,0,1,1.12.74l3.6-1.54,2.45,4.11-2.9,2.47a8.57,8.57,0,0,1,.1,3l3.05,2.29-2.34,4.17-3.56-1.26a8.54,8.54,0,0,1-2.54,1.52l-.46,3.82-4.78.06-.7-3.81a8.77,8.77,0,0,1-1.39-.63,8.46,8.46,0,0,1-1.12-.75l-3.6,1.54L511.23,504l2.9-2.47a8.45,8.45,0,0,1-.1-3L511,496.25l2.34-4.17Z" transform="translate(-390.75 -354.66)"/><path class="cls-4" d="M527.17,504.79a6.77,6.77,0,1,0-9.56-.36,6.78,6.78,0,0,0,9.56.36Z" transform="translate(-390.75 -354.66)"/><path class="cls-15" d="M526.17,501.84a4.12,4.12,0,1,0-5.61,1.58,4.13,4.13,0,0,0,5.61-1.58Z" transform="translate(-390.75 -354.66)"/></g></g></g></svg>