<svg xmlns="http://www.w3.org/2000/svg" xmlns:xlink="http://www.w3.org/1999/xlink" viewBox="0 0 854.25 310.12"><defs><style>.cls-1{fill:none;}.cls-2{isolation:isolate;}.cls-3{fill:#004d66;}.cls-4{fill:#033;}.cls-10,.cls-5{fill:#127187;}.cls-12,.cls-5,.cls-6,.cls-7,.cls-8{fill-rule:evenodd;}.cls-6{opacity:0.5;}.cls-16,.cls-7{fill:#fff;}.cls-7{opacity:0.8;}.cls-8{fill:#c6c6c6;}.cls-9{opacity:0.2;}.cls-11{opacity:0.3;}.cls-12{fill:#333;}.cls-13{opacity:0.37;mix-blend-mode:multiply;}.cls-14{fill:#37474f;}.cls-15{clip-path:url(#clip-path);}.cls-17{fill:#455a64;}.cls-18{clip-path:url(#clip-path-2);}.cls-19{fill:#ab47bc;}.cls-20{fill:#4dd0e1;}.cls-21{fill:#ec407a;}.cls-22{clip-path:url(#clip-path-3);}.cls-23{clip-path:url(#clip-path-4);}.cls-24{fill:#7cb342;}.cls-25{fill:#f05161;}.cls-26{clip-path:url(#clip-path-5);}.cls-27{clip-path:url(#clip-path-6);}.cls-28{fill:#f39c12;}.cls-29{fill:#3aceb2;}</style><clipPath id="clip-path" transform="translate(-519.75 -341.77)"><rect class="cls-1" x="650.13" y="383.52" width="46.8" height="41.36" transform="matrix(0.98, -0.2, 0.2, 0.98, -66.68, 141.31)"/></clipPath><clipPath id="clip-path-2" transform="translate(-519.75 -341.77)"><rect class="cls-1" x="647.13" y="380.52" width="46.8" height="41.36" transform="matrix(0.98, -0.2, 0.2, 0.98, -66.14, 140.65)"/></clipPath><clipPath id="clip-path-3" transform="translate(-519.75 -341.77)"><rect class="cls-1" x="650.71" y="432.6" width="41.36" height="46.8" transform="translate(-77.05 769.91) rotate(-56.94)"/></clipPath><clipPath id="clip-path-4" transform="translate(-519.75 -341.77)"><rect class="cls-1" x="647.71" y="429.6" width="41.36" height="46.8" transform="translate(-75.9 766.04) rotate(-56.94)"/></clipPath><clipPath id="clip-path-5" transform="translate(-519.75 -341.77)"><rect class="cls-1" x="620.5" y="406.71" width="46.8" height="41.36"/></clipPath><clipPath id="clip-path-6" transform="translate(-519.75 -341.77)"><rect class="cls-1" x="617.5" y="403.71" width="46.8" height="41.36"/></clipPath></defs><title>graphic artwork</title><g class="cls-2"><g id="Layer_1" data-name="Layer 1"><rect class="cls-3" width="854.25" height="310.12" rx="5" ry="5"/><g id="Laptop"><rect class="cls-4" x="75.12" y="161.99" width="144.1" height="6.69"/><path class="cls-5" d="M774,422.34H557.28c-9.94,0-13,6.24-11.08,13.61,0-.09,0-.17,0-.27a5.12,5.12,0,0,0,.16,1.52l15.69,59.21c2.37,9,4.5,9.27,16.19,9.25l181.23,0c9.41,0,14,0,15.86-9l12.22-59.44a5.51,5.51,0,0,0,.08-.68v0l.59-5C789.07,424.27,779.55,422.34,774,422.34ZM546.3,434.89a4.19,4.19,0,0,0-.07.42C546.25,435.17,546.28,435,546.3,434.89Zm.47-1.38-.1.2Zm-.27.64c0,.11-.08.23-.12.35C546.42,434.38,546.47,434.27,546.51,434.15Zm8.85-5.8c.33,0,.66,0,1,0C556,428.31,555.68,428.33,555.35,428.36Zm-6,2.24.07-.05Zm.71-.48.14-.09Zm.78-.44.21-.1Zm.83-.39.27-.11Zm.88-.34.35-.11Zm.92-.27.44-.1Zm.95-.2.57-.08Z" transform="translate(-519.75 -341.77)"/><path class="cls-6" d="M557.28,422.34H774c5.52,0,15,1.94,14.2,9.17l-.59,5c-.8-3.75-5.47-8.23-10.06-8.23H556.34c-5,0-10.2,3.45-10.14,7.63-1.92-7.37,1.15-13.61,11.08-13.61Z" transform="translate(-519.75 -341.77)"/><polygon class="cls-7" points="37.47 90.72 258.13 90.48 246.23 159.45 51.31 159.5 37.47 90.72"/><path class="cls-8" d="M568.07,507.69h199a6,6,0,0,1,6,6V623.41a6,6,0,0,1-6,6h-199a6,6,0,0,1-6-6V513.68a6,6,0,0,1,6-6Z" transform="translate(-519.75 -341.77)"/><path class="cls-9" d="M773.05,513.68a6,6,0,0,0-6-6H750.3L623.46,629.4h143.6a6,6,0,0,0,6-6Z" transform="translate(-519.75 -341.77)"/><rect class="cls-10" x="119.62" y="250.51" width="56.37" height="29.5"/><rect class="cls-11" x="52.78" y="176.19" width="190.06" height="69.09"/><g id="Keyboard"><path class="cls-12" d="M576.65,522.05h8.82a1.11,1.11,0,0,1,.94,1.23v9.5a1.11,1.11,0,0,1-.94,1.23h-8.82a1.12,1.12,0,0,1-1-1.23v-9.5a1.12,1.12,0,0,1,1-1.23Z" transform="translate(-519.75 -341.77)"/><path class="cls-12" d="M591,522.05h8.82a1.12,1.12,0,0,1,1,1.23v9.5a1.12,1.12,0,0,1-1,1.23H591a1.12,1.12,0,0,1-1-1.23v-9.5a1.12,1.12,0,0,1,1-1.23Z" transform="translate(-519.75 -341.77)"/><path class="cls-12" d="M605.29,522.05h8.8a1.13,1.13,0,0,1,1,1.23v9.5a1.13,1.13,0,0,1-1,1.23h-8.8a1.13,1.13,0,0,1-1-1.23v-9.5a1.13,1.13,0,0,1,1-1.23Z" transform="translate(-519.75 -341.77)"/><path class="cls-12" d="M619.61,522.05h8.8a1.11,1.11,0,0,1,1,1.23v9.5a1.11,1.11,0,0,1-1,1.23h-8.8a1.12,1.12,0,0,1-1-1.23v-9.5a1.12,1.12,0,0,1,1-1.23Z" transform="translate(-519.75 -341.77)"/><path class="cls-12" d="M633.92,522.05h8.82a1.12,1.12,0,0,1,1,1.23v9.5a1.12,1.12,0,0,1-1,1.23h-8.82a1.12,1.12,0,0,1-1-1.23v-9.5a1.12,1.12,0,0,1,1-1.23Z" transform="translate(-519.75 -341.77)"/><path class="cls-12" d="M648.25,522.05h8.81a1.12,1.12,0,0,1,1,1.23v9.5a1.12,1.12,0,0,1-1,1.23h-8.81a1.13,1.13,0,0,1-1-1.23v-9.5a1.13,1.13,0,0,1,1-1.23Z" transform="translate(-519.75 -341.77)"/><path class="cls-12" d="M662.57,522.05h8.8a1.11,1.11,0,0,1,1,1.23v9.5a1.11,1.11,0,0,1-1,1.23h-8.8a1.12,1.12,0,0,1-1-1.23v-9.5a1.12,1.12,0,0,1,1-1.23Z" transform="translate(-519.75 -341.77)"/><path class="cls-12" d="M676.88,522.05h8.82a1.13,1.13,0,0,1,1,1.23v9.5a1.13,1.13,0,0,1-1,1.23h-8.82a1.12,1.12,0,0,1-1-1.23v-9.5a1.12,1.12,0,0,1,1-1.23Z" transform="translate(-519.75 -341.77)"/><path class="cls-12" d="M691.21,522.05H700a1.12,1.12,0,0,1,1,1.23v9.5a1.12,1.12,0,0,1-1,1.23h-8.8a1.11,1.11,0,0,1-1-1.23v-9.5a1.11,1.11,0,0,1,1-1.23Z" transform="translate(-519.75 -341.77)"/><path class="cls-12" d="M705.53,522.05h8.8a1.11,1.11,0,0,1,1,1.23v9.5a1.11,1.11,0,0,1-1,1.23h-8.8a1.12,1.12,0,0,1-1-1.23v-9.5a1.12,1.12,0,0,1,1-1.23Z" transform="translate(-519.75 -341.77)"/><path class="cls-12" d="M719.84,522.05h8.82a1.12,1.12,0,0,1,1,1.23v9.5a1.12,1.12,0,0,1-1,1.23h-8.82a1.12,1.12,0,0,1-1-1.23v-9.5a1.12,1.12,0,0,1,1-1.23Z" transform="translate(-519.75 -341.77)"/><path class="cls-12" d="M598.15,538.64h8.8a1.12,1.12,0,0,1,1,1.23v9.5a1.12,1.12,0,0,1-1,1.23h-8.8a1.12,1.12,0,0,1-1-1.23v-9.5a1.12,1.12,0,0,1,1-1.23Z" transform="translate(-519.75 -341.77)"/><path class="cls-12" d="M612.46,538.64h8.82a1.12,1.12,0,0,1,1,1.23v9.5a1.12,1.12,0,0,1-1,1.23h-8.82a1.13,1.13,0,0,1-1-1.23v-9.5a1.13,1.13,0,0,1,1-1.23Z" transform="translate(-519.75 -341.77)"/><path class="cls-12" d="M626.77,538.64h8.82a1.13,1.13,0,0,1,1,1.23v9.5a1.13,1.13,0,0,1-1,1.23h-8.82a1.11,1.11,0,0,1-.94-1.23v-9.5a1.11,1.11,0,0,1,.94-1.23Z" transform="translate(-519.75 -341.77)"/><path class="cls-12" d="M641.1,538.64h8.81a1.12,1.12,0,0,1,1,1.23v9.5a1.12,1.12,0,0,1-1,1.23H641.1a1.12,1.12,0,0,1-1-1.23v-9.5a1.12,1.12,0,0,1,1-1.23Z" transform="translate(-519.75 -341.77)"/><path class="cls-12" d="M655.42,538.64h8.82a1.11,1.11,0,0,1,.94,1.23v9.5a1.11,1.11,0,0,1-.94,1.23h-8.82a1.12,1.12,0,0,1-1-1.23v-9.5a1.12,1.12,0,0,1,1-1.23Z" transform="translate(-519.75 -341.77)"/><path class="cls-12" d="M669.73,538.64h8.82a1.12,1.12,0,0,1,1,1.23v9.5a1.12,1.12,0,0,1-1,1.23h-8.82a1.13,1.13,0,0,1-1-1.23v-9.5a1.13,1.13,0,0,1,1-1.23Z" transform="translate(-519.75 -341.77)"/><path class="cls-12" d="M684.06,538.64h8.8a1.12,1.12,0,0,1,1,1.23v9.5a1.12,1.12,0,0,1-1,1.23h-8.8a1.12,1.12,0,0,1-1-1.23v-9.5a1.12,1.12,0,0,1,1-1.23Z" transform="translate(-519.75 -341.77)"/><path class="cls-12" d="M698.38,538.64h8.82a1.11,1.11,0,0,1,.94,1.23v9.5a1.11,1.11,0,0,1-.94,1.23h-8.82a1.12,1.12,0,0,1-1-1.23v-9.5a1.12,1.12,0,0,1,1-1.23Z" transform="translate(-519.75 -341.77)"/><path class="cls-12" d="M712.69,538.64h8.82a1.12,1.12,0,0,1,1,1.23v9.5a1.12,1.12,0,0,1-1,1.23h-8.82a1.13,1.13,0,0,1-1-1.23v-9.5a1.13,1.13,0,0,1,1-1.23Z" transform="translate(-519.75 -341.77)"/><path class="cls-12" d="M727,538.64h8.81a1.12,1.12,0,0,1,1,1.23v9.5a1.12,1.12,0,0,1-1,1.23H727a1.13,1.13,0,0,1-1-1.23v-9.5a1.13,1.13,0,0,1,1-1.23Z" transform="translate(-519.75 -341.77)"/><path class="cls-12" d="M734.17,522.05H743a1.13,1.13,0,0,1,1,1.23v9.5a1.13,1.13,0,0,1-1,1.23h-8.8a1.11,1.11,0,0,1-1-1.23v-9.5a1.11,1.11,0,0,1,1-1.23Z" transform="translate(-519.75 -341.77)"/><path class="cls-12" d="M748.49,522.05h8.81a1.12,1.12,0,0,1,1,1.23v9.5a1.12,1.12,0,0,1-1,1.23h-8.81a1.12,1.12,0,0,1-1-1.23v-9.5a1.12,1.12,0,0,1,1-1.23Z" transform="translate(-519.75 -341.77)"/><path class="cls-12" d="M741.57,538.64h15.72a1.12,1.12,0,0,1,1,1.23v9.5a1.12,1.12,0,0,1-1,1.23H741.57a1.13,1.13,0,0,1-1-1.23v-9.5a1.13,1.13,0,0,1,1-1.23Z" transform="translate(-519.75 -341.77)"/><path class="cls-12" d="M576.79,538.64H593.1a1.12,1.12,0,0,1,1,1.23v9.5a1.12,1.12,0,0,1-1,1.23H576.79a1.11,1.11,0,0,1-1-1.23v-9.5a1.11,1.11,0,0,1,1-1.23Z" transform="translate(-519.75 -341.77)"/><path class="cls-12" d="M576.79,555.24h19.48a1.12,1.12,0,0,1,1,1.23V566a1.12,1.12,0,0,1-1,1.23H576.79a1.11,1.11,0,0,1-1-1.23v-9.5a1.11,1.11,0,0,1,1-1.23Z" transform="translate(-519.75 -341.77)"/><path class="cls-12" d="M576.79,571.83h8.79a1.12,1.12,0,0,1,1,1.23v9.5a1.12,1.12,0,0,1-1,1.23h-8.79a1.11,1.11,0,0,1-1-1.23v-9.5a1.11,1.11,0,0,1,1-1.23Z" transform="translate(-519.75 -341.77)"/><path class="cls-12" d="M591.09,571.83h8.79a1.13,1.13,0,0,1,1,1.23v9.5a1.13,1.13,0,0,1-1,1.23h-8.79a1.12,1.12,0,0,1-1-1.23v-9.5a1.12,1.12,0,0,1,1-1.23Z" transform="translate(-519.75 -341.77)"/><path class="cls-12" d="M605.38,571.83h8.78a1.11,1.11,0,0,1,1,1.23v9.5a1.11,1.11,0,0,1-1,1.23h-8.78a1.12,1.12,0,0,1-1-1.23v-9.5a1.12,1.12,0,0,1,1-1.23Z" transform="translate(-519.75 -341.77)"/><path class="cls-12" d="M619.68,571.83h91.55a1.11,1.11,0,0,1,1,1.23v9.5a1.11,1.11,0,0,1-1,1.23H619.68a1.12,1.12,0,0,1-1-1.23v-9.5a1.12,1.12,0,0,1,1-1.23Z" transform="translate(-519.75 -341.77)"/><path class="cls-12" d="M601.57,555.4h8.81a1.13,1.13,0,0,1,1,1.23v9.5a1.12,1.12,0,0,1-1,1.23h-8.81a1.12,1.12,0,0,1-1-1.23v-9.5a1.13,1.13,0,0,1,1-1.23Z" transform="translate(-519.75 -341.77)"/><path class="cls-12" d="M615.88,555.4h8.82a1.13,1.13,0,0,1,1,1.23v9.5a1.13,1.13,0,0,1-1,1.23h-8.82a1.13,1.13,0,0,1-1-1.23v-9.5a1.13,1.13,0,0,1,1-1.23Z" transform="translate(-519.75 -341.77)"/><path class="cls-12" d="M630.19,555.4H639a1.13,1.13,0,0,1,1,1.23v9.5a1.13,1.13,0,0,1-1,1.23h-8.82a1.11,1.11,0,0,1-.94-1.23v-9.5a1.11,1.11,0,0,1,.94-1.23Z" transform="translate(-519.75 -341.77)"/><path class="cls-12" d="M644.53,555.4h8.81a1.13,1.13,0,0,1,1,1.23v9.5a1.12,1.12,0,0,1-1,1.23h-8.81a1.12,1.12,0,0,1-1-1.23v-9.5a1.13,1.13,0,0,1,1-1.23Z" transform="translate(-519.75 -341.77)"/><path class="cls-12" d="M658.84,555.4h8.82a1.11,1.11,0,0,1,.94,1.23v9.5a1.11,1.11,0,0,1-.94,1.23h-8.82a1.13,1.13,0,0,1-1-1.23v-9.5a1.13,1.13,0,0,1,1-1.23Z" transform="translate(-519.75 -341.77)"/><path class="cls-12" d="M673.15,555.4H682a1.13,1.13,0,0,1,1,1.23v9.5a1.13,1.13,0,0,1-1,1.23h-8.82a1.12,1.12,0,0,1-1-1.23v-9.5a1.13,1.13,0,0,1,1-1.23Z" transform="translate(-519.75 -341.77)"/><path class="cls-12" d="M687.49,555.4h8.81a1.13,1.13,0,0,1,1,1.23v9.5a1.12,1.12,0,0,1-1,1.23h-8.81a1.12,1.12,0,0,1-1-1.23v-9.5a1.13,1.13,0,0,1,1-1.23Z" transform="translate(-519.75 -341.77)"/><path class="cls-12" d="M701.8,555.4h8.82a1.12,1.12,0,0,1,.94,1.23v9.5a1.11,1.11,0,0,1-.94,1.23H701.8a1.13,1.13,0,0,1-1-1.23v-9.5a1.13,1.13,0,0,1,1-1.23Z" transform="translate(-519.75 -341.77)"/><path class="cls-12" d="M716.11,555.4h16.4a1.13,1.13,0,0,1,1,1.23v9.5a1.13,1.13,0,0,1-1,1.23h-16.4a1.12,1.12,0,0,1-1-1.23v-9.5a1.13,1.13,0,0,1,1-1.23Z" transform="translate(-519.75 -341.77)"/><path class="cls-12" d="M737.7,555.24h19.5a1.13,1.13,0,0,1,1,1.23V566a1.13,1.13,0,0,1-1,1.23H737.7a1.12,1.12,0,0,1-1-1.23v-9.5a1.12,1.12,0,0,1,1-1.23Z" transform="translate(-519.75 -341.77)"/><path class="cls-12" d="M739.45,571.83h7.35a.39.39,0,0,1,.34.42v3.29a.39.39,0,0,1-.34.42h-7.35a.38.38,0,0,1-.32-.42v-3.29a.38.38,0,0,1,.32-.42Z" transform="translate(-519.75 -341.77)"/><path class="cls-12" d="M739.45,579h7.35a.39.39,0,0,1,.34.42v3.27a.39.39,0,0,1-.34.42h-7.35a.38.38,0,0,1-.32-.42v-3.27a.38.38,0,0,1,.32-.42Z" transform="translate(-519.75 -341.77)"/><path class="cls-12" d="M728.55,579h7.35a.39.39,0,0,1,.34.42v3.27a.39.39,0,0,1-.34.42h-7.35a.38.38,0,0,1-.32-.42v-3.27a.38.38,0,0,1,.32-.42Z" transform="translate(-519.75 -341.77)"/><path class="cls-12" d="M750.32,579h7.35a.38.38,0,0,1,.33.42v3.27a.38.38,0,0,1-.33.42h-7.35a.39.39,0,0,1-.34-.42v-3.27a.39.39,0,0,1,.34-.42Z" transform="translate(-519.75 -341.77)"/><path class="cls-12" d="M715.77,571.83h8.82a1.13,1.13,0,0,1,1,1.23v9.5a1.13,1.13,0,0,1-1,1.23h-8.82a1.12,1.12,0,0,1-1-1.23v-9.5a1.12,1.12,0,0,1,1-1.23Z" transform="translate(-519.75 -341.77)"/></g></g><g class="cls-13"><rect class="cls-14" x="645.83" y="378.51" width="56.39" height="56.39" transform="translate(-586.91 -200.31) rotate(-11.42)"/><rect class="cls-14" x="647.43" y="381.14" width="52.2" height="46.13" transform="translate(-586.43 -200.46) rotate(-11.42)"/><rect class="cls-14" x="647.43" y="381.14" width="52.2" height="46.13" transform="translate(-586.43 -200.46) rotate(-11.42)"/><g class="cls-15"><circle class="cls-14" cx="656.91" cy="422.71" r="26" transform="translate(-590.42 -203.39) rotate(-11.42)"/><circle class="cls-14" cx="701.29" cy="404.49" r="30.47" transform="translate(-585.94 -194.96) rotate(-11.42)"/><circle class="cls-14" cx="665.38" cy="392.12" r="19.24" transform="translate(-584.2 -202.32) rotate(-11.42)"/></g></g><rect class="cls-16" x="642.83" y="375.51" width="56.39" height="56.39" transform="translate(-586.38 -200.97) rotate(-11.42)"/><rect class="cls-17" x="644.43" y="378.14" width="52.2" height="46.13" transform="translate(-585.89 -201.12) rotate(-11.42)"/><rect class="cls-17" x="644.43" y="378.14" width="52.2" height="46.13" transform="translate(-585.89 -201.12) rotate(-11.42)"/><g class="cls-18"><circle class="cls-19" cx="653.91" cy="419.71" r="26" transform="translate(-589.89 -204.04) rotate(-11.42)"/><circle class="cls-20" cx="698.29" cy="401.49" r="30.47" transform="translate(-585.4 -195.62) rotate(-11.42)"/><circle class="cls-21" cx="662.38" cy="389.12" r="19.24" transform="translate(-583.66 -202.97) rotate(-11.42)"/></g><g class="cls-13"><rect class="cls-14" x="641.8" y="429.95" width="56.39" height="56.39" transform="translate(-599.23 427.95) rotate(-56.94)"/><rect class="cls-14" x="648.33" y="429.9" width="46.13" height="52.2" transform="translate(-596.8 428.14) rotate(-56.94)"/><rect class="cls-14" x="648.33" y="429.9" width="46.13" height="52.2" transform="translate(-596.8 428.14) rotate(-56.94)"/><g class="cls-22"><circle class="cls-14" cx="646.57" cy="457.56" r="26" transform="matrix(0.55, -0.84, 0.84, 0.55, -609.39, 408.05)"/><circle class="cls-14" cx="691" cy="475.66" r="30.47" transform="translate(-604.36 453.5) rotate(-56.94)"/><circle class="cls-14" cx="674.05" cy="441.67" r="19.24" transform="translate(-583.59 423.86) rotate(-56.94)"/></g></g><rect class="cls-16" x="638.8" y="426.95" width="56.39" height="56.39" transform="translate(-598.08 424.07) rotate(-56.94)"/><rect class="cls-17" x="645.33" y="426.9" width="46.13" height="52.2" transform="translate(-595.65 424.26) rotate(-56.94)"/><rect class="cls-17" x="645.33" y="426.9" width="46.13" height="52.2" transform="translate(-595.65 424.26) rotate(-56.94)"/><g class="cls-23"><circle class="cls-24" cx="643.57" cy="454.56" r="26" transform="matrix(0.55, -0.84, 0.84, 0.55, -608.24, 404.17)"/><circle class="cls-25" cx="688" cy="472.66" r="30.47" transform="translate(-603.21 449.63) rotate(-56.94)"/><circle class="cls-20" cx="671.05" cy="438.67" r="19.24" transform="translate(-582.43 419.98) rotate(-56.94)"/></g><g class="cls-13"><rect class="cls-14" x="95.95" y="59.98" width="56.39" height="56.39"/><rect class="cls-14" x="98.05" y="62.55" width="52.2" height="46.13"/><rect class="cls-14" x="98.05" y="62.55" width="52.2" height="46.13"/><g class="cls-26"><circle class="cls-14" cx="104.2" cy="100.47" r="26"/><circle class="cls-14" cx="151.3" cy="91.4" r="30.47"/><circle class="cls-14" cx="118.56" cy="72.16" r="19.24"/></g></g><rect class="cls-16" x="92.95" y="56.98" width="56.39" height="56.39"/><rect class="cls-17" x="95.05" y="59.55" width="52.2" height="46.13"/><rect class="cls-17" x="95.05" y="59.55" width="52.2" height="46.13"/><g class="cls-27"><circle class="cls-25" cx="101.2" cy="97.47" r="26"/><circle class="cls-28" cx="148.3" cy="88.4" r="30.47"/><circle class="cls-29" cx="115.56" cy="69.16" r="19.24"/></g></g></g></svg>