<svg xmlns="http://www.w3.org/2000/svg" viewBox="0 0 705.94 537"><defs><style>.cls-1{isolation:isolate;}.cls-2{fill:#de4b4b;}.cls-3{opacity:0.37;mix-blend-mode:multiply;}.cls-4{fill:#37474f;}.cls-10,.cls-5{fill:none;stroke-miterlimit:10;stroke-width:4px;}.cls-5{stroke:#37474f;}.cls-6{fill:#24ae5f;}.cls-7{fill:#fff;}.cls-8{fill:#ffd54f;}.cls-9{fill:#ff8a65;}.cls-10{stroke:#ff7043;}</style></defs><title>book</title><g class="cls-1"><g id="Layer_1" data-name="Layer 1"><rect class="cls-2" width="705.94" height="537" rx="5" ry="5"/><g class="cls-3"><rect class="cls-4" x="337" y="433.75" width="234.21" height="312.73" transform="translate(-362 -163.96) rotate(-12.02)"/><rect class="cls-4" x="333.92" y="434.07" width="234.21" height="283.13" transform="translate(-359.05 -164.92) rotate(-12.02)"/><rect class="cls-4" x="382.49" y="718.52" width="218.04" height="16.73" transform="matrix(0.98, -0.21, 0.21, 0.98, -389.67, -153.17)"/><polygon class="cls-4" points="301.38 469.32 312.11 460.09 325.67 464.15 258.08 146.79 233.79 151.97 301.38 469.32"/><rect class="cls-4" x="383.52" y="486.51" width="108.74" height="54.91" transform="translate(-346.49 -169.01) rotate(-12.02)"/><line class="cls-5" x1="145.61" y1="238.51" x2="226.75" y2="221.23"/><line class="cls-5" x1="148.29" y1="251.1" x2="229.43" y2="233.82"/><line class="cls-5" x1="150.98" y1="263.69" x2="232.11" y2="246.41"/><rect class="cls-4" x="339.39" y="456.46" width="16.17" height="312.73" transform="translate(-369.07 -185.67) rotate(-12.02)"/></g><rect class="cls-6" x="334" y="430.75" width="234.21" height="312.73" transform="translate(-361.44 -164.65) rotate(-12.02)"/><rect class="cls-6" x="330.92" y="431.07" width="234.21" height="283.13" transform="translate(-358.49 -165.61) rotate(-12.02)"/><rect class="cls-7" x="379.49" y="715.52" width="218.04" height="16.73" transform="matrix(0.98, -0.21, 0.21, 0.98, -389.11, -153.86)"/><polygon class="cls-8" points="298.38 466.32 309.11 457.09 322.67 461.15 255.08 143.79 230.79 148.97 298.38 466.32"/><rect class="cls-9" x="380.52" y="483.51" width="108.74" height="54.91" transform="translate(-345.93 -169.7) rotate(-12.02)"/><line class="cls-10" x1="142.61" y1="235.51" x2="223.75" y2="218.23"/><line class="cls-10" x1="145.29" y1="248.1" x2="226.43" y2="230.82"/><line class="cls-10" x1="147.98" y1="260.69" x2="229.11" y2="243.41"/><rect class="cls-6" x="336.39" y="453.46" width="16.17" height="312.73" transform="translate(-368.51 -186.36) rotate(-12.02)"/></g></g></svg>