<svg id="Layer_1" data-name="Layer 1" xmlns="http://www.w3.org/2000/svg" viewBox="0 0 208.7 166"><defs><style>.cls-1{fill:#1ba39c;}.cls-2{fill:none;stroke:#fff;stroke-miterlimit:10;}.cls-3{font-size:22.44px;font-family:IRANSans, IRANSans;}.cls-3,.cls-4{fill:#fff;}</style></defs><title>email</title><rect class="cls-1" width="208.7" height="166" rx="5" ry="5"/><line class="cls-2" x1="11.46" y1="110.43" x2="197.24" y2="110.43"/><text class="cls-3" transform="translate(15.02 144.1) scale(0.86 1)">لیمیا قیرط زا ینابیتشپ</text><path class="cls-4" d="M341.49,228.58a9.23,9.23,0,0,0,6.32-2.38l-30.6-30.6-2.12,1.52q-3.43,2.53-5.58,3.95a34.26,34.26,0,0,1-5.7,2.89,17.36,17.36,0,0,1-6.63,1.48h-.12a17.35,17.35,0,0,1-6.63-1.48,34.18,34.18,0,0,1-5.7-2.89q-2.14-1.41-5.58-3.95L277,195.59,246.44,226.2a9.23,9.23,0,0,0,6.32,2.38Z" transform="translate(-192.78 -132)"/><path class="cls-4" d="M250.45,176.33a31.93,31.93,0,0,1-6.09-5.24v46.56l27-27Q263.24,185,250.45,176.33Z" transform="translate(-192.78 -132)"/><path class="cls-4" d="M343.86,176.33q-12.32,8.34-20.94,14.35l27,27V171.08A33.22,33.22,0,0,1,343.86,176.33Z" transform="translate(-192.78 -132)"/><path class="cls-4" d="M341.49,145H252.76a8.61,8.61,0,0,0-7.14,3.13,12.16,12.16,0,0,0-2.5,7.84q0,3.8,3.31,8.23a29.91,29.91,0,0,0,7.05,7q2,1.45,12.36,8.59l9.71,6.74,6.08,4.26.9.64,1.66,1.2q2,1.42,3.25,2.29t3.13,2a18.34,18.34,0,0,0,3.47,1.63,9.6,9.6,0,0,0,3,.54h.12a9.6,9.6,0,0,0,3-.54,18.26,18.26,0,0,0,3.47-1.63q1.84-1.09,3.14-2t3.25-2.29l1.66-1.2.9-.64,6.1-4.24,22.11-15.35a28.66,28.66,0,0,0,7.35-7.41,15.94,15.94,0,0,0,3-9.1,9.72,9.72,0,0,0-9.64-9.64Z" transform="translate(-192.78 -132)"/></svg>