<svg id="Layer_1" data-name="Layer 1" xmlns="http://www.w3.org/2000/svg" viewBox="0 0 821.8 625.13"><defs><style>.cls-1{fill:#884a9c;}.cls-2{fill:#e77f26;}.cls-3{fill:#f9ca35;}.cls-4{fill:#e8af2e;}.cls-5{fill:#a6a8ab;}.cls-6{fill:#d0d2d3;}.cls-7,.cls-9{fill:none;stroke:#403f41;stroke-linecap:round;stroke-miterlimit:10;}.cls-7{stroke-width:1.46px;}.cls-8{fill:#221f1f;}.cls-9{stroke-width:1.21px;}.cls-10{fill:#403f41;}</style></defs><title>lamp</title><rect class="cls-1" width="821.8" height="625.13" rx="5" ry="5"/><path class="cls-2" d="M597.07,572.53A8.88,8.88,0,0,1,586.84,580L460.91,557a9.21,9.21,0,0,1-7.19-10.68h0a8.89,8.89,0,0,1,10.23-7.51l125.94,23a9.2,9.2,0,0,1,7.19,10.68Z" transform="translate(-171.13 -210)"/><path class="cls-2" d="M569.19,356.49a9.51,9.51,0,0,1-2.59,12.79L459.3,442.73a8.59,8.59,0,0,1-12.24-2.61h0a9.51,9.51,0,0,1,2.59-12.79L557,353.88a8.59,8.59,0,0,1,12.23,2.61Z" transform="translate(-171.13 -210)"/><path class="cls-2" d="M424.58,243.86a8.77,8.77,0,0,0-11.12,6L375,379.69a9.32,9.32,0,0,0,5.72,11.61h0a8.77,8.77,0,0,0,11.12-6L430.3,255.46a9.32,9.32,0,0,0-5.73-11.61Z" transform="translate(-171.13 -210)"/><path class="cls-2" d="M235.77,232.29A8.77,8.77,0,0,0,231,244l53.5,124.4a9.32,9.32,0,0,0,11.82,5.26h0A8.77,8.77,0,0,0,301.1,362l-53.5-124.4a9.32,9.32,0,0,0-11.82-5.26Z" transform="translate(-171.13 -210)"/><path class="cls-3" d="M422.56,515.78a106.45,106.45,0,0,0-212.83,4.05c11.67,66.42,43.75,74.55,61.25,144,38,25.29,35.08,19.45,96.27,5,8.75-63.9,55.41-102.44,55.41-149A33.12,33.12,0,0,0,422.56,515.78Z" transform="translate(-171.13 -210)"/><path class="cls-4" d="M422.66,519.83a33.12,33.12,0,0,0-.1-4.05A106.44,106.44,0,0,0,319.34,413.44v266.9c10.52-1.75,24.53-6,47.91-11.54C376,604.89,422.66,566.35,422.66,519.83Z" transform="translate(-171.13 -210)"/><path class="cls-5" d="M282.53,695.93v32.85c0,10.1,6.55,18.29,14.64,18.29H341.1c8.07,0,14.63-8.19,14.63-18.29V695.93Z" transform="translate(-171.13 -210)"/><path class="cls-6" d="M282.53,695.93v32.85c0,10.1,6.55,18.29,14.64,18.29h21.7V695.93Z" transform="translate(-171.13 -210)"/><path class="cls-5" d="M355.72,728.79V695.93H318.87v51.15H341.1C349.17,747.08,355.72,738.89,355.72,728.79Z" transform="translate(-171.13 -210)"/><path class="cls-7" d="M268.08,540.06s20.17,46.33,26.27,63.51,6.27,58.22,6.27,58.22" transform="translate(-171.13 -210)"/><path class="cls-7" d="M371.66,540.06s-20.17,46.33-26.27,63.51-6.28,58.22-6.28,58.22" transform="translate(-171.13 -210)"/><path class="cls-8" d="M264.28,655.63v53.27a18.3,18.3,0,0,0,18.29,18.29h73.1A18.29,18.29,0,0,0,374,708.91V655.63Z" transform="translate(-171.13 -210)"/><path class="cls-9" d="M298.63,557c0,7.7-4.76,13.94-10.62,13.94s-10.62-6.24-10.62-13.94,4.75-13.93,10.62-13.93S298.63,549.29,298.63,557Z" transform="translate(-171.13 -210)"/><path class="cls-9" d="M319.87,557c0,7.7-4.75,13.94-10.63,13.94s-10.62-6.24-10.62-13.94,4.75-13.93,10.62-13.93S319.87,549.29,319.87,557Z" transform="translate(-171.13 -210)"/><path class="cls-9" d="M341.12,557c0,7.7-4.75,13.94-10.62,13.94s-10.63-6.24-10.63-13.94,4.76-13.93,10.63-13.93S341.12,549.29,341.12,557Z" transform="translate(-171.13 -210)"/><path class="cls-9" d="M362.35,557c0,7.7-4.75,13.94-10.62,13.94s-10.62-6.24-10.62-13.94,4.75-13.93,10.62-13.93S362.35,549.29,362.35,557Z" transform="translate(-171.13 -210)"/><path class="cls-10" d="M377.67,671.69a2.57,2.57,0,0,1-2.5,2.63H262.55a2.57,2.57,0,0,1-2.5-2.63v-4.57a2.57,2.57,0,0,1,2.5-2.63H375.18a2.57,2.57,0,0,1,2.5,2.63Z" transform="translate(-171.13 -210)"/><path class="cls-10" d="M377.67,687.42a2.57,2.57,0,0,1-2.5,2.63H262.55a2.57,2.57,0,0,1-2.5-2.63v-4.57a2.57,2.57,0,0,1,2.5-2.63H375.18a2.57,2.57,0,0,1,2.5,2.63Z" transform="translate(-171.13 -210)"/><path class="cls-10" d="M377.93,703.13a2.57,2.57,0,0,1-2.5,2.63H262.81a2.57,2.57,0,0,1-2.5-2.63v-4.56a2.57,2.57,0,0,1,2.5-2.64H375.43a2.57,2.57,0,0,1,2.5,2.64Z" transform="translate(-171.13 -210)"/></svg>