<svg id="Layer_1" data-name="Layer 1" xmlns="http://www.w3.org/2000/svg" viewBox="0 0 521.93 472.21"><defs><style>.cls-1{fill:#1d8093;}</style></defs><title>laptop</title><path class="cls-1" d="M749.68,156H298c-19.22,0-39.62,12.1-39.62,31.44V508.35c0,19.29,20.4,45.3,39.62,45.3H471.26s7.23,59.71-56.68,59.71v14.85H624.07V613.37c-63.91,0-47.75-59.71-47.75-59.71H749.68c19.17,0,30.61-26,30.61-45.3V187.44C780.29,168.1,768.85,156,749.68,156Zm15.43,366.26a13.3,13.3,0,0,1-13.26,13.26H286.79a13.3,13.3,0,0,1-13.26-13.26V185.16a13.3,13.3,0,0,1,13.26-13.26H751.86a13.3,13.3,0,0,1,13.26,13.26Z" transform="translate(-258.36 -156)"/></svg>