<svg id="Layer_1" data-name="Layer 1" xmlns="http://www.w3.org/2000/svg" viewBox="0 0 120.9 213.5"><defs><style>.cls-1{fill:#1d8093;}</style></defs><title>mobile</title><path class="cls-1" d="M504.64,298H414.81a15.55,15.55,0,0,0-15.53,15.54V496a15.54,15.54,0,0,0,15.53,15.54h89.83A15.54,15.54,0,0,0,520.18,496V313.54A15.53,15.53,0,0,0,504.64,298m-10.24,9.74a4,4,0,1,1-4,4,4,4,0,0,1,4-4m-55.49,1.52h41.64v4.55H438.91Zm20.82,192.87a10.41,10.41,0,1,1,10.41-10.41,10.42,10.42,0,0,1-10.41,10.41M508.54,471H410.92V324.26h97.62Z" transform="translate(-399.28 -298)"/></svg>