<svg id="Layer_1" data-name="Layer 1" xmlns="http://www.w3.org/2000/svg" viewBox="0 0 128.34 112.79"><defs><style>.cls-1{fill:#f16965;}.cls-2{fill:#fff;}</style></defs><title>Untitled-1</title><path class="cls-1" d="M381.29,146a5,5,0,0,1,5,5v80.92a5,5,0,0,1-5,5H351a13.91,13.91,0,0,0-8.54,3.54l-16.87,16.87a5,5,0,0,1-7.07,0l-16.86-16.87a13.9,13.9,0,0,0-8.53-3.54H262.94a5,5,0,0,1-5-5V151a5,5,0,0,1,5-5Z" transform="translate(-257.94 -146)"/><circle class="cls-2" cx="36.6" cy="57.43" r="7.88"/><circle class="cls-2" cx="64.17" cy="57.43" r="7.88"/><circle class="cls-2" cx="91.74" cy="57.43" r="7.88"/></svg>