<svg xmlns="http://www.w3.org/2000/svg" viewBox="0 0 217.08 172.67"><defs><style>.cls-1{isolation:isolate;}.cls-2{fill:#1ba39c;}.cls-3{font-size:23.35px;font-family:IRANSans, IRANSans;}.cls-3,.cls-5{fill:#fff;}.cls-4{fill:none;stroke:#fff;stroke-miterlimit:10;}.cls-6{opacity:0.1;mix-blend-mode:multiply;}</style></defs><title>online</title><g class="cls-1"><g id="Layer_1" data-name="Layer 1"><rect class="cls-2" width="217.08" height="172.67" rx="5" ry="5"/><text class="cls-3" transform="translate(46.91 151.08) scale(0.86 1)">نیلنآ ینابیتشپ</text><line class="cls-4" x1="11.92" y1="114.87" x2="205.16" y2="114.87"/><path class="cls-5" d="M346,228.53a49.86,49.86,0,0,0,.26-65.75,2.65,2.65,0,0,0-1-1.14,49.91,49.91,0,0,0-73.5,0,3.06,3.06,0,0,0-.31.23,3.1,3.1,0,0,0-.69.9,50,50,0,0,0,74.77,66.32h0A3.12,3.12,0,0,0,346,228.53Zm-81.14-29.9h17.12a90.18,90.18,0,0,0,1.87,15.89,50,50,0,0,0-10.1,7.55A43.52,43.52,0,0,1,264.83,198.63Zm8.9-29.69a50,50,0,0,0,10.1,7.55,90.24,90.24,0,0,0-1.87,15.89H264.83A43.51,43.51,0,0,1,273.72,168.94Zm78.37,23.44H335a90.21,90.21,0,0,0-1.87-15.89,50,50,0,0,0,10.1-7.55A43.51,43.51,0,0,1,352.09,192.38Zm-40.42-40c5.93,2.13,11.08,10,14.14,20.81a43.75,43.75,0,0,1-14.14,3.48Zm-6.25,24.3a43.75,43.75,0,0,1-14.33-3.49c3.09-10.9,8.32-18.84,14.33-20.88Zm0,6.27v9.48H288.2a85.43,85.43,0,0,1,1.45-13.08A50,50,0,0,0,305.42,182.89Zm0,15.73v9.48a50,50,0,0,0-15.77,3.6,85.49,85.49,0,0,1-1.45-13.08Zm0,15.75v24.37c-6-2-11.23-10-14.33-20.88A43.79,43.79,0,0,1,305.42,214.38Zm6.25,0a43.76,43.76,0,0,1,14.14,3.48c-3.06,10.79-8.22,18.67-14.14,20.81Zm0-6.27v-9.5h17a85.44,85.44,0,0,1-1.45,13.08A50,50,0,0,0,311.68,208.13Zm0-15.75v-9.5a50,50,0,0,0,15.59-3.58,85.46,85.46,0,0,1,1.45,13.08Zm19.8-22.2a50.58,50.58,0,0,0-7.58-15.62A43.86,43.86,0,0,1,339,164.26,43.74,43.74,0,0,1,331.47,170.18Zm-46,0a43.74,43.74,0,0,1-7.58-5.92A43.86,43.86,0,0,1,293,154.57,50.57,50.57,0,0,0,285.45,170.18Zm0,50.65A50.56,50.56,0,0,0,293,236.44a43.85,43.85,0,0,1-15.16-9.69A43.75,43.75,0,0,1,285.45,220.83Zm46,0a43.75,43.75,0,0,1,7.58,5.92,43.86,43.86,0,0,1-15.16,9.69A50.57,50.57,0,0,0,331.47,220.83Zm1.63-6.3A90.21,90.21,0,0,0,335,198.63h17.12a43.52,43.52,0,0,1-8.9,23.44A50,50,0,0,0,333.1,214.52Z" transform="translate(-199.92 -139)"/><g class="cls-6"><path class="cls-5" d="M311.68,211.27v3.13a43.74,43.74,0,0,1,13.27,3.14c.3-.91.6-1.84.87-2.79A43.76,43.76,0,0,0,311.68,211.27Z" transform="translate(-199.92 -139)"/><path class="cls-5" d="M291.1,214.75c.27,1,.56,1.88.87,2.79a43.75,43.75,0,0,1,13.46-3.16v-3.13A43.78,43.78,0,0,0,291.1,214.75Z" transform="translate(-199.92 -139)"/><path class="cls-5" d="M288.2,195.5c0,1.05.1,2.09.17,3.13h17.05V195.5Z" transform="translate(-199.92 -139)"/><path class="cls-5" d="M291.1,170c.28.12.58.22.87.33,3.15-9.45,8-16.23,13.46-18.08v-3.13C299.42,151.17,294.19,159.11,291.1,170Z" transform="translate(-199.92 -139)"/><path class="cls-5" d="M289.65,176.17a85.41,85.41,0,0,0-1.45,13.08h.17a84.09,84.09,0,0,1,1.28-10,50,50,0,0,0,15.78,3.59v-3.13A50,50,0,0,1,289.65,176.17Z" transform="translate(-199.92 -139)"/><path class="cls-5" d="M293,151.44a43.85,43.85,0,0,0-15.15,9.69q.82.8,1.69,1.56a43.87,43.87,0,0,1,10.66-6.93A39.65,39.65,0,0,1,293,151.44Z" transform="translate(-199.92 -139)"/><path class="cls-5" d="M285.45,217.7a43.75,43.75,0,0,0-7.58,5.92q.82.81,1.69,1.57a44,44,0,0,1,5.89-4.36,56.33,56.33,0,0,0,4.77,11.3c.92.42,1.85.83,2.8,1.19A50.56,50.56,0,0,1,285.45,217.7Z" transform="translate(-199.92 -139)"/><path class="cls-5" d="M281.95,195.5H264.83c.07,1.05.19,2.09.34,3.13h16.78a91.72,91.72,0,0,0,1.35,13.09l.53-.32A90.18,90.18,0,0,1,281.95,195.5Z" transform="translate(-199.92 -139)"/><path class="cls-5" d="M264.83,189.25h.34a43.53,43.53,0,0,1,8.56-20.32,50,50,0,0,0,9.57,7.23c.17-.94.33-1.89.53-2.8a50,50,0,0,1-10.1-7.55A43.51,43.51,0,0,0,264.83,189.25Z" transform="translate(-199.92 -139)"/><path class="cls-5" d="M335,195.5a90.18,90.18,0,0,1-1.87,15.89l.53.32A91.73,91.73,0,0,0,335,198.63h16.78c.15-1,.26-2.07.34-3.13Z" transform="translate(-199.92 -139)"/><path class="cls-5" d="M343.19,165.81a50,50,0,0,1-10.1,7.55c.2.92.36,1.86.53,2.8a50,50,0,0,0,9.57-7.23,43.52,43.52,0,0,1,8.56,20.31h.34A43.51,43.51,0,0,0,343.19,165.81Z" transform="translate(-199.92 -139)"/><path class="cls-5" d="M331.47,217.7a50.57,50.57,0,0,1-7.58,15.61c1-.36,1.88-.77,2.8-1.19a56.36,56.36,0,0,0,4.77-11.3,43.9,43.9,0,0,1,5.89,4.36q.86-.76,1.69-1.57A43.75,43.75,0,0,0,331.47,217.7Z" transform="translate(-199.92 -139)"/><path class="cls-5" d="M346,225.4a3.11,3.11,0,0,1-.48.56h0a50,50,0,0,1-87-32.1c0,.54,0,1.09,0,1.64a50,50,0,0,0,87,33.59h0a3.11,3.11,0,0,0,.48-.56,49.79,49.79,0,0,0,12.5-33c0-.53,0-1,0-1.57A49.79,49.79,0,0,1,346,225.4Z" transform="translate(-199.92 -139)"/><path class="cls-5" d="M327.27,176.17a50,50,0,0,1-15.59,3.58v3.13a50,50,0,0,0,15.59-3.58,84.24,84.24,0,0,1,1.28,10h.17A85.47,85.47,0,0,0,327.27,176.17Z" transform="translate(-199.92 -139)"/><path class="cls-5" d="M311.68,195.5v3.13h16.87c.07-1,.13-2.07.17-3.13Z" transform="translate(-199.92 -139)"/><path class="cls-5" d="M323.89,151.44a39.66,39.66,0,0,1,2.8,4.32,43.88,43.88,0,0,1,10.66,6.94q.86-.76,1.69-1.56A43.86,43.86,0,0,0,323.89,151.44Z" transform="translate(-199.92 -139)"/><path class="cls-5" d="M311.68,149.2v3.13c5.4,1.94,10.16,8.67,13.27,18,.29-.12.58-.21.87-.33C322.76,159.22,317.6,151.34,311.68,149.2Z" transform="translate(-199.92 -139)"/></g></g></g></svg>