<svg id="Layer_1" data-name="Layer 1" xmlns="http://www.w3.org/2000/svg" viewBox="0 0 209.75 166.84"><defs><style>.cls-1{fill:#1ba39c;}.cls-2{fill:none;stroke:#fff;stroke-miterlimit:10;}.cls-3{font-size:22.56px;font-family:IRANSans, IRANSans;}.cls-3,.cls-4,.cls-5{fill:#fff;}.cls-5{stroke:#cfd8dc;stroke-linecap:round;stroke-linejoin:round;stroke-width:2px;}</style></defs><title>phone</title><rect class="cls-1" width="209.75" height="166.84" rx="5" ry="5"/><line class="cls-2" x1="11.51" y1="110.99" x2="198.24" y2="110.99"/><text class="cls-3" transform="translate(17.91 144.82) scale(0.86 1)">نفلت قیرط زا ینابیتشپ</text><path class="cls-4" d="M343.06,196.06l-18.39-26.18a6.28,6.28,0,0,0-5.14-2.67H308.4v-9.42a3.14,3.14,0,1,0-6.28,0v9.42h-10v-9.42a3.14,3.14,0,0,0-6.28,0v9.42H274.71a6.28,6.28,0,0,0-5.14,2.67l-18.39,26.18a6.28,6.28,0,0,0-1.14,3.61V208a6.28,6.28,0,0,0,6.28,6.28h81.6A6.28,6.28,0,0,0,344.2,208v-8.34A6.28,6.28,0,0,0,343.06,196.06Z" transform="translate(-192.25 -116.58)"/><path class="cls-4" d="M347.32,152.27s2.37-25.86-50.2-25.86v0c-52.43,0-50.2,25.86-50.2,25.86h0v5.9c0,1.53,1.55,2.76,3.46,2.76h13.86c1.91,0,3.46-1.24,3.46-2.76v-5.9h0v-5s11.87-3.93,29.41-3.93,29.41,3.93,29.41,3.93v5h0v5.9c0,1.53,1.55,2.76,3.46,2.76h13.86c1.91,0,3.46-1.24,3.46-2.76v-5.9h0Z" transform="translate(-192.25 -116.58)"/><ellipse class="cls-5" cx="104.87" cy="67.89" rx="15.69" ry="7.85"/></svg>