<svg id="Layer_1" data-name="Layer 1" xmlns="http://www.w3.org/2000/svg" viewBox="0 0 1007 655.35"><defs><style>.cls-1{fill:#1d8093;}</style></defs><title>Untitled-1</title><path class="cls-1" d="M542.88,261.06a5.79,5.79,0,0,0,5.6,5H1018a5,5,0,0,0,5-5V137.83a5,5,0,0,0-5-5H532.49a4.34,4.34,0,0,0-4.4,5Z" transform="translate(-16 -132.83)"/><path class="cls-1" d="M16,783.17a5,5,0,0,0,5,5H522.49a5,5,0,0,0,5-5V271c0-2.75-.27-7.23-.6-10L512.1,137.79a5.79,5.79,0,0,0-5.6-5H21a5,5,0,0,0-5,5Z" transform="translate(-16 -132.83)"/></svg>