<svg id="Layer_1" data-name="Layer 1" xmlns="http://www.w3.org/2000/svg" viewBox="0 0 196.78 284.01"><defs><style>.cls-1{fill:#1d8093;}</style></defs><title>tablet</title><path class="cls-1" d="M653.71,237H487.37a15.22,15.22,0,0,0-15.21,15.22V505.79A15.21,15.21,0,0,0,487.37,521H653.71a15.22,15.22,0,0,0,15.22-15.22V252.22A15.22,15.22,0,0,0,653.71,237m-62.34,12.37a3.22,3.22,0,1,1-3.22,3.21,3.23,3.23,0,0,1,3.22-3.21m-44.91,1.23h33.7v3.68h-33.7Zm24.07,264.34a9.89,9.89,0,1,1,9.89-9.89,9.89,9.89,0,0,1-9.89,9.89m88.75-25.89H481.79V269h177.5Z" transform="translate(-472.15 -237)"/></svg>