<svg id="Layer_1" data-name="Layer 1" xmlns="http://www.w3.org/2000/svg" viewBox="0 0 207.86 165.33"><defs><style>.cls-1{fill:#1ba39c;}.cls-2{font-size:22.35px;font-family:IRANSans, IRANSans;}.cls-2,.cls-4{fill:#fff;}.cls-3{fill:none;stroke:#fff;stroke-miterlimit:10;}</style></defs><title>ticket</title><rect class="cls-1" width="207.86" height="165.33" rx="5" ry="5"/><text class="cls-2" transform="translate(44.28 144.67) scale(0.86 1)">یتکیت ینابیتشپ</text><line class="cls-3" x1="11.41" y1="109.99" x2="196.45" y2="109.99"/><rect class="cls-4" x="53.95" y="32.27" width="99.97" height="44.92"/><path class="cls-4" d="M375.08,149.91h3.21a.74.74,0,0,0,.74-.74V146a.74.74,0,0,0-.74-.74h-3.21a3.58,3.58,0,1,1,0-7.15h3.07a.74.74,0,0,0,.69-1,13.07,13.07,0,0,0-12.84-11H252.91A13.07,13.07,0,0,0,240,137.22a.74.74,0,0,0,.73.85h3.06a3.58,3.58,0,1,1,0,7.15h-3.21a.74.74,0,0,0-.74.74v3.21a.74.74,0,0,0,.74.74h3.21a3.58,3.58,0,1,1,0,7.15h-3.2a.74.74,0,0,0-.74.74V161a.74.74,0,0,0,.74.74h3.21a3.58,3.58,0,1,1,0,7.15h-3.21a.74.74,0,0,0-.74.74V173a.74.74,0,0,0,.74.74h3.21a3.58,3.58,0,1,1,0,7.15h-3.21a.79.79,0,0,0-.74.8,13,13,0,0,0,13,13H366a13,13,0,0,0,13-13.07.74.74,0,0,0-.74-.74h-3.21a3.58,3.58,0,1,1,0-7.15h3.21A.74.74,0,0,0,379,173v-3.33a.74.74,0,0,0-.74-.74h-3.21a3.58,3.58,0,0,1,0-7.15h3.21A.74.74,0,0,0,379,161V157.8a.74.74,0,0,0-.74-.74h-3.21a3.58,3.58,0,0,1,0-7.15ZM364.47,135.6v49.59a.74.74,0,0,1-.74.74H255.19a.74.74,0,0,1-.74-.74V135.6a.74.74,0,0,1,.74-.74H363.73A.74.74,0,0,1,364.47,135.6Z" transform="translate(-205.53 -105.67)"/></svg>