<svg id="Layer_1" data-name="Layer 1" xmlns="http://www.w3.org/2000/svg" viewBox="0 0 541.39 465.92"><defs><style>.cls-1{fill:#154d61;}.cls-2{fill:#ef7c6d;}.cls-3{fill:#eb5b49;}.cls-4{fill:#fff;}.cls-5{fill:#00aa9f;}</style></defs><title>advertising</title><path class="cls-1" d="M209.42,408.69s27.8,35.15,53,64.47S322.46,529,322.46,529s13.58-3.68,36.8-14.4,25.56-15.88,25.56-15.88-6.83-28-24.5-28.94c-2.68-11-8.11-24.9-22-25.34-1.21-12.26-10.57-37-28.38-40.8.83-13.71-6.3-25.28-6.3-25.28Z" transform="translate(-106.5 -63.08)"/><path class="cls-1" d="M333.16,373.65l16,35.86a22.28,22.28,0,0,1-10.37,6c-6.28,1.48-20.1-14.66-23.88-22.65a191.78,191.78,0,0,1-7.23-18.47Z" transform="translate(-106.5 -63.08)"/><path class="cls-1" d="M116.93,331.4s-.74,5.35.94,15.69a32.91,32.91,0,0,0,22.61,57.77c5.79,8.74,10,12.16,10,12.16l30.61-4L161.59,363.3l-19.46-49.72Z" transform="translate(-106.5 -63.08)"/><path class="cls-2" d="M322.89,184c-33.38,54.82-101,86.33-132.37,100.1s-40.65,14.4-47.32,23.05,13.23,58.21,13.23,58.21,19,49.9,29.8,51.72,18-4,50.4-15.2S340.05,367.9,401.77,385.5s93.31,28.88,93.31,28.88L433.44,256.9,371.8,99.41S356.27,129.14,322.89,184Z" transform="translate(-106.5 -63.08)"/><path class="cls-3" d="M294.08,308.93c-51.07,20-94.17,49.45-125.92,83.37,5.93,12.1,12.94,23.88,18.07,24.75,10.77,1.82,18-4,50.4-15.2S340.05,367.9,401.77,385.5s93.31,28.88,93.31,28.88L444.34,284.76C397.7,281.18,345.59,288.76,294.08,308.93Z" transform="translate(-106.5 -63.08)"/><path class="cls-1" d="M523.74,376.13c3.48,18.23-1.51,31.4-16.26,37.17h0c-14.75,5.77-27.57,0-37.17-16.26,0,0-13.45-13.65-59.49-131.29S365.39,129,365.39,129c-.76-18.7,1.5-31.4,16.26-37.17h0C396.4,86,407.09,91.56,418.82,108c0,0,17.13,23.05,59.49,131.29S523.74,376.13,523.74,376.13Z" transform="translate(-106.5 -63.08)"/><path class="cls-4" d="M473.15,241.35c31.15,79.6,42.11,149.71,42.11,149.71s-39.55-58.93-70.7-138.52-42.11-149.71-42.11-149.71S442,161.76,473.15,241.35Z" transform="translate(-106.5 -63.08)"/><path class="cls-5" d="M635.59,174.65a5.48,5.48,0,0,1-3.41,6.95L536.5,214.22a5.47,5.47,0,0,1-6.95-3.41h0a5.47,5.47,0,0,1,3.41-6.95l95.68-32.62a5.48,5.48,0,0,1,6.95,3.41Z" transform="translate(-106.5 -63.08)"/><path class="cls-5" d="M564.78,63.64a5.47,5.47,0,0,1,2.5,7.33l-44.59,90.72a5.47,5.47,0,0,1-7.33,2.5h0a5.47,5.47,0,0,1-2.5-7.32l44.59-90.72a5.47,5.47,0,0,1,7.33-2.5Z" transform="translate(-106.5 -63.08)"/><path class="cls-5" d="M647.33,305.8a5.47,5.47,0,0,0-2.5-7.32l-90.72-44.59a5.47,5.47,0,0,0-7.33,2.5h0a5.47,5.47,0,0,0,2.5,7.33L640,308.3a5.48,5.48,0,0,0,7.32-2.5Z" transform="translate(-106.5 -63.08)"/></svg>