<svg id="Layer_1" data-name="Layer 1" xmlns="http://www.w3.org/2000/svg" viewBox="0 0 398.41 452.14"><defs><style>.cls-1{fill:#429194;}.cls-2{fill:#1c363b;}.cls-3{fill:#f8efb6;}.cls-4{fill:#e6dda8;}.cls-5{fill:#284d53;}.cls-20,.cls-22,.cls-6{fill:#122e31;}.cls-7{fill:#326169;}.cls-8{fill:#f4ebc4;}.cls-9{fill:#d9d0ae;}.cls-10{fill:#0c2021;}.cls-11{fill:#67e5e8;}.cls-12{fill:#f0ebc5;}.cls-13{fill:#e1484b;}.cls-14{fill:#567b81;}.cls-15{fill:#d7fa48;}.cls-16{fill:#a4d309;}.cls-17{fill:#102629;}.cls-18{fill:#083c42;}.cls-19{fill:#92bc03;}.cls-20{font-size:28.7px;}.cls-20,.cls-22{font-family:GoodDogCool, GoodDogCool;}.cls-21{letter-spacing:-0.04em;}.cls-22{font-size:28.7px;}.cls-23{letter-spacing:-0.01em;}.cls-24{letter-spacing:0.02em;}</style></defs><title>android</title><ellipse class="cls-1" cx="185.09" cy="439.14" rx="166.56" ry="13"/><g id="_Group_" data-name="&lt;Group&gt;"><path class="cls-2" d="M374.42,242.92c.43,9-.89,18.48-4.67,26.2A66.32,66.32,0,0,1,357,263.62a46.6,46.6,0,0,0,5.87-21C367,243.15,370.29,242.44,374.42,242.92Z" transform="translate(-212.53 -54.93)"/><path id="_Path_" data-name="&lt;Path&gt;" class="cls-3" d="M393.45,227.61c.08,8.49-1.87,18-9.23,24.34,0,0-12.19-2.83-28.3-5.66-24.53-4.33-58.15-8.65-71.74-3l7.54-38.71,7-36.09s24.23,21,64.56,33.47a202.06,202.06,0,0,0,26.89,6.36A67,67,0,0,1,393.45,227.61Z" transform="translate(-212.53 -54.93)"/><path id="_Path_2" data-name="&lt;Path&gt;" class="cls-4" d="M393.45,227.61a282.68,282.68,0,0,1-101.72-23.08l7-36.09s24.23,21,64.56,33.47a202.06,202.06,0,0,0,26.89,6.36A67,67,0,0,1,393.45,227.61Z" transform="translate(-212.53 -54.93)"/><path class="cls-5" d="M267.71,239.32c.19,3.94.62,8,3.2,11.38a14.44,14.44,0,0,0,13.24,5c6.61-1,10.26-6.26,12.89-10.83,10.32-18,18-36.76,18.44-56,.19-8.34,1.84-27.94-8.32-33.27-13.64-7.16-23.91,14.12-26.86,21C271.45,197.17,266.68,218.11,267.71,239.32Z" transform="translate(-212.53 -54.93)"/><path id="_Path_3" data-name="&lt;Path&gt;" class="cls-6" d="M312.11,190.29c-.13,2.26-.34,4.5-.66,6.75,0,0,0,0,0,0a109,109,0,0,1-8.17,28.1,177.44,177.44,0,0,1-8.55,17.1c-2.36,4.18-5.6,8.94-11.21,9.62a11.75,11.75,0,0,1-11-5.35c-2.06-3.3-2.27-7.15-2.3-10.86-.15-20,4.55-39.56,12.67-58.52,2.71-6.34,12.06-25.93,23.3-18.57C314.58,164,312.55,182.43,312.11,190.29Z" transform="translate(-212.53 -54.93)"/><path id="_Path_4" data-name="&lt;Path&gt;" class="cls-5" d="M384.21,251.94s-12.19-2.83-28.29-5.66a83.43,83.43,0,0,0,7.4-44.37,201.79,201.79,0,0,0,26.89,6.35S400.59,237.75,384.21,251.94Z" transform="translate(-212.53 -54.93)"/><path class="cls-5" d="M379.81,245.56c.43,9-.89,18.48-4.67,26.21a66.32,66.32,0,0,1-12.78-5.51,46.6,46.6,0,0,0,5.87-21C372.35,245.79,375.68,245.08,379.81,245.56Z" transform="translate(-212.53 -54.93)"/><path id="_Path_5" data-name="&lt;Path&gt;" class="cls-7" d="M389.84,220.06a30.33,30.33,0,0,0-.67-9,211.72,211.72,0,0,1-23.67-4.29,25.93,25.93,0,0,1-.15,10.07C373.64,218.22,381.55,218.67,389.84,220.06Z" transform="translate(-212.53 -54.93)"/><path id="_Path_6" data-name="&lt;Path&gt;" class="cls-7" d="M389.61,225.82c.11-1.08.61-2.26.72-3.35-8.47-.91-16.77-2.09-25.24-3l-.15,3.4C373.15,223.81,381.49,224.32,389.61,225.82Z" transform="translate(-212.53 -54.93)"/><path id="_Path_7" data-name="&lt;Path&gt;" class="cls-8" d="M311.45,197s0,0,0,0a109,109,0,0,1-8.17,28.1c-6.1-4-12.13-7.43-18.24-11.39,1.24-6.31,3.35-11.84,4.23-18.59a189.23,189.23,0,0,1,22.25,1.35Z" transform="translate(-212.53 -54.93)"/><path id="_Path_8" data-name="&lt;Path&gt;" class="cls-9" d="M303.07,221.9c1.95-2.7,2.6-6.13,3.36-9.31a108.43,108.43,0,0,1-19-5.44,50.56,50.56,0,0,1-1.52,5.53A100.82,100.82,0,0,0,303.07,221.9Z" transform="translate(-212.53 -54.93)"/><path id="_Path_9" data-name="&lt;Path&gt;" class="cls-10" d="M375.19,243.1a9.31,9.31,0,0,0-5,.13,1,1,0,0,0,.26,1.89c1.79.2,3.6.3,5.4.49.71.08,2.06.39,2.16-.66S376,243.26,375.19,243.1Z" transform="translate(-212.53 -54.93)"/><path id="_Path_10" data-name="&lt;Path&gt;" class="cls-10" d="M378.64,238.2c-2.33-.59-5.38-1-7.71-.27-.95.29-1.14,1.94,0,2.12s2.38.1,3.57.17,2.53.26,3.8.43S380,238.54,378.64,238.2Z" transform="translate(-212.53 -54.93)"/><path id="_Path_11" data-name="&lt;Path&gt;" class="cls-11" d="M254.15,201.06c-3.38-.86-5.53.26-8.9,1a41.42,41.42,0,0,1-6,.85,35.8,35.8,0,0,1,4.53-3.86c3-2.13-.4-5.39-3.3-5q-8.8,1.13-17.58,2.4c-4.08.59-7.65.58-10.19,3.67-.4.49,0,1.12.42,1.43,3.46,2.29,7.5,1.11,11.53.6l7.3-.94c-1,1.11-2,2.24-2.91,3.43-1.21,1.55-.08,4.42,2.16,4.7,6.81.86,20.67,1.3,24.39-5.1A2.13,2.13,0,0,0,254.15,201.06Z" transform="translate(-212.53 -54.93)"/><path id="_Path_12" data-name="&lt;Path&gt;" class="cls-11" d="M264.47,176.24a63.8,63.8,0,0,0-10-7.87c2.75-1.27,5.39-2.95,4.32-6.07-2-5.73-9.74-12.52-15-14.94a1.76,1.76,0,0,0-2.13,2.76c2.83,3.12,6.21,5.69,9.07,8.81.83.9,4.07,4.67,4.1,4.54s-5.4,2-5.86,2.19a2.44,2.44,0,0,0-.57,4.39c4.41,3.23,8.91,6.71,13.9,9C264.07,179.87,266,177.78,264.47,176.24Z" transform="translate(-212.53 -54.93)"/><path id="_Path_13" data-name="&lt;Path&gt;" class="cls-11" d="M250.59,237a74.66,74.66,0,0,0-7.26,4.5c.2-2,.49-3.9.9-5.85s-1.6-3.78-3.44-2.65c-8.37,5.18-17.14,10-25.12,15.8a2.05,2.05,0,0,0,2.07,3.54c7.23-3.73,14.14-8.24,21.06-12.59-.28,2.13-.47,4.27-.55,6.46a2.4,2.4,0,0,0,3.58,2.05,128.71,128.71,0,0,0,11.23-8.06C254.88,238.67,252.55,236,250.59,237Z" transform="translate(-212.53 -54.93)"/></g><g id="_Group_2" data-name="&lt;Group&gt;"><path id="_Path_14" data-name="&lt;Path&gt;" class="cls-12" d="M292.52,120.75c1.1,10.53,11.66,19.12,22.19,18.05s19.15-11.61,18.11-22.15C330.25,90.78,289.82,94.86,292.52,120.75Z" transform="translate(-212.53 -54.93)"/><path id="_Path_15" data-name="&lt;Path&gt;" class="cls-13" d="M315.35,130.3a19.24,19.24,0,0,1-8.26-2.62,10.81,10.81,0,0,1-5-6.89,7.58,7.58,0,0,1,3-7.67c2.45-1.58,6.14-1.09,7.79,1.31a10.45,10.45,0,0,1,4.1-3,5,5,0,0,1,4.83.83c1.56,1.45,1.64,3.88,1.29,6C322.34,122.95,319,127.21,315.35,130.3Z" transform="translate(-212.53 -54.93)"/></g><g id="_Group_3" data-name="&lt;Group&gt;"><path class="cls-12" d="M441.49,95.11c-8.5,4.42-12.22,16.16-7.82,24.66s16.13,12.26,24.64,7.88C479.24,116.9,462.38,84.25,441.49,95.11Z" transform="translate(-212.53 -54.93)"/><path id="_Path_16" data-name="&lt;Path&gt;" class="cls-14" d="M460.14,112.46a9.05,9.05,0,0,0-.87-4.33c-.75-1.29-2.6-2.16-3.95-1.51a10.43,10.43,0,0,0,.66-5.74c-.26-1.56-1.28-3.33-2.86-3.25A2.8,2.8,0,0,0,451,99.09a16.22,16.22,0,0,0-1,2.47c-1,2.55-2.42,5.68-5.5,5.88a.9.9,0,0,0-.16-.51c-.19-.18-.8-.08-1-.07-.78,0-1.57.13-2.35.19a7.21,7.21,0,0,0-2.38.2c-.84.39-.43,2.78-.42,3.62a44.58,44.58,0,0,0,.31,4.67c.08.67.17,1.35.26,2a10.33,10.33,0,0,0,.36,2.29c.38.86,1,.77,1.82.77a15.7,15.7,0,0,0,4.51-.32,1.25,1.25,0,0,0,.63-.38,1.21,1.21,0,0,0,.1-.62,51.77,51.77,0,0,0,10.75-1.7,5,5,0,0,0,2.23-1C460.17,115.56,460.19,113.92,460.14,112.46Z" transform="translate(-212.53 -54.93)"/></g><path class="cls-15" d="M382.42,157a20,20,0,0,0-2-.54c0-.21,0-.42,0-.63,0-2.74.18-5.53.26-8.33,1.73,1.3,3,5.07,3.54,6.54.65,1.7,3.57,1.68,3.66-.3.16-3.54-1.59-8-5.4-9.63a8,8,0,0,0-1.77-.52,41.88,41.88,0,0,0-.32-4.69c-.05-.41-.79-.41-.89,0a33.53,33.53,0,0,0-.93,4.63,7.59,7.59,0,0,0-6.15,3.92c-1.85,3.63-1.65,8.86,2.11,11.44a19.35,19.35,0,0,0,3.17,1.3c-.07,1.41-.12,2.84-.12,4.26a28.46,28.46,0,0,1-3.65-2.22,1.94,1.94,0,0,0-2.76.89c-.91,3.48,2.67,5.79,6.71,6.42a23.23,23.23,0,0,0,.62,3.24c.19.69,1.52.86,1.68.06a27.06,27.06,0,0,0,.41-3.13c3.35-.11,6.4-1.46,6.81-4.33A7.25,7.25,0,0,0,382.42,157Zm-5.54-7.81a6.26,6.26,0,0,1,1.3-1.59c-.16,2.65-.19,5.3-.27,7.86C375.28,153.79,375.51,151.45,376.89,149.19Zm5.5,14.53a1.84,1.84,0,0,1-1.66,1.5c0-1.28-.07-2.55-.12-3.83C381.81,162,382.64,162.81,382.38,163.72Z" transform="translate(-212.53 -54.93)"/><path class="cls-16" d="M397.11,126.37a13.06,13.06,0,0,0-1.34,0l-.11-.4c-.46-1.73-.83-3.52-1.25-5.29,1.31.52,2.73,2.69,3.34,3.52s2.53.45,2.26-.81c-.5-2.26-2.36-4.76-5-5.15a5.19,5.19,0,0,0-1.2,0,27.36,27.36,0,0,0-1-2.9c-.1-.25-.57-.13-.57.13a21.88,21.88,0,0,0,.2,3.07,5,5,0,0,0-3.21,3.52c-.55,2.6.46,5.86,3.27,6.85a12.63,12.63,0,0,0,2.22.28c.2.9.41,1.81.65,2.71a18.57,18.57,0,0,1-2.67-.78,1.27,1.27,0,0,0-1.59,1c0,2.35,2.67,3.19,5.32,2.91a15.17,15.17,0,0,0,.94,1.94c.24.4,1.11.28,1.07-.24a17.67,17.67,0,0,0-.27-2c2.09-.64,3.78-2,3.56-3.88A4.73,4.73,0,0,0,397.11,126.37Zm-4.81-4a4.08,4.08,0,0,1,.55-1.22c.35,1.7.78,3.37,1.16,5C392.06,125.56,391.81,124,392.3,122.38Zm5.93,8.22a1.2,1.2,0,0,1-.79,1.23c-.23-.8-.48-1.6-.73-2.39C397.58,129.65,398.23,130,398.22,130.61Z" transform="translate(-212.53 -54.93)"/><g id="_Group_4" data-name="&lt;Group&gt;"><path class="cls-3" d="M411.54,67.15c.26-2,.44-4.2-.76-5.8-1.07-1.43-3-2-4.7-2.36-10.2-2.33-20.16-4.21-30.68-4A8.61,8.61,0,0,0,370.53,56c-1.87,1.3-2.45,3.77-2.88,6-1.08,5.52-5.4,15-.66,20l0,0c2.9,3,10.67,3.14,14.53,3.78s7.49.93,11.24,1.27a8,8,0,0,0,5.78,6.48,15.33,15.33,0,0,1-.41-5.94h.13c3.87.47,7.17.76,9.83-2.74C411.51,80.45,410.85,72.44,411.54,67.15Z" transform="translate(-212.53 -54.93)"/><path class="cls-4" d="M385.88,72.1c-2.29-2.33-6.21-2.2-9.25-2.53-4-.44-8-1.08-12.06-1.62S356.73,66,353,68.77c-4,2.93-3.66,7.72-4.48,12.07-.77,4.1-1,8.75,2.3,11.85,1.89,1.59,4.47,2,6.93,2.29,2.13.25,4.28.7,6.44,1.09a15.32,15.32,0,0,1-1.51,4.53,7.94,7.94,0,0,0,6.42-3.86c.59,0,1.18.07,1.77.06,3.62,0,8.54,1.19,11.77-.73A6.72,6.72,0,0,0,385,93.74c2-3.25,1.87-7.34,2.59-11S388.73,75,385.88,72.1Z" transform="translate(-212.53 -54.93)"/><path id="_Path_17" data-name="&lt;Path&gt;" class="cls-5" d="M376.07,77.89c-6.37-1.15-13.79-2.65-20.21-1.44a1.11,1.11,0,0,0,0,2.12c6.21,1.56,13,1.45,19.34,2.51C377.26,81.43,378.17,78.27,376.07,77.89Z" transform="translate(-212.53 -54.93)"/><path id="_Path_18" data-name="&lt;Path&gt;" class="cls-5" d="M362.65,83.5a51.36,51.36,0,0,0-7.35.27,1,1,0,0,0,0,1.87,51.36,51.36,0,0,0,7.35.27A1.21,1.21,0,0,0,362.65,83.5Z" transform="translate(-212.53 -54.93)"/><path id="_Path_19" data-name="&lt;Path&gt;" class="cls-5" d="M405.5,66.57a72.52,72.52,0,0,0-18.62-1.33,1.1,1.1,0,0,0,0,2.2c6,.4,12,.65,17.95,1.57C406.4,69.25,407.11,66.86,405.5,66.57Z" transform="translate(-212.53 -54.93)"/><path id="_Path_20" data-name="&lt;Path&gt;" class="cls-5" d="M405.51,72.77a24.09,24.09,0,0,0-5.32-.7,19.11,19.11,0,0,0-5.23,0c-.82.15-.61,1.21,0,1.46a18.15,18.15,0,0,0,4.85,1,24.56,24.56,0,0,0,5.42.4A1.1,1.1,0,0,0,405.51,72.77Z" transform="translate(-212.53 -54.93)"/><path id="_Path_21" data-name="&lt;Path&gt;" class="cls-5" d="M392,71.26a3.58,3.58,0,0,1-2.34-.3c-.85-.49-1.9.75-1.09,1.41a4.15,4.15,0,0,0,3.7.95C393.38,73,393.22,71.12,392,71.26Z" transform="translate(-212.53 -54.93)"/></g><g id="_Group_5" data-name="&lt;Group&gt;"><path class="cls-17" d="M406.62,288.54c-1-1.25-3.3-1.72-4.55-.47-2.6,2.59-3,5.72-4.21,9.06a29.77,29.77,0,0,1-6.74,10.59c-5.76,5.68-17.87,10.09-25.36,5.18-6.57-4.31-6.29-15-5.47-21.8,1-8.64,7.7-17.32,7.31-26a5.12,5.12,0,0,0-2.12-4.16c-2-1.27-4.71-.37-6.71.94-10.27,6.74-11.45,23.23-11.57,34.33s3.25,24.27,14.52,29,25.62.58,34.58-6.88C403,312.71,413.72,297.16,406.62,288.54Z" transform="translate(-212.53 -54.93)"/><path id="_Path_22" data-name="&lt;Path&gt;" class="cls-5" d="M415.08,155.93l-.66.64c-5.59,5.7-6.87,14.9-7.43,22.49-.81,11-1.21,22.1-1.82,33.14L398.4,335.64,396,379.81c-.61,11-3.63,23,.12,33.84,3.63,10.48,10.51,12.21,20.43,13.23l57,5.86,48.72,5c12.31,1.27,26.14,2.59,35-7.81,9.77-11.43,8.39-30.08,9.76-44.28l4.15-43,12.07-125.1,3-30.65c.79-8.17,3.38-17.59-1.48-25-7.82-11.9-29.48-8.31-42.1-8.69l-49.5-1.52-42.82-1.32C438.87,150,424.21,147.44,415.08,155.93Z" transform="translate(-212.53 -54.93)"/><path id="_Path_23" data-name="&lt;Path&gt;" class="cls-6" d="M413.8,153.77l-.62.61c-5.25,5.46-6.45,14.26-7,21.53-.76,10.56-1.14,21.15-1.71,31.72l-6.36,118.14L395.87,368c-.57,10.57-3.4,22,.11,32.39,3.41,10,9.86,11.69,19.17,12.66l53.52,5.61,45.73,4.8C526,424.72,538.94,426,547.28,416c9.17-10.94,7.88-28.79,9.16-42.38l3.89-41.15,11.33-119.73,2.78-29.33c.74-7.82,3.18-16.83-1.39-23.92-7.34-11.39-27.67-8-39.52-8.32l-46.46-1.46-40.2-1.26C436.14,148.13,422.38,145.64,413.8,153.77Z" transform="translate(-212.53 -54.93)"/><path id="_Path_24" data-name="&lt;Path&gt;" class="cls-16" d="M562.37,202.9c-1.08,11.09-2.38,22.16-3.56,33.25q-4.57,42.64-9.14,85.29l-4.22,39.4c-.92,8.62-.91,20.67-7.84,27.14-7.88,7.36-23.38,2.88-32.87,2.12l-39.1-3.17-38.71-3.13c-3.76-.31-10.33.45-13.76-1.06-4.17-1.82-5.72-6-6.16-10.63a69.3,69.3,0,0,1,.44-12.29c.9-10.5,1.28-21.06,1.91-31.58q2.61-43,5.2-86l2.23-36.88c.52-8.55.08-18.13,5.18-23,2.31-2.2,5.73-3.44,10.89-3.19,24.44,1.19,48.91,2,73.38,2.8q18.35.58,36.7,1.16c3.31.11,8-.25,11.93.57a10.89,10.89,0,0,1,5.2,2.33C564.53,190,562.89,197.5,562.37,202.9Z" transform="translate(-212.53 -54.93)"/><path id="_Path_25" data-name="&lt;Path&gt;" class="cls-15" d="M560.08,186a8.42,8.42,0,0,0-2-1.29c1.69,4.1.61,9.61.2,13.85-1.08,11.09-2.38,22.16-3.56,33.25q-4.57,42.64-9.14,85.29l-4.22,39.4c-.92,8.62-.91,20.67-7.84,27.14-7.88,7.36-23.38,2.88-32.87,2.12l-39.1-3.17-38.71-3.13c-3.76-.31-10.33.45-13.76-1.06-.19-.08-.34-.19-.51-.28a9.1,9.1,0,0,0,4.62,4.6c3.43,1.51,10,.76,13.76,1.06l38.71,3.13,39.1,3.17c9.49.77,25,5.25,32.87-2.12,6.93-6.47,6.91-18.52,7.84-27.14l4.22-39.4q4.57-42.64,9.14-85.29c1.18-11.09,2.48-22.16,3.56-33.25C562.89,197.5,564.53,190,560.08,186Z" transform="translate(-212.53 -54.93)"/><path class="cls-18" d="M489.61,410.31c.54-3.75,1.05-8,1.36-11.74a3.64,3.64,0,0,0-3.23-3.91c-12-1.32-23.64-2.13-35.64-3.44a3.64,3.64,0,0,0-4,3.42c-.18,3.66-.48,8.14-.65,11.71a3.64,3.64,0,0,0,3.15,3.77c12,1.68,22.69,2.61,35.24,3.31A3.64,3.64,0,0,0,489.61,410.31Z" transform="translate(-212.53 -54.93)"/><path class="cls-10" d="M487.72,409.34c.43-3.13.83-6.65,1.05-9.82a3.24,3.24,0,0,0-2.95-3.32c-10.77-1.27-21.21-2.11-32-3.37a3.08,3.08,0,0,0-3.57,2.81c-.11,3.06-.32,6.81-.42,9.8a3.24,3.24,0,0,0,2.87,3.2c10.8,1.57,20.36,2.5,31.61,3.26A3.09,3.09,0,0,0,487.72,409.34Z" transform="translate(-212.53 -54.93)"/><path id="_Path_26" data-name="&lt;Path&gt;" class="cls-10" d="M535.41,164.38c-4.56,0-4.57,7.09,0,7.09S540,164.38,535.41,164.38Z" transform="translate(-212.53 -54.93)"/><path id="_Path_27" data-name="&lt;Path&gt;" class="cls-10" d="M552,164.38c-4.56,0-4.57,7.09,0,7.09S556.53,164.38,552,164.38Z" transform="translate(-212.53 -54.93)"/><path id="_Path_28" data-name="&lt;Path&gt;" class="cls-10" d="M522.37,165c-7.16-1.74-15.65-.63-23-1-7.57-.33-16.15-1.75-23.55-.06-1.93.44-1.75,3.17,0,3.74,7.58,2.46,16.75,1.72,24.64,2.09,7.17.33,15.66,1.71,22.41-1.1C524.49,168.08,524,165.42,522.37,165Z" transform="translate(-212.53 -54.93)"/><path id="_Path_29" data-name="&lt;Path&gt;" class="cls-14" d="M574.71,271.95a11.27,11.27,0,0,0-5.72-.6q1.9-20.88,4.8-41.66c1.77.1,4.17.44,5.94.54C578,244.21,576.46,258,574.71,271.95Z" transform="translate(-212.53 -54.93)"/><path id="_Path_30" data-name="&lt;Path&gt;" class="cls-19" d="M554.88,183.71A485,485,0,0,1,407,372.11a69.3,69.3,0,0,1,.44-12.29c.9-10.5,1.28-21.06,1.91-31.58q2.61-43,5.2-86l2.23-36.88c.52-8.55.08-18.13,5.18-23,2.31-2.2,5.73-3.44,10.89-3.19,24.44,1.19,48.91,2,73.38,2.8q18.35.58,36.7,1.16C546.26,183.25,550.93,182.89,554.88,183.71Z" transform="translate(-212.53 -54.93)"/><path class="cls-17" d="M610.56,355.35a67.11,67.11,0,0,0-7.55-24.7,76,76,0,0,0-15.56-20c-5.74-5.34-12.36-10.9-20.64-9.3-4.52.87-3.15,6.78.21,8,12.09,4.52,22.06,17.75,27.33,29.14a52.69,52.69,0,0,1,4.9,20.16c.22,6.08-2.19,13.1.69,18.67a3.5,3.5,0,0,0,4.76,1.12C611.73,374.33,611.27,362.44,610.56,355.35Z" transform="translate(-212.53 -54.93)"/><path class="cls-17" d="M356.23,261.18a12.65,12.65,0,0,0,.2,15.29,12.46,12.46,0,0,0,14.95,3,12.27,12.27,0,0,0,5.82-14.06C374.56,257,361.9,253.85,356.23,261.18Z" transform="translate(-212.53 -54.93)"/><path class="cls-17" d="M587,364.34a12.65,12.65,0,0,0,.2,15.29,12.46,12.46,0,0,0,14.95,3A12.27,12.27,0,0,0,608,368.62C605.36,360.18,592.7,357,587,364.34Z" transform="translate(-212.53 -54.93)"/><path id="_Path_31" data-name="&lt;Path&gt;" class="cls-17" d="M448,487.84c-.06-11.14.83-22.41,1.33-33.58.24-5.4.5-10.81.72-16.21s.92-10.85-.78-15.77c-.85-2.46-4-2.62-5.16,0-2.07,4.66-2,9.7-2.36,14.61-.38,5.79-.69,11.58-1,17.37-.56,9.35-.87,18.76-1.7,28.13a50.58,50.58,0,0,0-8.58,1.21,22.67,22.67,0,0,0-10.3,4.54c-1.38,1.19-3.09,3-3.39,4.84-.54,3.4,3.36,2.38,5.62,2.36a85.33,85.33,0,0,0,18.68-1.78,14.64,14.64,0,0,0,3.48-1.21A5.29,5.29,0,0,0,448,487.84Z" transform="translate(-212.53 -54.93)"/><path id="_Path_32" data-name="&lt;Path&gt;" class="cls-17" d="M505.69,494.54c-.06-11.14.83-22.41,1.33-33.58.24-5.4.5-10.81.72-16.21s.92-10.85-.78-15.77c-.85-2.46-4-2.62-5.16,0-2.07,4.66-2,9.7-2.36,14.61-.38,5.79-.69,11.58-1,17.37-.56,9.35-.87,18.76-1.7,28.13a50.57,50.57,0,0,0-8.58,1.21c-3.87.8-7.87,2.22-10.79,5a12,12,0,0,0-3.18,4.63c-1,3.25,2.93,2.14,5.11,2.13a87.86,87.86,0,0,0,19.47-1.79,14.63,14.63,0,0,0,3.48-1.21A5.29,5.29,0,0,0,505.69,494.54Z" transform="translate(-212.53 -54.93)"/><text class="cls-20" transform="translate(218.95 209.49) rotate(5)">INF<tspan class="cls-21" x="39.72" y="0">L</tspan><tspan x="52.24" y="0">UENCER</tspan></text><text class="cls-22" transform="translate(222.23 237.69) rotate(3.28)"><tspan class="cls-23">M</tspan><tspan x="22.79" y="0">ARK</tspan><tspan class="cls-24" x="71.36" y="0">E</tspan><tspan x="85.94" y="0">TING</tspan></text><path id="_Path_33" data-name="&lt;Path&gt;" class="cls-3" d="M548.9,257.23c-6.15-11.83-20.38-15.49-32.71-16a1.1,1.1,0,0,0-.29,2.16c10.16,2.76,22.28,4.13,28.59,13.69,5.83,8.83,4.43,21.26-1.23,29.82-13.26,20.06-42.36,22.28-64,20.67s-50.23-6.78-58.5-30.16c-8-22.54,14.71-39.58,34-44.31,22.79-5.59,43.84,1.75,62.25,15,1,.7,2-.78,1.23-1.6-15-16.68-41.58-21.76-62.76-17.17-20.06,4.35-43.54,20.68-39.5,44,4.55,26.38,33.88,34.66,56.58,37.27,24.29,2.79,57.17,1.49,73-20.54C552.2,280.85,554.27,267.57,548.9,257.23Z" transform="translate(-212.53 -54.93)"/><path id="_Path_34" data-name="&lt;Path&gt;" class="cls-3" d="M544.12,312.52c-2.3-2.94-5.51-2.84-9-3-5.92-.29-11.87-.39-17.8-.52-11.14-.25-22.28-.35-33.41,0-21.69.63-45.47,1.87-65.89,9.79a.91.91,0,0,0,.48,1.75c20.77-3.5,40.94-7.23,62.08-8,10-.37,20-.38,30.06-.22,5.2.08,10.39.21,15.59.36s12-.89,16.68,1.47A1,1,0,0,0,544.12,312.52Z" transform="translate(-212.53 -54.93)"/></g></svg>