<svg xmlns="http://www.w3.org/2000/svg" viewBox="0 0 459.55 462.57"><defs><style>.cls-1{isolation:isolate;}.cls-2{fill:#bfbc62;}.cls-3{fill:#fc6460;}.cls-4{fill:#efd7b8;}.cls-5{fill:#3b4d57;}.cls-6{fill:#fc8b60;}.cls-7{fill:#d8b68d;}.cls-8{fill:#e9e5d9;}.cls-9{fill:#966b4e;}.cls-10{mix-blend-mode:screen;}.cls-11{fill:#bd8864;}.cls-12{fill:#4f6b77;}</style></defs><title>animation</title><g class="cls-1"><g id="Layer_1" data-name="Layer 1"><g id="_Group_" data-name="&lt;Group&gt;"><g id="_Group_2" data-name="&lt;Group&gt;"><path class="cls-2" d="M540.34,216.4a126.57,126.57,0,0,1,12.94,21.83,130.56,130.56,0,0,1,8.25,23.4C580.43,332,545.33,413,478.91,444.29c-30.35,16.15-62.47,20.21-96.25,17.1-10.62-.92-19.79-4.52-29-6.5a128.21,128.21,0,0,1-16.69-6.59c-33.29-16.75-47.3-53.59-61.75-85.06a241,241,0,0,1-8.71-24.87c-9.64-33.72-10.1-69.4,2.12-100.65a115.49,115.49,0,0,1,15.89-22.45c7.4-8.48,12.91-17.31,22.73-22.41a156.45,156.45,0,0,1,22.45-14.44c55.25-29.28,128.71-27.67,181.09,5.74,5.36,2.92,9.26,8.52,13.3,12.45A158.08,158.08,0,0,1,540.34,216.4Z" transform="translate(-137.01 -72)"/></g><g id="_Group_3" data-name="&lt;Group&gt;"><g id="_Group_4" data-name="&lt;Group&gt;"><path class="cls-2" d="M267.3,266.59a145.11,145.11,0,0,0-3.1,39.49,222.91,222.91,0,0,0,6.12,39.21c3.15,12.9,7.08,25.66,11.25,38.34l1.59,4.77.79,2.39c.22.66.56,1.52.84,2.27q1.78,4.65,3.81,9.2A169.83,169.83,0,0,0,297.74,420c1.06,1.77-.27,2.74-1.51,1a151.59,151.59,0,0,1-10.41-17.37q-2.32-4.51-4.35-9.17c-.34-.8-.66-1.49-1-2.4l-.89-2.35-1.78-4.7a355.92,355.92,0,0,1-12.16-38.55A187.52,187.52,0,0,1,260,306.22a129.1,129.1,0,0,1,5.44-40.11C266.12,263.93,267.72,264.53,267.3,266.59Z" transform="translate(-137.01 -72)"/></g></g><g id="_Group_5" data-name="&lt;Group&gt;"><g id="_Group_6" data-name="&lt;Group&gt;"><path class="cls-2" d="M412.42,460.38A152.24,152.24,0,0,0,509.48,422c1.05-.91,2.23.24,1.25,1.29a120,120,0,0,1-44.64,31,116.83,116.83,0,0,1-53.74,8C410.83,462.13,411,460.44,412.42,460.38Z" transform="translate(-137.01 -72)"/></g></g><g id="_Group_7" data-name="&lt;Group&gt;"><g id="_Group_8" data-name="&lt;Group&gt;"><path class="cls-2" d="M518.5,419.63A21.53,21.53,0,0,1,507.18,432c-.21.1-1.39-1.05-1.28-1.26,2.62-5.21,6-9.42,11.18-12.3C517.29,418.31,518.58,419.41,518.5,419.63Z" transform="translate(-137.01 -72)"/></g></g><g id="_Group_9" data-name="&lt;Group&gt;"><g id="_Group_10" data-name="&lt;Group&gt;"><path class="cls-2" d="M508.41,173.42c7.2,3.57,12.89,9.58,17.73,15.74a195.71,195.71,0,0,1,13.37,19.35,116.74,116.74,0,0,1,10.2,21.36,89.84,89.84,0,0,1,3.13,11.46,72.87,72.87,0,0,1,1.3,11.75.9.9,0,1,1-1.79.19c-2.25-15.3-9.08-29.19-17-42.29-4-6.56-8.25-13-12.57-19.37s-9-12.32-15.33-16.58A.93.93,0,1,1,508.41,173.42Z" transform="translate(-137.01 -72)"/></g></g><g id="_Group_11" data-name="&lt;Group&gt;"><g id="_Group_12" data-name="&lt;Group&gt;"><path class="cls-2" d="M462.27,161.59a38.17,38.17,0,0,1,24.3,8.89c.26.22-.45,1.7-.79,1.61-8.44-2.19-16.19-4.66-23.94-8.69C461.5,163.23,461.91,161.58,462.27,161.59Z" transform="translate(-137.01 -72)"/></g></g><g id="_Group_13" data-name="&lt;Group&gt;"><g id="_Group_14" data-name="&lt;Group&gt;"><path class="cls-2" d="M267.95,253a85.4,85.4,0,0,0-6,15.59c-1.37,5.13-1.35,10.73-1.66,16.64,0,.45-1.66.66-1.79.21a53.29,53.29,0,0,1-1.79-8.75,30.45,30.45,0,0,1-.13-4.61c0-.41,0-.73.1-1.22l.13-1.08c.12-.76.27-1.61.45-2.34a32.57,32.57,0,0,1,9.2-15.52C266.78,251.57,268.14,252.59,267.95,253Z" transform="translate(-137.01 -72)"/></g></g><g id="_Group_15" data-name="&lt;Group&gt;"><g id="_Group_16" data-name="&lt;Group&gt;"><path class="cls-3" d="M338.5,514l19.18,0q-1.25,8.85-2.36,17.71l.07.51a202,202,0,0,1-50.54,1.24l33.48-19.43V514Z" transform="translate(-137.01 -72)"/></g><g id="_Group_17" data-name="&lt;Group&gt;"><g id="_Group_18" data-name="&lt;Group&gt;"><path class="cls-4" d="M372.73,425l0,.29q-8.89,44.14-15.07,88.78l-19.18,0v-.67q4.42-42.62,7.43-85.38v-.22Q359.35,426.62,372.73,425Z" transform="translate(-137.01 -72)"/></g><g id="_Group_19" data-name="&lt;Group&gt;"><path class="cls-4" d="M560.06,398l.16.16a76.22,76.22,0,0,1-9.29,13q-33.88-24.91-67.77-49.83,7-10.88,14.47-21.47l.2.14c10.38,6.7,19.24,15.47,28,24.16Q543,381.08,560.06,398Z" transform="translate(-137.01 -72)"/></g><g id="_Group_20" data-name="&lt;Group&gt;"><path class="cls-3" d="M560.23,398.14l-.16-.16q18.07-7.17,36.5-13.4l-31.71,36.81-13.91-10.23A76.22,76.22,0,0,0,560.23,398.14Z" transform="translate(-137.01 -72)"/></g><g id="_Group_21" data-name="&lt;Group&gt;"><path class="cls-5" d="M483.17,361.34q-9.34,14.36-17.93,29.17c-15.72-18.65-37.95-32.23-56.78-47.75a58.13,58.13,0,0,0-10.19,9.09c1.94,23.47,7.17,44.87,9.11,68.34Q390.1,423,372.73,425q-13.37,1.6-26.82,2.76l-2.81.25a480,480,0,0,1,1.82-66v-.08H345c12.77-1.05,24.89-6.4,35.49-13.63s19.79-16.26,28.7-25.47c5.86-6,11.7-12.3,15.54-19.72A371.5,371.5,0,0,1,499,338c-.45.63-.9,1.27-1.34,1.91Q490.21,350.46,483.17,361.34Z" transform="translate(-137.01 -72)"/></g><g id="_Group_22" data-name="&lt;Group&gt;"><path class="cls-3" d="M304.16,271.6a36.71,36.71,0,0,0,6.61,2.65l.34.12c-.26,4,1,7.92,2.2,11.74,3.85,12,7.74,24,12.13,35.84a14.44,14.44,0,0,1-6.06.85,11.1,11.1,0,0,1-7.44-5,27.76,27.76,0,0,1-3.52-8.51,117.52,117.52,0,0,1-4.31-37.55Z" transform="translate(-137.01 -72)"/></g><g id="_Group_23" data-name="&lt;Group&gt;"><path class="cls-3" d="M400.66,254c.59-4.56,2.12-9.07,2.32-13.6,9.91,10.3,20,25.93,15,40.64a12.42,12.42,0,0,1-2.18,4l-3.86-5.94c-4.82-7.4-9.75-15.1-11.46-23.72h0Q400.55,254.74,400.66,254Z" transform="translate(-137.01 -72)"/></g><g id="_Group_24" data-name="&lt;Group&gt;"><path class="cls-3" d="M296.95,244.69q.41-15.34.83-30.7a67.16,67.16,0,0,0,14.82,2q-1.15,29.11-1.83,58.21a36.71,36.71,0,0,1-6.61-2.65,14,14,0,0,1-5.52-5c-2.13-3.55-2.08-7.95-2-12.08C296.76,251.25,296.85,248,296.95,244.69Z" transform="translate(-137.01 -72)"/></g><g id="_Group_25" data-name="&lt;Group&gt;"><path class="cls-3" d="M403,240.44c-.2,4.53-1.73,9-2.32,13.6a295.59,295.59,0,0,1-40.84-50.2,84.78,84.78,0,0,0,13-8.74q.66,1.09,1.39,2.13c6,8.88,14.08,16.26,20.77,24.7.74.91,1.45,1.86,2.14,2.8,2.68,3.63,5.08,7.66,5.69,12.14A18.33,18.33,0,0,1,403,240.44Z" transform="translate(-137.01 -72)"/></g><g id="_Group_26" data-name="&lt;Group&gt;"><path class="cls-6" d="M260.3,217a122.5,122.5,0,0,1,5.43-12.38l.82-1.53a2.14,2.14,0,0,1,.76-.9,2.08,2.08,0,0,1,1.46.05l9.67,2.77.05-.07a40.84,40.84,0,0,0,3.45,2.38A56.51,56.51,0,0,0,297.78,214q-.43,15.36-.83,30.7c-14.2-2.88-29.51-6.31-42.3-13.2C256.69,226.68,258.43,221.81,260.3,217Z" transform="translate(-137.01 -72)"/></g><g id="_Group_27" data-name="&lt;Group&gt;"><path class="cls-6" d="M325.43,322c-4.38-11.81-8.27-23.84-12.13-35.84-1.23-3.82-2.46-7.76-2.2-11.74l-.34-.12q.68-29.11,1.83-58.21a83.35,83.35,0,0,0,20.25-2,10,10,0,0,0,.87,4.19A11.27,11.27,0,0,0,338,224a8.41,8.41,0,0,0,2.77,1,11.1,11.1,0,0,0,11.31-5.22,11.89,11.89,0,0,0-.25-12c2.7-1.2,5.37-2.51,8-3.95A295.59,295.59,0,0,0,400.66,254q-.1.7-.16,1.39h0c1.71,8.62,6.64,16.32,11.46,23.72l3.86,5.94,10.1,15.53c-.37.83-.76,1.67-1.19,2.47-3.84,7.41-9.68,13.68-15.54,19.72-8.92,9.2-18.12,18.26-28.7,25.47S357.74,360.86,345,361.91h-.05a13.27,13.27,0,0,1-1.8.07A309.51,309.51,0,0,1,325.43,322Z" transform="translate(-137.01 -72)"/></g><g id="_Group_28" data-name="&lt;Group&gt;"><path class="cls-6" d="M417.76,184.51c2.16,2.77,4.26,5.56,6.34,8.38a367.31,367.31,0,0,1-29.1,29c-6.69-8.44-14.76-15.83-20.77-24.7q16.28-13.19,31.64-27.49c1.17,1.38,2.32,2.77,3.47,4.18Q413.66,179.15,417.76,184.51Z" transform="translate(-137.01 -72)"/></g><g id="_Group_29" data-name="&lt;Group&gt;"><path class="cls-4" d="M492.8,90.25c1.41,4.44-.81,9.16-3.28,13.11a47,47,0,0,1-6.54,8.48c-3.85,3.84-8.62,6.64-12.63,10.31a79.68,79.68,0,0,0-7,7.69q-22.78,27.34-45.57,54.67-4.1-5.37-8.43-10.58,13.46-15.67,25.33-32.61c6.54-9.33,12.85-19.27,14.69-30.49,1.11-6.76.53-13.65.14-20.48-.14-2.34.46-5.52,2.8-5.61a3.08,3.08,0,0,1,1.73.56c1.9,1.28,2.43,3.77,3.29,5.9s2.83,4.33,5,3.74a4.72,4.72,0,0,0,2-1.37c2.4-2.46,3.74-5.75,5.67-8.6s4.87-5.48,8.32-5.35a12.37,12.37,0,0,1,5.42,1.94C487.54,83.61,491.5,86.18,492.8,90.25Z" transform="translate(-137.01 -72)"/></g><g id="_Group_30" data-name="&lt;Group&gt;"><path class="cls-4" d="M265.73,204.61A122.5,122.5,0,0,0,260.3,217l-56.22-32.42c-14.54-8.38-29.17-16.81-44.94-22.56-4.9-1.78-10-3.33-14.28-6.28S137,148.12,137,142.9a18.91,18.91,0,0,1,2.53-8.58,44.36,44.36,0,0,1,4.14-6.46c1.08-1.39,2.36-2.8,4.08-3.2,2.28-.53,4.52.86,6.45,2.18L167.49,136a1.57,1.57,0,0,0,1.15.41c.49-.1.78-.63.93-1.11.68-2.23.14-4.63.16-7s1-5,3.21-5.69a4.53,4.53,0,0,1,4.6,1.79,10.8,10.8,0,0,1,1.86,4.85c1.27,7,.82,14.82,5.22,20.4,2.13,2.69,5.13,4.49,7.95,6.45,3.37,2.34,6.54,5,9.75,7.52A371.51,371.51,0,0,0,265.73,204.61Z" transform="translate(-137.01 -72)"/></g><g id="_Group_31" data-name="&lt;Group&gt;"><path class="cls-7" d="M351.85,207.79a11.89,11.89,0,0,1,.25,12,11.1,11.1,0,0,1-11.31,5.22,8.41,8.41,0,0,1-2.77-1,11.27,11.27,0,0,1-4.3-5.78,10,10,0,0,1-.87-4.19,97.13,97.13,0,0,0,18.6-6.06Z" transform="translate(-137.01 -72)"/></g><g id="_Group_32" data-name="&lt;Group&gt;"><path class="cls-6" d="M367.6,167.55c-4.74,10.72-10,22.08-20,28.2a40.89,40.89,0,0,1-15.95,5.2c-10.16,1.42-21.25.3-29.59-5.49A177.69,177.69,0,0,0,367.6,167.55Z" transform="translate(-137.01 -72)"/></g><g id="_Group_33" data-name="&lt;Group&gt;"><path class="cls-7" d="M326.51,176.85c-.16-2.8,1.53-7.18,3.67-8a5.42,5.42,0,0,1,6.73,2.74A30.78,30.78,0,0,1,326.51,176.85Z" transform="translate(-137.01 -72)"/></g><g id="_Group_34" data-name="&lt;Group&gt;"><path class="cls-4" d="M269.16,193.49c.25.7.51,1.38.75,2.08l-1.47.55A17.46,17.46,0,0,1,255,194.74c-4-2.35-6.73-7-6.24-11.57a10,10,0,0,1,3.2-6.17,8.85,8.85,0,0,1,5.26-2.42A206.06,206.06,0,0,1,269.16,193.49Z" transform="translate(-137.01 -72)"/></g><g id="_Group_35" data-name="&lt;Group&gt;"><path class="cls-5" d="M352.1,124.09c-4.07,1.37-8.08,2.89-12,4.63a9.19,9.19,0,0,1,1.5-6.68,7.13,7.13,0,0,1,2.28-2.14C347,118.13,351.66,120.48,352.1,124.09Z" transform="translate(-137.01 -72)"/></g><g id="_Group_36" data-name="&lt;Group&gt;"><path class="cls-5" d="M297.86,139.41a31.63,31.63,0,0,0,3.14,2,104.42,104.42,0,0,0-13.4,5.41,6.07,6.07,0,0,1,2.25-7.37A7.73,7.73,0,0,1,297.86,139.41Z" transform="translate(-137.01 -72)"/></g><g id="_Group_37" data-name="&lt;Group&gt;"><path class="cls-5" d="M300.4,175.36a16.41,16.41,0,0,1-4.1-14.73c.2-.86.75-1.9,1.63-1.76a1.79,1.79,0,0,1,1.15,1,40.92,40.92,0,0,1,5.73,13.37c.33,1.41.52,3-.42,4.12-1.31,1.53-4.37.33-4.29-1.69Z" transform="translate(-137.01 -72)"/></g><g id="_Group_38" data-name="&lt;Group&gt;"><path class="cls-5" d="M360,153.27a4.11,4.11,0,0,1-2.88,3.67,2.7,2.7,0,0,1-3.15-2.23,20.43,20.43,0,0,1-4.11-11.47,6.21,6.21,0,0,1,.74-3.69,2.73,2.73,0,0,1,3.32-1.13,3.75,3.75,0,0,1,1.3,1.39,39.43,39.43,0,0,1,3.93,8.59A11.15,11.15,0,0,1,360,153.27Z" transform="translate(-137.01 -72)"/></g><g id="_Group_39" data-name="&lt;Group&gt;"><path class="cls-8" d="M282.27,163.51a20.82,20.82,0,0,1,30.55-13.56,12.56,12.56,0,0,1,3.58,2.8,9.55,9.55,0,0,1,.89,1.22c1.5,2.43,2,5.45,2.39,8.33.66,4.6,1.19,9.5-.72,13.75a16.59,16.59,0,0,1-8.15,7.82A21.73,21.73,0,0,1,290,182.79a19.52,19.52,0,0,1-8.1-11.24s0,0,0-.05A20.44,20.44,0,0,1,282.27,163.51Zm22.12,13.82c.94-1.09.75-2.72.42-4.12a40.92,40.92,0,0,0-5.73-13.37,1.79,1.79,0,0,0-1.15-1c-.87-.14-1.42.9-1.63,1.76a16.41,16.41,0,0,0,4.1,14.73l-.3.27C300,177.66,303.08,178.86,304.39,177.33Z" transform="translate(-137.01 -72)"/></g><g id="_Group_40" data-name="&lt;Group&gt;"><path class="cls-8" d="M368.53,136.17a22.55,22.55,0,0,1,2.55,16.92,15.66,15.66,0,0,1-3.18,6.54c-3.55,4.08-9.44,5.12-14.84,5.35a16.26,16.26,0,0,1-6.24-.61h0a22.79,22.79,0,0,1-4-3.55,23.87,23.87,0,0,1-5.8-13.25,21.42,21.42,0,0,1,0-4.29,18.48,18.48,0,0,1,4.64-11c5.6-5.94,15.83-6.2,22.33-1.26A18.49,18.49,0,0,1,368.53,136.17ZM360,153.27a11.15,11.15,0,0,0-.86-4.86,39.43,39.43,0,0,0-3.93-8.59,3.75,3.75,0,0,0-1.3-1.39,2.73,2.73,0,0,0-3.32,1.13,6.21,6.21,0,0,0-.74,3.69,20.43,20.43,0,0,0,4.11,11.47,2.7,2.7,0,0,0,3.15,2.23A4.11,4.11,0,0,0,360,153.27Z" transform="translate(-137.01 -72)"/></g><g id="_Group_41" data-name="&lt;Group&gt;"><path class="cls-4" d="M326.51,176.85a30.78,30.78,0,0,0,10.41-5.3,5.42,5.42,0,0,0-6.73-2.74C328,169.67,326.35,174.05,326.51,176.85Zm-58.28-8.75a78.12,78.12,0,0,1,14-4.59,20.44,20.44,0,0,0-.37,8s0,0,0,.05a19.52,19.52,0,0,0,8.1,11.24,21.73,21.73,0,0,0,20.78,1.08,16.59,16.59,0,0,0,8.15-7.82c1.91-4.25,1.38-9.15.72-13.75-.4-2.88-.89-5.9-2.39-8.33,1.75-4,5-7.54,9.22-8.79A11.1,11.1,0,0,1,337,147.56a23.87,23.87,0,0,0,5.8,13.25,6.64,6.64,0,0,0,3.93,3.54h.05a16.26,16.26,0,0,0,6.24.61c5.41-.23,11.29-1.27,14.84-5.35a15.66,15.66,0,0,0,3.18-6.54,22.55,22.55,0,0,0-2.55-16.92c3.15-1.13,6.29-2.25,9.45-3.4l.15.05c7.63,2.5,12.88,9.12,17.38,15.89a142,142,0,0,1-4.87-18.16l.46-.1a2.51,2.51,0,0,1,1.47-1.6l.1,0a14.24,14.24,0,0,1,7.32-1.78,8.43,8.43,0,0,1,6.49,3.48,12.2,12.2,0,0,1,1.58,4.7c.78,4.45,1,9.15-.49,13.42s-4.83,8.1-9.23,9.19a11.19,11.19,0,0,1-3.37.31c-1.5,11.18-7,21.64-14.67,30a69.39,69.39,0,0,1-7.46,7,84.78,84.78,0,0,1-13,8.74c-2.59,1.43-5.26,2.74-8,3.95l-.41.19a97.13,97.13,0,0,1-18.6,6.06,83.35,83.35,0,0,1-20.25,2,67.16,67.16,0,0,1-14.82-2A56.51,56.51,0,0,1,282,207.31a40.84,40.84,0,0,1-3.45-2.38,29.63,29.63,0,0,1-7.33-7.78,0,0,0,0,1,0,0c-.41-.76-.82-1.53-1.24-2.29-.25-.45-.49-.9-.75-1.35L264,179.44a10.67,10.67,0,0,1-.87-3.86c.08-3.07,2.73-5.38,5.15-7.26ZM302,195.46c8.34,5.79,19.43,6.91,29.59,5.49a40.89,40.89,0,0,0,15.95-5.2c10-6.12,15.28-17.48,20-28.2A177.69,177.69,0,0,1,302,195.46Z" transform="translate(-137.01 -72)"/></g><g id="_Group_42" data-name="&lt;Group&gt;"><path class="cls-4" d="M301,141.37a31.63,31.63,0,0,1-3.14-2,7.73,7.73,0,0,0-8,0,6.07,6.07,0,0,0-2.25,7.37A104.42,104.42,0,0,1,301,141.37Zm39.09-12.66c3.92-1.73,7.93-3.26,12-4.63-.44-3.6-5.05-6-8.22-4.19A7.13,7.13,0,0,0,341.6,122,9.19,9.19,0,0,0,340.1,128.72ZM364,131.06c-6.5-4.94-16.73-4.68-22.33,1.26a18.48,18.48,0,0,0-4.64,11,21.42,21.42,0,0,0,0,4.29,11.1,11.1,0,0,0-10.53-2.39c-4.21,1.26-7.47,4.75-9.22,8.79a9.55,9.55,0,0,0-.89-1.22,12.56,12.56,0,0,0-3.58-2.8,20.82,20.82,0,0,0-30.55,13.56,78.12,78.12,0,0,0-14,4.59c-1.3-7.17-2.74-13.26-4.06-20.45a213.24,213.24,0,0,1,52-23.64c0-4.11,0-8.22,0-12.33a26.39,26.39,0,0,0,5.37,9.46,178.82,178.82,0,0,0,24.84-7.22A86.89,86.89,0,0,1,341.75,91a83.15,83.15,0,0,0,6.85,14.12c1.41,2.49,2.89,5.07,5.26,6.69s5.83,2,7.95.08q4.55,7.87,9.11,15.72a10.72,10.72,0,0,0,2.5,3.26,14,14,0,0,0,4.56,1.88c-3.15,1.15-6.29,2.27-9.45,3.4A18.49,18.49,0,0,0,364,131.06Z" transform="translate(-137.01 -72)"/></g><g id="_Group_43" data-name="&lt;Group&gt;"><path class="cls-5" d="M378,132.77a14,14,0,0,1-4.56-1.88,10.72,10.72,0,0,1-2.5-3.26q-4.55-7.87-9.11-15.72c-2.12,1.94-5.6,1.56-7.95-.08s-3.85-4.21-5.26-6.69A83.15,83.15,0,0,1,341.75,91a86.89,86.89,0,0,0,4.67,22.9,178.82,178.82,0,0,1-24.84,7.22,26.39,26.39,0,0,1-5.37-9.46c0,4.11,0,8.22,0,12.33a213.24,213.24,0,0,0-52,23.64c1.31,7.2,2.76,13.29,4.06,20.45l0,.22c-2.42,1.88-5.07,4.19-5.15,7.26a10.67,10.67,0,0,0,.87,3.86l5.16,14.05a206.06,206.06,0,0,0-12-18.91,8.85,8.85,0,0,0-5.26,2.42l-.12-.14a.2.2,0,0,0,0-.18c-5-10.3-8.6-21.42-9.16-32.87s2.06-23.2,8.53-32.65c4-5.89,9.45-10.72,15.13-15a139.59,139.59,0,0,1,41.61-21.75c6-1.93,12.52-3.44,18.45-1.39,4.15,1.43,7.52,4.45,10.46,7.73a16.67,16.67,0,0,1,18.53-2.65c3.45,1.79,6.13,4.75,8.64,7.71a218.22,218.22,0,0,1,28.57,43.09,2.51,2.51,0,0,0-1.47,1.6l-.46.1a142,142,0,0,0,4.87,18.16c-4.51-6.77-9.75-13.4-17.38-15.89Z" transform="translate(-137.01 -72)"/></g><g id="_Group_44" data-name="&lt;Group&gt;"><g id="_Group_45" data-name="&lt;Group&gt;"><path class="cls-9" d="M348.87,164.37c-6.15-3.68-9.12-10.2-9.63-17.22-.42-5.84,1.2-11.82,6.79-14.75,4.49-2.35,11.43-2.71,15.85-.49,7,3.51,10.23,12.42,8.52,19.87-2.53,11-21,17.88-27.4,6.41-.62-1.1-2.73-.67-2.3.72,3.92,12.69,21.38,8.72,28.47,1.09s4.85-22-2.84-28.42c-8.29-7-24.44-4.58-28.66,6-3.86,9.67.28,24.34,10.42,28.28.87.34,1.62-1,.78-1.48Z" transform="translate(-137.01 -72)"/></g></g><g id="_Group_46" data-name="&lt;Group&gt;"><g id="_Group_47" data-name="&lt;Group&gt;"><path class="cls-9" d="M312.93,181.61c-7.67,2.95-16.94,5.07-23.14-1.92-6-6.79-7.38-18.15-.5-24.74,6-5.79,17-7.36,24-2.43,5,3.46,5.71,8.84,5.75,14.39,0,6-1.47,10.55-6.58,13.93-1.5,1-.25,3.41,1.36,2.49,9.53-5.45,11.51-19.81,5.48-28.89-6.26-9.42-21.09-9.3-29.59-3.31C280,158,280,170.55,286.54,179.74s18.29,8.88,26.9,2.81A.53.53,0,0,0,312.93,181.61Z" transform="translate(-137.01 -72)"/></g></g><g id="_Group_48" data-name="&lt;Group&gt;"><g id="_Group_49" data-name="&lt;Group&gt;"><path class="cls-9" d="M319.92,157.71c2.82-7.21,9.78-11.07,16.93-6.71,1.52.93,3.13-1.28,1.61-2.28-7.54-5-19.21-1.11-19.9,8.68a.71.71,0,0,0,1.36.32Z" transform="translate(-137.01 -72)"/></g></g><g id="_Group_50" data-name="&lt;Group&gt;"><g id="_Group_51" data-name="&lt;Group&gt;"><path class="cls-9" d="M368.27,137.43c3.92.19,7.81-1.76,11.5-3,4.31-1.4,8.67-2.61,13-4,1.41-.46,1.08-2.67-.45-2.33-5,1.13-9.93,2.62-14.83,4.1-3.27,1-7,1.77-9.63,4a.69.69,0,0,0,.42,1.19Z" transform="translate(-137.01 -72)"/></g></g><g id="_Group_52" data-name="&lt;Group&gt;"><g id="_Group_53" data-name="&lt;Group&gt;"><path class="cls-9" d="M252.86,176.21c4.47-1,8.77-2.8,13.08-4.32,5.63-2,11.67-3.3,17.08-5.77a1.44,1.44,0,0,0-.91-2.68c-4.85,1.11-9.47,3.35-14.14,5.07-5.24,1.92-10.74,3.61-15.61,6.35a.73.73,0,0,0,.49,1.35Z" transform="translate(-137.01 -72)"/></g></g><g id="_Group_54" data-name="&lt;Group&gt;" class="cls-10"><g id="_Group_55" data-name="&lt;Group&gt;"><path class="cls-11" d="M327.23,157.9a10.11,10.11,0,0,1,1.44,5.11,16.21,16.21,0,0,1-.81,5.26c0,.13-.85.13-.89,0a40.83,40.83,0,0,1-1.11-5.06,13.12,13.12,0,0,1,.21-5.13A1.71,1.71,0,0,1,327.23,157.9Z" transform="translate(-137.01 -72)"/></g></g><g id="_Group_56" data-name="&lt;Group&gt;"><g id="_Group_57" data-name="&lt;Group&gt;"><path class="cls-7" d="M398.67,149.74a3.07,3.07,0,0,0,.69-.51,4.49,4.49,0,0,0,1.15-1.66,3.23,3.23,0,0,0,.06-2.33,3.91,3.91,0,0,0-.53-1,4,4,0,0,0-.84-.8,12.84,12.84,0,0,1-1.49-1.46,5,5,0,0,1-1-2.39,4.86,4.86,0,0,1,1.34-4.09,2.85,2.85,0,0,1,2.82-.74,1.48,1.48,0,0,1,.78.67,1.08,1.08,0,0,0-.8.14,2.23,2.23,0,0,0-.93,1.33,3.25,3.25,0,0,0,.74,2.69c.21.25.62.58,1.15,1.06a6.2,6.2,0,0,1,1.38,2.07,5.52,5.52,0,0,1,.38,2.36,5.24,5.24,0,0,1-1.7,3.56,4.63,4.63,0,0,1-2.28,1.1A4.84,4.84,0,0,1,398.67,149.74Z" transform="translate(-137.01 -72)"/></g></g><g id="_Group_58" data-name="&lt;Group&gt;"><g id="_Group_59" data-name="&lt;Group&gt;"><path class="cls-7" d="M264.13,192.19a4.85,4.85,0,0,1-.86.35,4.63,4.63,0,0,1-2.64,0,5.21,5.21,0,0,1-3.08-2.78,5.14,5.14,0,0,1-.38-2.53c.09-.87.31-1.52.36-2a1.31,1.31,0,0,0,0-.8,2,2,0,0,0-.41-.71,1.49,1.49,0,0,0-1.55-.54,3.12,3.12,0,0,0-1.59,1,2,2,0,0,0-.44.78,2.64,2.64,0,0,1-.27-1,3.32,3.32,0,0,1,1.12-2.64,4.09,4.09,0,0,1,2-.93A4,4,0,0,1,259,181a4.48,4.48,0,0,1,1.89,2.11,4.32,4.32,0,0,1,.36,1.54,5.61,5.61,0,0,1-.13,1.4c-.21.79-.45,1.35-.54,1.73a3.41,3.41,0,0,0-.1,1.13,3,3,0,0,0,.93,2.19,3.78,3.78,0,0,0,1.83,1A2.44,2.44,0,0,0,264.13,192.19Z" transform="translate(-137.01 -72)"/></g></g><g id="_Group_60" data-name="&lt;Group&gt;"><g id="_Group_61" data-name="&lt;Group&gt;"><path class="cls-12" d="M355.52,147a15.07,15.07,0,0,1-1.65-3,20.51,20.51,0,0,1-1.07-3.24c0-.09.26-.28.34-.23a7.79,7.79,0,0,1,2.3,2.75,6.53,6.53,0,0,1,.73,3.5C356.15,146.94,355.57,147.09,355.52,147Z" transform="translate(-137.01 -72)"/></g></g><g id="_Group_62" data-name="&lt;Group&gt;"><g id="_Group_63" data-name="&lt;Group&gt;"><path class="cls-12" d="M301.17,168.53a17.64,17.64,0,0,1-1.56-2.76,28.15,28.15,0,0,1-1.09-3c0-.09.29-.32.37-.26a7.64,7.64,0,0,1,2.21,2.56,6.25,6.25,0,0,1,.69,3.31C301.8,168.47,301.22,168.61,301.17,168.53Z" transform="translate(-137.01 -72)"/></g></g><g id="_Group_64" data-name="&lt;Group&gt;"><g id="_Group_65" data-name="&lt;Group&gt;"><path class="cls-12" d="M253.76,112.21a41.87,41.87,0,0,0-3,6,49.72,49.72,0,0,0-2,6.42A57.92,57.92,0,0,0,247.21,138a76.14,76.14,0,0,0,1.22,13.46,114,114,0,0,0,3.21,13.22c.2.67-.18.83-.43.15a100.29,100.29,0,0,1-4-13.13c-.5-2.25-.9-4.51-1.17-6.79a55.43,55.43,0,0,1-.44-6.9,51.53,51.53,0,0,1,1.76-13.7,39.11,39.11,0,0,1,5.89-12.44C253.72,111.26,254.12,111.59,253.76,112.21Z" transform="translate(-137.01 -72)"/></g></g><g id="_Group_66" data-name="&lt;Group&gt;"><g id="_Group_67" data-name="&lt;Group&gt;"><path class="cls-12" d="M252.52,138.21a96.65,96.65,0,0,0,1.19,15.33,84.33,84.33,0,0,0,3.69,14.94c.13.38-.22.53-.39.15a61.57,61.57,0,0,1-4.6-14.88,54.84,54.84,0,0,1-.4-15.57C252.05,137.75,252.51,137.8,252.52,138.21Z" transform="translate(-137.01 -72)"/></g></g><g id="_Group_68" data-name="&lt;Group&gt;"><g id="_Group_69" data-name="&lt;Group&gt;"><path class="cls-12" d="M269.23,143.36a57.87,57.87,0,0,1-.48-11.6,65.75,65.75,0,0,1,1.67-11.53,66.77,66.77,0,0,1,3.66-11.05A63.61,63.61,0,0,1,279.61,99c.32-.5.67-.32.37.22a80.06,80.06,0,0,0-8.21,21.35,83.82,83.82,0,0,0-1.78,11.3,97.73,97.73,0,0,0-.28,11.46C269.72,144,269.31,144,269.23,143.36Z" transform="translate(-137.01 -72)"/></g></g><g id="_Group_70" data-name="&lt;Group&gt;"><g id="_Group_71" data-name="&lt;Group&gt;"><path class="cls-12" d="M280.07,138.19a26,26,0,0,1-2.14-7.21,30,30,0,0,1-.13-7.57,30.35,30.35,0,0,1,5.21-14c.21-.32.54-.14.36.21a32.91,32.91,0,0,0-2.79,6.79,37.45,37.45,0,0,0-1.35,7.16,39.4,39.4,0,0,0,0,7.27,44.64,44.64,0,0,0,1.29,7.2C280.62,138.43,280.24,138.55,280.07,138.19Z" transform="translate(-137.01 -72)"/></g></g><g id="_Group_72" data-name="&lt;Group&gt;"><g id="_Group_73" data-name="&lt;Group&gt;"><path class="cls-12" d="M304.3,95.45a52.13,52.13,0,0,0-2.29,14.4,50.55,50.55,0,0,0,.41,7.29,46.84,46.84,0,0,0,1.47,7.19c.1.37-.24.49-.38.12a38.34,38.34,0,0,1-2.76-14.62,36.64,36.64,0,0,1,3.08-14.56C304,94.89,304.41,95.08,304.3,95.45Z" transform="translate(-137.01 -72)"/></g></g><g id="_Group_74" data-name="&lt;Group&gt;"><g id="_Group_75" data-name="&lt;Group&gt;"><path class="cls-12" d="M320.43,91.79a94.81,94.81,0,0,0-.1,14.09,85.2,85.2,0,0,0,2.12,13.95c.08.36-.25.47-.37.11a54.81,54.81,0,0,1-3-14,50.07,50.07,0,0,1,.85-14.26A.27.27,0,1,1,320.43,91.79Z" transform="translate(-137.01 -72)"/></g></g><g id="_Group_76" data-name="&lt;Group&gt;"><g id="_Group_77" data-name="&lt;Group&gt;"><path class="cls-12" d="M341.94,110.86q-1.37-5.47-3.25-10.73-.94-2.63-2-5.21c-.73-1.72-1.55-3.4-2.32-5.12l.37-.2a6.08,6.08,0,0,0,.28.78l.33.75c.13.28,0,.36-.16.08l-.38-.72a6,6,0,0,0-.45-.69l.38-.2a35.49,35.49,0,0,1,2.91,4.89,49.71,49.71,0,0,1,2.29,5.22,43.55,43.55,0,0,1,2.55,11.08A.26.26,0,0,1,341.94,110.86Z" transform="translate(-137.01 -72)"/></g></g><g id="_Group_78" data-name="&lt;Group&gt;"><g id="_Group_79" data-name="&lt;Group&gt;"><path class="cls-12" d="M362.79,109a72.26,72.26,0,0,0-6.48-12.29,63.87,63.87,0,0,0-8.83-10.74c-.26-.26,0-.53.27-.3A46.78,46.78,0,0,1,357.37,96a42.1,42.1,0,0,1,5.87,12.85C363.36,109.18,362.93,109.29,362.79,109Z" transform="translate(-137.01 -72)"/></g></g><g id="_Group_80" data-name="&lt;Group&gt;"><g id="_Group_81" data-name="&lt;Group&gt;"><path class="cls-12" d="M364.91,92a35.33,35.33,0,0,1-3.83-4,44.78,44.78,0,0,1-3.22-4.53c-.07-.12.18-.34.29-.24a51.73,51.73,0,0,1,3.85,4,34.27,34.27,0,0,1,3.27,4.49C365.36,91.84,365,92.1,364.91,92Z" transform="translate(-137.01 -72)"/></g></g><g id="_Group_82" data-name="&lt;Group&gt;" class="cls-10"><g id="_Group_83" data-name="&lt;Group&gt;"><path class="cls-9" d="M348.07,310.8l4.61-.63,2.31-.31c.76-.08,1.41-.39,1.36-1.11-.46-3-1.15-6.07-1.71-9.1l-1.77-9.15-.88-4.57a4.66,4.66,0,0,1,0-2.5,2.9,2.9,0,0,1,2-1.64c3.11-.71,6.12-1.2,9.19-1.8l4.59-.86a4,4,0,0,1,2.52.24,4.25,4.25,0,0,1,1.66,1.9l7.79,17-.6-.27,15.74-4.84-.27.73-8.61-14-8.42-14.16q-8.33-14.21-16.2-28.68l.57.2a142.41,142.41,0,0,1-22.82,7.55l.26-.37q3,32.48,7.45,64.75c.42,3.14.25,3.26-.22,0q-4.69-32.27-7.9-64.72l0-.29.29-.07a143.44,143.44,0,0,0,22.63-7.71l.37-.16.2.36Q370,251,378.36,265.21q4.15,7.11,8.42,14.14c2.85,4.68,5.71,9.36,8.65,14l.35.55-.63.19-15.74,4.84L379,299l-.18-.41-7.6-17a3.48,3.48,0,0,0-1.32-1.57,3.17,3.17,0,0,0-2-.16l-4.57.86c-3,.6-6.16,1.11-9.1,1.76a2.13,2.13,0,0,0-1.5,1.18,4,4,0,0,0,0,2.09l.85,4.58,1.69,9.16c.54,3.08,1.18,6,1.64,9.22a1.44,1.44,0,0,1-.6,1.23,2.82,2.82,0,0,1-1.22.39l-2.31.3-4.62.6C344.72,311.71,344.85,311.23,348.07,310.8Z" transform="translate(-137.01 -72)"/></g></g><g id="_Group_84" data-name="&lt;Group&gt;" class="cls-10"><g id="_Group_85" data-name="&lt;Group&gt;"><path class="cls-9" d="M353.54,271.86q4-1.48,8.09-2.82l-.21.55c-1.27-2.2-2.65-4.35-4.05-6.46s-2.88-4.2-4.4-6.24l.72-.24q-.16,7.79-.48,15.56c0,.51-.27.52-.28,0q-.08-7.79,0-15.57v-1.16l.71.92q2.34,3,4.46,6.26c.71,1.07,1.39,2.15,2.06,3.24l2,3.3.25.42-.47.15q-4.07,1.34-8.19,2.52C353.15,272.44,353.06,272.05,353.54,271.86Z" transform="translate(-137.01 -72)"/></g></g></g></g></g></g></g></svg>