<svg id="Layer_1" data-name="Layer 1" xmlns="http://www.w3.org/2000/svg" viewBox="0 0 304.68 468.2"><defs><style>.cls-1{fill:#384753;}.cls-2{fill:#f6e8da;}.cls-3{fill:#fc4;}.cls-4{fill:#ff9f65;}.cls-5{fill:#00aa9f;}.cls-6{fill:#ff593f;}.cls-7{fill:#727d85;}</style></defs><title>robot</title><rect class="cls-1" x="148.27" y="15.59" width="9.2" height="52.7"/><path class="cls-2" d="M415.9,131.88a19.3,19.3,0,0,1-19.3,19.31H369.5a19.3,19.3,0,0,1-19.3-19.31h0a19.3,19.3,0,0,1,19.3-19.3h27.1a19.3,19.3,0,0,1,19.3,19.3Z" transform="translate(-230.18 -59)"/><circle class="cls-3" cx="152.87" cy="9.77" r="9.77"/><path class="cls-3" d="M516.16,449.25V404.56h-9.62v44.69a23.52,23.52,0,0,0-13.38,37.91l6.61-5.42a14.8,14.8,0,0,1-3.39-9.48A15,15,0,1,1,522.71,482l6.49,5.56a23.51,23.51,0,0,0-13-38.31Z" transform="translate(-230.18 -59)"/><path class="cls-2" d="M497.74,417.67H525c0-52.54-11.06-87.27-32.88-103.25-18.45-13.51-36.84-8.25-38.88-7.6l8.24,26-.29.09c.78-.21,7.85-1.86,15.26,3.86C484.42,342.89,497.74,361.53,497.74,417.67Z" transform="translate(-230.18 -59)"/><path class="cls-4" d="M461.22,332.92a14.09,14.09,0,0,1,3-.34l-.64-27.27a38.38,38.38,0,0,0-10.26,1.52l8.23,26Z" transform="translate(-230.18 -59)"/><path class="cls-5" d="M496.17,387.24l27.1-3.09c.48,4.26.88,8.76,1.16,13.36l-27.23,1.67C497,395.05,496.6,391,496.17,387.24Zm-4.25-22.85,26.29-7.27c1.17,4.25,2.21,8.81,3.08,13.56l-26.84,4.9C493.74,371.63,492.89,367.86,491.93,364.39Zm-8.23-19.5,22.9-14.82a84.37,84.37,0,0,1,7,13.43L488.39,354A57.24,57.24,0,0,0,483.7,344.89Zm-12.36-11.06,9.89-25.43a48.81,48.81,0,0,1,14.87,9.22L477.91,338A21.7,21.7,0,0,0,471.34,333.84Z" transform="translate(-230.18 -59)"/><path class="cls-5" d="M497.74,417.67H525q0-3.48-.07-6.81l-27.28.51Q497.74,414.45,497.74,417.67Z" transform="translate(-230.18 -59)"/><rect class="cls-1" x="261.72" y="355.66" width="38.91" height="18.33"/><path class="cls-3" d="M248.88,449.25V404.56h9.62v44.69a23.52,23.52,0,0,1,13.38,37.91l-6.61-5.42a14.79,14.79,0,0,0,3.39-9.48A15,15,0,1,0,242.33,482l-6.49,5.56a23.51,23.51,0,0,1,13-38.31Z" transform="translate(-230.18 -59)"/><path class="cls-2" d="M267.3,417.67H240c0-52.54,11.06-87.27,32.88-103.25,18.45-13.51,36.84-8.25,38.88-7.6l-8.24,26,.29.09c-.78-.21-7.85-1.86-15.26,3.86C280.62,342.89,267.3,361.53,267.3,417.67Z" transform="translate(-230.18 -59)"/><path class="cls-4" d="M303.83,332.92a14.09,14.09,0,0,0-3-.34l.64-27.27a38.39,38.39,0,0,1,10.26,1.52l-8.23,26Z" transform="translate(-230.18 -59)"/><path class="cls-5" d="M267.84,399.18l-27.23-1.67c.28-4.61.67-9.1,1.16-13.36l27.1,3.09C268.44,391,268.09,395.05,267.84,399.18Zm2.74-23.6-26.84-4.9c.87-4.76,1.91-9.32,3.08-13.56l26.3,7.27C272.15,367.86,271.3,371.63,270.58,375.59ZM276.65,354l-25.19-10.47a84.53,84.53,0,0,1,7-13.43l22.91,14.82A57,57,0,0,0,276.65,354Zm10.48-16-18.19-20.33a48.86,48.86,0,0,1,14.87-9.22l9.89,25.43A21.69,21.69,0,0,0,287.13,338Z" transform="translate(-230.18 -59)"/><path class="cls-5" d="M267.3,417.67H240q0-3.48.06-6.81l27.28.51Q267.3,414.45,267.3,417.67Z" transform="translate(-230.18 -59)"/><rect class="cls-1" x="4.05" y="355.66" width="38.91" height="18.33"/><path class="cls-6" d="M389.51,459.57V437.49h-8.85v22.05a36.86,36.86,0,0,0-32.48,36.54,3.08,3.08,0,0,0,3.08,3.08h11.42a3.08,3.08,0,0,0,0-6.16h-5.88a28.38,28.38,0,0,1,56.42,0h-5.89a3.08,3.08,0,1,0,0,6.16h11.42a3.08,3.08,0,0,0,3.08-3.08A36.86,36.86,0,0,0,389.51,459.57Z" transform="translate(-230.18 -59)"/><path class="cls-1" d="M404.6,441.41a9.47,9.47,0,0,1-9.47,9.47H375a9.47,9.47,0,0,1-9.47-9.47v-2.8a9.48,9.48,0,0,1,9.47-9.47h20.09a9.47,9.47,0,0,1,9.47,9.47Z" transform="translate(-230.18 -59)"/><path class="cls-5" d="M134.76,337.42H175a19,19,0,0,1,19,19V362a19,19,0,0,1-19,19H134.76a19,19,0,0,1-19-19V356.4A19,19,0,0,1,134.76,337.42Z"/><path class="cls-7" d="M153.46,415.47h2.89a19,19,0,0,1,19,19v14.77a19,19,0,0,1-19,19h-2.88a19,19,0,0,1-19-19V434.45A19,19,0,0,1,153.46,415.47Z"/><rect class="cls-6" x="67.89" y="195.44" width="174.03" height="165.99" rx="29.45" ry="29.45"/><path class="cls-6" d="M385.09,134a87,87,0,0,0-87,87v44.18h174V221A87,87,0,0,0,385.09,134Z" transform="translate(-230.18 -59)"/><path class="cls-3" d="M492.85,287.23a22.09,22.09,0,0,1-22.09,22.09H299.41a22.09,22.09,0,0,1-22.09-22.09h0a22.09,22.09,0,0,1,22.09-22.09H470.76a22.09,22.09,0,0,1,22.09,22.09Z" transform="translate(-230.18 -59)"/><path class="cls-1" d="M444.44,240.82a13.61,13.61,0,0,1-13.61,13.61H339.35a13.61,13.61,0,0,1-13.61-13.61h0a13.61,13.61,0,0,1,13.61-13.61h91.47a13.61,13.61,0,0,1,13.61,13.61Z" transform="translate(-230.18 -59)"/><path class="cls-2" d="M402.1,236.53h-51v2.71a8.5,8.5,0,0,0,17,0,8.5,8.5,0,0,0,17,0,8.51,8.51,0,0,0,17,0,8.5,8.5,0,0,0,17,0v-2.71Z" transform="translate(-230.18 -59)"/><path class="cls-5" d="M426.14,337.44a13.6,13.6,0,0,1-13.6,13.6H357.63a13.6,13.6,0,0,1-13.6-13.6h0a13.6,13.6,0,0,1,13.6-13.6h54.91a13.59,13.59,0,0,1,13.6,13.6Z" transform="translate(-230.18 -59)"/><circle class="cls-1" cx="130.15" cy="278.44" r="7.09"/><circle class="cls-1" cx="179.66" cy="278.44" r="7.09"/><circle class="cls-2" cx="183.04" cy="278.44" r="3.38"/><circle class="cls-2" cx="128.01" cy="275.9" r="3.38"/><rect class="cls-2" x="169.02" y="312.54" width="40.79" height="3.14"/><rect class="cls-2" x="169.02" y="320.39" width="40.79" height="3.14"/><rect class="cls-2" x="169.02" y="328.23" width="40.79" height="3.14"/><rect class="cls-2" x="169.02" y="336.07" width="40.79" height="3.14"/><circle class="cls-3" cx="101.3" cy="305.92" r="5.7"/><circle class="cls-3" cx="101.3" cy="320.39" r="5.7"/><circle class="cls-3" cx="101.3" cy="334.85" r="5.7"/><rect class="cls-3" x="342.69" y="183.17" width="21.64" height="21.64" transform="translate(-263.82 247.76) rotate(-45)"/><polygon class="cls-2" points="123.33 134.99 123.33 119.69 108.03 134.99 123.33 150.29 123.33 134.99"/><rect class="cls-3" x="401.78" y="183.17" width="21.64" height="21.64" transform="translate(-246.52 289.53) rotate(-45)"/><polygon class="cls-2" points="182.42 134.99 182.42 119.69 167.12 134.99 182.42 150.29 182.42 134.99"/></svg>