<svg id="Layer_1" data-name="Layer 1" xmlns="http://www.w3.org/2000/svg" viewBox="0 0 441.41 525.89"><defs><style>.cls-1{fill:#a5a5a5;}.cls-10,.cls-2{fill:#fff;}.cls-2{opacity:0.3;}.cls-3{fill:#ccc;}.cls-4{fill:#223666;}.cls-5{fill:#e2e2e2;}.cls-6{fill:#d3d3d3;}.cls-7{fill:#12b8c9;}.cls-19,.cls-8{opacity:0.1;}.cls-9{opacity:0.5;}.cls-11{fill:#ffb945;}.cls-12{fill:#ceff06;}.cls-13{fill:#1db0ff;}.cls-14{fill:#046e8e;}.cls-15{fill:#ff4c5e;}.cls-16{fill:#003784;}.cls-17{fill:#ffce69;}.cls-18{fill:#25c1bc;}.cls-19{fill:#231f20;}.cls-20{fill:#44baca;}.cls-21{fill:#fdb940;}.cls-22{fill:#42536c;}.cls-23{fill:#f47f74;}.cls-24{fill:#bcbcbc;}.cls-25{opacity:0.6;}.cls-26{fill:#ff3e03;}</style></defs><title>web design</title><g id="Computer"><path class="cls-1" d="M428.51,536.86c-18.94-16.73-10.33-55.77-10.33-55.77H361.72s8.61,39-10.33,55.77a67.94,67.94,0,0,1-41.08,16.73V563H469.59v-9.42A67.94,67.94,0,0,1,428.51,536.86Z" transform="translate(-179.44 -37.11)"/><rect class="cls-2" x="130.87" y="516.47" width="159.27" height="9.42"/><path class="cls-3" d="M600.46,482.57c0,15.46-11.24,28-25.09,28H204.53c-13.86,0-25.09-12.54-25.09-28V254c0-15.46,11.23-28,25.09-28H575.37c13.85,0,25.09,12.54,25.09,28Z" transform="translate(-179.44 -37.11)"/><path class="cls-4" d="M600.46,481.09V254c0-15.46-11.24-28-25.09-28H204.53c-13.86,0-25.09,12.54-25.09,28V481.09Z" transform="translate(-179.44 -37.11)"/><rect class="cls-5" x="18.12" y="205.59" width="384.77" height="217.83"/></g><g id="Site"><path class="cls-6" d="M356.06,101.33c.17-1.83.27-3.68.27-5.56a58.65,58.65,0,1,0-117.31,0c0,1.88.1,3.73.27,5.56H239V459.67H547.42V101.33Z" transform="translate(-179.44 -37.11)"/><path class="cls-4" d="M620.72,95.77c0-32.39-26.26-57.8-58.65-57.8H298.34A58.66,58.66,0,0,1,357,96.62c0,1.87-.1,3.73-.27,5.57h264A47.15,47.15,0,0,0,620.72,95.77Z" transform="translate(-179.44 -37.11)"/><rect class="cls-7" x="60.25" y="95.05" width="308.39" height="93.82"/><rect class="cls-8" x="70.95" y="95.05" width="286.98" height="93.82"/><g class="cls-9"><path class="cls-10" d="M252.75,173.81l9.53-9.53V167l-8,7.81v.08l8,7.81v2.75L252.75,176Z" transform="translate(-179.44 -37.11)"/></g><g class="cls-9"><path class="cls-10" d="M534.37,176l-9.53,9.53v-2.75l8-7.81v-.08l-8-7.81v-2.75l9.53,9.53Z" transform="translate(-179.44 -37.11)"/></g><rect class="cls-11" x="82.83" y="214.35" width="66.18" height="51.95"/><rect class="cls-12" x="180.45" y="214.35" width="66.18" height="51.95"/><rect class="cls-13" x="279.22" y="214.35" width="66.18" height="51.95"/><rect class="cls-14" x="82.83" y="282.56" width="262.57" height="4.28"/><rect class="cls-14" x="83.16" y="292.26" width="262.57" height="4.28"/><rect class="cls-14" x="83.9" y="302.44" width="262.57" height="4.28"/><rect class="cls-14" x="84.23" y="312.14" width="262.57" height="4.28"/><circle class="cls-15" cx="115.92" cy="359.58" r="27.11"/><circle class="cls-16" cx="214.44" cy="359.58" r="27.11"/><circle class="cls-17" cx="312.32" cy="359.58" r="27.11"/><g id="Globe"><circle class="cls-18" cx="116.76" cy="358.27" r="22.6"/><path class="cls-5" d="M309.22,406.83c-.15,0-.31-.26-.5-.44s-1.18,0-1.42,0a1,1,0,0,1-.58-.24c-.22-.13-.46,0-.63.07s-.25-.12-.14-.3-.35-.14-.69-.08-.21.24-.49.14.32-.41.52-.64a.52.52,0,0,0-.15-.68c-.12,0-.33-.39-.68-.65s-.6-.07-1-.07a.91.91,0,0,1-.7-.32c-.19-.14-.13-.43-.9-.83s-.44-.18-.39-.26.12-.07-.14-.19-.49.14-.75.25a1.34,1.34,0,0,1-.71,0c-.11,0-.25-.3-.38-.36a.86.86,0,0,1-.33-.31.2.2,0,0,0-.35.17c0,.25-.13.39-.4.49s-.15-.29-.15-.41.24-.25.26-.44-.24.18-.48.45-.42,0-.9.07-.25.55-.25.82-.4.37-.47.3-.07-.22-.21-.22-.18-.23-.22-.31a.51.51,0,0,0-.71.18c-.18.34-.37.07-.59,0s-.65-.93-.55-1.08.1-.21,0-.32-.06-.18,0-.35.31-.31-.15-.61-1.17,0-1.55-.08-.07-.31,0-.39a1.9,1.9,0,0,0,.31-.57c.08-.23-.07-.25.07-.55s.09-.51-.21-.53-.59.2-.61.65-.46.42-1.47.35-.91-.88-1-1.53a4.44,4.44,0,0,1,.23-1.53c0-.32.42-.68.8-1a1.43,1.43,0,0,1,.92-.21,6.32,6.32,0,0,0,1,.14c.23,0,0-.19.05-.42s1.12-.07,1.32-.07.15.15.36.36.17-.21.38-.17,0,.17.34.67a2.43,2.43,0,0,1,.34,1.09c.1.42.31.21.44-.13a7.57,7.57,0,0,0-.23-2c-.07-.57.44-.36.93-.89s1-.57,1.24-.95,0-1,.12-.67.15-.13.17-.49.21-.52.31-.31.21.06.28-.3a2.43,2.43,0,0,1,.55-.92c.15-.18.45,0,.88,0s0-.07-.11-.5a.43.43,0,0,1,.43-.56,4.65,4.65,0,0,0,1-.46c.15-.1.35-.09.62.12s-.25,0-.42.34.25.33.43.07.58-.14.92-.49-.39-.22-.55-.27-.26-.45-.25-.57a.9.9,0,0,0-.27-.6c-.17-.14-.61,0-1,.17s-.5.3-.47.12.67-.62.84-.65a1.94,1.94,0,0,0,.88-.48c.23-.25.88,0,1.19.07s.73.2.89,0,.28-.21.6-.26.37-.5.16-.7-.53-.93-1-1.16-.27-.38-.13-.56-.45-.64-.64-1.12,0-.59-.21-.61-.08.34-.19.66-.59.15-.66.13a.81.81,0,0,1-.32-.65c0-.3.09-.57,0-.67s-.31,0-.42-.13a7.21,7.21,0,0,0-.44-.61c-.17-.15-.55-.06-.82-.12s-.52,0-.45.21a2.66,2.66,0,0,1-.08,1c-.1.61-.29.29-.44.44s.09.19.23.63a.91.91,0,0,1-.31.9,3.07,3.07,0,0,1-.86.32c-.29.1,0,.46.06.77a1,1,0,0,1-.4.8c-.15.05-.65-.57-.69-.94s.3-.76.15-.88a3.94,3.94,0,0,1-1.29-.57c-.55-.46-1.22-.71-1.45-1.26s.23-1,.42-1.45.57-.34,1.18-.57.23-.44.38-.44a1.4,1.4,0,0,0,.76-.23,2.08,2.08,0,0,1,.63-.44c.25-.13.31-.4.4-.55s.36.21.67.17.28.05.7-.13.06-.31,0-.52.27-.15.17-.38a.88.88,0,0,0-.79-.41c-.28,0,.09.3-.2.57s-.23.44-.33.48-.51-.1-.51-.23.19-.25.27-.3-.06-.35-.1-.44-.21.12-.25.3-.25.21-.19,0-.15-.38-.31-.59.15-.19.32-.45.11-.39-.12-.52-.49.08-.76.36-.17.26-.08.63,0,0,.06.34-.44.3-.44.3a1.66,1.66,0,0,1-.34-.05c-.1,0,0-.17-.21-.25s-.3.26-.3.26l-.8,0a1,1,0,0,1-.61-.21.87.87,0,0,0-.59-.29c-.25,0-.34.21-.34.46s-.42.26-.4.15a2.74,2.74,0,0,0-.06-.52l-.23.13-.84-.06c-.21,0-.14-.29-.14-.29l.42,0L292,377a.74.74,0,0,0-.23-.15l-.61-.13-.15-.21h-.32c-.1,0-.25.19-.32.19s-.08-.21-.08-.21l0-.17-.19.09c-.19.09-.26,0-.26,0l.08-.19,0-.21s-.12-.13-.12,0a.4.4,0,0,1-.36.29c-.17,0-.28.15-.53.09a1.45,1.45,0,0,0-1,.34c-.27.23-.44.31-.38,0s-.74-.23-.88-.29a4.42,4.42,0,0,0-.8-.13.46.46,0,0,1-.4-.3l-.13-.47a22.44,22.44,0,0,0-4.58,3.3,4.54,4.54,0,0,0,.42.69.25.25,0,0,0,.27,0,15.87,15.87,0,0,0-1.39,1.12c-.86.76-.57.84-.57,1.12s.17.18.17.18l-.86.88c-.19.19-.53.46-.53.46l-.34.42.15.06,2.07-1.74s.13,0,.15-.1a.89.89,0,0,1,.17-.33,2.12,2.12,0,0,0,.23-.31,1.16,1.16,0,0,0,.28-.2c.16-.14.31-.36.44-.37s0,.18-.23.37a3.27,3.27,0,0,0-.5.58s.76-.4,1-.57.17-.42.27-.44.33.2.4.41.16,0,.54,0,.13.34.27.55.14.25.52.17-.14.81-.14.81l0,.29a1.61,1.61,0,0,1,.14.23s-.17.55-.17.55h.28a1.19,1.19,0,0,1-.26.23c-.14.09,0,.31.17.43s0,0-.2.46,0,.31.23.63a7.55,7.55,0,0,0,.55.66c.17.2,0,.66-.17.68s-.54-.25-.54-.25c0,4.28-.26,1.43-.4,1.8s-.34.57-.34.79a1.41,1.41,0,0,1-.23.89c-.23.31,0,1,0,1.11s.21.46.21.46v1.17c0,.39.68.57.92.9a2.27,2.27,0,0,1,.19,1.06,1.25,1.25,0,0,0,.29.49c.14.12.15.33.25.52s-.16.12-.19.37.24.26.38.31a.3.3,0,0,1,.21.41c-.08.26,0,.17.1.32s.08.06.15.34.27.17.27.17v.17s.17.09.17.09l.12-.17s-.09,0-.09-.07,0-.17,0-.17l-.26-.1a1.33,1.33,0,0,1,0-.2v-.25s-.1-.07-.1-.07,0-.26,0-.41-.25-.29-.26-.36a1.06,1.06,0,0,0-.12-.43,1.39,1.39,0,0,1-.31-.77c0-.32-.08-.53,0-.53s.33.31.39.38a2.55,2.55,0,0,0,.25.79,8.73,8.73,0,0,1,.8,1.13c-.06.06-.21,0-.13.25a.58.58,0,0,0,.45.31c.16,0,.41.91.59,1.2s0,.29-.09.47,0,.29.3.41.23.44.56.54,1,.52,1.14.56.15.19.38.21a.62.62,0,0,1,.38.17c.11.08.51-.08.59-.14s.15,0,.36,0a4.88,4.88,0,0,1,1,.88c.19.19.34-.07.5,0a1.64,1.64,0,0,0,.55.23c.11,0,.11-.12.19-.12s0,.15.31.51.23.44.23.5.14.34.33.3a.52.52,0,0,1,.38.17v.31s.64,0,.78.08.15.32.21.36.28-.23.25-.38.25-.23.36-.34.27.13.36.25a1.2,1.2,0,0,1,.3.63c0,.23,0,.57,0,.93s-.29.53-.5.78-.4.36-.5.47a1.11,1.11,0,0,0-.13.69c0,.21.3,0,.3.26s-.25.12-.53.34,0,.25.14.44-.14,0-.14.26.34.19.67.29.67.93.86,1.37.38.82.57.89.21.25.61.34.71.41.94.41.22.39.15.54,0,.2,0,.77a8.48,8.48,0,0,1-.19,2c-.06.14,0,.12.06.22s-.17.57-.18.71-.28.23-.33.36.13.13.17.25-.08.44,0,.55.22.08.25.26a.3.3,0,0,1-.3.35c-.19,0-.19.2-.1.13a.2.2,0,0,1,.2,0l.15.27c.47,0,.93-.12,1.39-.19.09-.12.18-.2.25-.21.23,0,.12-.27,0-.74s.32-.08.61-.19.19-.5.59-.55a1.7,1.7,0,0,0,1-.68c.17-.26-.08-.4.55-.32s1.2-.72,1.7-1.31.05-.78.93-1.33a7.66,7.66,0,0,0,2.38-2.52c.09-.47-.16-.49.34-.82a4,4,0,0,0,1.18-1.5C309.5,407.23,309.36,406.83,309.22,406.83Z" transform="translate(-179.44 -37.11)"/><path class="cls-5" d="M304.39,375.5c-.72,0-.88.72-.23.84s2,.12,2.21,1.07-.69,1.22,0,1.68-.15.95-.15,1.6a1.88,1.88,0,0,0,.76,1.52c.46.34.92.8,1,1.07s.49.19.49.19a1.08,1.08,0,0,1,0-.38c0-.23.42-.5.42-1.14s.34-.61.61-.57.8,0,1,0,1.07,0,1.14-.42-.61-1.14-.61-1.14a2.82,2.82,0,0,0,.38-.93,1.75,1.75,0,0,0-.11-.38,22.67,22.67,0,0,0-6.24-3.94C305,374.91,304.9,375.5,304.39,375.5Z" transform="translate(-179.44 -37.11)"/><path class="cls-5" d="M317.92,394.11c-1.31-1.09-2.17-1.09-2.29-.8s.92,1.31,0,2.57-1.6,1.77-1.25,2.8-1.44,1.95-.09,2.86,1.06.92,2,.86.83,1.46.76,1.66a22.53,22.53,0,0,0,1.73-8.67c0-.09,0-.19,0-.28A3.76,3.76,0,0,0,317.92,394.11Z" transform="translate(-179.44 -37.11)"/><path class="cls-19" d="M298.29,417.88a22.6,22.6,0,0,0,1.83-44.76C313.23,378.4,319.74,410.4,298.29,417.88Z" transform="translate(-179.44 -37.11)"/></g><g id="Data"><path class="cls-20" d="M369.85,205.2l-5-6.48A24.67,24.67,0,0,1,340.7,203l-2.21,7.88a32.86,32.86,0,0,0,31.36-5.67Z" transform="translate(-179.44 -37.11)"/><path class="cls-21" d="M364.87,198.72l5,6.48a32.83,32.83,0,0,0,9.65-37.62l-8,2a24.64,24.64,0,0,1-6.62,29.12Z" transform="translate(-179.44 -37.11)"/><path class="cls-22" d="M338,157.81l-3.25-7.5a32.8,32.8,0,0,0,3.7,60.56L340.7,203A24.63,24.63,0,0,1,338,157.81Z" transform="translate(-179.44 -37.11)"/><path class="cls-23" d="M349.08,155.2a24.63,24.63,0,0,1,22.41,14.4l8-2a32.81,32.81,0,0,0-44.71-17.27l3.25,7.5A24.52,24.52,0,0,1,349.08,155.2Z" transform="translate(-179.44 -37.11)"/></g><g id="Data-2" data-name="Data"><path class="cls-20" d="M439.75,202.2l-3.28-4.26a16.24,16.24,0,0,1-15.92,2.81l-1.46,5.19a21.63,21.63,0,0,0,20.66-3.73Z" transform="translate(-179.44 -37.11)"/><path class="cls-21" d="M436.47,197.93l3.28,4.26a21.61,21.61,0,0,0,6.36-24.78l-5.28,1.34a16.22,16.22,0,0,1-4.36,19.18Z" transform="translate(-179.44 -37.11)"/><path class="cls-22" d="M418.79,171,416.65,166a21.6,21.6,0,0,0,2.44,39.88l1.46-5.19A16.23,16.23,0,0,1,418.79,171Z" transform="translate(-179.44 -37.11)"/><path class="cls-23" d="M426.07,169.27a16.22,16.22,0,0,1,14.76,9.49l5.28-1.34A21.61,21.61,0,0,0,416.65,166l2.14,4.94A16.23,16.23,0,0,1,426.07,169.27Z" transform="translate(-179.44 -37.11)"/></g><g id="Data-3" data-name="Data"><path class="cls-20" d="M488,199.3l-1.86-2.43a9.23,9.23,0,0,1-9,1.6l-.83,2.94A12.28,12.28,0,0,0,488,199.3Z" transform="translate(-179.44 -37.11)"/><path class="cls-21" d="M486.17,196.88,488,199.3a12.28,12.28,0,0,0,3.61-14.08l-3,.76a9.23,9.23,0,0,1-2.48,10.89Z" transform="translate(-179.44 -37.11)"/><path class="cls-22" d="M476.13,181.57l-1.22-2.81a12.27,12.27,0,0,0,1.39,22.65l.83-2.94a9.22,9.22,0,0,1-1-16.9Z" transform="translate(-179.44 -37.11)"/><path class="cls-23" d="M480.26,180.6a9.22,9.22,0,0,1,8.38,5.39l3-.76a12.28,12.28,0,0,0-16.73-6.46l1.22,2.81A9.17,9.17,0,0,1,480.26,180.6Z" transform="translate(-179.44 -37.11)"/></g><g id="Key"><path class="cls-24" d="M497.91,383.57h3.35v-5a2.57,2.57,0,0,0-2.57-2.56H484.75a2.57,2.57,0,0,0-2.56,2.56v20.92a2.56,2.56,0,0,0,2.56,2.56h.78V378.66h12.38Z" transform="translate(-179.44 -37.11)"/><path class="cls-4" d="M504.17,414.87a2.56,2.56,0,0,1-2.56,2.56H481.9a2.56,2.56,0,0,1-2.56-2.56v-21.8a2.56,2.56,0,0,1,2.56-2.56h19.71a2.56,2.56,0,0,1,2.56,2.56Z" transform="translate(-179.44 -37.11)"/><path class="cls-25" d="M494,401.42a2.22,2.22,0,1,0-3.27,1.94v5.31h2.11v-5.31A2.2,2.2,0,0,0,494,401.42Z" transform="translate(-179.44 -37.11)"/><path class="cls-9" d="M491.76,399.71a1.75,1.75,0,0,0-.84,3.29v5.26h1.66v-1.06h0V403a1.74,1.74,0,0,0-.83-3.29Z" transform="translate(-179.44 -37.11)"/><path class="cls-8" d="M481.9,417.44h19.71a2.56,2.56,0,0,0,2.56-2.56v-21.8a2.55,2.55,0,0,0-1.29-2.23L481,417.25A2.54,2.54,0,0,0,481.9,417.44Z" transform="translate(-179.44 -37.11)"/></g><g id="Command"><path class="cls-26" d="M397.95,382.06c11,0,20,6.84,20,15.29,0,5.89-4.36,11-10.73,13.55a11.36,11.36,0,0,0,4.49,5.07s-4.44-1.86-6.77-4.29a25.4,25.4,0,0,1-7,1c-11,0-20-6.84-20-15.28S386.91,382.06,397.95,382.06Z" transform="translate(-179.44 -37.11)"/><path class="cls-8" d="M408.28,397.35a1.69,1.69,0,1,0,1.69-1.7A1.7,1.7,0,0,0,408.28,397.35Z" transform="translate(-179.44 -37.11)"/><circle class="cls-8" cx="224.07" cy="360.24" r="1.69"/><circle class="cls-8" cx="218.05" cy="360.24" r="1.69"/><circle class="cls-8" cx="212.08" cy="360.24" r="1.69"/><circle class="cls-8" cx="205.75" cy="360.24" r="1.69"/><path class="cls-8" d="M417.91,397.35c0,5.89-4.36,11-10.73,13.55a11.36,11.36,0,0,0,4.49,5.07s-4.44-1.86-6.77-4.29a25.4,25.4,0,0,1-7,1c-11,0-20-6.84-20-15.28Z" transform="translate(-179.44 -37.11)"/><path class="cls-10" d="M389.83,377.42c-11,0-20,6.85-20,15.29,0,5.89,4.35,11,10.74,13.55a11.4,11.4,0,0,1-4.5,5.07s4.44-1.86,6.77-4.29a25.4,25.4,0,0,0,7,1c11,0,20-6.84,20-15.28S400.86,377.42,389.83,377.42Z" transform="translate(-179.44 -37.11)"/><circle class="cls-8" cx="198.36" cy="355.6" r="1.69"/><circle class="cls-8" cx="204.82" cy="355.6" r="1.7"/><circle class="cls-8" cx="210.83" cy="355.6" r="1.7"/><circle class="cls-8" cx="216.81" cy="355.6" r="1.69"/><path class="cls-8" d="M404.27,392.71a1.69,1.69,0,1,1-1.7-1.69A1.69,1.69,0,0,1,404.27,392.71Z" transform="translate(-179.44 -37.11)"/><path class="cls-8" d="M369.86,392.71c0,5.89,4.35,11,10.74,13.55a11.4,11.4,0,0,1-4.5,5.07s4.44-1.86,6.77-4.29a25.4,25.4,0,0,0,7,1c11,0,20-6.84,20-15.28Z" transform="translate(-179.44 -37.11)"/></g></g></svg>